M48
;Layer_Color=9474304
;FILE_FORMAT=4:4
METRIC,LZ
;TYPE=PLATED
T01F00S00C0.3000
T02F00S00C1.0200
%
T01
X0015113Y0009144
X0019627Y0009779
X002286Y0006985
X0025654Y0006477
X0028067Y0006731
X0026924Y0014224
X003132Y0013081
X0032893Y0012573
X00363502Y00142522
X00371983Y00203557
X00379632Y0021696
X00388169Y00217192
X0039616Y002236
X0025146Y0021717
X0022225Y002159
X0020701
X0022606Y0018923
X0024384
X0007239Y0012573
X000762Y0026289
X0008128Y0027559
X0004953Y0025527
X0015621Y002413
X0022733Y0023945
X0024638Y0023622
X0034671Y0024465
X0032512Y0033909
X0034417Y0037211
X00335569Y0040924
X0033655Y0042291
X0032639
X0030861Y0042545
X0031623Y0046101
X0038175Y00457714
X0041275Y0044577
X0041991Y0046817
X0042672Y0047371
X0043307Y0048006
X0047498Y0043307
X0048006Y0037719
X0037846Y0040767
X0028067Y0036322
X0027305Y0049276
X00254Y0057023
X0025146Y0060452
X0031242Y0057912
X0030971Y0056388
X0033147Y005461
X0035687Y0057208
X0035814Y0058616
X0036322Y0061595
X0038989Y0060325
X0040132Y0057023
X0042672Y0057404
X00149629Y00337659
T02
X0018161Y0003429
X0020701
X0023241
X0025781
X0028321
X0030861
X0004826Y0059817
X0022352Y0041402
Y0038862
Y0036322
X0045974Y0037719
Y0040259
Y0042799
Y0045339
Y0047879
Y0050419
X0004826Y0062357
Y0064897
M30
