G04*
G04 #@! TF.GenerationSoftware,Altium Limited,Altium Designer,24.1.2 (44)*
G04*
G04 Layer_Physical_Order=1*
G04 Layer_Color=255*
%FSLAX44Y44*%
%MOMM*%
G71*
G04*
G04 #@! TF.SameCoordinates,AF74AE57-9A92-41B1-AA8E-73494967368F*
G04*
G04*
G04 #@! TF.FilePolarity,Positive*
G04*
G01*
G75*
%ADD12C,0.2540*%
%ADD13R,1.5000X0.3000*%
%ADD14R,0.3000X1.5000*%
%ADD15R,0.2800X1.5600*%
%ADD16R,1.5600X0.2800*%
G04:AMPARAMS|DCode=17|XSize=1.05mm|YSize=1.38mm|CornerRadius=0.1313mm|HoleSize=0mm|Usage=FLASHONLY|Rotation=0.000|XOffset=0mm|YOffset=0mm|HoleType=Round|Shape=RoundedRectangle|*
%AMROUNDEDRECTD17*
21,1,1.0500,1.1175,0,0,0.0*
21,1,0.7875,1.3800,0,0,0.0*
1,1,0.2625,0.3938,-0.5587*
1,1,0.2625,-0.3938,-0.5587*
1,1,0.2625,-0.3938,0.5587*
1,1,0.2625,0.3938,0.5587*
%
%ADD17ROUNDEDRECTD17*%
%ADD18R,1.0000X1.1000*%
%ADD19R,1.1000X1.0000*%
%ADD20R,0.5500X1.1450*%
%ADD21R,1.1450X0.5500*%
%ADD22R,1.7300X0.9700*%
%ADD23R,1.2000X1.4000*%
%ADD24R,1.3000X1.9000*%
%ADD25R,0.6604X0.9398*%
%ADD26R,3.6000X2.0000*%
%ADD27R,0.9200X1.3800*%
%ADD28R,1.6000X1.4000*%
G04:AMPARAMS|DCode=29|XSize=1.05mm|YSize=1.38mm|CornerRadius=0.1313mm|HoleSize=0mm|Usage=FLASHONLY|Rotation=270.000|XOffset=0mm|YOffset=0mm|HoleType=Round|Shape=RoundedRectangle|*
%AMROUNDEDRECTD29*
21,1,1.0500,1.1175,0,0,270.0*
21,1,0.7875,1.3800,0,0,270.0*
1,1,0.2625,-0.5587,-0.3938*
1,1,0.2625,-0.5587,0.3938*
1,1,0.2625,0.5587,0.3938*
1,1,0.2625,0.5587,-0.3938*
%
%ADD29ROUNDEDRECTD29*%
%ADD30R,0.9700X1.7300*%
%ADD31R,0.9398X0.6604*%
%ADD32R,0.7600X1.6700*%
%ADD33R,1.4000X1.6000*%
%ADD34R,2.0000X3.6000*%
%ADD35R,5.5000X2.0000*%
%ADD63C,0.5000*%
%ADD64C,0.3000*%
%ADD65C,1.5200*%
%ADD66C,1.5300*%
%ADD67R,1.5300X1.5300*%
%ADD68C,0.6000*%
G36*
X495300Y698500D02*
Y-1270D01*
X1270D01*
X-1270Y1270D01*
Y702310D01*
X491490D01*
X495300Y698500D01*
D02*
G37*
%LPC*%
G36*
X349720Y692440D02*
X328640D01*
Y688039D01*
X265720D01*
Y692440D01*
X244640D01*
Y673360D01*
X265720D01*
Y677761D01*
X328640D01*
Y673360D01*
X349720D01*
Y677761D01*
X358380D01*
Y670350D01*
X380760D01*
Y685130D01*
X365647D01*
X364244Y686534D01*
X362576Y687648D01*
X360610Y688039D01*
X349720D01*
Y692440D01*
D02*
G37*
G36*
X418840Y696430D02*
X410570D01*
Y687160D01*
X418840D01*
Y696430D01*
D02*
G37*
G36*
X408030D02*
X399760D01*
Y687160D01*
X408030D01*
Y696430D01*
D02*
G37*
G36*
X418840Y684620D02*
X410570D01*
Y675350D01*
X418840D01*
Y684620D01*
D02*
G37*
G36*
X408030D02*
X399760D01*
Y675350D01*
X408030D01*
Y684620D01*
D02*
G37*
G36*
X49602Y633760D02*
X49530D01*
Y624840D01*
X58450D01*
Y624912D01*
X57756Y627503D01*
X56414Y629827D01*
X54517Y631724D01*
X52193Y633066D01*
X49602Y633760D01*
D02*
G37*
G36*
X46990D02*
X46918D01*
X44327Y633066D01*
X42003Y631724D01*
X40106Y629827D01*
X38764Y627503D01*
X38070Y624912D01*
Y624840D01*
X46990D01*
Y633760D01*
D02*
G37*
G36*
X58450Y622300D02*
X49530D01*
Y613380D01*
X49602D01*
X52193Y614074D01*
X54517Y615416D01*
X56414Y617313D01*
X57756Y619637D01*
X58450Y622228D01*
Y622300D01*
D02*
G37*
G36*
X46990D02*
X38070D01*
Y622228D01*
X38764Y619637D01*
X40106Y617313D01*
X42003Y615416D01*
X44327Y614074D01*
X46918Y613380D01*
X46990D01*
Y622300D01*
D02*
G37*
G36*
X58450Y659160D02*
X38070D01*
Y638780D01*
X51183D01*
X62406Y627556D01*
X64074Y626442D01*
X66040Y626051D01*
X72840D01*
Y610650D01*
X97920D01*
Y651730D01*
X72840D01*
Y636329D01*
X68169D01*
X58450Y646047D01*
Y659160D01*
D02*
G37*
G36*
X252730Y609990D02*
Y605790D01*
X256930D01*
X256157Y607658D01*
X254598Y609217D01*
X252730Y609990D01*
D02*
G37*
G36*
X237490Y612170D02*
X231220D01*
Y605400D01*
X237490D01*
Y612170D01*
D02*
G37*
G36*
X418840Y612430D02*
X410570D01*
Y603160D01*
X418840D01*
Y612430D01*
D02*
G37*
G36*
X408030D02*
X399760D01*
Y603160D01*
X408030D01*
Y612430D01*
D02*
G37*
G36*
X256930Y603250D02*
X252730D01*
Y599050D01*
X254598Y599823D01*
X256157Y601382D01*
X256930Y603250D01*
D02*
G37*
G36*
X463840Y696430D02*
X444760D01*
Y675350D01*
X449161D01*
Y612430D01*
X444760D01*
Y607029D01*
X431820D01*
X429854Y606638D01*
X428186Y605524D01*
X420013Y597351D01*
X418840Y597837D01*
Y600620D01*
X410570D01*
Y591350D01*
X412353D01*
X412840Y590177D01*
X410593Y587930D01*
X401780D01*
Y587930D01*
X400860D01*
Y587930D01*
X394090D01*
Y580390D01*
X391550D01*
Y587930D01*
X384780D01*
Y583239D01*
X378806D01*
X378320Y584412D01*
X392059Y598152D01*
X393028Y598553D01*
X394587Y600112D01*
X395430Y602148D01*
Y604352D01*
X394587Y606388D01*
X393028Y607947D01*
X391726Y608486D01*
X391408Y609963D01*
X396203Y614759D01*
X397318Y616426D01*
X397709Y618392D01*
Y636368D01*
X397318Y638334D01*
X396203Y640001D01*
X392668Y643537D01*
X391001Y644651D01*
X389034Y645042D01*
X383735D01*
X380760Y648017D01*
Y655530D01*
X365647D01*
X365344Y655834D01*
X363676Y656948D01*
X361710Y657339D01*
X218660D01*
Y664740D01*
X177580D01*
Y639660D01*
X218660D01*
Y647061D01*
X244640D01*
Y628360D01*
X265720D01*
Y632761D01*
X328640D01*
Y628360D01*
X349720D01*
Y632761D01*
X353481D01*
X356690Y629553D01*
Y623476D01*
X356591Y622980D01*
X356690Y622483D01*
Y617940D01*
X357087D01*
X357680Y617052D01*
Y614848D01*
X358523Y612812D01*
X360082Y611253D01*
X362118Y610410D01*
X364322D01*
X366358Y611253D01*
X367917Y612812D01*
X368760Y614848D01*
Y617052D01*
X369767Y617940D01*
X370970D01*
Y636820D01*
X363957D01*
X361201Y639577D01*
X361687Y640750D01*
X373493D01*
X376268Y637975D01*
X375790Y636820D01*
X375790D01*
Y617940D01*
X383191D01*
X383677Y616767D01*
X374349Y607439D01*
X334972D01*
X333006Y607048D01*
X331339Y605934D01*
X312065Y586660D01*
X304380D01*
Y571580D01*
X304763D01*
Y566413D01*
X304170Y564982D01*
Y562778D01*
X305013Y560742D01*
X306572Y559183D01*
X307710Y558712D01*
Y549880D01*
X315791D01*
Y559920D01*
X317709D01*
Y549880D01*
X325756D01*
X326513Y548610D01*
X325930Y547202D01*
Y544998D01*
X326773Y542962D01*
X328332Y541403D01*
X330368Y540560D01*
X332572D01*
X334608Y541403D01*
X336167Y542962D01*
X337010Y544998D01*
Y547202D01*
X336427Y548610D01*
X337184Y549880D01*
X383945D01*
X384431Y548707D01*
X350029Y514305D01*
X302290D01*
Y526380D01*
Y536380D01*
Y544460D01*
X293429D01*
Y553101D01*
X293038Y555067D01*
X291924Y556734D01*
X257894Y590764D01*
X256227Y591878D01*
X254261Y592269D01*
X246300D01*
Y594820D01*
X246300Y595170D01*
Y596090D01*
X246300Y596440D01*
Y600401D01*
X247744D01*
X248322Y599823D01*
X250190Y599050D01*
Y604520D01*
Y609990D01*
X248322Y609217D01*
X247744Y608639D01*
X246300D01*
Y612170D01*
X240030D01*
Y604130D01*
X238760D01*
Y602860D01*
X231220D01*
Y596440D01*
X231220Y596090D01*
Y595170D01*
X231220Y594820D01*
Y589339D01*
X218660D01*
Y596740D01*
X177580D01*
Y591879D01*
X169769D01*
X158519Y603129D01*
Y610650D01*
X165920D01*
Y623194D01*
X166019Y623690D01*
X165920Y624186D01*
Y651730D01*
X140840D01*
Y610650D01*
X148241D01*
Y601000D01*
X148632Y599034D01*
X149746Y597366D01*
X164006Y583106D01*
X165674Y581992D01*
X167640Y581601D01*
X177580D01*
Y571660D01*
X218660D01*
Y579061D01*
X233559D01*
X234696Y578739D01*
X234696Y577791D01*
Y571528D01*
X226907Y563739D01*
X226310D01*
X225814Y563640D01*
X222106D01*
X221610Y563739D01*
X219939D01*
X217754Y565924D01*
X216087Y567038D01*
X214120Y567429D01*
X151670D01*
Y588870D01*
X133590D01*
Y567429D01*
X130822D01*
X117787Y580464D01*
X116120Y581578D01*
X114154Y581969D01*
X96670D01*
Y588870D01*
X78590D01*
Y564790D01*
X96670D01*
Y571691D01*
X112025D01*
X125060Y558656D01*
X126727Y557542D01*
X128694Y557151D01*
X132437D01*
X133590Y556870D01*
X133590Y555881D01*
Y532790D01*
X151670D01*
Y555881D01*
X151670Y556870D01*
X152823Y557151D01*
X211992D01*
X214176Y554966D01*
X215844Y553852D01*
X216570Y553708D01*
Y541260D01*
X231350D01*
Y554085D01*
X232669Y554966D01*
X241963Y564261D01*
X245110D01*
X245157Y564261D01*
X246170Y563640D01*
X246170Y562900D01*
Y541260D01*
X256765D01*
X257140Y541185D01*
X261107D01*
X271814Y530478D01*
X271328Y529305D01*
X260950D01*
Y539510D01*
X246170D01*
Y517130D01*
X260950D01*
Y521535D01*
X271483D01*
X271969Y520362D01*
X260950Y509343D01*
X259680Y509869D01*
Y515380D01*
X244900D01*
Y493000D01*
X255137D01*
X255623Y491827D01*
X254616Y490820D01*
X237730D01*
Y476040D01*
X260110D01*
Y485326D01*
X261700Y486916D01*
X262970Y486390D01*
Y472020D01*
X262970D01*
Y471100D01*
X262970D01*
Y464330D01*
X270510D01*
Y463060D01*
X271780D01*
Y455020D01*
X274697D01*
X275183Y453847D01*
X239241Y417905D01*
X233710D01*
Y424210D01*
X213330D01*
Y403830D01*
X231577D01*
X232063Y402657D01*
X227497Y398090D01*
X227453Y398116D01*
X224862Y398810D01*
X222178D01*
X219587Y398116D01*
X217263Y396774D01*
X215366Y394877D01*
X214024Y392553D01*
X213330Y389962D01*
Y387278D01*
X214024Y384687D01*
X215366Y382363D01*
X217263Y380466D01*
X219587Y379124D01*
X222178Y378430D01*
X224862D01*
X227453Y379124D01*
X229777Y380466D01*
X231674Y382363D01*
X233016Y384687D01*
X233710Y387278D01*
Y389962D01*
X233016Y392553D01*
X232990Y392597D01*
X282429Y442035D01*
X307710D01*
Y435880D01*
X312055D01*
X312541Y434707D01*
X310825Y432990D01*
X300920D01*
X300570Y432990D01*
X299650D01*
X299300Y432990D01*
X292880D01*
Y425450D01*
Y417910D01*
X299300D01*
X299650Y417910D01*
X300570D01*
X300920Y417910D01*
X303471D01*
Y401115D01*
X303170Y399970D01*
X287440D01*
X287090Y399970D01*
X286170D01*
X285820Y399970D01*
X279400D01*
Y392430D01*
Y384890D01*
X285820D01*
X286170Y384890D01*
X287281Y384507D01*
Y382460D01*
X287130D01*
Y379334D01*
X280275D01*
X278308Y378943D01*
X276641Y377829D01*
X268996Y370184D01*
X267882Y368517D01*
X267491Y366550D01*
Y348270D01*
X267882Y346304D01*
X268996Y344636D01*
X289501Y324132D01*
Y313020D01*
X283450D01*
Y310769D01*
X279160D01*
Y313020D01*
X256780D01*
Y310769D01*
X252490D01*
Y313020D01*
X230110D01*
Y310769D01*
X225658D01*
X186020Y350407D01*
Y365520D01*
X171240D01*
Y343140D01*
X178753D01*
X219896Y301996D01*
X221563Y300882D01*
X223530Y300491D01*
X230110D01*
Y298240D01*
X252490D01*
Y300491D01*
X256780D01*
Y298240D01*
X279160D01*
Y300491D01*
X283450D01*
Y298240D01*
X305830D01*
Y313020D01*
X299779D01*
Y326260D01*
X299388Y328227D01*
X298274Y329894D01*
X277769Y350399D01*
Y357282D01*
X278825Y357988D01*
X279568Y357680D01*
X281772D01*
X281978Y357765D01*
X283180Y357930D01*
X283180Y357930D01*
X283180Y357930D01*
X287130D01*
Y343980D01*
X315150D01*
Y352245D01*
X317690D01*
Y343980D01*
X319281D01*
Y340061D01*
X319580Y338559D01*
Y337988D01*
X320423Y335952D01*
X321982Y334393D01*
X324018Y333550D01*
X326222D01*
X328258Y334393D01*
X329817Y335952D01*
X330660Y337988D01*
Y340192D01*
X329817Y342228D01*
X329559Y342486D01*
Y343980D01*
X337710D01*
Y351311D01*
X341208D01*
X342784Y351624D01*
X344120Y352517D01*
X354613Y363010D01*
X355505Y364346D01*
X355819Y365922D01*
Y425551D01*
X355505Y427127D01*
X354613Y428464D01*
X348369Y434707D01*
X348855Y435880D01*
X372865D01*
Y432309D01*
X372635Y432155D01*
X371784Y430881D01*
X371485Y429378D01*
Y423068D01*
X366833Y418417D01*
X365991Y417157D01*
X365695Y415670D01*
Y396865D01*
X365643D01*
X364139Y396566D01*
X362865Y395715D01*
X362014Y394441D01*
X361715Y392938D01*
Y381763D01*
X362014Y380259D01*
X362865Y378985D01*
X364139Y378134D01*
X365643Y377835D01*
X373517D01*
X375021Y378134D01*
X376295Y378985D01*
X377146Y380259D01*
X378410Y380103D01*
Y379730D01*
X378607Y378739D01*
X379169Y377899D01*
X380009Y377337D01*
X381000Y377140D01*
X393700D01*
X394691Y377337D01*
X395531Y377899D01*
X396093Y378739D01*
X396290Y379730D01*
Y397460D01*
X403860D01*
X404851Y397657D01*
X405691Y398219D01*
X407103Y399630D01*
X408860D01*
Y401938D01*
X408990Y402590D01*
Y412750D01*
X408860Y413402D01*
Y415710D01*
X408860D01*
Y416630D01*
X408860D01*
Y419531D01*
X411560D01*
Y416980D01*
X411560Y416630D01*
X411560D01*
Y415710D01*
X411560D01*
Y408940D01*
X419100D01*
Y407670D01*
X420370D01*
Y399630D01*
X426640D01*
Y401363D01*
X427813Y401849D01*
X448060Y381603D01*
X447574Y380430D01*
X444440D01*
X443449Y380233D01*
X442609Y379671D01*
X442047Y378831D01*
X441850Y377840D01*
Y376540D01*
X442047Y375549D01*
X442609Y374709D01*
X443449Y374147D01*
X444440Y373950D01*
X450057D01*
X450066Y373920D01*
X450098Y373863D01*
X450108Y373799D01*
X450241Y373446D01*
X450249Y373433D01*
X450291Y373276D01*
X450371Y373137D01*
X450439Y372982D01*
X450476Y372928D01*
X450493Y372865D01*
X450659Y372527D01*
X450699Y372476D01*
X450718Y372414D01*
X450902Y372085D01*
X450944Y372035D01*
X450967Y371974D01*
X451166Y371655D01*
X451211Y371607D01*
X451236Y371548D01*
X451451Y371238D01*
X451489Y371201D01*
X451522Y371144D01*
X451527Y371134D01*
X451530Y371130D01*
X451626Y370964D01*
X451816Y370774D01*
X451837Y370736D01*
X452081Y370449D01*
X452133Y370409D01*
X452167Y370354D01*
X452425Y370079D01*
X452478Y370042D01*
X452515Y369988D01*
X452787Y369727D01*
X452841Y369692D01*
X452881Y369640D01*
X453165Y369393D01*
X453222Y369360D01*
X453264Y369311D01*
X453335Y369255D01*
X453514Y369076D01*
X453741Y368945D01*
X453969Y368783D01*
X454029Y368756D01*
X454076Y368711D01*
X454393Y368508D01*
X454454Y368484D01*
X454503Y368442D01*
X454601Y368385D01*
Y359410D01*
X454992Y357444D01*
X456106Y355776D01*
X464761Y347122D01*
Y94838D01*
X391572Y21649D01*
X287095D01*
Y24833D01*
X287124Y24841D01*
X287459Y25034D01*
X287477Y25040D01*
X288186Y25401D01*
X288293Y25485D01*
X288421Y25536D01*
X289088Y25970D01*
X289101Y25982D01*
X289436Y26176D01*
X289738Y26478D01*
X289925Y26630D01*
X290013Y26735D01*
X290127Y26811D01*
X290689Y27373D01*
X290765Y27487D01*
X290870Y27575D01*
X291022Y27762D01*
X291324Y28064D01*
X291518Y28399D01*
X291530Y28412D01*
X291964Y29079D01*
X292015Y29207D01*
X292099Y29314D01*
X292460Y30023D01*
X292465Y30041D01*
X292659Y30376D01*
X292770Y30789D01*
X292856Y31013D01*
X292879Y31148D01*
X292939Y31271D01*
X293145Y32040D01*
X293154Y32176D01*
X293202Y32305D01*
X293239Y32543D01*
X293350Y32955D01*
Y33342D01*
X293355Y33360D01*
X293396Y34154D01*
X293382Y34254D01*
X293399Y34353D01*
X293390Y34737D01*
X293375Y34801D01*
X293383Y34866D01*
X293355Y35242D01*
X293350Y35262D01*
Y35625D01*
X293264Y35944D01*
X293212Y36242D01*
X293189Y36302D01*
X293187Y36367D01*
X293104Y36735D01*
X293078Y36794D01*
X293073Y36859D01*
X292971Y37222D01*
X292942Y37280D01*
X292934Y37345D01*
X292815Y37702D01*
X292783Y37758D01*
X292772Y37822D01*
X292738Y37908D01*
X292659Y38204D01*
X292508Y38465D01*
X292432Y38636D01*
X292394Y38689D01*
X292377Y38751D01*
X292206Y39088D01*
X292166Y39139D01*
X292145Y39200D01*
X291958Y39527D01*
X291916Y39576D01*
X291892Y39637D01*
X291689Y39954D01*
X291644Y40001D01*
X291618Y40061D01*
X291455Y40289D01*
X291324Y40516D01*
X291145Y40695D01*
X291089Y40766D01*
X291040Y40809D01*
X291007Y40865D01*
X290760Y41149D01*
X290708Y41189D01*
X290673Y41243D01*
X290412Y41515D01*
X290358Y41552D01*
X290321Y41605D01*
X290046Y41863D01*
X289991Y41897D01*
X289951Y41948D01*
X289664Y42193D01*
X289627Y42214D01*
X289436Y42404D01*
X289270Y42500D01*
X289265Y42503D01*
X289256Y42508D01*
X289199Y42541D01*
X289162Y42579D01*
X288853Y42794D01*
X288793Y42820D01*
X288745Y42864D01*
X288426Y43063D01*
X288365Y43086D01*
X288315Y43128D01*
X287986Y43312D01*
X287924Y43331D01*
X287873Y43371D01*
X287535Y43538D01*
X287472Y43554D01*
X287418Y43591D01*
X287263Y43659D01*
X287124Y43739D01*
X286967Y43781D01*
X286954Y43789D01*
X286601Y43922D01*
X286537Y43932D01*
X286480Y43964D01*
X286450Y43973D01*
Y49590D01*
X286253Y50581D01*
X285691Y51421D01*
X284851Y51983D01*
X283860Y52180D01*
X282560D01*
X281569Y51983D01*
X280729Y51421D01*
X280167Y50581D01*
X279970Y49590D01*
Y43973D01*
X279940Y43964D01*
X279883Y43932D01*
X279819Y43922D01*
X279466Y43789D01*
X279453Y43781D01*
X279296Y43739D01*
X279157Y43659D01*
X279002Y43591D01*
X278948Y43554D01*
X278885Y43538D01*
X278547Y43371D01*
X278496Y43331D01*
X278434Y43312D01*
X278105Y43128D01*
X278055Y43086D01*
X277994Y43063D01*
X277675Y42864D01*
X277627Y42819D01*
X277568Y42794D01*
X277258Y42579D01*
X277221Y42541D01*
X277164Y42508D01*
X277155Y42503D01*
X277150Y42500D01*
X276984Y42404D01*
X276793Y42214D01*
X276756Y42193D01*
X276469Y41948D01*
X276429Y41897D01*
X276374Y41863D01*
X276099Y41605D01*
X276062Y41552D01*
X276008Y41515D01*
X275747Y41243D01*
X275712Y41189D01*
X275660Y41149D01*
X275413Y40865D01*
X275380Y40809D01*
X275331Y40766D01*
X275275Y40695D01*
X275096Y40516D01*
X274965Y40289D01*
X274802Y40061D01*
X274776Y40001D01*
X274731Y39954D01*
X274528Y39637D01*
X274504Y39576D01*
X274462Y39527D01*
X274275Y39200D01*
X274254Y39139D01*
X274214Y39088D01*
X274043Y38751D01*
X274026Y38689D01*
X273988Y38636D01*
X273912Y38465D01*
X273761Y38204D01*
X273682Y37908D01*
X273648Y37822D01*
X273637Y37758D01*
X273605Y37702D01*
X273486Y37344D01*
X273478Y37280D01*
X273448Y37222D01*
X273347Y36859D01*
X273342Y36794D01*
X273316Y36735D01*
X273233Y36367D01*
X273231Y36302D01*
X273208Y36242D01*
X273156Y35944D01*
X273070Y35625D01*
Y35262D01*
X273065Y35242D01*
X273037Y34866D01*
X273045Y34801D01*
X273030Y34737D01*
X273021Y34353D01*
X273038Y34254D01*
X273024Y34154D01*
X273065Y33360D01*
X273070Y33342D01*
Y32955D01*
X273181Y32543D01*
X273218Y32305D01*
X273266Y32176D01*
X273275Y32040D01*
X273480Y31271D01*
X273541Y31148D01*
X273564Y31013D01*
X273650Y30789D01*
X273761Y30376D01*
X273955Y30041D01*
X273960Y30023D01*
X274321Y29314D01*
X274405Y29207D01*
X274456Y29079D01*
X274890Y28412D01*
X274902Y28399D01*
X275096Y28064D01*
X275398Y27762D01*
X275550Y27575D01*
X275655Y27487D01*
X275731Y27373D01*
X276293Y26811D01*
X276407Y26735D01*
X276495Y26630D01*
X276682Y26478D01*
X276984Y26176D01*
X277319Y25982D01*
X277332Y25970D01*
X277999Y25536D01*
X278127Y25485D01*
X278234Y25401D01*
X278943Y25040D01*
X278961Y25034D01*
X279296Y24841D01*
X279325Y24833D01*
Y21649D01*
X111348D01*
X87689Y45308D01*
Y72620D01*
X89930D01*
Y87400D01*
X67550D01*
Y84954D01*
X65800D01*
Y87010D01*
X50687D01*
X39429Y98268D01*
Y118780D01*
X45480Y118780D01*
X46468Y119460D01*
X47693D01*
X48591Y118562D01*
Y116610D01*
X43420D01*
Y101830D01*
X65800D01*
Y116610D01*
X58869D01*
Y119460D01*
X61420D01*
X61770Y119460D01*
Y119460D01*
X62690D01*
Y119460D01*
X69460D01*
Y127000D01*
X72000D01*
Y119460D01*
X76151D01*
Y117000D01*
X67550D01*
Y102220D01*
X89570D01*
Y99300D01*
X92841D01*
Y78300D01*
X93154Y76724D01*
X94047Y75387D01*
X97417Y72017D01*
X98754Y71124D01*
X100330Y70811D01*
X166370D01*
X167946Y71124D01*
X169283Y72017D01*
X189958Y92693D01*
X191131Y92207D01*
Y78484D01*
X191022Y78321D01*
X190631Y76355D01*
Y50578D01*
X186023Y45970D01*
X184850Y46456D01*
Y49590D01*
X184653Y50581D01*
X184091Y51421D01*
X183251Y51983D01*
X182260Y52180D01*
X180960D01*
X179969Y51983D01*
X179129Y51421D01*
X178567Y50581D01*
X178370Y49590D01*
Y43973D01*
X178340Y43964D01*
X178283Y43932D01*
X178219Y43922D01*
X177866Y43789D01*
X177853Y43781D01*
X177696Y43739D01*
X177557Y43659D01*
X177402Y43591D01*
X177348Y43554D01*
X177285Y43538D01*
X176947Y43371D01*
X176896Y43331D01*
X176834Y43312D01*
X176505Y43128D01*
X176455Y43086D01*
X176394Y43063D01*
X176075Y42864D01*
X176027Y42819D01*
X175968Y42794D01*
X175658Y42579D01*
X175621Y42541D01*
X175564Y42508D01*
X175555Y42503D01*
X175550Y42500D01*
X175384Y42404D01*
X175194Y42214D01*
X175156Y42193D01*
X174869Y41948D01*
X174829Y41897D01*
X174774Y41863D01*
X174499Y41605D01*
X174462Y41552D01*
X174408Y41515D01*
X174147Y41243D01*
X174112Y41189D01*
X174060Y41149D01*
X173813Y40865D01*
X173780Y40809D01*
X173731Y40766D01*
X173675Y40695D01*
X173496Y40516D01*
X173365Y40289D01*
X173202Y40061D01*
X173176Y40001D01*
X173131Y39954D01*
X172928Y39637D01*
X172904Y39576D01*
X172862Y39527D01*
X172675Y39200D01*
X172654Y39139D01*
X172614Y39088D01*
X172443Y38751D01*
X172426Y38689D01*
X172388Y38636D01*
X172312Y38465D01*
X172161Y38204D01*
X172082Y37908D01*
X172048Y37822D01*
X172037Y37758D01*
X172005Y37702D01*
X171886Y37344D01*
X171878Y37280D01*
X171848Y37222D01*
X171747Y36859D01*
X171742Y36794D01*
X171716Y36735D01*
X171633Y36367D01*
X171631Y36302D01*
X171608Y36242D01*
X171556Y35944D01*
X171470Y35625D01*
Y35262D01*
X171465Y35242D01*
X171437Y34866D01*
X171445Y34801D01*
X171430Y34737D01*
X171421Y34353D01*
X171438Y34254D01*
X171424Y34154D01*
X171465Y33360D01*
X171470Y33342D01*
Y32955D01*
X171581Y32543D01*
X171618Y32305D01*
X171666Y32176D01*
X171675Y32040D01*
X171880Y31271D01*
X171941Y31148D01*
X171964Y31013D01*
X172050Y30789D01*
X172161Y30376D01*
X172355Y30041D01*
X172360Y30023D01*
X172721Y29314D01*
X172806Y29207D01*
X172856Y29079D01*
X173290Y28412D01*
X173302Y28399D01*
X173496Y28064D01*
X173798Y27762D01*
X173950Y27575D01*
X174055Y27487D01*
X174131Y27373D01*
X174693Y26811D01*
X174807Y26735D01*
X174895Y26630D01*
X175082Y26478D01*
X175384Y26176D01*
X175719Y25982D01*
X175732Y25970D01*
X176399Y25536D01*
X176527Y25485D01*
X176634Y25401D01*
X177343Y25040D01*
X177361Y25034D01*
X177696Y24841D01*
X178109Y24731D01*
X178333Y24644D01*
X178468Y24621D01*
X178591Y24560D01*
X179360Y24355D01*
X179496Y24346D01*
X179625Y24298D01*
X179863Y24260D01*
X180275Y24150D01*
X180662D01*
X180680Y24145D01*
X181474Y24104D01*
X181610Y24123D01*
X181746Y24104D01*
X182540Y24145D01*
X182558Y24150D01*
X182945D01*
X183358Y24261D01*
X183595Y24298D01*
X183724Y24346D01*
X183860Y24355D01*
X184629Y24560D01*
X184752Y24621D01*
X184887Y24644D01*
X185111Y24731D01*
X185524Y24841D01*
X185859Y25034D01*
X185877Y25040D01*
X186586Y25401D01*
X186693Y25485D01*
X186821Y25536D01*
X187488Y25970D01*
X187501Y25982D01*
X187836Y26176D01*
X188138Y26478D01*
X188325Y26630D01*
X188413Y26735D01*
X188527Y26811D01*
X189089Y27373D01*
X189165Y27487D01*
X189270Y27575D01*
X189422Y27762D01*
X189724Y28064D01*
X189918Y28399D01*
X189930Y28412D01*
X190364Y29079D01*
X190415Y29207D01*
X190499Y29314D01*
X190861Y30023D01*
X190865Y30041D01*
X191059Y30376D01*
X191169Y30789D01*
X191256Y31013D01*
X191279Y31148D01*
X191339Y31271D01*
X191545Y32040D01*
X191554Y32176D01*
X191602Y32305D01*
X191639Y32543D01*
X191750Y32955D01*
Y33342D01*
X191755Y33360D01*
X191796Y34154D01*
X191782Y34254D01*
X191799Y34353D01*
X191790Y34737D01*
X191775Y34801D01*
X191783Y34866D01*
X191755Y35242D01*
X191750Y35262D01*
Y35625D01*
X191664Y35944D01*
X191612Y36242D01*
X191589Y36302D01*
X191587Y36367D01*
X191504Y36735D01*
X191478Y36794D01*
X191473Y36859D01*
X191467Y36880D01*
X199404Y44816D01*
X200518Y46483D01*
X200909Y48450D01*
Y74725D01*
X201018Y74888D01*
X201409Y76855D01*
Y95719D01*
X201810Y96688D01*
Y98892D01*
X200967Y100928D01*
X199408Y102487D01*
X197372Y103330D01*
X195168D01*
X194405Y103014D01*
X193349Y103720D01*
Y176094D01*
X212526Y195271D01*
X218800D01*
Y190500D01*
X226840D01*
Y189230D01*
X228110D01*
Y181690D01*
X234880D01*
Y181690D01*
X235800D01*
Y181690D01*
X249897D01*
X250383Y180517D01*
X249536Y179670D01*
X232650D01*
Y164890D01*
X255015D01*
Y150070D01*
X245110D01*
Y142680D01*
Y135290D01*
X255030D01*
Y139106D01*
X255698Y139466D01*
X256300Y139564D01*
X257641Y138223D01*
X258901Y137381D01*
X260388Y137085D01*
X262970D01*
Y133280D01*
X262970Y132930D01*
Y132010D01*
X262970Y131660D01*
Y125240D01*
X270510D01*
X278050D01*
Y131660D01*
X278050Y132010D01*
Y132930D01*
X278050Y133280D01*
Y137085D01*
X280750D01*
Y127420D01*
X280750Y127070D01*
Y126150D01*
X280750Y125800D01*
Y119380D01*
X288290D01*
X295830D01*
Y125800D01*
X295830Y126150D01*
Y127070D01*
X295830Y127420D01*
Y130735D01*
X297260D01*
Y126930D01*
X297260Y126580D01*
X297260D01*
Y125660D01*
X297260D01*
Y118890D01*
X304800D01*
Y117620D01*
D01*
Y118890D01*
X312340D01*
Y125270D01*
X314302D01*
X314869Y125505D01*
X315925Y124799D01*
Y117479D01*
X315485Y117185D01*
X314634Y115911D01*
X314335Y114408D01*
Y106532D01*
X314634Y105029D01*
X315485Y103755D01*
X316759Y102903D01*
X318263Y102605D01*
X329437D01*
X330941Y102903D01*
X332215Y103755D01*
X333066Y105029D01*
X333365Y106532D01*
Y114408D01*
X333066Y115911D01*
X332215Y117185D01*
X330941Y118036D01*
X330169Y118190D01*
X330294Y119460D01*
X337360D01*
Y119460D01*
X338280D01*
Y119460D01*
X345050D01*
Y127000D01*
X347590D01*
Y119460D01*
X351745D01*
Y118030D01*
X345830D01*
Y110490D01*
Y102950D01*
X352600D01*
X352600Y102950D01*
X353520D01*
Y102950D01*
X353870Y102950D01*
X369600D01*
Y108455D01*
X370240Y109460D01*
X385020D01*
Y131840D01*
X374425D01*
X374050Y131915D01*
X364595D01*
Y135682D01*
X364388Y136719D01*
X364604Y136982D01*
X366640Y137825D01*
X366785Y137970D01*
X367154Y137956D01*
X368134Y137523D01*
X368354Y136419D01*
X369205Y135145D01*
X370479Y134294D01*
X371982Y133995D01*
X379857D01*
X381361Y134294D01*
X382635Y135145D01*
X383487Y136419D01*
X383786Y137922D01*
Y149097D01*
X383487Y150601D01*
X382635Y151875D01*
X381730Y152480D01*
X382115Y153750D01*
X384390Y153750D01*
X384740Y153750D01*
X387485D01*
X387870Y152480D01*
X386965Y151875D01*
X386114Y150601D01*
X385815Y149097D01*
Y144780D01*
X401545D01*
Y149097D01*
X401246Y150601D01*
X400395Y151875D01*
X399490Y152480D01*
X399875Y153750D01*
X400470D01*
Y160020D01*
X392430D01*
Y162560D01*
X400470D01*
Y168830D01*
X399499D01*
X398540Y169580D01*
X398540Y170100D01*
Y173085D01*
X401990D01*
Y167880D01*
X416770D01*
Y190260D01*
X414704D01*
X413639Y190754D01*
Y192427D01*
X414067Y193520D01*
X421337D01*
Y203060D01*
Y212600D01*
X419893D01*
X418760Y213733D01*
X417986Y214250D01*
X418371Y215520D01*
X438337D01*
Y225060D01*
Y234600D01*
X414067D01*
Y228944D01*
X407251D01*
X405764Y228649D01*
X404504Y227807D01*
X402420Y225723D01*
X401175Y225971D01*
X400857Y226738D01*
X399298Y228297D01*
X397262Y229140D01*
X396114D01*
X393657Y231597D01*
X392397Y232439D01*
X390910Y232735D01*
X369497D01*
X368011Y232439D01*
X366751Y231597D01*
X363644Y228490D01*
X345020D01*
X345010Y228490D01*
X343770Y228510D01*
X343750Y229750D01*
X343750Y229760D01*
Y236557D01*
X344837Y237283D01*
X346664Y239110D01*
X347812D01*
X349848Y239953D01*
X351407Y241512D01*
X352250Y243548D01*
Y245752D01*
X351932Y246519D01*
X352638Y247575D01*
X391828D01*
X393315Y247871D01*
X394575Y248713D01*
X414260Y268398D01*
X415530Y267872D01*
Y266100D01*
X437910D01*
Y280880D01*
X415530D01*
Y277375D01*
X413858D01*
X412372Y277079D01*
X411240Y276323D01*
X410390Y276536D01*
X409970Y276710D01*
Y284690D01*
X387590D01*
Y269910D01*
X394895D01*
Y267873D01*
X387447Y260425D01*
X375310D01*
X375016Y261134D01*
X374899Y261695D01*
X375699Y262891D01*
X375995Y264378D01*
Y269910D01*
X383300D01*
Y284690D01*
X360920D01*
Y269910D01*
X368225D01*
Y266175D01*
X338938D01*
X338452Y267348D01*
X339744Y268640D01*
X356630D01*
Y283420D01*
X334250D01*
Y274134D01*
X332500Y272384D01*
X331230Y272910D01*
Y283420D01*
X308850D01*
Y268640D01*
X311201D01*
Y262529D01*
X310028Y262043D01*
X307625Y264445D01*
X306365Y265287D01*
X304879Y265583D01*
X294901D01*
X293114Y267370D01*
X293640Y268640D01*
X301645D01*
X302020Y268565D01*
X302395Y268640D01*
X305830D01*
Y272075D01*
X305905Y272450D01*
X305830Y272825D01*
Y283420D01*
X283450D01*
Y268640D01*
X284405D01*
Y266700D01*
X284701Y265213D01*
X285543Y263953D01*
X287898Y261598D01*
X287412Y260425D01*
X272337D01*
X271855Y260907D01*
Y268640D01*
X279160D01*
Y283420D01*
X256780D01*
Y268640D01*
X264085D01*
Y259298D01*
X264381Y257811D01*
X265181Y256615D01*
X265064Y256054D01*
X264770Y255345D01*
X249259D01*
X241375Y263229D01*
Y268640D01*
X252490D01*
Y283420D01*
X230110D01*
Y268640D01*
X233605D01*
Y261620D01*
X233901Y260133D01*
X234743Y258873D01*
X244903Y248713D01*
X246163Y247871D01*
X247650Y247575D01*
X280870D01*
Y240120D01*
X284810D01*
Y238850D01*
X285870D01*
Y228510D01*
X342500D01*
X342510Y228510D01*
X343750Y228490D01*
X343770Y227250D01*
X343770Y227240D01*
Y215610D01*
Y205610D01*
Y195610D01*
Y190609D01*
X354110D01*
Y188491D01*
X343770D01*
Y185610D01*
Y175610D01*
Y166852D01*
X343750Y165610D01*
X342508Y165590D01*
X315870D01*
Y155250D01*
X313750D01*
Y165590D01*
X300870D01*
Y155250D01*
X298751D01*
Y165590D01*
X290870D01*
Y155250D01*
X288750D01*
Y165590D01*
X282112D01*
X280870Y165610D01*
X280850Y166852D01*
Y175610D01*
Y183491D01*
X270510D01*
Y185609D01*
X280850D01*
Y185610D01*
Y195610D01*
Y205610D01*
Y213491D01*
X270510D01*
Y215609D01*
X280850D01*
Y215610D01*
Y227239D01*
X280850Y227250D01*
X280870Y228490D01*
X282110Y228510D01*
X282120Y228510D01*
X283540D01*
Y237580D01*
X280870D01*
Y229760D01*
X280870Y229750D01*
X280850Y228510D01*
X279610Y228490D01*
X279600Y228490D01*
X271438D01*
X270510Y228675D01*
X245787D01*
X244978Y229612D01*
X245039Y229827D01*
X245571Y230680D01*
X247482D01*
X249518Y231523D01*
X251077Y233082D01*
X251920Y235118D01*
Y237322D01*
X251077Y239358D01*
X249518Y240917D01*
X247482Y241760D01*
X245278D01*
X243242Y240917D01*
X241683Y239358D01*
X240840Y237322D01*
Y235411D01*
X239987Y234879D01*
X239667Y234789D01*
X239133Y235323D01*
X237796Y236216D01*
X236220Y236529D01*
X233260D01*
X232554Y237585D01*
X232870Y238348D01*
Y240552D01*
X232027Y242588D01*
X230468Y244147D01*
X228432Y244990D01*
X226824D01*
X223957Y247857D01*
X222697Y248699D01*
X221210Y248995D01*
X169651D01*
X168164Y248699D01*
X166904Y247857D01*
X162470Y243423D01*
X161224Y243671D01*
X160907Y244438D01*
X159348Y245997D01*
X157312Y246840D01*
X155108D01*
X153072Y245997D01*
X152984Y245909D01*
X144869D01*
Y251071D01*
X148614Y254816D01*
X149728Y256483D01*
X149872Y257210D01*
X162320D01*
Y271990D01*
X139940D01*
Y262746D01*
X139841Y262250D01*
Y261277D01*
X139460Y260997D01*
X138190Y261639D01*
Y271990D01*
X115810D01*
Y265248D01*
X114540Y264618D01*
X114060Y264983D01*
Y271990D01*
X98947D01*
X91905Y279032D01*
X90238Y280146D01*
X88271Y280537D01*
X83813D01*
X82382Y281130D01*
X80178D01*
X78142Y280287D01*
X76583Y278728D01*
X75740Y276692D01*
Y274488D01*
X76583Y272452D01*
X78142Y270893D01*
X80178Y270050D01*
X82382D01*
X82889Y270260D01*
X86143D01*
X91680Y264723D01*
Y257210D01*
X106793D01*
X107891Y256112D01*
Y251778D01*
X106670Y251660D01*
X106670Y251660D01*
X106670Y251660D01*
X93990D01*
Y251660D01*
X93970D01*
Y251660D01*
X81290D01*
X81147Y252871D01*
Y260357D01*
X81740Y261788D01*
Y263992D01*
X80897Y266028D01*
X79338Y267587D01*
X77302Y268430D01*
X75098D01*
X73062Y267587D01*
X71503Y266028D01*
X70660Y263992D01*
Y261788D01*
X70870Y261281D01*
Y252558D01*
X69972Y251660D01*
X68590Y251660D01*
X67369Y251778D01*
Y259070D01*
X66978Y261036D01*
X65864Y262704D01*
X56910Y271657D01*
Y279170D01*
X34530D01*
Y264390D01*
X49643D01*
X52708Y261325D01*
X51989Y260248D01*
X50632Y260810D01*
X48428D01*
X46392Y259967D01*
X44833Y258408D01*
X43990Y256372D01*
Y254168D01*
X44391Y253199D01*
Y251660D01*
X43190D01*
Y229880D01*
X54620D01*
X55870Y229880D01*
X57140Y229880D01*
X67650Y229880D01*
X68176Y228610D01*
X46783Y207217D01*
X45941Y205957D01*
X45645Y204470D01*
Y166360D01*
X43190D01*
Y163160D01*
X23100D01*
Y148380D01*
X43190D01*
Y144580D01*
X55870D01*
X55870Y144580D01*
X57091Y144462D01*
Y141749D01*
X50096Y134754D01*
X49954Y134540D01*
X45690Y134540D01*
X44990Y133560D01*
X44420Y133560D01*
X23100D01*
Y118780D01*
X29151D01*
Y96140D01*
X29542Y94173D01*
X30656Y92506D01*
X43420Y79743D01*
Y72230D01*
X65800D01*
Y74676D01*
X67550D01*
Y72620D01*
X77411D01*
Y43180D01*
X77802Y41213D01*
X78916Y39546D01*
X105586Y12876D01*
X107254Y11762D01*
X109220Y11371D01*
X393700D01*
X395667Y11762D01*
X397334Y12876D01*
X473534Y89076D01*
X474648Y90744D01*
X475039Y92710D01*
Y349250D01*
X474648Y351217D01*
X473534Y352884D01*
X464879Y361539D01*
Y368408D01*
X464950Y368436D01*
X465618Y368870D01*
X465631Y368882D01*
X465966Y369076D01*
X466268Y369378D01*
X466455Y369529D01*
X466543Y369635D01*
X466657Y369711D01*
X467219Y370273D01*
X467295Y370387D01*
X467401Y370475D01*
X467552Y370662D01*
X467854Y370964D01*
X468047Y371299D01*
X468060Y371312D01*
X468494Y371979D01*
X468522Y372051D01*
X477989D01*
X478958Y371650D01*
X481162D01*
X483198Y372493D01*
X484757Y374052D01*
X485600Y376088D01*
Y378292D01*
X484757Y380328D01*
X483198Y381887D01*
X481162Y382730D01*
X478958D01*
X477989Y382329D01*
X468522D01*
X468494Y382401D01*
X468060Y383068D01*
X468047Y383081D01*
X467854Y383416D01*
X467552Y383718D01*
X467401Y383905D01*
X467295Y383993D01*
X467219Y384107D01*
X466657Y384669D01*
X466543Y384745D01*
X466455Y384851D01*
X466268Y385002D01*
X465966Y385304D01*
X465631Y385498D01*
X465618Y385510D01*
X464950Y385944D01*
X464823Y385994D01*
X464716Y386079D01*
X464007Y386441D01*
X463989Y386446D01*
X463654Y386639D01*
X463241Y386749D01*
X463017Y386836D01*
X462882Y386859D01*
X462759Y386920D01*
X461990Y387125D01*
X461854Y387134D01*
X461725Y387182D01*
X461487Y387220D01*
X461075Y387330D01*
X460688D01*
X460670Y387335D01*
X459876Y387376D01*
X459776Y387362D01*
X459677Y387379D01*
X459293Y387370D01*
X459229Y387355D01*
X459164Y387363D01*
X458788Y387335D01*
X458768Y387330D01*
X458405D01*
X458086Y387244D01*
X457788Y387192D01*
X457728Y387169D01*
X457663Y387167D01*
X457295Y387084D01*
X457236Y387058D01*
X457171Y387053D01*
X457150Y387047D01*
X446020Y398177D01*
X446506Y399350D01*
X450057D01*
X450066Y399320D01*
X450098Y399263D01*
X450108Y399199D01*
X450241Y398846D01*
X450249Y398833D01*
X450291Y398676D01*
X450371Y398537D01*
X450439Y398382D01*
X450476Y398328D01*
X450493Y398265D01*
X450659Y397927D01*
X450699Y397876D01*
X450718Y397814D01*
X450902Y397485D01*
X450944Y397435D01*
X450967Y397374D01*
X451166Y397054D01*
X451211Y397007D01*
X451236Y396948D01*
X451451Y396638D01*
X451489Y396601D01*
X451522Y396544D01*
X451527Y396535D01*
X451530Y396530D01*
X451626Y396364D01*
X451816Y396174D01*
X451837Y396136D01*
X452081Y395849D01*
X452133Y395809D01*
X452167Y395754D01*
X452425Y395479D01*
X452478Y395442D01*
X452515Y395388D01*
X452787Y395127D01*
X452841Y395092D01*
X452881Y395040D01*
X453165Y394793D01*
X453222Y394760D01*
X453264Y394711D01*
X453335Y394655D01*
X453514Y394476D01*
X453741Y394345D01*
X453969Y394183D01*
X454029Y394156D01*
X454076Y394111D01*
X454393Y393908D01*
X454454Y393884D01*
X454503Y393842D01*
X454830Y393655D01*
X454891Y393634D01*
X454943Y393594D01*
X455279Y393423D01*
X455341Y393406D01*
X455394Y393368D01*
X455565Y393292D01*
X455826Y393141D01*
X456122Y393062D01*
X456208Y393028D01*
X456272Y393017D01*
X456328Y392985D01*
X456686Y392866D01*
X456750Y392858D01*
X456808Y392828D01*
X457171Y392727D01*
X457236Y392722D01*
X457295Y392696D01*
X457663Y392613D01*
X457728Y392611D01*
X457788Y392588D01*
X458086Y392536D01*
X458405Y392450D01*
X458768D01*
X458788Y392445D01*
X459164Y392417D01*
X459229Y392425D01*
X459293Y392410D01*
X459677Y392401D01*
X459776Y392418D01*
X459876Y392404D01*
X460670Y392445D01*
X460688Y392450D01*
X461075D01*
X461488Y392561D01*
X461725Y392598D01*
X461854Y392646D01*
X461990Y392655D01*
X462759Y392860D01*
X462882Y392921D01*
X463017Y392944D01*
X463241Y393031D01*
X463654Y393141D01*
X463989Y393335D01*
X464007Y393340D01*
X464716Y393701D01*
X464823Y393786D01*
X464950Y393836D01*
X465618Y394269D01*
X465631Y394282D01*
X465966Y394476D01*
X466268Y394778D01*
X466455Y394930D01*
X466543Y395035D01*
X466657Y395111D01*
X467219Y395673D01*
X467295Y395787D01*
X467401Y395875D01*
X467552Y396062D01*
X467854Y396364D01*
X468047Y396699D01*
X468060Y396712D01*
X468494Y397379D01*
X468545Y397507D01*
X468629Y397614D01*
X468991Y398323D01*
X468996Y398341D01*
X469189Y398676D01*
X469300Y399089D01*
X469386Y399313D01*
X469409Y399448D01*
X469469Y399571D01*
X469675Y400340D01*
X469684Y400476D01*
X469732Y400605D01*
X469770Y400843D01*
X469880Y401255D01*
Y401642D01*
X469885Y401660D01*
X469926Y402454D01*
X469907Y402590D01*
X469926Y402726D01*
X469885Y403520D01*
X469880Y403538D01*
Y403925D01*
X469769Y404338D01*
X469732Y404575D01*
X469684Y404704D01*
X469675Y404840D01*
X469469Y405609D01*
X469409Y405732D01*
X469386Y405867D01*
X469300Y406091D01*
X469189Y406504D01*
X469174Y406530D01*
X477727Y415083D01*
X478569Y416343D01*
X478865Y417830D01*
Y429120D01*
X479677Y429932D01*
X480520Y431968D01*
Y434172D01*
X479677Y436208D01*
X478118Y437767D01*
X476082Y438610D01*
X473878D01*
X471842Y437767D01*
X470283Y436208D01*
X469440Y434172D01*
Y434075D01*
X468170Y433699D01*
X468060Y433868D01*
X468047Y433881D01*
X467854Y434216D01*
X467552Y434518D01*
X467401Y434705D01*
X467295Y434793D01*
X467219Y434907D01*
X466657Y435469D01*
X466543Y435545D01*
X466455Y435650D01*
X466268Y435802D01*
X465966Y436104D01*
X465631Y436297D01*
X465618Y436311D01*
X464950Y436744D01*
X464823Y436795D01*
X464716Y436879D01*
X464007Y437240D01*
X463989Y437245D01*
X463654Y437439D01*
X463241Y437550D01*
X463017Y437636D01*
X462882Y437659D01*
X462759Y437719D01*
X461990Y437925D01*
X461854Y437934D01*
X461725Y437982D01*
X461487Y438019D01*
X461075Y438130D01*
X460688D01*
X460670Y438135D01*
X459876Y438176D01*
X459776Y438162D01*
X459677Y438179D01*
X459293Y438170D01*
X459229Y438155D01*
X459164Y438163D01*
X458788Y438135D01*
X458768Y438130D01*
X458405D01*
X458086Y438044D01*
X457788Y437992D01*
X457728Y437969D01*
X457663Y437967D01*
X457295Y437884D01*
X457236Y437858D01*
X457171Y437853D01*
X456808Y437752D01*
X456750Y437722D01*
X456685Y437714D01*
X456328Y437595D01*
X456272Y437563D01*
X456208Y437552D01*
X456122Y437518D01*
X455826Y437439D01*
X455565Y437288D01*
X455394Y437212D01*
X455341Y437174D01*
X455279Y437157D01*
X454943Y436986D01*
X454891Y436946D01*
X454830Y436925D01*
X454503Y436738D01*
X454454Y436696D01*
X454393Y436672D01*
X454076Y436469D01*
X454029Y436424D01*
X453969Y436398D01*
X453741Y436235D01*
X453514Y436104D01*
X453335Y435925D01*
X453264Y435869D01*
X453222Y435820D01*
X453165Y435787D01*
X452881Y435540D01*
X452841Y435488D01*
X452787Y435453D01*
X452515Y435192D01*
X452478Y435138D01*
X452425Y435101D01*
X452167Y434826D01*
X452133Y434771D01*
X452081Y434731D01*
X451837Y434444D01*
X451816Y434407D01*
X451626Y434216D01*
X451530Y434050D01*
X451527Y434045D01*
X451522Y434036D01*
X451489Y433979D01*
X451451Y433942D01*
X451236Y433633D01*
X451210Y433573D01*
X451166Y433526D01*
X450967Y433206D01*
X450944Y433145D01*
X450902Y433095D01*
X450718Y432766D01*
X450699Y432704D01*
X450659Y432653D01*
X450493Y432315D01*
X450476Y432252D01*
X450439Y432198D01*
X450371Y432043D01*
X450291Y431904D01*
X450249Y431747D01*
X450241Y431734D01*
X450108Y431381D01*
X450098Y431317D01*
X450066Y431260D01*
X450057Y431230D01*
X444440D01*
X443449Y431033D01*
X442609Y430471D01*
X442047Y429631D01*
X441850Y428640D01*
Y427340D01*
X442047Y426349D01*
X442609Y425509D01*
X443449Y424947D01*
X444440Y424750D01*
X450057D01*
X450066Y424720D01*
X450098Y424663D01*
X450108Y424599D01*
X450241Y424246D01*
X450249Y424233D01*
X450291Y424076D01*
X450371Y423937D01*
X450439Y423782D01*
X450476Y423728D01*
X450493Y423665D01*
X450659Y423327D01*
X450699Y423276D01*
X450718Y423214D01*
X450902Y422885D01*
X450944Y422835D01*
X450967Y422774D01*
X451166Y422454D01*
X451211Y422407D01*
X451236Y422347D01*
X451451Y422038D01*
X451489Y422001D01*
X451522Y421944D01*
X451527Y421935D01*
X451530Y421930D01*
X451626Y421764D01*
X451816Y421573D01*
X451837Y421536D01*
X452081Y421249D01*
X452133Y421209D01*
X452167Y421154D01*
X452425Y420879D01*
X452478Y420842D01*
X452515Y420788D01*
X452787Y420527D01*
X452841Y420492D01*
X452881Y420440D01*
X453165Y420193D01*
X453222Y420160D01*
X453264Y420111D01*
X453335Y420055D01*
X453514Y419876D01*
X453741Y419745D01*
X453969Y419582D01*
X454029Y419556D01*
X454076Y419511D01*
X454393Y419308D01*
X454454Y419284D01*
X454503Y419242D01*
X454830Y419055D01*
X454891Y419034D01*
X454943Y418994D01*
X455279Y418823D01*
X455341Y418806D01*
X455394Y418768D01*
X455565Y418692D01*
X455826Y418541D01*
X456122Y418462D01*
X456208Y418428D01*
X456272Y418417D01*
X456328Y418385D01*
X456686Y418266D01*
X456750Y418258D01*
X456808Y418228D01*
X457171Y418127D01*
X457236Y418122D01*
X457295Y418096D01*
X457663Y418013D01*
X457728Y418011D01*
X457788Y417988D01*
X458086Y417936D01*
X458405Y417850D01*
X458768D01*
X458788Y417845D01*
X459164Y417817D01*
X459229Y417825D01*
X459293Y417810D01*
X459677Y417801D01*
X459776Y417818D01*
X459876Y417804D01*
X460670Y417845D01*
X460688Y417850D01*
X461075D01*
X461488Y417961D01*
X461725Y417998D01*
X461854Y418046D01*
X461990Y418055D01*
X462759Y418260D01*
X462882Y418321D01*
X463017Y418344D01*
X463241Y418430D01*
X463654Y418541D01*
X463989Y418735D01*
X464007Y418740D01*
X464716Y419101D01*
X464823Y419185D01*
X464950Y419236D01*
X465618Y419669D01*
X465631Y419683D01*
X465966Y419876D01*
X466268Y420178D01*
X466455Y420330D01*
X466543Y420435D01*
X466657Y420511D01*
X467219Y421073D01*
X467295Y421187D01*
X467401Y421275D01*
X467552Y421462D01*
X467854Y421764D01*
X468047Y422099D01*
X468060Y422112D01*
X468494Y422780D01*
X468545Y422907D01*
X468629Y423014D01*
X468991Y423723D01*
X468996Y423741D01*
X469189Y424076D01*
X469300Y424489D01*
X469386Y424713D01*
X469409Y424848D01*
X469469Y424971D01*
X469675Y425740D01*
X469825Y425820D01*
X471095Y425060D01*
Y419439D01*
X463680Y412024D01*
X463654Y412039D01*
X463241Y412150D01*
X463017Y412236D01*
X462882Y412259D01*
X462759Y412319D01*
X461990Y412525D01*
X461854Y412534D01*
X461725Y412582D01*
X461487Y412620D01*
X461075Y412730D01*
X460688D01*
X460670Y412735D01*
X459876Y412776D01*
X459776Y412762D01*
X459677Y412779D01*
X459293Y412770D01*
X459229Y412755D01*
X459164Y412763D01*
X458788Y412735D01*
X458768Y412730D01*
X458405D01*
X458086Y412644D01*
X457788Y412592D01*
X457728Y412569D01*
X457663Y412567D01*
X457295Y412484D01*
X457236Y412458D01*
X457171Y412453D01*
X456808Y412351D01*
X456750Y412322D01*
X456685Y412314D01*
X456328Y412195D01*
X456272Y412163D01*
X456208Y412152D01*
X456122Y412118D01*
X455826Y412039D01*
X455565Y411888D01*
X455394Y411812D01*
X455341Y411774D01*
X455279Y411757D01*
X454943Y411586D01*
X454891Y411546D01*
X454830Y411525D01*
X454503Y411338D01*
X454454Y411296D01*
X454393Y411272D01*
X454076Y411069D01*
X454029Y411024D01*
X453969Y410998D01*
X453741Y410835D01*
X453514Y410704D01*
X453335Y410525D01*
X453264Y410469D01*
X453222Y410420D01*
X453165Y410387D01*
X452881Y410140D01*
X452841Y410088D01*
X452787Y410053D01*
X452515Y409792D01*
X452478Y409738D01*
X452425Y409701D01*
X452167Y409426D01*
X452133Y409371D01*
X452081Y409331D01*
X451837Y409044D01*
X451816Y409007D01*
X451626Y408816D01*
X451530Y408650D01*
X451527Y408646D01*
X451522Y408636D01*
X451489Y408579D01*
X451451Y408542D01*
X451236Y408232D01*
X451210Y408173D01*
X451166Y408125D01*
X450967Y407806D01*
X450944Y407745D01*
X450902Y407695D01*
X450718Y407366D01*
X450699Y407304D01*
X450659Y407253D01*
X450493Y406915D01*
X450476Y406852D01*
X450439Y406798D01*
X450371Y406643D01*
X450291Y406504D01*
X450249Y406347D01*
X450241Y406334D01*
X450108Y405981D01*
X450098Y405917D01*
X450066Y405860D01*
X450057Y405830D01*
X444440D01*
X443449Y405633D01*
X442609Y405071D01*
X442047Y404231D01*
X442000Y403993D01*
X440622Y403575D01*
X434399Y409799D01*
Y417441D01*
X434008Y419408D01*
X432894Y421075D01*
X429965Y424004D01*
X428298Y425118D01*
X426640Y425447D01*
Y432710D01*
X411560D01*
Y429809D01*
X408860D01*
Y432710D01*
X402971D01*
X402454Y433484D01*
X391889Y444049D01*
Y445920D01*
X391498Y447887D01*
X390790Y448946D01*
Y455960D01*
X387726D01*
X387402Y456444D01*
X383540D01*
Y449580D01*
X379730D01*
Y456444D01*
X376098D01*
X375774Y455960D01*
X321360D01*
Y458918D01*
X321700Y459740D01*
X318770D01*
Y444500D01*
X314960D01*
Y459740D01*
X310760D01*
X311533Y457872D01*
X312175Y457230D01*
X311900Y455960D01*
X307710D01*
Y449805D01*
X283788D01*
X283302Y450978D01*
X293704Y461380D01*
X302290D01*
Y471380D01*
Y481280D01*
X312370D01*
Y464985D01*
X311533Y464148D01*
X310760Y462280D01*
X314960D01*
Y483870D01*
X285750D01*
Y487680D01*
X318770D01*
Y483870D01*
Y462280D01*
X321700D01*
X321360Y463102D01*
Y487680D01*
X321163Y488671D01*
X320601Y489511D01*
X319761Y490073D01*
X318770Y490270D01*
X302290D01*
Y496380D01*
Y506535D01*
X351638D01*
X353125Y506831D01*
X354385Y507673D01*
X410877Y564165D01*
X411719Y565425D01*
X412015Y566912D01*
Y572850D01*
X417860D01*
Y580663D01*
X433949Y596751D01*
X444760D01*
Y591350D01*
X449161D01*
Y582739D01*
X448789Y582285D01*
X447030D01*
Y574040D01*
X453625D01*
Y574487D01*
X454799Y574973D01*
X467241Y562530D01*
Y512848D01*
X467001Y512639D01*
X465971Y512299D01*
X465966Y512304D01*
X465631Y512497D01*
X465618Y512510D01*
X464950Y512944D01*
X464823Y512994D01*
X464716Y513079D01*
X464007Y513441D01*
X463989Y513446D01*
X463654Y513639D01*
X463241Y513750D01*
X463017Y513836D01*
X462882Y513859D01*
X462759Y513919D01*
X461990Y514125D01*
X461854Y514134D01*
X461725Y514182D01*
X461487Y514220D01*
X461075Y514330D01*
X460688D01*
X460670Y514335D01*
X459876Y514376D01*
X459776Y514362D01*
X459677Y514379D01*
X459293Y514370D01*
X459229Y514355D01*
X459164Y514363D01*
X458788Y514335D01*
X458768Y514330D01*
X458405D01*
X458086Y514244D01*
X457788Y514192D01*
X457728Y514169D01*
X457663Y514167D01*
X457295Y514084D01*
X457236Y514058D01*
X457171Y514053D01*
X456808Y513951D01*
X456750Y513922D01*
X456685Y513914D01*
X456328Y513795D01*
X456272Y513763D01*
X456208Y513752D01*
X456122Y513718D01*
X455826Y513639D01*
X455565Y513488D01*
X455394Y513412D01*
X455341Y513374D01*
X455279Y513357D01*
X454943Y513186D01*
X454891Y513146D01*
X454830Y513125D01*
X454503Y512938D01*
X454454Y512896D01*
X454393Y512872D01*
X454076Y512669D01*
X454029Y512624D01*
X453969Y512598D01*
X453741Y512435D01*
X453514Y512304D01*
X453335Y512125D01*
X453264Y512069D01*
X453222Y512020D01*
X453165Y511987D01*
X452881Y511740D01*
X452841Y511688D01*
X452787Y511653D01*
X452515Y511392D01*
X452478Y511338D01*
X452425Y511301D01*
X452167Y511026D01*
X452133Y510971D01*
X452081Y510931D01*
X451837Y510644D01*
X451816Y510606D01*
X451626Y510416D01*
X451530Y510250D01*
X451527Y510246D01*
X451522Y510236D01*
X451489Y510179D01*
X451451Y510142D01*
X451236Y509832D01*
X451210Y509773D01*
X451166Y509725D01*
X450967Y509406D01*
X450944Y509345D01*
X450902Y509295D01*
X450718Y508966D01*
X450699Y508904D01*
X450659Y508853D01*
X450493Y508515D01*
X450476Y508452D01*
X450439Y508398D01*
X450371Y508243D01*
X450291Y508104D01*
X450249Y507947D01*
X450241Y507934D01*
X450108Y507581D01*
X450098Y507517D01*
X450066Y507460D01*
X450057Y507430D01*
X444440D01*
X443449Y507233D01*
X442609Y506671D01*
X441657Y507447D01*
X416290Y532814D01*
Y534460D01*
X406250D01*
X396210D01*
Y531380D01*
Y521380D01*
Y511380D01*
Y501380D01*
Y491380D01*
Y481380D01*
Y471380D01*
Y461380D01*
X402365D01*
Y452270D01*
X402661Y450783D01*
X403503Y449523D01*
X407210Y445816D01*
Y444668D01*
X408053Y442632D01*
X409612Y441073D01*
X411648Y440230D01*
X413852D01*
X415888Y441073D01*
X417447Y442632D01*
X418290Y444668D01*
Y446872D01*
X417447Y448908D01*
X415888Y450467D01*
X413852Y451310D01*
X412704D01*
X410135Y453879D01*
Y461380D01*
X416290D01*
Y462298D01*
X417560Y463147D01*
X418808Y462630D01*
X421012D01*
X423048Y463473D01*
X424607Y465032D01*
X425450Y467068D01*
Y468058D01*
X425618Y468170D01*
X427822D01*
X429858Y469013D01*
X431417Y470572D01*
X432260Y472608D01*
Y474520D01*
X434172D01*
X434479Y474647D01*
X435535Y473942D01*
Y473710D01*
X435831Y472223D01*
X436673Y470963D01*
X449737Y457900D01*
X449211Y456630D01*
X444440D01*
X443449Y456433D01*
X442609Y455871D01*
X442047Y455031D01*
X441850Y454040D01*
Y452740D01*
X442047Y451749D01*
X442609Y450909D01*
X443449Y450347D01*
X444440Y450150D01*
X450057D01*
X450066Y450120D01*
X450098Y450063D01*
X450108Y449999D01*
X450241Y449646D01*
X450249Y449633D01*
X450291Y449476D01*
X450371Y449337D01*
X450439Y449182D01*
X450476Y449128D01*
X450493Y449065D01*
X450659Y448727D01*
X450699Y448676D01*
X450718Y448614D01*
X450902Y448285D01*
X450944Y448235D01*
X450967Y448174D01*
X451166Y447854D01*
X451211Y447807D01*
X451236Y447747D01*
X451451Y447438D01*
X451489Y447401D01*
X451522Y447344D01*
X451527Y447335D01*
X451530Y447330D01*
X451626Y447164D01*
X451816Y446973D01*
X451837Y446936D01*
X452081Y446649D01*
X452133Y446609D01*
X452167Y446554D01*
X452425Y446279D01*
X452478Y446242D01*
X452515Y446188D01*
X452787Y445927D01*
X452841Y445892D01*
X452881Y445840D01*
X453165Y445593D01*
X453222Y445560D01*
X453264Y445511D01*
X453335Y445455D01*
X453514Y445276D01*
X453741Y445145D01*
X453969Y444982D01*
X454029Y444956D01*
X454076Y444911D01*
X454393Y444708D01*
X454454Y444684D01*
X454503Y444642D01*
X454830Y444455D01*
X454891Y444434D01*
X454943Y444394D01*
X455279Y444223D01*
X455341Y444206D01*
X455394Y444168D01*
X455565Y444092D01*
X455826Y443941D01*
X456122Y443862D01*
X456208Y443828D01*
X456272Y443817D01*
X456328Y443785D01*
X456686Y443666D01*
X456750Y443658D01*
X456808Y443628D01*
X457171Y443527D01*
X457236Y443522D01*
X457295Y443496D01*
X457663Y443413D01*
X457728Y443411D01*
X457788Y443388D01*
X458086Y443336D01*
X458405Y443250D01*
X458768D01*
X458788Y443245D01*
X459164Y443217D01*
X459229Y443225D01*
X459293Y443210D01*
X459677Y443201D01*
X459776Y443218D01*
X459876Y443204D01*
X460670Y443245D01*
X460688Y443250D01*
X461075D01*
X461488Y443361D01*
X461725Y443398D01*
X461854Y443446D01*
X461990Y443455D01*
X462759Y443661D01*
X462882Y443721D01*
X463017Y443744D01*
X463241Y443830D01*
X463654Y443941D01*
X463989Y444134D01*
X464007Y444140D01*
X464716Y444501D01*
X464823Y444585D01*
X464950Y444636D01*
X465618Y445070D01*
X465631Y445083D01*
X465966Y445276D01*
X466268Y445578D01*
X466455Y445729D01*
X466543Y445835D01*
X466657Y445911D01*
X467219Y446473D01*
X467295Y446587D01*
X467401Y446675D01*
X467552Y446862D01*
X467854Y447164D01*
X468047Y447499D01*
X468060Y447512D01*
X468494Y448180D01*
X468545Y448307D01*
X468629Y448414D01*
X468991Y449123D01*
X468996Y449141D01*
X469189Y449476D01*
X469300Y449889D01*
X469386Y450113D01*
X469409Y450248D01*
X469469Y450371D01*
X469675Y451140D01*
X469684Y451276D01*
X469732Y451405D01*
X469770Y451643D01*
X469880Y452055D01*
Y452442D01*
X469885Y452460D01*
X469926Y453254D01*
X469907Y453390D01*
X469926Y453526D01*
X469885Y454320D01*
X469880Y454338D01*
Y454725D01*
X469769Y455137D01*
X469732Y455375D01*
X469684Y455504D01*
X469675Y455640D01*
X469469Y456409D01*
X469409Y456532D01*
X469386Y456667D01*
X469300Y456891D01*
X469189Y457304D01*
X468996Y457639D01*
X468990Y457657D01*
X468629Y458366D01*
X468545Y458473D01*
X468494Y458601D01*
X468060Y459268D01*
X468047Y459281D01*
X467854Y459616D01*
X467552Y459918D01*
X467401Y460105D01*
X467295Y460193D01*
X467219Y460307D01*
X466657Y460869D01*
X466543Y460945D01*
X466455Y461050D01*
X466268Y461202D01*
X465966Y461504D01*
X465631Y461698D01*
X465618Y461711D01*
X464950Y462144D01*
X464823Y462195D01*
X464716Y462279D01*
X464007Y462640D01*
X463989Y462645D01*
X463654Y462839D01*
X463241Y462949D01*
X463017Y463036D01*
X462882Y463059D01*
X462759Y463120D01*
X461990Y463325D01*
X461854Y463334D01*
X461725Y463382D01*
X461487Y463419D01*
X461075Y463530D01*
X460688D01*
X460670Y463535D01*
X459876Y463576D01*
X459776Y463562D01*
X459677Y463579D01*
X459293Y463570D01*
X459229Y463555D01*
X459164Y463563D01*
X458788Y463535D01*
X458768Y463530D01*
X458405D01*
X458086Y463444D01*
X457788Y463392D01*
X457728Y463369D01*
X457663Y463367D01*
X457295Y463284D01*
X457236Y463258D01*
X457171Y463253D01*
X456808Y463152D01*
X456750Y463122D01*
X456685Y463114D01*
X456328Y462995D01*
X456272Y462963D01*
X456208Y462952D01*
X456122Y462918D01*
X455826Y462839D01*
X455800Y462824D01*
X444298Y474326D01*
X444309Y474416D01*
X444869Y475550D01*
X450057D01*
X450066Y475520D01*
X450098Y475463D01*
X450108Y475399D01*
X450241Y475046D01*
X450249Y475033D01*
X450291Y474876D01*
X450371Y474737D01*
X450439Y474582D01*
X450476Y474528D01*
X450493Y474465D01*
X450659Y474127D01*
X450699Y474076D01*
X450718Y474014D01*
X450902Y473685D01*
X450944Y473635D01*
X450967Y473574D01*
X451166Y473255D01*
X451211Y473207D01*
X451236Y473148D01*
X451451Y472838D01*
X451489Y472801D01*
X451522Y472744D01*
X451527Y472734D01*
X451530Y472730D01*
X451626Y472564D01*
X451816Y472374D01*
X451837Y472336D01*
X452081Y472049D01*
X452133Y472009D01*
X452167Y471954D01*
X452425Y471679D01*
X452478Y471642D01*
X452515Y471588D01*
X452787Y471327D01*
X452841Y471292D01*
X452881Y471240D01*
X453165Y470993D01*
X453222Y470960D01*
X453264Y470911D01*
X453335Y470855D01*
X453514Y470676D01*
X453741Y470545D01*
X453969Y470382D01*
X454029Y470356D01*
X454076Y470311D01*
X454393Y470108D01*
X454454Y470084D01*
X454503Y470042D01*
X454830Y469855D01*
X454891Y469834D01*
X454943Y469794D01*
X455279Y469623D01*
X455341Y469606D01*
X455394Y469568D01*
X455565Y469492D01*
X455826Y469341D01*
X456122Y469262D01*
X456208Y469228D01*
X456272Y469217D01*
X456328Y469185D01*
X456686Y469066D01*
X456750Y469058D01*
X456808Y469028D01*
X457171Y468927D01*
X457236Y468922D01*
X457295Y468896D01*
X457663Y468813D01*
X457728Y468811D01*
X457788Y468788D01*
X458086Y468736D01*
X458405Y468650D01*
X458768D01*
X458788Y468645D01*
X459164Y468617D01*
X459229Y468625D01*
X459293Y468610D01*
X459677Y468601D01*
X459776Y468618D01*
X459876Y468604D01*
X460670Y468645D01*
X460688Y468650D01*
X461075D01*
X461488Y468761D01*
X461725Y468798D01*
X461854Y468846D01*
X461990Y468855D01*
X462759Y469061D01*
X462882Y469121D01*
X463017Y469144D01*
X463241Y469230D01*
X463654Y469341D01*
X463989Y469534D01*
X464007Y469540D01*
X464716Y469901D01*
X464823Y469986D01*
X464950Y470036D01*
X465618Y470470D01*
X465631Y470482D01*
X465966Y470676D01*
X466268Y470978D01*
X466455Y471129D01*
X466543Y471235D01*
X466657Y471311D01*
X467219Y471873D01*
X467295Y471987D01*
X467401Y472075D01*
X467552Y472262D01*
X467854Y472564D01*
X468047Y472899D01*
X468060Y472912D01*
X468494Y473579D01*
X468545Y473707D01*
X468629Y473814D01*
X468991Y474523D01*
X468996Y474541D01*
X469189Y474876D01*
X469300Y475289D01*
X469386Y475513D01*
X469409Y475648D01*
X469469Y475771D01*
X469675Y476540D01*
X469684Y476676D01*
X469732Y476805D01*
X469770Y477043D01*
X469880Y477455D01*
Y477842D01*
X469885Y477860D01*
X469926Y478654D01*
X469907Y478790D01*
X469926Y478926D01*
X469885Y479720D01*
X469880Y479738D01*
Y480125D01*
X469769Y480537D01*
X469732Y480775D01*
X469684Y480904D01*
X469675Y481040D01*
X469587Y481370D01*
X476014Y487796D01*
X477128Y489464D01*
X477519Y491430D01*
Y564659D01*
X477128Y566625D01*
X476014Y568292D01*
X459439Y584867D01*
Y591350D01*
X463840D01*
Y612430D01*
X459439D01*
Y675350D01*
X463840D01*
Y696430D01*
D02*
G37*
G36*
X408030Y600620D02*
X399760D01*
Y591350D01*
X408030D01*
Y600620D01*
D02*
G37*
G36*
X49602Y608360D02*
X46918D01*
X44327Y607666D01*
X42003Y606324D01*
X40106Y604427D01*
X38764Y602103D01*
X38070Y599512D01*
Y596828D01*
X38764Y594237D01*
X40106Y591913D01*
X42003Y590016D01*
X44327Y588674D01*
X46918Y587980D01*
X49602D01*
X52193Y588674D01*
X54517Y590016D01*
X56414Y591913D01*
X57756Y594237D01*
X58450Y596828D01*
Y599512D01*
X57756Y602103D01*
X56414Y604427D01*
X54517Y606324D01*
X52193Y607666D01*
X49602Y608360D01*
D02*
G37*
G36*
X444490Y582285D02*
X441823D01*
X440319Y581986D01*
X439045Y581135D01*
X438194Y579861D01*
X437895Y578358D01*
Y574040D01*
X444490D01*
Y582285D01*
D02*
G37*
G36*
X453625Y571500D02*
X447030D01*
Y563255D01*
X449697D01*
X451201Y563554D01*
X452475Y564405D01*
X453326Y565679D01*
X453625Y567183D01*
Y571500D01*
D02*
G37*
G36*
X444490D02*
X437895D01*
Y567183D01*
X438194Y565679D01*
X439045Y564405D01*
X440319Y563554D01*
X441823Y563255D01*
X444490D01*
Y571500D01*
D02*
G37*
G36*
X445770Y559990D02*
Y553720D01*
X452540D01*
Y559990D01*
X445770D01*
D02*
G37*
G36*
X452540Y551180D02*
X445770D01*
Y544910D01*
X452540D01*
Y551180D01*
D02*
G37*
G36*
X431937Y582285D02*
X424062D01*
X422559Y581986D01*
X421285Y581135D01*
X420434Y579861D01*
X420135Y578358D01*
Y567183D01*
X420434Y565679D01*
X421285Y564405D01*
X422559Y563554D01*
X422611Y563543D01*
Y559990D01*
X419460D01*
Y555089D01*
X412790D01*
X410824Y554697D01*
X409156Y553584D01*
X401496Y545924D01*
X400518Y544460D01*
X396210D01*
Y536380D01*
Y536380D01*
X406250D01*
X416290D01*
Y544460D01*
X417415Y544811D01*
X425000D01*
X425496Y544910D01*
X435190D01*
X435540Y544910D01*
X436460D01*
X436810Y544910D01*
X443230D01*
Y552450D01*
Y559990D01*
X436810D01*
X436460Y559990D01*
X435540D01*
X435190Y559990D01*
X432889D01*
Y563444D01*
X433441Y563554D01*
X434715Y564405D01*
X435566Y565679D01*
X435866Y567183D01*
Y578358D01*
X435566Y579861D01*
X434715Y581135D01*
X433441Y581986D01*
X431937Y582285D01*
D02*
G37*
G36*
X211709Y538226D02*
X205740D01*
Y533654D01*
X211709D01*
Y538226D01*
D02*
G37*
G36*
X203200D02*
X197231D01*
Y533654D01*
X203200D01*
Y538226D01*
D02*
G37*
G36*
X211709Y531114D02*
X205740D01*
Y526542D01*
X211709D01*
Y531114D01*
D02*
G37*
G36*
X203200D02*
X197231D01*
Y526542D01*
X203200D01*
Y531114D01*
D02*
G37*
G36*
X96670Y556870D02*
X78590D01*
Y532790D01*
X91133D01*
X91630Y532691D01*
X92501D01*
X110666Y514526D01*
X112333Y513412D01*
X114300Y513021D01*
X197231D01*
Y512318D01*
X211709D01*
Y513021D01*
X215300D01*
Y510091D01*
X211709D01*
Y510794D01*
X197231D01*
Y510004D01*
X195700Y509700D01*
X194032Y508586D01*
X176996Y491549D01*
X173550D01*
Y498950D01*
X113470D01*
Y473870D01*
X173550D01*
Y481271D01*
X179124D01*
X181091Y481662D01*
X182758Y482776D01*
X195961Y495980D01*
X197231Y495454D01*
Y491998D01*
X203200D01*
Y496570D01*
X198347D01*
X197821Y497840D01*
X199091Y499110D01*
X211709D01*
Y499813D01*
X215300D01*
Y493000D01*
X230080D01*
Y515380D01*
X224608D01*
X223978Y516650D01*
X224343Y517130D01*
X231350D01*
Y539510D01*
X216570D01*
Y524397D01*
X215471Y523299D01*
X211709D01*
Y524002D01*
X197231D01*
Y523299D01*
X116428D01*
X98264Y541464D01*
X96670Y542528D01*
Y556870D01*
D02*
G37*
G36*
X211709Y496570D02*
X205740D01*
Y491998D01*
X211709D01*
Y496570D01*
D02*
G37*
G36*
Y489458D02*
X205740D01*
Y484886D01*
X211709D01*
Y489458D01*
D02*
G37*
G36*
X203200D02*
X197231D01*
Y484886D01*
X203200D01*
Y489458D01*
D02*
G37*
G36*
X383020Y463185D02*
Y459740D01*
X383540D01*
Y458984D01*
X387220D01*
X386447Y460853D01*
X384888Y462411D01*
X383020Y463185D01*
D02*
G37*
G36*
X380480D02*
X378612Y462411D01*
X377053Y460853D01*
X376280Y458984D01*
X379730D01*
Y459740D01*
X380480D01*
Y463185D01*
D02*
G37*
G36*
X269240Y461790D02*
X262970D01*
Y455020D01*
X269240D01*
Y461790D01*
D02*
G37*
G36*
X223520Y460629D02*
X218948D01*
Y454660D01*
X223520D01*
Y460629D01*
D02*
G37*
G36*
X216408D02*
X211836D01*
Y454660D01*
X216408D01*
Y460629D01*
D02*
G37*
G36*
X78550Y498950D02*
X18470D01*
Y473870D01*
X71283D01*
X105135Y440017D01*
X106803Y438903D01*
X108769Y438512D01*
X223560D01*
X225527Y438903D01*
X227194Y440017D01*
X233327Y446151D01*
X237744D01*
Y446440D01*
X260110D01*
Y461220D01*
X237730D01*
Y460629D01*
X226060D01*
Y453418D01*
X224693Y452052D01*
X224528Y452120D01*
X217678D01*
X211836D01*
Y448790D01*
X110898D01*
X78550Y481137D01*
Y498950D01*
D02*
G37*
G36*
X290340Y432990D02*
X283570D01*
Y426720D01*
X290340D01*
Y432990D01*
D02*
G37*
G36*
X137630Y430820D02*
X128360D01*
Y422550D01*
X137630D01*
Y430820D01*
D02*
G37*
G36*
X53630D02*
X44360D01*
Y422550D01*
X53630D01*
Y430820D01*
D02*
G37*
G36*
X125820D02*
X116550D01*
Y422550D01*
X125820D01*
Y430820D01*
D02*
G37*
G36*
X41820D02*
X32550D01*
Y422550D01*
X41820D01*
Y430820D01*
D02*
G37*
G36*
X290340Y424180D02*
X283570D01*
Y417910D01*
X290340D01*
Y424180D01*
D02*
G37*
G36*
X137630Y420010D02*
X128360D01*
Y411740D01*
X137630D01*
Y420010D01*
D02*
G37*
G36*
X125820D02*
X116550D01*
Y411740D01*
X125820D01*
Y420010D01*
D02*
G37*
G36*
X53630D02*
X44360D01*
Y411740D01*
X53630D01*
Y420010D01*
D02*
G37*
G36*
X41820D02*
X32550D01*
Y411740D01*
X41820D01*
Y420010D01*
D02*
G37*
G36*
X417830Y406400D02*
X411560D01*
Y399630D01*
X417830D01*
Y406400D01*
D02*
G37*
G36*
X154860Y400960D02*
X148590D01*
Y394190D01*
X154860D01*
Y400960D01*
D02*
G37*
G36*
X146050D02*
X139780D01*
Y394190D01*
X146050D01*
Y400960D01*
D02*
G37*
G36*
X276860Y399970D02*
X270090D01*
Y393700D01*
X276860D01*
Y399970D01*
D02*
G37*
G36*
Y391160D02*
X270090D01*
Y384890D01*
X276860D01*
Y391160D01*
D02*
G37*
G36*
X154860Y391650D02*
X147320D01*
X139780D01*
Y385230D01*
X139780Y384880D01*
Y383960D01*
X139780Y383610D01*
Y380399D01*
X137630D01*
Y385820D01*
X116550D01*
Y380399D01*
X53630D01*
Y385820D01*
X32550D01*
Y366740D01*
X53630D01*
Y372161D01*
X116550D01*
Y366740D01*
X137630D01*
Y372161D01*
X139780D01*
Y367880D01*
X143201D01*
Y365520D01*
X141640D01*
Y343140D01*
X145744D01*
Y341609D01*
X144933Y340797D01*
X144089Y338761D01*
Y336557D01*
X144933Y334521D01*
X146491Y332962D01*
X148527Y332119D01*
X150731D01*
X152767Y332962D01*
X154326Y334521D01*
X155169Y336557D01*
Y338761D01*
X154326Y340797D01*
X153514Y341609D01*
Y343140D01*
X156420D01*
Y365520D01*
X151439D01*
Y367880D01*
X154860D01*
Y383610D01*
X154860Y383960D01*
Y384880D01*
X154860Y385230D01*
Y391650D01*
D02*
G37*
G36*
X224862Y373410D02*
X224790D01*
Y364490D01*
X233710D01*
Y364562D01*
X233016Y367153D01*
X231674Y369477D01*
X229777Y371374D01*
X227453Y372716D01*
X224862Y373410D01*
D02*
G37*
G36*
X222250D02*
X222178D01*
X219587Y372716D01*
X217263Y371374D01*
X215366Y369477D01*
X214024Y367153D01*
X213330Y364562D01*
Y364490D01*
X222250D01*
Y373410D01*
D02*
G37*
G36*
X233710Y361950D02*
X224790D01*
Y353030D01*
X224862D01*
X227453Y353724D01*
X229777Y355066D01*
X231674Y356963D01*
X233016Y359287D01*
X233710Y361878D01*
Y361950D01*
D02*
G37*
G36*
X222250D02*
X213330D01*
Y361878D01*
X214024Y359287D01*
X215366Y356963D01*
X217263Y355066D01*
X219587Y353724D01*
X222178Y353030D01*
X222250D01*
Y361950D01*
D02*
G37*
G36*
X72310Y326030D02*
X66040D01*
Y319260D01*
X72310D01*
Y326030D01*
D02*
G37*
G36*
X63500D02*
X57230D01*
Y319260D01*
X63500D01*
Y326030D01*
D02*
G37*
G36*
X409970Y314290D02*
X400050D01*
Y308170D01*
X409970D01*
Y314290D01*
D02*
G37*
G36*
X383300D02*
X373380D01*
Y308170D01*
X383300D01*
Y314290D01*
D02*
G37*
G36*
X397510D02*
X387590D01*
Y308170D01*
X397510D01*
Y314290D01*
D02*
G37*
G36*
X370840D02*
X360920D01*
Y308170D01*
X370840D01*
Y314290D01*
D02*
G37*
G36*
X356630Y313020D02*
X346710D01*
Y306900D01*
X356630D01*
Y313020D01*
D02*
G37*
G36*
X331230D02*
X321310D01*
Y306900D01*
X331230D01*
Y313020D01*
D02*
G37*
G36*
X344170D02*
X334250D01*
Y306900D01*
X344170D01*
Y313020D01*
D02*
G37*
G36*
X318770D02*
X308850D01*
Y306900D01*
X318770D01*
Y313020D01*
D02*
G37*
G36*
X437910Y310480D02*
X427990D01*
Y304360D01*
X437910D01*
Y310480D01*
D02*
G37*
G36*
X425450D02*
X415530D01*
Y304360D01*
X425450D01*
Y310480D01*
D02*
G37*
G36*
X409970Y305630D02*
X400050D01*
Y299510D01*
X409970D01*
Y305630D01*
D02*
G37*
G36*
X397510D02*
X387590D01*
Y299510D01*
X397510D01*
Y305630D01*
D02*
G37*
G36*
X383300D02*
X373380D01*
Y299510D01*
X383300D01*
Y305630D01*
D02*
G37*
G36*
X370840D02*
X360920D01*
Y299510D01*
X370840D01*
Y305630D01*
D02*
G37*
G36*
X162320Y301590D02*
X139940D01*
Y299339D01*
X138190D01*
Y301590D01*
X115810D01*
Y299339D01*
X114060D01*
Y301590D01*
X91680D01*
Y286810D01*
X114060D01*
Y289061D01*
X115810D01*
Y286810D01*
X138190D01*
Y289061D01*
X139940D01*
Y286810D01*
X162320D01*
Y301590D01*
D02*
G37*
G36*
X356630Y304360D02*
X346710D01*
Y298240D01*
X356630D01*
Y304360D01*
D02*
G37*
G36*
X344170D02*
X334250D01*
Y298240D01*
X344170D01*
Y304360D01*
D02*
G37*
G36*
X331230D02*
X321310D01*
Y298240D01*
X331230D01*
Y304360D01*
D02*
G37*
G36*
X318770D02*
X308850D01*
Y298240D01*
X318770D01*
Y304360D01*
D02*
G37*
G36*
X437910Y301820D02*
X427990D01*
Y295700D01*
X437910D01*
Y301820D01*
D02*
G37*
G36*
X425450D02*
X415530D01*
Y295700D01*
X425450D01*
Y301820D01*
D02*
G37*
G36*
X72310Y316720D02*
X64770D01*
X57230D01*
Y310300D01*
X57230Y309907D01*
X56068Y308770D01*
X34530D01*
Y293990D01*
X56910D01*
X57230Y292950D01*
X72310D01*
Y308680D01*
X72310Y309030D01*
Y309950D01*
X72310Y310300D01*
Y316720D01*
D02*
G37*
G36*
X448147Y234600D02*
X440877D01*
Y226330D01*
X448147D01*
Y234600D01*
D02*
G37*
G36*
Y223790D02*
X440877D01*
Y215520D01*
X448147D01*
Y223790D01*
D02*
G37*
G36*
X457200Y196342D02*
Y191770D01*
X463169D01*
Y196342D01*
X457200D01*
D02*
G37*
G36*
X448147Y212600D02*
X423877D01*
Y203060D01*
Y193520D01*
X435723D01*
Y190260D01*
X431590D01*
Y167880D01*
X446370D01*
Y190260D01*
X443492D01*
Y193520D01*
X448147Y193520D01*
X448691Y192475D01*
Y191770D01*
X454660D01*
Y196342D01*
X449417D01*
X448691Y196342D01*
X448147Y197387D01*
Y197837D01*
X448691Y198882D01*
X463169D01*
Y210566D01*
X448691D01*
X448147Y211611D01*
Y212600D01*
D02*
G37*
G36*
X463169Y189230D02*
X457200D01*
Y184658D01*
X463169D01*
Y189230D01*
D02*
G37*
G36*
X454660D02*
X448691D01*
Y184658D01*
X454660D01*
Y189230D01*
D02*
G37*
G36*
X225570Y187960D02*
X218800D01*
Y181690D01*
X225570D01*
Y187960D01*
D02*
G37*
G36*
X242570Y150070D02*
X232650D01*
Y143950D01*
X242570D01*
Y150070D01*
D02*
G37*
G36*
Y141410D02*
X232650D01*
Y135290D01*
X242570D01*
Y141410D01*
D02*
G37*
G36*
X401545Y142240D02*
X394950D01*
Y133995D01*
X397617D01*
X399121Y134294D01*
X400395Y135145D01*
X401246Y136419D01*
X401545Y137922D01*
Y142240D01*
D02*
G37*
G36*
X392410D02*
X385815D01*
Y137922D01*
X386114Y136419D01*
X386965Y135145D01*
X388239Y134294D01*
X389743Y133995D01*
X392410D01*
Y142240D01*
D02*
G37*
G36*
X414620Y131840D02*
X408500D01*
Y121920D01*
X414620D01*
Y131840D01*
D02*
G37*
G36*
X405960D02*
X399840D01*
Y121920D01*
X405960D01*
Y131840D01*
D02*
G37*
G36*
X278050Y122700D02*
X271780D01*
Y115930D01*
X278050D01*
Y122700D01*
D02*
G37*
G36*
X269240D02*
X262970D01*
Y115930D01*
X269240D01*
Y122700D01*
D02*
G37*
G36*
X343290Y118030D02*
X336520D01*
Y111760D01*
X343290D01*
Y118030D01*
D02*
G37*
G36*
X295830Y116840D02*
X289560D01*
Y110070D01*
X295830D01*
Y116840D01*
D02*
G37*
G36*
X287020D02*
X280750D01*
Y110070D01*
X287020D01*
Y116840D01*
D02*
G37*
G36*
X312340Y116350D02*
X306070D01*
Y109580D01*
X312340D01*
Y116350D01*
D02*
G37*
G36*
X303530D02*
X297260D01*
Y109580D01*
X303530D01*
Y116350D01*
D02*
G37*
G36*
X414620Y119380D02*
X408500D01*
Y109460D01*
X414620D01*
Y119380D01*
D02*
G37*
G36*
X405960D02*
X399840D01*
Y109460D01*
X405960D01*
Y119380D01*
D02*
G37*
G36*
X343290Y109220D02*
X336520D01*
Y102950D01*
X343290D01*
Y109220D01*
D02*
G37*
G36*
X329437Y100576D02*
X325120D01*
Y93980D01*
X333365D01*
Y96648D01*
X333066Y98151D01*
X332215Y99425D01*
X330941Y100276D01*
X329437Y100576D01*
D02*
G37*
G36*
X322580D02*
X318263D01*
X316759Y100276D01*
X315485Y99425D01*
X314634Y98151D01*
X314335Y96648D01*
Y93980D01*
X322580D01*
Y100576D01*
D02*
G37*
G36*
X333365Y91440D02*
X325120D01*
Y84845D01*
X329437D01*
X330941Y85143D01*
X332215Y85995D01*
X333066Y87269D01*
X333365Y88772D01*
Y91440D01*
D02*
G37*
G36*
X322580D02*
X314335D01*
Y88772D01*
X314634Y87269D01*
X315485Y85995D01*
X316759Y85143D01*
X318263Y84845D01*
X322580D01*
Y91440D01*
D02*
G37*
G36*
X229702Y75390D02*
X227498D01*
X225462Y74547D01*
X223903Y72988D01*
X223060Y70952D01*
Y68748D01*
X223903Y66712D01*
X225462Y65153D01*
X227498Y64310D01*
X229702D01*
X231738Y65153D01*
X233297Y66712D01*
X234140Y68748D01*
Y70952D01*
X233297Y72988D01*
X231738Y74547D01*
X229702Y75390D01*
D02*
G37*
G36*
X281772Y72850D02*
X279568D01*
X277532Y72007D01*
X275973Y70448D01*
X275130Y68412D01*
Y66208D01*
X275973Y64172D01*
X277532Y62613D01*
X279568Y61770D01*
X281772D01*
X283808Y62613D01*
X285367Y64172D01*
X286210Y66208D01*
Y68412D01*
X285367Y70448D01*
X283808Y72007D01*
X281772Y72850D01*
D02*
G37*
G36*
X257642Y70310D02*
X255438D01*
X253402Y69467D01*
X251843Y67908D01*
X251000Y65872D01*
Y63668D01*
X251843Y61632D01*
X253402Y60073D01*
X255438Y59230D01*
X257642D01*
X259678Y60073D01*
X261237Y61632D01*
X262080Y63668D01*
Y65872D01*
X261237Y67908D01*
X259678Y69467D01*
X257642Y70310D01*
D02*
G37*
G36*
X309260Y52180D02*
X307960D01*
X306969Y51983D01*
X306129Y51421D01*
X305567Y50581D01*
X305370Y49590D01*
Y43973D01*
X305340Y43964D01*
X305283Y43932D01*
X305219Y43922D01*
X304866Y43789D01*
X304853Y43781D01*
X304696Y43739D01*
X304557Y43659D01*
X304402Y43591D01*
X304348Y43554D01*
X304285Y43538D01*
X303947Y43371D01*
X303896Y43331D01*
X303834Y43312D01*
X303505Y43128D01*
X303455Y43086D01*
X303394Y43063D01*
X303074Y42864D01*
X303027Y42819D01*
X302967Y42794D01*
X302658Y42579D01*
X302621Y42541D01*
X302564Y42508D01*
X302554Y42503D01*
X302550Y42500D01*
X302384Y42404D01*
X302194Y42214D01*
X302156Y42193D01*
X301869Y41948D01*
X301829Y41897D01*
X301774Y41863D01*
X301499Y41605D01*
X301462Y41552D01*
X301408Y41515D01*
X301147Y41243D01*
X301112Y41189D01*
X301060Y41149D01*
X300813Y40865D01*
X300780Y40809D01*
X300731Y40766D01*
X300675Y40695D01*
X300496Y40516D01*
X300365Y40289D01*
X300203Y40061D01*
X300176Y40001D01*
X300131Y39954D01*
X299928Y39637D01*
X299904Y39576D01*
X299862Y39527D01*
X299675Y39200D01*
X299654Y39139D01*
X299614Y39088D01*
X299443Y38751D01*
X299426Y38689D01*
X299388Y38636D01*
X299312Y38465D01*
X299161Y38204D01*
X299082Y37908D01*
X299048Y37822D01*
X299037Y37758D01*
X299005Y37702D01*
X298886Y37344D01*
X298878Y37280D01*
X298848Y37222D01*
X298747Y36859D01*
X298742Y36794D01*
X298716Y36735D01*
X298633Y36367D01*
X298631Y36302D01*
X298608Y36242D01*
X298556Y35944D01*
X298470Y35625D01*
Y35262D01*
X298465Y35242D01*
X298437Y34866D01*
X298445Y34801D01*
X298430Y34737D01*
X298421Y34353D01*
X298438Y34254D01*
X298424Y34154D01*
X298465Y33360D01*
X298470Y33342D01*
Y32955D01*
X298581Y32543D01*
X298618Y32305D01*
X298666Y32176D01*
X298675Y32040D01*
X298881Y31271D01*
X298941Y31148D01*
X298964Y31013D01*
X299051Y30789D01*
X299161Y30376D01*
X299354Y30041D01*
X299360Y30023D01*
X299721Y29314D01*
X299806Y29207D01*
X299856Y29079D01*
X300289Y28412D01*
X300303Y28399D01*
X300496Y28064D01*
X300798Y27762D01*
X300949Y27575D01*
X301055Y27487D01*
X301131Y27373D01*
X301693Y26811D01*
X301807Y26735D01*
X301895Y26630D01*
X302082Y26478D01*
X302384Y26176D01*
X302719Y25982D01*
X302732Y25970D01*
X303400Y25536D01*
X303527Y25485D01*
X303634Y25401D01*
X304343Y25040D01*
X304361Y25034D01*
X304696Y24841D01*
X305109Y24731D01*
X305333Y24644D01*
X305468Y24621D01*
X305591Y24560D01*
X306360Y24355D01*
X306496Y24346D01*
X306625Y24298D01*
X306863Y24260D01*
X307275Y24150D01*
X307662D01*
X307680Y24145D01*
X308474Y24104D01*
X308610Y24123D01*
X308746Y24104D01*
X309540Y24145D01*
X309558Y24150D01*
X309945D01*
X310357Y24261D01*
X310595Y24298D01*
X310724Y24346D01*
X310860Y24355D01*
X311629Y24560D01*
X311752Y24621D01*
X311887Y24644D01*
X312111Y24731D01*
X312524Y24841D01*
X312859Y25034D01*
X312877Y25040D01*
X313586Y25401D01*
X313693Y25485D01*
X313820Y25536D01*
X314488Y25970D01*
X314501Y25982D01*
X314836Y26176D01*
X315138Y26478D01*
X315325Y26630D01*
X315413Y26735D01*
X315527Y26811D01*
X316089Y27373D01*
X316165Y27487D01*
X316271Y27575D01*
X316422Y27762D01*
X316724Y28064D01*
X316917Y28399D01*
X316931Y28412D01*
X317364Y29079D01*
X317414Y29207D01*
X317499Y29314D01*
X317861Y30023D01*
X317866Y30041D01*
X318059Y30376D01*
X318169Y30789D01*
X318256Y31013D01*
X318279Y31148D01*
X318340Y31271D01*
X318545Y32040D01*
X318554Y32176D01*
X318602Y32305D01*
X318640Y32543D01*
X318750Y32955D01*
Y33342D01*
X318755Y33360D01*
X318796Y34154D01*
X318782Y34254D01*
X318799Y34353D01*
X318790Y34737D01*
X318775Y34801D01*
X318783Y34866D01*
X318755Y35242D01*
X318750Y35262D01*
Y35625D01*
X318664Y35944D01*
X318612Y36242D01*
X318589Y36302D01*
X318587Y36367D01*
X318504Y36735D01*
X318478Y36794D01*
X318473Y36859D01*
X318372Y37222D01*
X318342Y37280D01*
X318334Y37345D01*
X318215Y37702D01*
X318183Y37758D01*
X318172Y37822D01*
X318138Y37908D01*
X318059Y38204D01*
X317908Y38465D01*
X317832Y38636D01*
X317794Y38689D01*
X317777Y38751D01*
X317606Y39088D01*
X317566Y39139D01*
X317545Y39200D01*
X317358Y39527D01*
X317316Y39576D01*
X317292Y39637D01*
X317089Y39954D01*
X317044Y40001D01*
X317017Y40061D01*
X316855Y40289D01*
X316724Y40516D01*
X316545Y40695D01*
X316489Y40766D01*
X316440Y40809D01*
X316407Y40865D01*
X316160Y41149D01*
X316108Y41189D01*
X316073Y41243D01*
X315812Y41515D01*
X315758Y41552D01*
X315721Y41605D01*
X315446Y41863D01*
X315391Y41897D01*
X315351Y41948D01*
X315064Y42193D01*
X315026Y42214D01*
X314836Y42404D01*
X314670Y42500D01*
X314666Y42503D01*
X314656Y42508D01*
X314599Y42541D01*
X314562Y42579D01*
X314252Y42794D01*
X314193Y42820D01*
X314146Y42864D01*
X313826Y43063D01*
X313765Y43086D01*
X313715Y43128D01*
X313386Y43312D01*
X313324Y43331D01*
X313273Y43371D01*
X312935Y43538D01*
X312872Y43554D01*
X312818Y43591D01*
X312663Y43659D01*
X312524Y43739D01*
X312367Y43781D01*
X312354Y43789D01*
X312001Y43922D01*
X311937Y43932D01*
X311880Y43964D01*
X311850Y43973D01*
Y49590D01*
X311653Y50581D01*
X311091Y51421D01*
X310251Y51983D01*
X309260Y52180D01*
D02*
G37*
G36*
X258460D02*
X257160D01*
X256169Y51983D01*
X255329Y51421D01*
X254767Y50581D01*
X254570Y49590D01*
Y43973D01*
X254540Y43964D01*
X254483Y43932D01*
X254419Y43922D01*
X254066Y43789D01*
X254053Y43781D01*
X253896Y43739D01*
X253757Y43659D01*
X253602Y43591D01*
X253548Y43554D01*
X253485Y43538D01*
X253147Y43371D01*
X253096Y43331D01*
X253034Y43312D01*
X252705Y43128D01*
X252655Y43086D01*
X252594Y43063D01*
X252274Y42864D01*
X252227Y42819D01*
X252167Y42794D01*
X251858Y42579D01*
X251821Y42541D01*
X251764Y42508D01*
X251754Y42503D01*
X251750Y42500D01*
X251584Y42404D01*
X251394Y42214D01*
X251356Y42193D01*
X251069Y41948D01*
X251029Y41897D01*
X250974Y41863D01*
X250699Y41605D01*
X250662Y41552D01*
X250608Y41515D01*
X250347Y41243D01*
X250312Y41189D01*
X250260Y41149D01*
X250013Y40865D01*
X249980Y40809D01*
X249931Y40766D01*
X249875Y40695D01*
X249696Y40516D01*
X249565Y40289D01*
X249403Y40061D01*
X249376Y40001D01*
X249331Y39954D01*
X249128Y39637D01*
X249104Y39576D01*
X249062Y39527D01*
X248875Y39200D01*
X248854Y39139D01*
X248814Y39088D01*
X248643Y38751D01*
X248626Y38689D01*
X248588Y38636D01*
X248512Y38465D01*
X248361Y38204D01*
X248282Y37908D01*
X248248Y37822D01*
X248237Y37758D01*
X248205Y37702D01*
X248086Y37344D01*
X248078Y37280D01*
X248048Y37222D01*
X247947Y36859D01*
X247942Y36794D01*
X247916Y36735D01*
X247833Y36367D01*
X247831Y36302D01*
X247808Y36242D01*
X247756Y35944D01*
X247670Y35625D01*
Y35262D01*
X247665Y35242D01*
X247637Y34866D01*
X247645Y34801D01*
X247630Y34737D01*
X247621Y34353D01*
X247638Y34254D01*
X247624Y34154D01*
X247665Y33360D01*
X247670Y33342D01*
Y32955D01*
X247781Y32543D01*
X247818Y32305D01*
X247866Y32176D01*
X247875Y32040D01*
X248081Y31271D01*
X248141Y31148D01*
X248164Y31013D01*
X248251Y30789D01*
X248361Y30376D01*
X248554Y30041D01*
X248560Y30023D01*
X248921Y29314D01*
X249006Y29207D01*
X249056Y29079D01*
X249489Y28412D01*
X249503Y28399D01*
X249696Y28064D01*
X249998Y27762D01*
X250149Y27575D01*
X250255Y27487D01*
X250331Y27373D01*
X250893Y26811D01*
X251007Y26735D01*
X251095Y26630D01*
X251282Y26478D01*
X251584Y26176D01*
X251919Y25982D01*
X251932Y25970D01*
X252600Y25536D01*
X252727Y25485D01*
X252834Y25401D01*
X253543Y25040D01*
X253561Y25034D01*
X253896Y24841D01*
X254309Y24731D01*
X254533Y24644D01*
X254668Y24621D01*
X254791Y24560D01*
X255560Y24355D01*
X255696Y24346D01*
X255825Y24298D01*
X256063Y24260D01*
X256475Y24150D01*
X256862D01*
X256880Y24145D01*
X257674Y24104D01*
X257810Y24123D01*
X257946Y24104D01*
X258740Y24145D01*
X258758Y24150D01*
X259145D01*
X259557Y24261D01*
X259795Y24298D01*
X259924Y24346D01*
X260060Y24355D01*
X260829Y24560D01*
X260952Y24621D01*
X261087Y24644D01*
X261311Y24731D01*
X261724Y24841D01*
X262059Y25034D01*
X262077Y25040D01*
X262786Y25401D01*
X262893Y25485D01*
X263020Y25536D01*
X263688Y25970D01*
X263701Y25982D01*
X264036Y26176D01*
X264338Y26478D01*
X264525Y26630D01*
X264613Y26735D01*
X264727Y26811D01*
X265289Y27373D01*
X265365Y27487D01*
X265471Y27575D01*
X265622Y27762D01*
X265924Y28064D01*
X266117Y28399D01*
X266131Y28412D01*
X266564Y29079D01*
X266614Y29207D01*
X266699Y29314D01*
X267061Y30023D01*
X267066Y30041D01*
X267259Y30376D01*
X267369Y30789D01*
X267456Y31013D01*
X267479Y31148D01*
X267540Y31271D01*
X267745Y32040D01*
X267754Y32176D01*
X267802Y32305D01*
X267840Y32543D01*
X267950Y32955D01*
Y33342D01*
X267955Y33360D01*
X267996Y34154D01*
X267982Y34254D01*
X267999Y34353D01*
X267990Y34737D01*
X267975Y34801D01*
X267983Y34866D01*
X267955Y35242D01*
X267950Y35262D01*
Y35625D01*
X267864Y35944D01*
X267812Y36242D01*
X267789Y36302D01*
X267787Y36367D01*
X267704Y36735D01*
X267678Y36794D01*
X267673Y36859D01*
X267572Y37222D01*
X267542Y37280D01*
X267534Y37345D01*
X267415Y37702D01*
X267383Y37758D01*
X267372Y37822D01*
X267338Y37908D01*
X267259Y38204D01*
X267108Y38465D01*
X267032Y38636D01*
X266994Y38689D01*
X266977Y38751D01*
X266806Y39088D01*
X266766Y39139D01*
X266745Y39200D01*
X266558Y39527D01*
X266516Y39576D01*
X266492Y39637D01*
X266289Y39954D01*
X266244Y40001D01*
X266217Y40061D01*
X266055Y40289D01*
X265924Y40516D01*
X265745Y40695D01*
X265689Y40766D01*
X265640Y40809D01*
X265607Y40865D01*
X265360Y41149D01*
X265308Y41189D01*
X265273Y41243D01*
X265012Y41515D01*
X264958Y41552D01*
X264921Y41605D01*
X264646Y41863D01*
X264591Y41897D01*
X264551Y41948D01*
X264264Y42193D01*
X264226Y42214D01*
X264036Y42404D01*
X263870Y42500D01*
X263866Y42503D01*
X263856Y42508D01*
X263799Y42541D01*
X263762Y42579D01*
X263452Y42794D01*
X263393Y42820D01*
X263346Y42864D01*
X263026Y43063D01*
X262965Y43086D01*
X262915Y43128D01*
X262586Y43312D01*
X262524Y43331D01*
X262473Y43371D01*
X262135Y43538D01*
X262072Y43554D01*
X262018Y43591D01*
X261863Y43659D01*
X261724Y43739D01*
X261567Y43781D01*
X261554Y43789D01*
X261201Y43922D01*
X261137Y43932D01*
X261080Y43964D01*
X261050Y43973D01*
Y49590D01*
X260853Y50581D01*
X260291Y51421D01*
X259451Y51983D01*
X258460Y52180D01*
D02*
G37*
G36*
X233060D02*
X231760D01*
X230769Y51983D01*
X229929Y51421D01*
X229367Y50581D01*
X229170Y49590D01*
Y43973D01*
X229140Y43964D01*
X229083Y43932D01*
X229019Y43922D01*
X228666Y43789D01*
X228653Y43781D01*
X228496Y43739D01*
X228357Y43659D01*
X228202Y43591D01*
X228148Y43554D01*
X228085Y43538D01*
X227747Y43371D01*
X227696Y43331D01*
X227634Y43312D01*
X227305Y43128D01*
X227255Y43086D01*
X227194Y43063D01*
X226875Y42864D01*
X226827Y42819D01*
X226768Y42794D01*
X226458Y42579D01*
X226421Y42541D01*
X226364Y42508D01*
X226355Y42503D01*
X226350Y42500D01*
X226184Y42404D01*
X225993Y42214D01*
X225956Y42193D01*
X225669Y41948D01*
X225629Y41897D01*
X225574Y41863D01*
X225299Y41605D01*
X225262Y41552D01*
X225208Y41515D01*
X224947Y41243D01*
X224912Y41189D01*
X224860Y41149D01*
X224613Y40865D01*
X224580Y40809D01*
X224531Y40766D01*
X224475Y40695D01*
X224296Y40516D01*
X224165Y40289D01*
X224002Y40061D01*
X223976Y40001D01*
X223931Y39954D01*
X223728Y39637D01*
X223704Y39576D01*
X223662Y39527D01*
X223475Y39200D01*
X223454Y39139D01*
X223414Y39088D01*
X223243Y38751D01*
X223226Y38689D01*
X223188Y38636D01*
X223112Y38465D01*
X222961Y38204D01*
X222882Y37908D01*
X222848Y37822D01*
X222837Y37758D01*
X222805Y37702D01*
X222686Y37344D01*
X222678Y37280D01*
X222648Y37222D01*
X222547Y36859D01*
X222542Y36794D01*
X222516Y36735D01*
X222433Y36367D01*
X222431Y36302D01*
X222408Y36242D01*
X222356Y35944D01*
X222270Y35625D01*
Y35262D01*
X222265Y35242D01*
X222237Y34866D01*
X222245Y34801D01*
X222230Y34737D01*
X222221Y34353D01*
X222238Y34254D01*
X222224Y34154D01*
X222265Y33360D01*
X222270Y33342D01*
Y32955D01*
X222381Y32543D01*
X222418Y32305D01*
X222466Y32176D01*
X222475Y32040D01*
X222680Y31271D01*
X222741Y31148D01*
X222764Y31013D01*
X222850Y30789D01*
X222961Y30376D01*
X223155Y30041D01*
X223160Y30023D01*
X223521Y29314D01*
X223605Y29207D01*
X223656Y29079D01*
X224090Y28412D01*
X224102Y28399D01*
X224296Y28064D01*
X224598Y27762D01*
X224750Y27575D01*
X224855Y27487D01*
X224931Y27373D01*
X225493Y26811D01*
X225607Y26735D01*
X225695Y26630D01*
X225882Y26478D01*
X226184Y26176D01*
X226519Y25982D01*
X226532Y25970D01*
X227199Y25536D01*
X227327Y25485D01*
X227434Y25401D01*
X228143Y25040D01*
X228161Y25034D01*
X228496Y24841D01*
X228909Y24731D01*
X229133Y24644D01*
X229268Y24621D01*
X229391Y24560D01*
X230160Y24355D01*
X230296Y24346D01*
X230425Y24298D01*
X230663Y24260D01*
X231075Y24150D01*
X231462D01*
X231480Y24145D01*
X232274Y24104D01*
X232410Y24123D01*
X232546Y24104D01*
X233340Y24145D01*
X233358Y24150D01*
X233745D01*
X234158Y24261D01*
X234395Y24298D01*
X234524Y24346D01*
X234660Y24355D01*
X235429Y24560D01*
X235552Y24621D01*
X235687Y24644D01*
X235911Y24731D01*
X236324Y24841D01*
X236659Y25034D01*
X236677Y25040D01*
X237386Y25401D01*
X237493Y25485D01*
X237621Y25536D01*
X238288Y25970D01*
X238301Y25982D01*
X238636Y26176D01*
X238938Y26478D01*
X239125Y26630D01*
X239213Y26735D01*
X239327Y26811D01*
X239889Y27373D01*
X239965Y27487D01*
X240070Y27575D01*
X240222Y27762D01*
X240524Y28064D01*
X240718Y28399D01*
X240730Y28412D01*
X241164Y29079D01*
X241215Y29207D01*
X241299Y29314D01*
X241660Y30023D01*
X241665Y30041D01*
X241859Y30376D01*
X241970Y30789D01*
X242056Y31013D01*
X242079Y31148D01*
X242139Y31271D01*
X242345Y32040D01*
X242354Y32176D01*
X242402Y32305D01*
X242439Y32543D01*
X242550Y32955D01*
Y33342D01*
X242555Y33360D01*
X242596Y34154D01*
X242582Y34254D01*
X242599Y34353D01*
X242590Y34737D01*
X242575Y34801D01*
X242583Y34866D01*
X242555Y35242D01*
X242550Y35262D01*
Y35625D01*
X242464Y35944D01*
X242412Y36242D01*
X242389Y36302D01*
X242387Y36367D01*
X242304Y36735D01*
X242278Y36794D01*
X242273Y36859D01*
X242171Y37222D01*
X242142Y37280D01*
X242134Y37345D01*
X242015Y37702D01*
X241983Y37758D01*
X241972Y37822D01*
X241938Y37908D01*
X241859Y38204D01*
X241708Y38465D01*
X241632Y38636D01*
X241594Y38689D01*
X241577Y38751D01*
X241406Y39088D01*
X241366Y39139D01*
X241345Y39200D01*
X241158Y39527D01*
X241116Y39576D01*
X241092Y39637D01*
X240889Y39954D01*
X240844Y40001D01*
X240818Y40061D01*
X240655Y40289D01*
X240524Y40516D01*
X240345Y40695D01*
X240289Y40766D01*
X240240Y40809D01*
X240207Y40865D01*
X239960Y41149D01*
X239908Y41189D01*
X239873Y41243D01*
X239612Y41515D01*
X239558Y41552D01*
X239521Y41605D01*
X239246Y41863D01*
X239191Y41897D01*
X239151Y41948D01*
X238864Y42193D01*
X238827Y42214D01*
X238636Y42404D01*
X238470Y42500D01*
X238465Y42503D01*
X238456Y42508D01*
X238399Y42541D01*
X238362Y42579D01*
X238053Y42794D01*
X237993Y42820D01*
X237945Y42864D01*
X237626Y43063D01*
X237565Y43086D01*
X237515Y43128D01*
X237186Y43312D01*
X237124Y43331D01*
X237073Y43371D01*
X236735Y43538D01*
X236672Y43554D01*
X236618Y43591D01*
X236463Y43659D01*
X236324Y43739D01*
X236167Y43781D01*
X236154Y43789D01*
X235801Y43922D01*
X235737Y43932D01*
X235680Y43964D01*
X235650Y43973D01*
Y49590D01*
X235453Y50581D01*
X234891Y51421D01*
X234051Y51983D01*
X233060Y52180D01*
D02*
G37*
G36*
X207660D02*
X206360D01*
X205369Y51983D01*
X204529Y51421D01*
X203967Y50581D01*
X203770Y49590D01*
Y43973D01*
X203740Y43964D01*
X203683Y43932D01*
X203619Y43922D01*
X203266Y43789D01*
X203253Y43781D01*
X203096Y43739D01*
X202957Y43659D01*
X202802Y43591D01*
X202748Y43554D01*
X202685Y43538D01*
X202347Y43371D01*
X202296Y43331D01*
X202234Y43312D01*
X201905Y43128D01*
X201855Y43086D01*
X201794Y43063D01*
X201474Y42864D01*
X201427Y42819D01*
X201367Y42794D01*
X201058Y42579D01*
X201021Y42541D01*
X200964Y42508D01*
X200954Y42503D01*
X200950Y42500D01*
X200784Y42404D01*
X200593Y42214D01*
X200556Y42193D01*
X200269Y41948D01*
X200229Y41897D01*
X200174Y41863D01*
X199899Y41605D01*
X199862Y41552D01*
X199808Y41515D01*
X199547Y41243D01*
X199512Y41189D01*
X199460Y41149D01*
X199213Y40865D01*
X199180Y40809D01*
X199131Y40766D01*
X199075Y40695D01*
X198896Y40516D01*
X198765Y40289D01*
X198603Y40061D01*
X198576Y40001D01*
X198531Y39954D01*
X198328Y39637D01*
X198304Y39576D01*
X198262Y39527D01*
X198075Y39200D01*
X198054Y39139D01*
X198014Y39088D01*
X197843Y38751D01*
X197826Y38689D01*
X197788Y38636D01*
X197712Y38465D01*
X197561Y38204D01*
X197482Y37908D01*
X197448Y37822D01*
X197437Y37758D01*
X197405Y37702D01*
X197286Y37344D01*
X197278Y37280D01*
X197248Y37222D01*
X197147Y36859D01*
X197142Y36794D01*
X197116Y36735D01*
X197033Y36367D01*
X197031Y36302D01*
X197008Y36242D01*
X196956Y35944D01*
X196870Y35625D01*
Y35262D01*
X196865Y35242D01*
X196837Y34866D01*
X196845Y34801D01*
X196830Y34737D01*
X196821Y34353D01*
X196838Y34254D01*
X196824Y34154D01*
X196865Y33360D01*
X196870Y33342D01*
Y32955D01*
X196981Y32543D01*
X197018Y32305D01*
X197066Y32176D01*
X197075Y32040D01*
X197281Y31271D01*
X197341Y31148D01*
X197364Y31013D01*
X197451Y30789D01*
X197561Y30376D01*
X197754Y30041D01*
X197760Y30023D01*
X198121Y29314D01*
X198206Y29207D01*
X198256Y29079D01*
X198689Y28412D01*
X198703Y28399D01*
X198896Y28064D01*
X199198Y27762D01*
X199349Y27575D01*
X199455Y27487D01*
X199531Y27373D01*
X200093Y26811D01*
X200207Y26735D01*
X200295Y26630D01*
X200482Y26478D01*
X200784Y26176D01*
X201119Y25982D01*
X201132Y25970D01*
X201800Y25536D01*
X201927Y25485D01*
X202034Y25401D01*
X202743Y25040D01*
X202761Y25034D01*
X203096Y24841D01*
X203509Y24731D01*
X203733Y24644D01*
X203868Y24621D01*
X203991Y24560D01*
X204760Y24355D01*
X204896Y24346D01*
X205025Y24298D01*
X205263Y24260D01*
X205675Y24150D01*
X206062D01*
X206080Y24145D01*
X206874Y24104D01*
X207010Y24123D01*
X207146Y24104D01*
X207940Y24145D01*
X207958Y24150D01*
X208345D01*
X208757Y24261D01*
X208995Y24298D01*
X209124Y24346D01*
X209260Y24355D01*
X210029Y24560D01*
X210152Y24621D01*
X210287Y24644D01*
X210511Y24731D01*
X210924Y24841D01*
X211259Y25034D01*
X211277Y25040D01*
X211986Y25401D01*
X212093Y25485D01*
X212220Y25536D01*
X212888Y25970D01*
X212901Y25982D01*
X213236Y26176D01*
X213538Y26478D01*
X213725Y26630D01*
X213813Y26735D01*
X213927Y26811D01*
X214489Y27373D01*
X214565Y27487D01*
X214671Y27575D01*
X214822Y27762D01*
X215124Y28064D01*
X215317Y28399D01*
X215331Y28412D01*
X215764Y29079D01*
X215814Y29207D01*
X215899Y29314D01*
X216261Y30023D01*
X216266Y30041D01*
X216459Y30376D01*
X216569Y30789D01*
X216656Y31013D01*
X216679Y31148D01*
X216740Y31271D01*
X216945Y32040D01*
X216954Y32176D01*
X217002Y32305D01*
X217040Y32543D01*
X217150Y32955D01*
Y33342D01*
X217155Y33360D01*
X217196Y34154D01*
X217182Y34254D01*
X217199Y34353D01*
X217190Y34737D01*
X217175Y34801D01*
X217183Y34866D01*
X217155Y35242D01*
X217150Y35262D01*
Y35625D01*
X217064Y35944D01*
X217012Y36242D01*
X216989Y36302D01*
X216987Y36367D01*
X216904Y36735D01*
X216878Y36794D01*
X216873Y36859D01*
X216772Y37222D01*
X216742Y37280D01*
X216734Y37345D01*
X216615Y37702D01*
X216583Y37758D01*
X216572Y37822D01*
X216538Y37908D01*
X216459Y38204D01*
X216308Y38465D01*
X216232Y38636D01*
X216194Y38689D01*
X216177Y38751D01*
X216006Y39088D01*
X215966Y39139D01*
X215945Y39200D01*
X215758Y39527D01*
X215716Y39576D01*
X215692Y39637D01*
X215489Y39954D01*
X215444Y40001D01*
X215417Y40061D01*
X215255Y40289D01*
X215124Y40516D01*
X214945Y40695D01*
X214889Y40766D01*
X214840Y40809D01*
X214807Y40865D01*
X214560Y41149D01*
X214508Y41189D01*
X214473Y41243D01*
X214212Y41515D01*
X214158Y41552D01*
X214121Y41605D01*
X213846Y41863D01*
X213791Y41897D01*
X213751Y41948D01*
X213464Y42193D01*
X213426Y42214D01*
X213236Y42404D01*
X213070Y42500D01*
X213065Y42503D01*
X213056Y42508D01*
X212999Y42541D01*
X212962Y42579D01*
X212652Y42794D01*
X212593Y42820D01*
X212546Y42864D01*
X212226Y43063D01*
X212165Y43086D01*
X212115Y43128D01*
X211786Y43312D01*
X211724Y43331D01*
X211673Y43371D01*
X211335Y43538D01*
X211272Y43554D01*
X211218Y43591D01*
X211063Y43659D01*
X210924Y43739D01*
X210767Y43781D01*
X210754Y43789D01*
X210401Y43922D01*
X210337Y43932D01*
X210280Y43964D01*
X210250Y43973D01*
Y49590D01*
X210053Y50581D01*
X209491Y51421D01*
X208651Y51983D01*
X207660Y52180D01*
D02*
G37*
%LPD*%
G36*
X328640Y643039D02*
X265720D01*
Y647061D01*
X328640D01*
Y643039D01*
D02*
G37*
G36*
X375264Y595891D02*
X370172Y590799D01*
X368543D01*
X366991Y591107D01*
X360673D01*
X359242Y591700D01*
X357038D01*
X355002Y590857D01*
X353443Y589298D01*
X352600Y587262D01*
Y585058D01*
X352916Y584295D01*
X352210Y583239D01*
X337460D01*
Y586660D01*
X330690D01*
Y579120D01*
X328150D01*
Y586923D01*
X327773Y587833D01*
X337101Y597161D01*
X374738D01*
X375264Y595891D01*
D02*
G37*
G36*
X283151Y550972D02*
Y544460D01*
X282210D01*
Y534385D01*
X278895D01*
X265463Y547817D01*
X264202Y548659D01*
X262716Y548955D01*
X260950D01*
Y563640D01*
X260950D01*
X260604Y564767D01*
Y571860D01*
X261777Y572346D01*
X283151Y550972D01*
D02*
G37*
G36*
X323850Y571500D02*
X321310Y568960D01*
X320040D01*
X317500Y566420D01*
Y562610D01*
X314960D01*
Y566420D01*
X321310Y572770D01*
Y574040D01*
X323850Y571500D01*
D02*
G37*
G36*
X460534Y511748D02*
X461320Y511624D01*
X462089Y511418D01*
X462831Y511133D01*
X463540Y510772D01*
X464207Y510339D01*
X464825Y509838D01*
X465388Y509275D01*
X465888Y508657D01*
X466322Y507990D01*
X466683Y507281D01*
X466968Y506539D01*
X467174Y505770D01*
X467298Y504984D01*
X467340Y504190D01*
X467298Y503396D01*
X467174Y502610D01*
X466968Y501842D01*
X466683Y501099D01*
X466322Y500390D01*
X465888Y499723D01*
X465388Y499105D01*
X464825Y498542D01*
X464207Y498041D01*
X463540Y497608D01*
X462831Y497247D01*
X462089Y496962D01*
X461320Y496756D01*
X460534Y496632D01*
X459740Y496590D01*
X459356Y496599D01*
X458980Y496627D01*
X458606Y496674D01*
X458234Y496739D01*
X457867Y496822D01*
X457504Y496923D01*
X457146Y497042D01*
X456795Y497179D01*
X456451Y497332D01*
X456115Y497503D01*
X455788Y497690D01*
X455470Y497893D01*
X455163Y498111D01*
X454867Y498345D01*
X454583Y498592D01*
X454311Y498854D01*
X454053Y499128D01*
X453809Y499415D01*
X453579Y499714D01*
X453364Y500024D01*
X453165Y500344D01*
X452982Y500673D01*
X452815Y501011D01*
X452665Y501357D01*
X452533Y501710D01*
X452418Y502068D01*
X452321Y502433D01*
X452242Y502801D01*
X452181Y503173D01*
X452140Y503540D01*
X444440D01*
Y504840D01*
X452140D01*
X452181Y505207D01*
X452242Y505579D01*
X452321Y505947D01*
X452418Y506311D01*
X452533Y506670D01*
X452665Y507023D01*
X452815Y507369D01*
X452982Y507707D01*
X453165Y508036D01*
X453364Y508356D01*
X453579Y508666D01*
X453809Y508965D01*
X454053Y509252D01*
X454311Y509526D01*
X454583Y509788D01*
X454867Y510035D01*
X455163Y510269D01*
X455470Y510487D01*
X455788Y510690D01*
X456115Y510877D01*
X456451Y511048D01*
X456795Y511201D01*
X457146Y511338D01*
X457504Y511457D01*
X457867Y511558D01*
X458234Y511641D01*
X458606Y511706D01*
X458980Y511753D01*
X459356Y511781D01*
X459740Y511790D01*
X460534Y511748D01*
D02*
G37*
G36*
X450066Y500920D02*
X450098Y500863D01*
X450108Y500799D01*
X450241Y500446D01*
X450249Y500433D01*
X450291Y500276D01*
X450371Y500137D01*
X450439Y499982D01*
X450476Y499928D01*
X450493Y499865D01*
X450659Y499527D01*
X450699Y499476D01*
X450718Y499414D01*
X450902Y499085D01*
X450944Y499035D01*
X450967Y498974D01*
X451166Y498655D01*
X451211Y498607D01*
X451236Y498548D01*
X451451Y498238D01*
X451489Y498201D01*
X451522Y498144D01*
X451527Y498134D01*
X451530Y498130D01*
X451626Y497964D01*
X451816Y497774D01*
X451837Y497736D01*
X452081Y497449D01*
X452133Y497409D01*
X452167Y497354D01*
X452425Y497079D01*
X452478Y497042D01*
X452515Y496988D01*
X452787Y496727D01*
X452841Y496692D01*
X452881Y496640D01*
X453165Y496393D01*
X453222Y496360D01*
X453264Y496311D01*
X453335Y496255D01*
X453514Y496076D01*
X453741Y495945D01*
X453969Y495783D01*
X454029Y495756D01*
X454076Y495711D01*
X454393Y495508D01*
X454454Y495484D01*
X454503Y495442D01*
X454830Y495255D01*
X454891Y495234D01*
X454943Y495194D01*
X455279Y495023D01*
X455341Y495006D01*
X455394Y494968D01*
X455565Y494892D01*
X455826Y494741D01*
X456122Y494662D01*
X456208Y494628D01*
X456272Y494617D01*
X456328Y494585D01*
X456686Y494466D01*
X456750Y494458D01*
X456808Y494428D01*
X457171Y494327D01*
X457236Y494322D01*
X457295Y494296D01*
X457663Y494213D01*
X457728Y494211D01*
X457788Y494188D01*
X458086Y494136D01*
X458405Y494050D01*
X458768D01*
X458788Y494045D01*
X459164Y494017D01*
X459229Y494025D01*
X459293Y494010D01*
X459677Y494001D01*
X459776Y494018D01*
X459876Y494004D01*
X460670Y494045D01*
X460688Y494050D01*
X461075D01*
X461488Y494161D01*
X461725Y494198D01*
X461854Y494246D01*
X461990Y494255D01*
X462759Y494460D01*
X462882Y494521D01*
X463017Y494544D01*
X463241Y494631D01*
X463654Y494741D01*
X463989Y494935D01*
X464007Y494940D01*
X464716Y495301D01*
X464823Y495386D01*
X464950Y495436D01*
X465618Y495869D01*
X465631Y495882D01*
X465966Y496076D01*
X465971Y496081D01*
X467001Y495741D01*
X467241Y495532D01*
Y493559D01*
X462320Y488637D01*
X461990Y488725D01*
X461854Y488734D01*
X461725Y488782D01*
X461487Y488820D01*
X461075Y488930D01*
X460688D01*
X460670Y488935D01*
X459876Y488976D01*
X459776Y488962D01*
X459677Y488979D01*
X459293Y488970D01*
X459229Y488955D01*
X459164Y488963D01*
X458788Y488935D01*
X458768Y488930D01*
X458405D01*
X458086Y488844D01*
X457788Y488792D01*
X457728Y488769D01*
X457663Y488767D01*
X457295Y488684D01*
X457236Y488658D01*
X457171Y488653D01*
X456808Y488551D01*
X456750Y488522D01*
X456685Y488514D01*
X456328Y488395D01*
X456272Y488363D01*
X456208Y488352D01*
X456122Y488318D01*
X455826Y488239D01*
X455565Y488088D01*
X455394Y488012D01*
X455341Y487974D01*
X455279Y487957D01*
X454943Y487786D01*
X454891Y487746D01*
X454830Y487725D01*
X454503Y487538D01*
X454454Y487496D01*
X454393Y487472D01*
X454076Y487269D01*
X454029Y487224D01*
X453969Y487197D01*
X453741Y487035D01*
X453514Y486904D01*
X453335Y486725D01*
X453264Y486669D01*
X453222Y486620D01*
X453165Y486587D01*
X452881Y486340D01*
X452841Y486288D01*
X452787Y486253D01*
X452515Y485992D01*
X452478Y485938D01*
X452425Y485901D01*
X452167Y485626D01*
X452133Y485571D01*
X452081Y485531D01*
X451837Y485244D01*
X451816Y485206D01*
X451626Y485016D01*
X451530Y484850D01*
X451527Y484846D01*
X451522Y484836D01*
X451489Y484779D01*
X451451Y484742D01*
X451236Y484432D01*
X451210Y484373D01*
X451166Y484325D01*
X450967Y484006D01*
X450944Y483945D01*
X450902Y483895D01*
X450718Y483566D01*
X450699Y483504D01*
X450659Y483453D01*
X450493Y483115D01*
X450476Y483052D01*
X450439Y482998D01*
X450371Y482843D01*
X450291Y482704D01*
X450249Y482547D01*
X450241Y482534D01*
X450108Y482181D01*
X450098Y482117D01*
X450066Y482060D01*
X450057Y482030D01*
X444440D01*
X443765Y482584D01*
Y482881D01*
X443469Y484367D01*
X443305Y484613D01*
Y499881D01*
X444440Y500950D01*
X450057D01*
X450066Y500920D01*
D02*
G37*
G36*
X435535Y502581D02*
Y486178D01*
X434479Y485473D01*
X434172Y485600D01*
X431968D01*
X429932Y484757D01*
X429580Y484405D01*
X423899D01*
X423396Y484305D01*
X416290D01*
Y491380D01*
Y501380D01*
Y511380D01*
Y520030D01*
X417560Y520556D01*
X435535Y502581D01*
D02*
G37*
G36*
X460534Y486348D02*
X461320Y486224D01*
X462089Y486018D01*
X462831Y485733D01*
X463540Y485372D01*
X464207Y484939D01*
X464825Y484438D01*
X465388Y483875D01*
X465888Y483257D01*
X466322Y482590D01*
X466683Y481881D01*
X466968Y481138D01*
X467174Y480370D01*
X467298Y479584D01*
X467340Y478790D01*
X467298Y477996D01*
X467174Y477210D01*
X466968Y476441D01*
X466683Y475699D01*
X466322Y474990D01*
X465888Y474323D01*
X465388Y473705D01*
X464825Y473142D01*
X464207Y472641D01*
X463540Y472208D01*
X462831Y471847D01*
X462089Y471562D01*
X461320Y471356D01*
X460534Y471232D01*
X459740Y471190D01*
X459356Y471199D01*
X458980Y471227D01*
X458606Y471274D01*
X458234Y471339D01*
X457867Y471422D01*
X457504Y471523D01*
X457146Y471642D01*
X456795Y471779D01*
X456451Y471932D01*
X456115Y472103D01*
X455788Y472290D01*
X455470Y472493D01*
X455163Y472711D01*
X454867Y472945D01*
X454583Y473192D01*
X454311Y473454D01*
X454053Y473728D01*
X453809Y474015D01*
X453579Y474314D01*
X453364Y474624D01*
X453165Y474944D01*
X452982Y475273D01*
X452815Y475611D01*
X452665Y475957D01*
X452533Y476310D01*
X452418Y476669D01*
X452321Y477033D01*
X452242Y477401D01*
X452181Y477773D01*
X452140Y478140D01*
X444440D01*
Y479440D01*
X452140D01*
X452181Y479807D01*
X452242Y480179D01*
X452321Y480547D01*
X452418Y480911D01*
X452533Y481270D01*
X452665Y481623D01*
X452815Y481969D01*
X452982Y482307D01*
X453165Y482636D01*
X453364Y482956D01*
X453579Y483266D01*
X453809Y483565D01*
X454053Y483852D01*
X454311Y484126D01*
X454583Y484388D01*
X454867Y484635D01*
X455163Y484869D01*
X455470Y485087D01*
X455788Y485290D01*
X456115Y485477D01*
X456451Y485648D01*
X456795Y485801D01*
X457146Y485938D01*
X457504Y486057D01*
X457867Y486158D01*
X458234Y486241D01*
X458606Y486306D01*
X458980Y486353D01*
X459356Y486381D01*
X459740Y486390D01*
X460534Y486348D01*
D02*
G37*
G36*
X422910Y468630D02*
X420370Y466090D01*
X417830D01*
X415290Y468630D01*
X407670D01*
Y471170D01*
X420370D01*
X422910Y468630D01*
D02*
G37*
G36*
X460534Y460948D02*
X461320Y460824D01*
X462089Y460618D01*
X462831Y460333D01*
X463540Y459972D01*
X464207Y459538D01*
X464825Y459038D01*
X465388Y458475D01*
X465888Y457857D01*
X466322Y457190D01*
X466683Y456481D01*
X466968Y455738D01*
X467174Y454970D01*
X467298Y454184D01*
X467340Y453390D01*
X467298Y452596D01*
X467174Y451810D01*
X466968Y451041D01*
X466683Y450299D01*
X466322Y449590D01*
X465888Y448923D01*
X465388Y448305D01*
X464825Y447742D01*
X464207Y447242D01*
X463540Y446808D01*
X462831Y446447D01*
X462089Y446162D01*
X461320Y445956D01*
X460534Y445832D01*
X459740Y445790D01*
X459356Y445799D01*
X458980Y445827D01*
X458606Y445874D01*
X458234Y445939D01*
X457867Y446022D01*
X457504Y446123D01*
X457146Y446242D01*
X456795Y446379D01*
X456451Y446533D01*
X456115Y446703D01*
X455788Y446890D01*
X455470Y447093D01*
X455163Y447312D01*
X454867Y447545D01*
X454583Y447792D01*
X454311Y448054D01*
X454053Y448328D01*
X453809Y448615D01*
X453579Y448914D01*
X453364Y449224D01*
X453165Y449543D01*
X452982Y449873D01*
X452815Y450211D01*
X452665Y450557D01*
X452533Y450910D01*
X452418Y451269D01*
X452321Y451633D01*
X452242Y452001D01*
X452181Y452373D01*
X452140Y452740D01*
X444440D01*
Y454040D01*
X452140D01*
X452181Y454407D01*
X452242Y454779D01*
X452321Y455147D01*
X452418Y455512D01*
X452533Y455871D01*
X452665Y456223D01*
X452815Y456569D01*
X452982Y456907D01*
X453165Y457237D01*
X453364Y457556D01*
X453579Y457866D01*
X453809Y458165D01*
X454053Y458452D01*
X454311Y458726D01*
X454583Y458988D01*
X454867Y459235D01*
X455163Y459468D01*
X455470Y459687D01*
X455788Y459890D01*
X456115Y460077D01*
X456451Y460247D01*
X456795Y460401D01*
X457146Y460538D01*
X457504Y460657D01*
X457867Y460758D01*
X458234Y460841D01*
X458606Y460906D01*
X458980Y460953D01*
X459356Y460981D01*
X459740Y460990D01*
X460534Y460948D01*
D02*
G37*
G36*
X332740Y433991D02*
Y431800D01*
X330200Y432791D01*
Y440690D01*
Y441960D01*
X332740D01*
Y433991D01*
D02*
G37*
G36*
X327660Y427584D02*
X326582Y426506D01*
X325120Y427968D01*
X325120D01*
Y440690D01*
X327660D01*
Y427584D01*
D02*
G37*
G36*
X460534Y435548D02*
X461320Y435424D01*
X462089Y435218D01*
X462831Y434933D01*
X463540Y434572D01*
X464207Y434138D01*
X464825Y433638D01*
X465388Y433075D01*
X465888Y432457D01*
X466322Y431790D01*
X466683Y431081D01*
X466968Y430339D01*
X467174Y429570D01*
X467298Y428784D01*
X467340Y427990D01*
X467298Y427196D01*
X467174Y426410D01*
X466968Y425642D01*
X466683Y424899D01*
X466322Y424190D01*
X465888Y423523D01*
X465388Y422905D01*
X464825Y422342D01*
X464207Y421842D01*
X463540Y421408D01*
X462831Y421047D01*
X462089Y420762D01*
X461320Y420556D01*
X460534Y420432D01*
X459740Y420390D01*
X459356Y420399D01*
X458980Y420427D01*
X458606Y420474D01*
X458234Y420539D01*
X457867Y420622D01*
X457504Y420723D01*
X457146Y420842D01*
X456795Y420979D01*
X456451Y421133D01*
X456115Y421303D01*
X455788Y421490D01*
X455470Y421693D01*
X455163Y421912D01*
X454867Y422145D01*
X454583Y422392D01*
X454311Y422654D01*
X454053Y422928D01*
X453809Y423215D01*
X453579Y423514D01*
X453364Y423824D01*
X453165Y424143D01*
X452982Y424473D01*
X452815Y424811D01*
X452665Y425157D01*
X452533Y425509D01*
X452418Y425868D01*
X452321Y426233D01*
X452242Y426601D01*
X452181Y426973D01*
X452140Y427340D01*
X444440D01*
Y428640D01*
X452140D01*
X452181Y429007D01*
X452242Y429379D01*
X452321Y429747D01*
X452418Y430112D01*
X452533Y430471D01*
X452665Y430823D01*
X452815Y431169D01*
X452982Y431507D01*
X453165Y431837D01*
X453364Y432156D01*
X453579Y432466D01*
X453809Y432765D01*
X454053Y433052D01*
X454311Y433326D01*
X454583Y433588D01*
X454867Y433835D01*
X455163Y434068D01*
X455470Y434287D01*
X455788Y434490D01*
X456115Y434677D01*
X456451Y434847D01*
X456795Y435001D01*
X457146Y435138D01*
X457504Y435257D01*
X457867Y435358D01*
X458234Y435441D01*
X458606Y435506D01*
X458980Y435553D01*
X459356Y435581D01*
X459740Y435590D01*
X460534Y435548D01*
D02*
G37*
G36*
X322041Y430896D02*
Y426396D01*
X321693Y426048D01*
X320850Y424012D01*
Y421808D01*
X321693Y419772D01*
X323252Y418213D01*
X325288Y417370D01*
X327492D01*
X329528Y418213D01*
X330657Y419342D01*
X331470Y419634D01*
X332283Y419342D01*
X333412Y418213D01*
X335448Y417370D01*
X335925D01*
X336411Y416197D01*
X334995Y414780D01*
X334467D01*
X332431Y413937D01*
X330872Y412378D01*
X330029Y410342D01*
Y408138D01*
X330337Y407395D01*
X329631Y406339D01*
X326032D01*
X324066Y405947D01*
X322399Y404834D01*
X319446Y401881D01*
X318332Y400214D01*
X318190Y399497D01*
X317393Y398700D01*
X315847D01*
X313749Y400798D01*
Y417910D01*
X316650D01*
Y427165D01*
X320868Y431382D01*
X322041Y430896D01*
D02*
G37*
G36*
X460534Y410148D02*
X461320Y410024D01*
X462089Y409818D01*
X462831Y409533D01*
X463540Y409172D01*
X464207Y408739D01*
X464825Y408238D01*
X465388Y407675D01*
X465888Y407057D01*
X466322Y406390D01*
X466683Y405681D01*
X466968Y404939D01*
X467174Y404170D01*
X467298Y403384D01*
X467340Y402590D01*
X467298Y401796D01*
X467174Y401010D01*
X466968Y400242D01*
X466683Y399499D01*
X466322Y398790D01*
X465888Y398123D01*
X465388Y397505D01*
X464825Y396942D01*
X464207Y396441D01*
X463540Y396008D01*
X462831Y395647D01*
X462089Y395362D01*
X461320Y395156D01*
X460534Y395032D01*
X459740Y394990D01*
X459356Y394999D01*
X458980Y395027D01*
X458606Y395074D01*
X458234Y395139D01*
X457867Y395222D01*
X457504Y395323D01*
X457146Y395442D01*
X456795Y395579D01*
X456451Y395732D01*
X456115Y395903D01*
X455788Y396090D01*
X455470Y396293D01*
X455163Y396511D01*
X454867Y396745D01*
X454583Y396992D01*
X454311Y397254D01*
X454053Y397528D01*
X453809Y397815D01*
X453579Y398114D01*
X453364Y398424D01*
X453165Y398744D01*
X452982Y399073D01*
X452815Y399411D01*
X452665Y399757D01*
X452533Y400109D01*
X452418Y400468D01*
X452321Y400833D01*
X452242Y401201D01*
X452181Y401573D01*
X452140Y401940D01*
X444440D01*
Y403240D01*
X452140D01*
X452181Y403607D01*
X452242Y403979D01*
X452321Y404347D01*
X452418Y404711D01*
X452533Y405070D01*
X452665Y405423D01*
X452815Y405769D01*
X452982Y406107D01*
X453165Y406437D01*
X453364Y406756D01*
X453579Y407066D01*
X453809Y407365D01*
X454053Y407652D01*
X454311Y407926D01*
X454583Y408188D01*
X454867Y408435D01*
X455163Y408669D01*
X455470Y408887D01*
X455788Y409090D01*
X456115Y409277D01*
X456451Y409448D01*
X456795Y409601D01*
X457146Y409738D01*
X457504Y409857D01*
X457867Y409958D01*
X458234Y410041D01*
X458606Y410106D01*
X458980Y410153D01*
X459356Y410181D01*
X459740Y410190D01*
X460534Y410148D01*
D02*
G37*
G36*
X406400Y402590D02*
X403860Y400050D01*
X393700D01*
Y379730D01*
X381000D01*
Y400050D01*
X379730Y401320D01*
X374650D01*
Y412750D01*
X406400D01*
Y402590D01*
D02*
G37*
G36*
X460534Y384748D02*
X461320Y384624D01*
X462089Y384418D01*
X462831Y384133D01*
X463540Y383772D01*
X464207Y383339D01*
X464825Y382838D01*
X465388Y382275D01*
X465888Y381657D01*
X466322Y380990D01*
X466683Y380281D01*
X466968Y379538D01*
X467174Y378770D01*
X467298Y377984D01*
X467340Y377190D01*
X467298Y376396D01*
X467174Y375610D01*
X466968Y374841D01*
X466683Y374099D01*
X466322Y373390D01*
X465888Y372723D01*
X465388Y372105D01*
X464825Y371542D01*
X464207Y371041D01*
X463540Y370608D01*
X462831Y370247D01*
X462089Y369962D01*
X461320Y369756D01*
X460534Y369632D01*
X459740Y369590D01*
X459356Y369599D01*
X458980Y369627D01*
X458606Y369674D01*
X458234Y369739D01*
X457867Y369822D01*
X457504Y369923D01*
X457146Y370042D01*
X456795Y370179D01*
X456451Y370332D01*
X456115Y370503D01*
X455788Y370690D01*
X455470Y370893D01*
X455163Y371111D01*
X454867Y371345D01*
X454583Y371592D01*
X454311Y371854D01*
X454053Y372128D01*
X453809Y372415D01*
X453579Y372714D01*
X453364Y373024D01*
X453165Y373344D01*
X452982Y373673D01*
X452815Y374011D01*
X452665Y374357D01*
X452533Y374710D01*
X452418Y375069D01*
X452321Y375433D01*
X452242Y375801D01*
X452181Y376173D01*
X452140Y376540D01*
X444440D01*
Y377840D01*
X452140D01*
X452181Y378207D01*
X452242Y378579D01*
X452321Y378947D01*
X452418Y379311D01*
X452533Y379670D01*
X452665Y380023D01*
X452815Y380369D01*
X452982Y380707D01*
X453165Y381036D01*
X453364Y381356D01*
X453579Y381666D01*
X453809Y381965D01*
X454053Y382252D01*
X454311Y382526D01*
X454583Y382788D01*
X454867Y383035D01*
X455163Y383269D01*
X455470Y383487D01*
X455788Y383690D01*
X456115Y383877D01*
X456451Y384048D01*
X456795Y384201D01*
X457146Y384338D01*
X457504Y384457D01*
X457867Y384558D01*
X458234Y384641D01*
X458606Y384706D01*
X458980Y384753D01*
X459356Y384781D01*
X459740Y384790D01*
X460534Y384748D01*
D02*
G37*
G36*
X336550Y243840D02*
X334010D01*
Y252730D01*
X336550D01*
Y243840D01*
D02*
G37*
G36*
X221790Y239036D02*
Y238348D01*
X222106Y237585D01*
X221400Y236529D01*
X168223D01*
X167737Y237703D01*
X171260Y241225D01*
X219601D01*
X221790Y239036D01*
D02*
G37*
G36*
X240927Y221877D02*
X242264Y220984D01*
X243840Y220671D01*
X245019Y220905D01*
X245701D01*
X246485Y219635D01*
X245920Y218272D01*
Y216068D01*
X245924Y216058D01*
X244898Y215216D01*
X244086Y215759D01*
X242599Y216055D01*
X230290D01*
Y223440D01*
X214210D01*
Y223440D01*
X213290D01*
Y223440D01*
X206520D01*
Y215900D01*
X205250D01*
Y214630D01*
X197210D01*
Y208406D01*
X196157Y207703D01*
X172347Y183893D01*
X171454Y182556D01*
X171141Y180980D01*
Y150460D01*
X164070D01*
Y145969D01*
X161210D01*
Y149890D01*
X146130D01*
Y140689D01*
X144957Y140203D01*
X143569Y141591D01*
Y144580D01*
X144770D01*
Y166360D01*
X132090D01*
Y166360D01*
X132070D01*
Y166360D01*
X120640D01*
X119390Y166360D01*
X118120Y166360D01*
X107940D01*
X106690Y166360D01*
X105420Y166360D01*
X95240D01*
X93990Y166360D01*
X92720Y166360D01*
X82540D01*
X81290Y166360D01*
X80020Y166360D01*
X78580D01*
Y213725D01*
X84036Y219181D01*
X130852D01*
X130852Y219181D01*
X155350D01*
X156927Y219494D01*
X158263Y220387D01*
X166166Y228291D01*
X234514D01*
X240927Y221877D01*
D02*
G37*
G36*
X273050Y208280D02*
X256540D01*
Y210820D01*
X273050D01*
Y208280D01*
D02*
G37*
G36*
X375920Y204470D02*
Y201930D01*
X374650Y200660D01*
X370840D01*
X368300Y203200D01*
X350520D01*
X349250Y204470D01*
X350520Y205740D01*
X368300D01*
X369570Y207010D01*
X373380D01*
X375920Y204470D01*
D02*
G37*
G36*
X268605Y198120D02*
X259715D01*
Y200660D01*
X268605D01*
Y198120D01*
D02*
G37*
G36*
X365760Y182880D02*
X354330D01*
X354110Y184790D01*
X356010Y186690D01*
X365760D01*
Y182880D01*
D02*
G37*
G36*
X396345Y195881D02*
X397605Y195039D01*
X399092Y194743D01*
X399161D01*
Y190754D01*
X400925D01*
X401990Y190260D01*
Y180855D01*
X398540D01*
Y184360D01*
X383855D01*
Y187720D01*
X383559Y189207D01*
X382717Y190467D01*
X379940Y193244D01*
X379841Y194941D01*
X382717Y197816D01*
X383559Y199077D01*
X383579Y199180D01*
X393046D01*
X396345Y195881D01*
D02*
G37*
G36*
X265430Y179070D02*
X264160Y177800D01*
X256540D01*
Y181610D01*
X265430D01*
Y179070D01*
D02*
G37*
G36*
X75866Y224453D02*
X76361Y223156D01*
X71548Y218344D01*
X70655Y217007D01*
X70342Y215431D01*
Y166360D01*
X68590D01*
Y166360D01*
X68570D01*
Y166360D01*
X55890D01*
Y166360D01*
X55870D01*
Y166360D01*
X53415D01*
Y202861D01*
X75097Y224544D01*
X75866Y224453D01*
D02*
G37*
G36*
X205102Y199498D02*
X186317Y180713D01*
X185424Y179376D01*
X185111Y177800D01*
Y150460D01*
X179379D01*
Y179274D01*
X200776Y200671D01*
X204616D01*
X205102Y199498D01*
D02*
G37*
G36*
X371005Y171989D02*
Y170542D01*
X371093Y170100D01*
X370051Y168830D01*
X367390D01*
Y153750D01*
X369725D01*
X370111Y152480D01*
X369205Y151875D01*
X368354Y150601D01*
X368055Y149097D01*
Y147599D01*
X366785Y147073D01*
X366640Y147218D01*
X364604Y148062D01*
X362400D01*
X360363Y147218D01*
X358805Y145660D01*
X358411Y144709D01*
X357196Y144341D01*
X356989Y144479D01*
X355502Y144775D01*
X344964D01*
X343750Y144910D01*
Y164348D01*
X343770Y165590D01*
X345012Y165610D01*
X364450D01*
Y176885D01*
X365623Y177371D01*
X371005Y171989D01*
D02*
G37*
G36*
X280850Y165590D02*
X280870Y164348D01*
Y144910D01*
X279623Y144855D01*
X278050D01*
Y149010D01*
X262970D01*
X262785Y150203D01*
Y165610D01*
X279608D01*
X280850Y165590D01*
D02*
G37*
G36*
X122026Y121680D02*
X119170D01*
Y99300D01*
X133950D01*
Y106371D01*
X142320D01*
Y99480D01*
X142320Y99130D01*
Y98210D01*
X142320Y97860D01*
Y91440D01*
X149860D01*
X157400D01*
Y97860D01*
X157400Y98210D01*
Y99130D01*
X157400Y99480D01*
Y109351D01*
X164070D01*
Y106080D01*
X185111D01*
Y99496D01*
X164664Y79049D01*
X102036D01*
X101079Y80006D01*
Y99300D01*
X104350D01*
Y121680D01*
X98099D01*
Y124540D01*
X101670D01*
X102020Y124540D01*
X102940D01*
X103290Y124540D01*
X119020D01*
Y139620D01*
X117144D01*
Y143682D01*
X118042Y144580D01*
X119370Y144580D01*
X120640Y144580D01*
X122026D01*
Y121680D01*
D02*
G37*
G36*
X105420Y144580D02*
X106670Y144580D01*
X106866Y143391D01*
Y139620D01*
X103290D01*
X102940Y139620D01*
X102020D01*
X101670Y139620D01*
X85940D01*
Y124540D01*
X89861D01*
Y121680D01*
X89570D01*
Y117000D01*
X84389D01*
Y133673D01*
X84076Y135250D01*
X83183Y136586D01*
X79049Y140720D01*
Y143682D01*
X79947Y144580D01*
X81270Y144580D01*
X82540Y144580D01*
X92720D01*
X93970Y144580D01*
X95240Y144580D01*
X105420D01*
D02*
G37*
G36*
X331470Y149860D02*
Y143510D01*
X330200D01*
X328930Y144780D01*
Y151130D01*
X330200D01*
X331470Y149860D01*
D02*
G37*
G36*
X337820Y143430D02*
X337551Y143161D01*
X337202Y143510D01*
X334010D01*
Y151130D01*
X337820D01*
Y143430D01*
D02*
G37*
G36*
X326390Y142240D02*
X323850D01*
Y151130D01*
X326390D01*
Y142240D01*
D02*
G37*
G36*
X164070Y135680D02*
X185111D01*
Y120860D01*
X164070D01*
Y117589D01*
X161210D01*
Y132540D01*
X161210Y132890D01*
X161210D01*
Y133810D01*
X161210D01*
Y137731D01*
X164070D01*
Y135680D01*
D02*
G37*
G36*
X132070Y144580D02*
X133291Y144462D01*
Y139462D01*
X133682Y137496D01*
X134796Y135829D01*
X146130Y124495D01*
Y116810D01*
X150208D01*
X150887Y115540D01*
X150667Y115210D01*
X142320D01*
Y114609D01*
X133950D01*
Y121680D01*
X130264D01*
Y144580D01*
X132070D01*
X132070Y144580D01*
D02*
G37*
G36*
X283860Y41890D02*
X284227Y41849D01*
X284599Y41788D01*
X284967Y41709D01*
X285331Y41612D01*
X285690Y41497D01*
X286043Y41365D01*
X286389Y41215D01*
X286727Y41048D01*
X287057Y40865D01*
X287376Y40666D01*
X287686Y40451D01*
X287985Y40221D01*
X288272Y39977D01*
X288546Y39718D01*
X288808Y39447D01*
X289055Y39163D01*
X289289Y38867D01*
X289507Y38560D01*
X289710Y38242D01*
X289897Y37915D01*
X290068Y37579D01*
X290221Y37235D01*
X290358Y36884D01*
X290477Y36526D01*
X290578Y36163D01*
X290661Y35796D01*
X290726Y35424D01*
X290773Y35050D01*
X290801Y34674D01*
X290810Y34290D01*
X290768Y33496D01*
X290644Y32710D01*
X290438Y31941D01*
X290153Y31199D01*
X289792Y30490D01*
X289359Y29823D01*
X288858Y29205D01*
X288295Y28642D01*
X287677Y28142D01*
X287010Y27708D01*
X286301Y27347D01*
X285558Y27062D01*
X284790Y26856D01*
X284004Y26732D01*
X283210Y26690D01*
X282416Y26732D01*
X281630Y26856D01*
X280861Y27062D01*
X280119Y27347D01*
X279410Y27708D01*
X278743Y28142D01*
X278125Y28642D01*
X277562Y29205D01*
X277062Y29823D01*
X276628Y30490D01*
X276267Y31199D01*
X275982Y31941D01*
X275776Y32710D01*
X275652Y33496D01*
X275610Y34290D01*
X275619Y34674D01*
X275647Y35050D01*
X275694Y35424D01*
X275759Y35796D01*
X275842Y36163D01*
X275943Y36526D01*
X276062Y36884D01*
X276199Y37235D01*
X276353Y37579D01*
X276523Y37915D01*
X276710Y38242D01*
X276913Y38560D01*
X277132Y38867D01*
X277365Y39163D01*
X277612Y39447D01*
X277874Y39718D01*
X278148Y39977D01*
X278435Y40221D01*
X278734Y40451D01*
X279044Y40666D01*
X279363Y40865D01*
X279693Y41048D01*
X280031Y41215D01*
X280377Y41365D01*
X280730Y41497D01*
X281089Y41612D01*
X281453Y41709D01*
X281821Y41788D01*
X282193Y41849D01*
X282560Y41890D01*
Y49590D01*
X283860D01*
Y41890D01*
D02*
G37*
G36*
X182260D02*
X182627Y41849D01*
X182999Y41788D01*
X183367Y41709D01*
X183731Y41612D01*
X184090Y41497D01*
X184443Y41365D01*
X184789Y41215D01*
X185127Y41048D01*
X185457Y40865D01*
X185776Y40666D01*
X186086Y40451D01*
X186385Y40221D01*
X186672Y39977D01*
X186946Y39718D01*
X187208Y39447D01*
X187455Y39163D01*
X187689Y38867D01*
X187907Y38560D01*
X188110Y38242D01*
X188297Y37915D01*
X188468Y37579D01*
X188621Y37235D01*
X188758Y36884D01*
X188877Y36526D01*
X188978Y36163D01*
X189061Y35796D01*
X189126Y35424D01*
X189173Y35050D01*
X189201Y34674D01*
X189210Y34290D01*
X189168Y33496D01*
X189044Y32710D01*
X188838Y31941D01*
X188553Y31199D01*
X188192Y30490D01*
X187759Y29823D01*
X187258Y29205D01*
X186695Y28642D01*
X186077Y28142D01*
X185410Y27708D01*
X184701Y27347D01*
X183958Y27062D01*
X183190Y26856D01*
X182404Y26732D01*
X181610Y26690D01*
X180816Y26732D01*
X180030Y26856D01*
X179261Y27062D01*
X178519Y27347D01*
X177810Y27708D01*
X177143Y28142D01*
X176525Y28642D01*
X175962Y29205D01*
X175462Y29823D01*
X175028Y30490D01*
X174667Y31199D01*
X174382Y31941D01*
X174176Y32710D01*
X174052Y33496D01*
X174010Y34290D01*
X174019Y34674D01*
X174047Y35050D01*
X174094Y35424D01*
X174159Y35796D01*
X174242Y36163D01*
X174343Y36526D01*
X174462Y36884D01*
X174599Y37235D01*
X174753Y37579D01*
X174923Y37915D01*
X175110Y38242D01*
X175313Y38560D01*
X175532Y38867D01*
X175765Y39163D01*
X176012Y39447D01*
X176274Y39718D01*
X176548Y39977D01*
X176835Y40221D01*
X177134Y40451D01*
X177444Y40666D01*
X177764Y40865D01*
X178093Y41048D01*
X178431Y41215D01*
X178777Y41365D01*
X179130Y41497D01*
X179489Y41612D01*
X179853Y41709D01*
X180221Y41788D01*
X180593Y41849D01*
X180960Y41890D01*
Y49590D01*
X182260D01*
Y41890D01*
D02*
G37*
%LPC*%
G36*
X203980Y223440D02*
X197210D01*
Y217170D01*
X203980D01*
Y223440D01*
D02*
G37*
G36*
X157400Y88900D02*
X151130D01*
Y82130D01*
X157400D01*
Y88900D01*
D02*
G37*
G36*
X148590D02*
X142320D01*
Y82130D01*
X148590D01*
Y88900D01*
D02*
G37*
%LPD*%
G36*
X309260Y41890D02*
X309627Y41849D01*
X309999Y41788D01*
X310367Y41709D01*
X310732Y41612D01*
X311091Y41497D01*
X311443Y41365D01*
X311789Y41215D01*
X312127Y41048D01*
X312456Y40865D01*
X312776Y40666D01*
X313086Y40451D01*
X313385Y40221D01*
X313672Y39977D01*
X313946Y39718D01*
X314208Y39447D01*
X314455Y39163D01*
X314688Y38867D01*
X314907Y38560D01*
X315110Y38242D01*
X315297Y37915D01*
X315467Y37579D01*
X315621Y37235D01*
X315758Y36884D01*
X315877Y36526D01*
X315978Y36163D01*
X316061Y35796D01*
X316126Y35424D01*
X316173Y35050D01*
X316201Y34674D01*
X316210Y34290D01*
X316168Y33496D01*
X316044Y32710D01*
X315838Y31941D01*
X315553Y31199D01*
X315192Y30490D01*
X314758Y29823D01*
X314258Y29205D01*
X313695Y28642D01*
X313077Y28142D01*
X312410Y27708D01*
X311701Y27347D01*
X310958Y27062D01*
X310190Y26856D01*
X309404Y26732D01*
X308610Y26690D01*
X307816Y26732D01*
X307030Y26856D01*
X306262Y27062D01*
X305519Y27347D01*
X304810Y27708D01*
X304143Y28142D01*
X303525Y28642D01*
X302962Y29205D01*
X302461Y29823D01*
X302028Y30490D01*
X301667Y31199D01*
X301382Y31941D01*
X301176Y32710D01*
X301052Y33496D01*
X301010Y34290D01*
X301019Y34674D01*
X301047Y35050D01*
X301094Y35424D01*
X301159Y35796D01*
X301242Y36163D01*
X301343Y36526D01*
X301462Y36884D01*
X301599Y37235D01*
X301752Y37579D01*
X301923Y37915D01*
X302110Y38242D01*
X302313Y38560D01*
X302532Y38867D01*
X302765Y39163D01*
X303012Y39447D01*
X303274Y39718D01*
X303548Y39977D01*
X303835Y40221D01*
X304134Y40451D01*
X304444Y40666D01*
X304764Y40865D01*
X305093Y41048D01*
X305431Y41215D01*
X305777Y41365D01*
X306129Y41497D01*
X306488Y41612D01*
X306853Y41709D01*
X307221Y41788D01*
X307593Y41849D01*
X307960Y41890D01*
Y49590D01*
X309260D01*
Y41890D01*
D02*
G37*
G36*
X258460D02*
X258827Y41849D01*
X259199Y41788D01*
X259567Y41709D01*
X259932Y41612D01*
X260291Y41497D01*
X260643Y41365D01*
X260989Y41215D01*
X261327Y41048D01*
X261656Y40865D01*
X261976Y40666D01*
X262286Y40451D01*
X262585Y40221D01*
X262872Y39977D01*
X263146Y39718D01*
X263408Y39447D01*
X263655Y39163D01*
X263888Y38867D01*
X264107Y38560D01*
X264310Y38242D01*
X264497Y37915D01*
X264667Y37579D01*
X264821Y37235D01*
X264958Y36884D01*
X265077Y36526D01*
X265178Y36163D01*
X265261Y35796D01*
X265326Y35424D01*
X265373Y35050D01*
X265401Y34674D01*
X265410Y34290D01*
X265368Y33496D01*
X265244Y32710D01*
X265038Y31941D01*
X264753Y31199D01*
X264392Y30490D01*
X263958Y29823D01*
X263458Y29205D01*
X262895Y28642D01*
X262277Y28142D01*
X261610Y27708D01*
X260901Y27347D01*
X260159Y27062D01*
X259390Y26856D01*
X258604Y26732D01*
X257810Y26690D01*
X257016Y26732D01*
X256230Y26856D01*
X255462Y27062D01*
X254719Y27347D01*
X254010Y27708D01*
X253343Y28142D01*
X252725Y28642D01*
X252162Y29205D01*
X251661Y29823D01*
X251228Y30490D01*
X250867Y31199D01*
X250582Y31941D01*
X250376Y32710D01*
X250252Y33496D01*
X250210Y34290D01*
X250219Y34674D01*
X250247Y35050D01*
X250294Y35424D01*
X250359Y35796D01*
X250442Y36163D01*
X250543Y36526D01*
X250662Y36884D01*
X250799Y37235D01*
X250952Y37579D01*
X251123Y37915D01*
X251310Y38242D01*
X251513Y38560D01*
X251731Y38867D01*
X251965Y39163D01*
X252212Y39447D01*
X252474Y39718D01*
X252748Y39977D01*
X253035Y40221D01*
X253334Y40451D01*
X253644Y40666D01*
X253964Y40865D01*
X254293Y41048D01*
X254631Y41215D01*
X254977Y41365D01*
X255329Y41497D01*
X255688Y41612D01*
X256053Y41709D01*
X256421Y41788D01*
X256793Y41849D01*
X257160Y41890D01*
Y49590D01*
X258460D01*
Y41890D01*
D02*
G37*
G36*
X233060D02*
X233427Y41849D01*
X233799Y41788D01*
X234167Y41709D01*
X234531Y41612D01*
X234890Y41497D01*
X235243Y41365D01*
X235589Y41215D01*
X235927Y41048D01*
X236257Y40865D01*
X236576Y40666D01*
X236886Y40451D01*
X237185Y40221D01*
X237472Y39977D01*
X237746Y39718D01*
X238008Y39447D01*
X238255Y39163D01*
X238489Y38867D01*
X238707Y38560D01*
X238910Y38242D01*
X239097Y37915D01*
X239268Y37579D01*
X239421Y37235D01*
X239558Y36884D01*
X239677Y36526D01*
X239778Y36163D01*
X239861Y35796D01*
X239926Y35424D01*
X239973Y35050D01*
X240001Y34674D01*
X240010Y34290D01*
X239968Y33496D01*
X239844Y32710D01*
X239638Y31941D01*
X239353Y31199D01*
X238992Y30490D01*
X238559Y29823D01*
X238058Y29205D01*
X237495Y28642D01*
X236877Y28142D01*
X236210Y27708D01*
X235501Y27347D01*
X234758Y27062D01*
X233990Y26856D01*
X233204Y26732D01*
X232410Y26690D01*
X231616Y26732D01*
X230830Y26856D01*
X230061Y27062D01*
X229319Y27347D01*
X228610Y27708D01*
X227943Y28142D01*
X227325Y28642D01*
X226762Y29205D01*
X226262Y29823D01*
X225828Y30490D01*
X225467Y31199D01*
X225182Y31941D01*
X224976Y32710D01*
X224852Y33496D01*
X224810Y34290D01*
X224819Y34674D01*
X224847Y35050D01*
X224894Y35424D01*
X224959Y35796D01*
X225042Y36163D01*
X225143Y36526D01*
X225262Y36884D01*
X225399Y37235D01*
X225553Y37579D01*
X225723Y37915D01*
X225910Y38242D01*
X226113Y38560D01*
X226332Y38867D01*
X226565Y39163D01*
X226812Y39447D01*
X227074Y39718D01*
X227348Y39977D01*
X227635Y40221D01*
X227934Y40451D01*
X228244Y40666D01*
X228563Y40865D01*
X228893Y41048D01*
X229231Y41215D01*
X229577Y41365D01*
X229930Y41497D01*
X230289Y41612D01*
X230653Y41709D01*
X231021Y41788D01*
X231393Y41849D01*
X231760Y41890D01*
Y49590D01*
X233060D01*
Y41890D01*
D02*
G37*
G36*
X207660D02*
X208027Y41849D01*
X208399Y41788D01*
X208767Y41709D01*
X209132Y41612D01*
X209491Y41497D01*
X209843Y41365D01*
X210189Y41215D01*
X210527Y41048D01*
X210856Y40865D01*
X211176Y40666D01*
X211486Y40451D01*
X211785Y40221D01*
X212072Y39977D01*
X212346Y39718D01*
X212608Y39447D01*
X212855Y39163D01*
X213088Y38867D01*
X213307Y38560D01*
X213510Y38242D01*
X213697Y37915D01*
X213867Y37579D01*
X214021Y37235D01*
X214158Y36884D01*
X214277Y36526D01*
X214378Y36163D01*
X214461Y35796D01*
X214526Y35424D01*
X214573Y35050D01*
X214601Y34674D01*
X214610Y34290D01*
X214568Y33496D01*
X214444Y32710D01*
X214238Y31941D01*
X213953Y31199D01*
X213592Y30490D01*
X213158Y29823D01*
X212658Y29205D01*
X212095Y28642D01*
X211477Y28142D01*
X210810Y27708D01*
X210101Y27347D01*
X209359Y27062D01*
X208590Y26856D01*
X207804Y26732D01*
X207010Y26690D01*
X206216Y26732D01*
X205430Y26856D01*
X204662Y27062D01*
X203919Y27347D01*
X203210Y27708D01*
X202543Y28142D01*
X201925Y28642D01*
X201362Y29205D01*
X200861Y29823D01*
X200428Y30490D01*
X200067Y31199D01*
X199782Y31941D01*
X199576Y32710D01*
X199452Y33496D01*
X199410Y34290D01*
X199419Y34674D01*
X199447Y35050D01*
X199494Y35424D01*
X199559Y35796D01*
X199642Y36163D01*
X199743Y36526D01*
X199862Y36884D01*
X199999Y37235D01*
X200152Y37579D01*
X200323Y37915D01*
X200510Y38242D01*
X200713Y38560D01*
X200931Y38867D01*
X201165Y39163D01*
X201412Y39447D01*
X201674Y39718D01*
X201948Y39977D01*
X202235Y40221D01*
X202534Y40451D01*
X202844Y40666D01*
X203164Y40865D01*
X203493Y41048D01*
X203831Y41215D01*
X204177Y41365D01*
X204529Y41497D01*
X204888Y41612D01*
X205253Y41709D01*
X205621Y41788D01*
X205993Y41849D01*
X206360Y41890D01*
Y49590D01*
X207660D01*
Y41890D01*
D02*
G37*
D12*
X280670Y16510D02*
X283210Y19050D01*
Y34290D01*
X260388Y140970D02*
X269240D01*
X244669Y210100D02*
X260788D01*
X242599Y212170D02*
X244669Y210100D01*
X251460Y217170D02*
X252122Y217832D01*
X225980Y212170D02*
X242599D01*
X243840Y224790D02*
X270510D01*
X252122Y217832D02*
X258138D01*
X222250Y215900D02*
X225980Y212170D01*
X221210Y245110D02*
X226870Y239450D01*
X227330D01*
X162261Y237720D02*
X169651Y245110D01*
X221210D01*
X153151Y228610D02*
X162261Y237720D01*
X133052Y228610D02*
X153151D01*
X80131Y228610D02*
X133052D01*
X133052Y228610D01*
X80131D02*
X80131Y228610D01*
X73670Y228610D02*
X80131D01*
X258138Y217832D02*
X260096Y219790D01*
X49530Y204470D02*
X73670Y228610D01*
X354110Y209630D02*
X368426D01*
X378696Y216960D02*
X379632D01*
X368426Y209630D02*
X371501Y212706D01*
X374442D02*
X378696Y216960D01*
X371501Y212706D02*
X374442D01*
X354110Y214710D02*
X366321D01*
X371010Y219917D02*
Y221690D01*
X367058Y215966D02*
X371010Y219917D01*
X367058Y215447D02*
Y215966D01*
X365930Y225282D02*
X369497Y228850D01*
X363698Y219790D02*
X365930Y222022D01*
Y225282D01*
X369497Y228850D02*
X390910D01*
X364016Y194710D02*
X367569Y191156D01*
X366120Y199790D02*
X369674Y196236D01*
X366321Y214710D02*
X367058Y215447D01*
X367569Y191156D02*
X376534D01*
X354110Y199790D02*
X366120D01*
X354110Y219790D02*
X363698D01*
X369674Y196236D02*
X375643D01*
X356870Y194710D02*
X364016D01*
X406250Y452270D02*
X412750Y445770D01*
X406250Y452270D02*
Y465420D01*
X363698Y184790D02*
X374890Y173598D01*
X356750Y571960D02*
X356870Y572080D01*
X356750Y559920D02*
Y571960D01*
X388169Y217192D02*
Y218054D01*
X382453Y223770D02*
X388169Y218054D01*
X390910Y228850D02*
X396160Y223600D01*
X373089Y223770D02*
X382453D01*
X371010Y221690D02*
X373089Y223770D01*
X375643Y196236D02*
X379970Y200563D01*
Y202990D01*
X383550Y206570D01*
X376534Y191156D02*
X379970Y187720D01*
X383550Y206570D02*
X391150D01*
X341630Y240030D02*
X342090D01*
X346710Y244650D01*
X346710D01*
X413858Y273490D02*
X426720D01*
X391828Y251460D02*
X413858Y273490D01*
X335406Y251460D02*
X391828D01*
X389056Y256540D02*
X398780Y266264D01*
Y277300D01*
X332740Y256540D02*
X389056D01*
X330326Y239606D02*
Y254126D01*
X332740Y256540D01*
X329600Y262290D02*
X370022D01*
X332980Y267370D02*
X341640Y276030D01*
X321654Y267370D02*
X332980D01*
X341640Y276030D02*
X345440D01*
X351638Y510420D02*
X408130Y566912D01*
X295910Y510420D02*
X351638D01*
X408130Y566912D02*
Y578700D01*
X409820Y580390D01*
X396915Y570085D02*
X401175D01*
X401320Y570230D01*
X386750Y559920D02*
X396915Y570085D01*
X474980Y417830D02*
Y433070D01*
X459740Y402590D02*
X474980Y417830D01*
X331921Y546551D02*
Y554990D01*
X331470Y546100D02*
X331921Y546551D01*
X247640Y172280D02*
X255230Y179870D01*
X260922D01*
X243840Y172280D02*
X247640D01*
X258900Y173122D02*
X260568Y174790D01*
X270510D01*
X258900Y142458D02*
Y173122D01*
X374932Y142522D02*
X375920Y143510D01*
X363502Y142522D02*
X374932D01*
X339822Y140890D02*
X355502D01*
X332820Y135810D02*
X353398D01*
X330200Y138430D02*
Y145638D01*
Y138430D02*
X332820Y135810D01*
X375920Y143510D02*
Y160800D01*
X375430Y161290D02*
X375920Y160800D01*
X319810Y114447D02*
Y127789D01*
X308530Y130810D02*
X313200D01*
X304800Y134540D02*
X308530Y130810D01*
X304800Y134540D02*
Y134620D01*
X319810Y135591D02*
Y155490D01*
X320010Y127989D02*
Y135391D01*
X319810Y135591D02*
X320010Y135391D01*
X319810Y127789D02*
X320010Y127989D01*
X288290Y135110D02*
X288780Y134620D01*
X304800D01*
X288290Y135110D02*
Y135610D01*
X270510Y140970D02*
X282930D01*
X288290Y135610D01*
X258900Y142458D02*
X260388Y140970D01*
X294810Y142130D02*
Y155490D01*
X288290Y135610D02*
X294810Y142130D01*
X304810Y134630D02*
Y155490D01*
X304800Y134620D02*
X304810Y134630D01*
X375430Y161290D02*
Y170002D01*
X374890Y170542D02*
Y173598D01*
Y170542D02*
X375430Y170002D01*
X335280Y145432D02*
X339822Y140890D01*
X335280Y145432D02*
Y145518D01*
X325120Y130730D02*
Y145592D01*
X324890Y145822D02*
Y145902D01*
Y145822D02*
X325120Y145592D01*
X355630Y116420D02*
Y133578D01*
X353398Y135810D02*
X355630Y133578D01*
Y116420D02*
X357330Y114720D01*
Y114220D02*
Y114720D01*
X361060Y110490D02*
X361560D01*
X357330Y114220D02*
X361060Y110490D01*
X360710Y129590D02*
Y135682D01*
Y129590D02*
X362270Y128030D01*
X355502Y140890D02*
X360710Y135682D01*
X362270Y128030D02*
X374050D01*
X377630Y124450D01*
X325120Y130730D02*
X328850Y127000D01*
X319810Y114447D02*
X323787Y110470D01*
X323850D01*
X149629Y337659D02*
Y353731D01*
X149030Y354330D02*
X149629Y353731D01*
X332740Y429167D02*
Y437976D01*
Y429167D02*
X335888Y426019D01*
Y423572D02*
Y426019D01*
Y423572D02*
X336550Y422910D01*
X260096Y219790D02*
X270510D01*
X49530Y155470D02*
Y204470D01*
X277286Y530500D02*
X289560D01*
X262716Y545070D02*
X277286Y530500D01*
X253560Y548650D02*
X257140Y545070D01*
X262716D01*
X253560Y548650D02*
Y552450D01*
X407251Y225060D02*
X422607D01*
X391150Y206570D02*
X394730Y210150D01*
Y212539D01*
X407251Y225060D01*
X418974Y468170D02*
X419910D01*
X423899Y480520D02*
X432610D01*
X433070Y480060D01*
X423799Y480420D02*
X423899Y480520D01*
X406250Y480420D02*
X423799D01*
X425450Y474980D02*
X426720Y473710D01*
X408940Y474980D02*
X425450D01*
X439420Y473710D02*
Y476779D01*
Y483341D02*
Y504190D01*
X439880Y477239D02*
Y482881D01*
X439420Y476779D02*
X439880Y477239D01*
X439420Y483341D02*
X439880Y482881D01*
X280820Y445920D02*
X311750D01*
X223520Y388620D02*
X280820Y445920D01*
X223520Y414020D02*
X240850D01*
X292250Y465420D01*
X329810Y239090D02*
X330326Y239606D01*
X372110Y264378D02*
Y277300D01*
X370022Y262290D02*
X372110Y264378D01*
X325246Y257936D02*
X329600Y262290D01*
X304879Y261698D02*
X309880Y256697D01*
X288290Y266700D02*
X293291Y261698D01*
X304879D01*
X288290Y266700D02*
Y272450D01*
X291870Y276030D02*
X294640D01*
X288290Y272450D02*
X291870Y276030D01*
X324810Y239090D02*
X325246Y239526D01*
Y257936D01*
X320166Y265882D02*
X321654Y267370D01*
X320166Y242570D02*
Y265882D01*
X314940Y239050D02*
X315086Y239196D01*
Y272450D01*
X318666Y276030D01*
X320040D01*
X314810Y239090D02*
X314850Y239050D01*
X314940D01*
X299284Y256540D02*
X304810Y251014D01*
X310006Y241300D02*
Y253002D01*
X304810Y248910D02*
X304926Y248794D01*
X267970Y276030D02*
X271770D01*
X309880Y253128D02*
X310006Y253002D01*
X304810Y248910D02*
Y251014D01*
X304800Y248920D02*
X304810Y248910D01*
X304800Y243840D02*
Y248920D01*
X309880Y253128D02*
Y256697D01*
X294640Y276030D02*
X298440D01*
X302020Y272450D01*
X267970Y259298D02*
X270728Y256540D01*
X299284D01*
X267970Y259298D02*
Y276030D01*
X247650Y251460D02*
X297180D01*
X241300Y276030D02*
X245100D01*
X237490Y261620D02*
Y272450D01*
X241070Y276030D02*
X241300D01*
X237490Y272450D02*
X241070Y276030D01*
X237490Y261620D02*
X247650Y251460D01*
X299600Y239300D02*
X299810Y239090D01*
X299600Y239300D02*
Y249040D01*
X297180Y251460D02*
X299600Y249040D01*
X252720Y483430D02*
X260950Y491660D01*
Y495270D01*
X248920Y483430D02*
X252720D01*
X260950Y495270D02*
X280940Y515260D01*
X292250D01*
X252290Y504190D02*
X261291D01*
X277441Y520340D01*
X295910D01*
X256460Y525420D02*
X292250D01*
X253560Y528320D02*
X256460Y525420D01*
X406250Y530420D02*
X413190D01*
X439420Y504190D01*
X379350Y425440D02*
X381000D01*
X369580Y415670D02*
X379350Y425440D01*
X369580Y387350D02*
Y415670D01*
X376750Y429417D02*
X380038Y426128D01*
X376750Y429417D02*
Y445920D01*
X439420Y473710D02*
X459740Y453390D01*
X34290Y155770D02*
X49230D01*
X49530Y155470D01*
X64380Y301380D02*
X64770Y300990D01*
X45720Y301380D02*
X64380D01*
X441272Y204724D02*
X455930D01*
X439607Y203060D02*
X441272Y204724D01*
X438980Y179070D02*
X439607Y179697D01*
Y203060D01*
X387350Y176970D02*
X407280D01*
X409380Y179070D01*
X391150Y206570D02*
X399092Y198628D01*
X404368D01*
X406400Y196596D01*
X379970Y180550D02*
Y187720D01*
X383550Y176970D02*
X387350D01*
X379970Y180550D02*
X383550Y176970D01*
D13*
X292250Y540420D02*
D03*
Y535420D02*
D03*
Y530420D02*
D03*
Y525420D02*
D03*
Y520420D02*
D03*
Y515420D02*
D03*
Y510420D02*
D03*
Y505420D02*
D03*
Y500420D02*
D03*
Y495420D02*
D03*
Y490420D02*
D03*
Y480420D02*
D03*
Y475420D02*
D03*
Y470420D02*
D03*
Y465420D02*
D03*
X406250D02*
D03*
Y470420D02*
D03*
Y475420D02*
D03*
Y480420D02*
D03*
Y485420D02*
D03*
Y490420D02*
D03*
Y495420D02*
D03*
Y500420D02*
D03*
Y505420D02*
D03*
Y510420D02*
D03*
Y515420D02*
D03*
Y520420D02*
D03*
Y525420D02*
D03*
Y530420D02*
D03*
Y540420D02*
D03*
X292250Y485420D02*
D03*
X406250Y535420D02*
D03*
D14*
X311750Y445920D02*
D03*
X321750D02*
D03*
X326750D02*
D03*
X331750D02*
D03*
X336750D02*
D03*
X341750D02*
D03*
X346750D02*
D03*
X351750D02*
D03*
X356750D02*
D03*
X361750D02*
D03*
X366750D02*
D03*
X371750D02*
D03*
X376750D02*
D03*
X386750D02*
D03*
Y559920D02*
D03*
X381750D02*
D03*
X376750D02*
D03*
X371750D02*
D03*
X366750D02*
D03*
X361750D02*
D03*
X356750D02*
D03*
X351750D02*
D03*
X346750D02*
D03*
X341750D02*
D03*
X336750D02*
D03*
X331750D02*
D03*
X326750D02*
D03*
X321750D02*
D03*
X311750D02*
D03*
X316750Y445920D02*
D03*
X381750D02*
D03*
X316750Y559920D02*
D03*
D15*
X284810Y238850D02*
D03*
X289810D02*
D03*
X294810D02*
D03*
X299810D02*
D03*
X304810D02*
D03*
X309810D02*
D03*
X314810D02*
D03*
X319810D02*
D03*
X324810D02*
D03*
X329810D02*
D03*
X334810D02*
D03*
X339810D02*
D03*
Y155250D02*
D03*
X334810D02*
D03*
X329810D02*
D03*
X324810D02*
D03*
X319810D02*
D03*
X314810D02*
D03*
X309810D02*
D03*
X304810D02*
D03*
X299810D02*
D03*
X294810D02*
D03*
X289810D02*
D03*
X284810D02*
D03*
D16*
X354110Y224550D02*
D03*
Y219550D02*
D03*
Y214550D02*
D03*
Y209550D02*
D03*
Y204550D02*
D03*
Y199550D02*
D03*
Y194550D02*
D03*
Y189550D02*
D03*
Y184550D02*
D03*
Y179550D02*
D03*
Y174550D02*
D03*
Y169550D02*
D03*
X270510D02*
D03*
Y174550D02*
D03*
Y179550D02*
D03*
Y184550D02*
D03*
Y189550D02*
D03*
Y194550D02*
D03*
Y199550D02*
D03*
Y204550D02*
D03*
Y209550D02*
D03*
Y214550D02*
D03*
Y219550D02*
D03*
Y224550D02*
D03*
D17*
X375920Y143510D02*
D03*
X393680D02*
D03*
X428000Y572770D02*
D03*
X445760D02*
D03*
X369580Y387350D02*
D03*
X387340D02*
D03*
D18*
X304800Y134620D02*
D03*
Y117620D02*
D03*
X288290Y135110D02*
D03*
Y118110D02*
D03*
X270510Y140970D02*
D03*
Y123970D02*
D03*
X147320Y392920D02*
D03*
Y375920D02*
D03*
X64770Y300990D02*
D03*
Y317990D02*
D03*
X149860Y107170D02*
D03*
Y90170D02*
D03*
X153670Y124850D02*
D03*
Y141850D02*
D03*
X238760Y604130D02*
D03*
Y587130D02*
D03*
X401320Y424670D02*
D03*
Y407670D02*
D03*
X270510Y480060D02*
D03*
Y463060D02*
D03*
X419100Y424670D02*
D03*
Y407670D02*
D03*
D19*
X329320Y127000D02*
D03*
X346320D02*
D03*
X222250Y215900D02*
D03*
X205250D02*
D03*
X243840Y189230D02*
D03*
X226840D02*
D03*
X375430Y161290D02*
D03*
X392430D02*
D03*
X333620Y391160D02*
D03*
X316620D02*
D03*
X278130Y392430D02*
D03*
X295130D02*
D03*
X344560Y110490D02*
D03*
X361560D02*
D03*
X110980Y132080D02*
D03*
X93980D02*
D03*
X53730Y127000D02*
D03*
X70730D02*
D03*
X427500Y552450D02*
D03*
X444500D02*
D03*
X312420Y579120D02*
D03*
X329420D02*
D03*
X308610Y425450D02*
D03*
X291610D02*
D03*
X409820Y580390D02*
D03*
X392820D02*
D03*
D20*
X332420Y374195D02*
D03*
X324420D02*
D03*
X316420D02*
D03*
X308420D02*
D03*
X300420D02*
D03*
X292420D02*
D03*
Y352245D02*
D03*
X300420D02*
D03*
X308420D02*
D03*
X316420D02*
D03*
X324420D02*
D03*
X332420D02*
D03*
D21*
X291445Y363220D02*
D03*
X333395D02*
D03*
D22*
X426720Y273490D02*
D03*
Y303090D02*
D03*
X398780Y277300D02*
D03*
Y306900D02*
D03*
X372110Y277300D02*
D03*
Y306900D02*
D03*
X345440Y276030D02*
D03*
Y305630D02*
D03*
X320040Y276030D02*
D03*
Y305630D02*
D03*
X369570Y648140D02*
D03*
Y677740D02*
D03*
X387350Y206570D02*
D03*
Y176970D02*
D03*
X151130Y264600D02*
D03*
Y294200D02*
D03*
X127000D02*
D03*
Y264600D02*
D03*
X102870Y294200D02*
D03*
Y264600D02*
D03*
X45720Y301380D02*
D03*
Y271780D02*
D03*
X78740Y109610D02*
D03*
Y80010D02*
D03*
X175260Y143070D02*
D03*
Y113470D02*
D03*
X243840Y172280D02*
D03*
Y142680D02*
D03*
X241300Y276030D02*
D03*
Y305630D02*
D03*
X267970Y276030D02*
D03*
Y305630D02*
D03*
X294640Y276030D02*
D03*
Y305630D02*
D03*
X34290Y126170D02*
D03*
Y155770D02*
D03*
X54610Y79620D02*
D03*
Y109220D02*
D03*
X248920Y453830D02*
D03*
Y483430D02*
D03*
D23*
X422607Y225060D02*
D03*
Y203060D02*
D03*
X439607D02*
D03*
Y225060D02*
D03*
D24*
X87630Y576830D02*
D03*
X142630D02*
D03*
Y544830D02*
D03*
X87630D02*
D03*
D25*
X240538Y571500D02*
D03*
X254762D02*
D03*
X231902Y453390D02*
D03*
X217678D02*
D03*
D26*
X198120Y584200D02*
D03*
Y652200D02*
D03*
D27*
X363830Y627380D02*
D03*
X382930D02*
D03*
D28*
X339180Y637900D02*
D03*
Y682900D02*
D03*
X255180D02*
D03*
Y637900D02*
D03*
X127090Y421280D02*
D03*
Y376280D02*
D03*
X43090D02*
D03*
Y421280D02*
D03*
D29*
X323850Y92710D02*
D03*
Y110470D02*
D03*
X381000Y425440D02*
D03*
Y407680D02*
D03*
D30*
X377630Y120650D02*
D03*
X407230D02*
D03*
X409380Y179070D02*
D03*
X438980D02*
D03*
X126560Y110490D02*
D03*
X96960D02*
D03*
X149030Y354330D02*
D03*
X178630D02*
D03*
X222690Y504190D02*
D03*
X252290D02*
D03*
X223960Y552450D02*
D03*
X253560D02*
D03*
X223960Y528320D02*
D03*
X253560D02*
D03*
D31*
X455930Y190500D02*
D03*
Y204724D02*
D03*
X406400Y210820D02*
D03*
Y196596D02*
D03*
X204470Y518160D02*
D03*
Y532384D02*
D03*
Y504952D02*
D03*
Y490728D02*
D03*
D32*
X49530Y155470D02*
D03*
X62230D02*
D03*
X74930D02*
D03*
X87630D02*
D03*
X100330D02*
D03*
X113030D02*
D03*
X125730D02*
D03*
X138430D02*
D03*
Y240770D02*
D03*
X125730D02*
D03*
X113030D02*
D03*
X100330D02*
D03*
X87630D02*
D03*
X74930D02*
D03*
X62230D02*
D03*
X49530D02*
D03*
D33*
X454300Y685890D02*
D03*
Y601890D02*
D03*
X409300Y685890D02*
D03*
Y601890D02*
D03*
D34*
X85380Y631190D02*
D03*
X153380D02*
D03*
D35*
X48510Y486410D02*
D03*
X143510D02*
D03*
D63*
X280670Y16510D02*
X393700D01*
X109220D02*
X280670D01*
X181610Y34290D02*
X195770Y48450D01*
Y76355D01*
X155409Y240770D02*
X155939Y241300D01*
X138430Y240770D02*
X155409D01*
X155939Y241300D02*
X156210D01*
X309901Y576620D02*
X312401Y579120D01*
X309901Y564071D02*
Y576620D01*
X312401Y579120D02*
X312420D01*
X309710Y563880D02*
X309901Y564071D01*
X308610Y398670D02*
X315485Y391795D01*
X315985D01*
X295765D02*
X315485D01*
X315985D02*
X316620Y391160D01*
X295130Y392430D02*
X295765Y391795D01*
X280670Y67039D02*
Y67310D01*
X238760Y587130D02*
X254261D01*
X153380Y631190D02*
X160880Y623690D01*
X254261Y587130D02*
X288290Y553101D01*
X366991Y585969D02*
X367300Y585660D01*
X372300D02*
X389890Y603250D01*
X358140Y586160D02*
X358331Y585969D01*
X366991D01*
X367300Y585660D02*
X372300D01*
X232122Y453610D02*
X248700D01*
X248920Y453830D01*
X231902Y453390D02*
X232122Y453610D01*
X288290Y542290D02*
Y553101D01*
X376478Y602300D02*
X392570Y618392D01*
X334972Y602300D02*
X376478D01*
X363220Y615950D02*
X363411Y616141D01*
X361730Y622980D02*
X363411D01*
Y616141D02*
Y622980D01*
X361730D02*
X363830Y625080D01*
Y627380D01*
X315420Y582748D02*
X334972Y602300D01*
X243840Y189230D02*
X244400Y189790D01*
X82550Y43180D02*
Y77660D01*
Y43180D02*
X109220Y16510D01*
X469900Y92710D02*
Y349250D01*
X78740Y80010D02*
X80200D01*
X82550Y77660D01*
X393700Y16510D02*
X469900Y92710D01*
X459740Y359410D02*
X469900Y349250D01*
X459740Y359410D02*
Y377190D01*
X294640Y305630D02*
Y326260D01*
X272630Y348270D02*
X294640Y326260D01*
X272630Y348270D02*
Y366550D01*
X280275Y374195D01*
X292420D01*
X418320Y420370D02*
X426331D01*
X401320Y424670D02*
X414020D01*
X418320Y420370D01*
X426331D02*
X429260Y417441D01*
Y407670D02*
Y417441D01*
Y407670D02*
X459740Y377190D01*
X480060D01*
X270870Y480420D02*
X272859Y482409D01*
X270510Y480060D02*
X270870Y480420D01*
X272859Y492569D02*
X273050Y492760D01*
X272859Y482409D02*
Y492569D01*
X308610Y425450D02*
X309110D01*
X280670Y363220D02*
X291445D01*
X292420Y374195D02*
Y389930D01*
X324420Y340061D02*
X325120Y339361D01*
X324420Y340061D02*
Y352245D01*
X325120Y339090D02*
Y339361D01*
X217600Y518160D02*
X223960Y524520D01*
X204470Y518160D02*
X217600D01*
X223960Y524520D02*
Y528320D01*
X196270Y76855D02*
Y97790D01*
X195770Y76355D02*
X196270Y76855D01*
X256540Y64499D02*
Y64770D01*
X99070Y264600D02*
X102870D01*
X88271Y275399D02*
X99070Y264600D01*
X81471Y275399D02*
X88271D01*
X81280Y275590D02*
X81471Y275399D01*
X113030Y240770D02*
Y258240D01*
X106670Y264600D02*
X113030Y258240D01*
X102870Y264600D02*
X106670D01*
X49530Y240770D02*
Y255270D01*
X228600Y69579D02*
Y69850D01*
X74930Y240770D02*
X76009Y241849D01*
Y262699D01*
X76200Y262890D01*
X308610Y398670D02*
Y425450D01*
X178630Y350530D02*
X223530Y305630D01*
X178630Y350530D02*
Y354330D01*
X223530Y305630D02*
X241300D01*
X108769Y443651D02*
X223560D01*
X66010Y486410D02*
X108769Y443651D01*
X223560D02*
X231902Y451993D01*
Y453390D01*
X311750Y578450D02*
X312420Y579120D01*
X270870Y480420D02*
X292250D01*
X267970Y305630D02*
X294640D01*
X241300D02*
X267970D01*
X332420Y374195D02*
Y377170D01*
X332670Y377420D01*
X337508D01*
X344160Y384072D01*
Y398248D01*
X341208Y401200D02*
X344160Y398248D01*
X326032Y401200D02*
X341208D01*
X323080Y398247D02*
X326032Y401200D01*
X323080Y397120D02*
Y398247D01*
X317120Y391160D02*
X323080Y397120D01*
X316620Y391160D02*
X317120D01*
X316420Y374195D02*
X316520Y374295D01*
Y391060D02*
X316620Y391160D01*
X316520Y374295D02*
Y391060D01*
X386750Y441920D02*
Y445920D01*
Y441920D02*
X398820Y429850D01*
Y427170D02*
Y429850D01*
Y427170D02*
X401320Y424670D01*
X405130Y542290D02*
X412790Y549950D01*
X425000D02*
X427500Y552450D01*
X412790Y549950D02*
X425000D01*
X427750Y552700D02*
Y572520D01*
X427500Y552450D02*
X427750Y552700D01*
X315420Y581620D02*
Y582748D01*
X392570Y618392D02*
Y636368D01*
X389034Y639903D02*
X392570Y636368D01*
X381607Y639903D02*
X389034D01*
X373370Y648140D02*
X381607Y639903D01*
X369570Y648140D02*
X373370D01*
X243840Y172280D02*
X244170Y172610D01*
X78545Y79815D02*
X78740Y80010D01*
X54610Y79620D02*
X54805Y79815D01*
X78545D01*
X138430Y139462D02*
X150042Y127850D01*
X151170D02*
X153670Y125350D01*
X138430Y139462D02*
Y155470D01*
X150042Y127850D02*
X151170D01*
X153670Y124850D02*
Y125350D01*
X112005Y154445D02*
X113030Y155470D01*
X112005Y133105D02*
Y154445D01*
X110980Y132080D02*
X112005Y133105D01*
X53730Y127000D02*
Y131120D01*
Y110100D02*
Y127000D01*
X62230Y139620D02*
Y155470D01*
X53730Y131120D02*
X62230Y139620D01*
X53730Y110100D02*
X54610Y109220D01*
X34290Y96140D02*
Y126170D01*
Y96140D02*
X50810Y79620D01*
X54610D01*
X49520Y271780D02*
X62230Y259070D01*
Y240770D02*
Y259070D01*
X45720Y271780D02*
X49520D01*
X139730Y242070D02*
Y253200D01*
X138430Y240770D02*
X139730Y242070D01*
X147330Y264600D02*
X151130D01*
X144980Y262250D02*
X147330Y264600D01*
X144980Y258450D02*
Y262250D01*
X139730Y253200D02*
X144980Y258450D01*
X125730Y263330D02*
X127000Y264600D01*
X125730Y240770D02*
Y263330D01*
X127000Y294200D02*
X151130D01*
X102870D02*
X127000D01*
X410320Y580390D02*
X431820Y601890D01*
X409820Y580390D02*
X410320D01*
X431820Y601890D02*
X454300D01*
X221610Y558600D02*
X223960Y556250D01*
X217810Y558600D02*
X221610D01*
X223960Y552450D02*
Y556250D01*
X214120Y562290D02*
X217810Y558600D01*
X240538Y570103D02*
Y571500D01*
X229035Y558600D02*
X240538Y570103D01*
X226310Y558600D02*
X229035D01*
X223960Y556250D02*
X226310Y558600D01*
X143510Y486410D02*
X179124D01*
X204470Y504952D02*
X221928D01*
X197666D02*
X204470D01*
X179124Y486410D02*
X197666Y504952D01*
X221928D02*
X222690Y504190D01*
X48510Y486410D02*
X66010D01*
X459740Y478790D02*
X472380Y491430D01*
Y564659D01*
X454300Y582739D02*
X472380Y564659D01*
X454300Y582739D02*
Y601890D01*
Y685890D01*
X195580Y586740D02*
X198120Y584200D01*
X167640Y586740D02*
X195580D01*
X153380Y601000D02*
Y631190D01*
Y601000D02*
X167640Y586740D01*
X128694Y562290D02*
X214120D01*
X114154Y576830D02*
X128694Y562290D01*
X87630Y576830D02*
X114154D01*
X91630Y537830D02*
X94630D01*
X114300Y518160D01*
X204470D01*
X87630Y541830D02*
Y544830D01*
Y541830D02*
X91630Y537830D01*
X236260Y584200D02*
X238760Y586700D01*
Y587130D01*
X198120Y584200D02*
X236260D01*
X355610Y637900D02*
X363830Y629680D01*
X339180Y637900D02*
X355610D01*
X363830Y627380D02*
Y629680D01*
X255180Y637900D02*
X339180D01*
X365770Y677740D02*
X369570D01*
X339180Y682900D02*
X360610D01*
X365770Y677740D01*
X255180Y682900D02*
X339180D01*
X361710Y652200D02*
X365770Y648140D01*
X369570D01*
X198120Y652200D02*
X361710D01*
X66040Y631190D02*
X85380D01*
X48260Y648970D02*
X66040Y631190D01*
D64*
X205250Y215900D02*
X207010D01*
X244400Y189790D02*
X270510D01*
X199070Y204790D02*
X270510D01*
X260612Y199480D02*
X260788D01*
X210820Y199390D02*
X260522D01*
X175260Y180980D02*
X199070Y204790D01*
X189230Y177800D02*
X210820Y199390D01*
X260522D02*
X260612Y199480D01*
X155350Y223300D02*
X164460Y232410D01*
X130852Y223300D02*
X130852Y223300D01*
X82330Y223300D02*
X130852D01*
X164460Y232410D02*
X236220D01*
X243840Y224790D01*
X74461Y215431D02*
X82330Y223300D01*
X130852Y223300D02*
X155350D01*
X381750Y455633D02*
Y457714D01*
X381750Y457714D02*
X381750Y457714D01*
X380990Y407670D02*
X381000Y407680D01*
X378460Y407670D02*
X380990D01*
X382650Y407680D02*
X401310D01*
X381000D02*
X382650D01*
X401310D02*
X401320Y407670D01*
X387340Y387350D02*
Y401340D01*
X382650Y407680D02*
X386400Y403930D01*
Y402280D02*
Y403930D01*
Y402280D02*
X387340Y401340D01*
X321260Y571460D02*
X328920Y579120D01*
X320973Y571460D02*
X321260D01*
X328920Y579120D02*
X329420D01*
X325630Y375405D02*
Y383670D01*
X333120Y391160D02*
X333620D01*
X325630Y383670D02*
X333120Y391160D01*
X324420Y374195D02*
X325630Y375405D01*
X316420Y352245D02*
X317630Y353455D01*
Y359643D01*
X323210Y365223D02*
Y372985D01*
X317630Y359643D02*
X323210Y365223D01*
Y372985D02*
X324420Y374195D01*
X300420D02*
X308420D01*
X309630Y365223D02*
X315210Y359643D01*
Y353455D02*
Y359643D01*
X308420Y374195D02*
X309630Y372985D01*
Y365223D02*
Y372985D01*
X315210Y353455D02*
X316420Y352245D01*
X72000Y125730D02*
X72390D01*
X70730Y127000D02*
X72000Y125730D01*
X80270Y111140D02*
Y133673D01*
X78740Y109610D02*
X80270Y111140D01*
X239150Y604520D02*
X251460D01*
X238760Y604130D02*
X239150Y604520D01*
X391550Y579120D02*
X392820Y580390D01*
X329420Y579120D02*
X391550D01*
X415847Y210820D02*
X422607Y204060D01*
X406400Y210820D02*
X415847D01*
X422607Y203060D02*
Y204060D01*
X326160Y423140D02*
X326390Y422910D01*
X326160Y423140D02*
Y434137D01*
X309110Y425450D02*
X321750Y438090D01*
Y445920D01*
X335569Y409240D02*
Y409529D01*
X343590Y417550D01*
X336210Y433206D02*
Y445920D01*
X341750Y435501D02*
X351700Y425551D01*
X341750Y435501D02*
Y445920D01*
X336210Y433206D02*
X343590Y425826D01*
Y417550D02*
Y425826D01*
X351700Y365922D02*
Y425551D01*
X341208Y355430D02*
X351700Y365922D01*
X336370Y363220D02*
X343596Y370446D01*
X333395Y363220D02*
X336370D01*
X343596Y370446D02*
Y371536D01*
X344170Y372110D01*
X332420Y352245D02*
Y355180D01*
X332670Y355430D01*
X341208D01*
X189230Y97790D02*
Y177800D01*
X166370Y74930D02*
X189230Y97790D01*
X93980Y117270D02*
X96960Y114290D01*
X93980Y117270D02*
Y132080D01*
X96960Y110490D02*
Y114290D01*
X175260Y143070D02*
Y180980D01*
X100330Y74930D02*
X166370D01*
X96960Y78300D02*
X100330Y74930D01*
X96960Y78300D02*
Y110490D01*
X149860Y107670D02*
X155660Y113470D01*
X175260D01*
X149860Y107170D02*
Y107670D01*
X126560Y110490D02*
X147040D01*
X149860Y107670D01*
X126145Y110905D02*
Y155055D01*
X125730Y155470D02*
X126145Y155055D01*
Y110905D02*
X126560Y110490D01*
X174040Y141850D02*
X175260Y143070D01*
X153670Y141850D02*
X174040D01*
X74461Y155939D02*
Y215431D01*
Y155939D02*
X74930Y155470D01*
Y139013D02*
Y155470D01*
Y139013D02*
X80270Y133673D01*
X147320Y356040D02*
X149030Y354330D01*
X147320Y356040D02*
Y375920D01*
X127090Y376280D02*
X146960D01*
X147320Y375920D01*
X43090Y376280D02*
X127090D01*
D65*
X308610Y34290D02*
D03*
X283210D02*
D03*
X257810D02*
D03*
X232410D02*
D03*
X207010D02*
D03*
X181610D02*
D03*
X459740Y504190D02*
D03*
Y478790D02*
D03*
Y453390D02*
D03*
Y402590D02*
D03*
Y377190D02*
D03*
Y427990D02*
D03*
D66*
X48260Y598170D02*
D03*
Y623570D02*
D03*
X223520Y388620D02*
D03*
Y363220D02*
D03*
D67*
X48260Y648970D02*
D03*
X223520Y414020D02*
D03*
D68*
X226060Y189230D02*
D03*
X207010Y215900D02*
D03*
X269240Y142240D02*
D03*
X243840Y189230D02*
D03*
X222250Y215900D02*
D03*
X251460Y217170D02*
D03*
X227330Y239450D02*
D03*
X156210Y241300D02*
D03*
X371983Y203557D02*
D03*
X412750Y445770D02*
D03*
X316230Y461010D02*
D03*
X381750Y457714D02*
D03*
X378460Y407670D02*
D03*
X309710Y563880D02*
D03*
X151130Y91440D02*
D03*
X72390Y125730D02*
D03*
X254000Y570230D02*
D03*
X251460Y604520D02*
D03*
X356870Y572080D02*
D03*
X358140Y586160D02*
D03*
X379632Y216960D02*
D03*
X388169Y217192D02*
D03*
X396160Y223600D02*
D03*
X246380Y236220D02*
D03*
X346710Y244650D02*
D03*
X401320Y570230D02*
D03*
X474980Y433070D02*
D03*
X331470Y546100D02*
D03*
X389890Y603250D02*
D03*
X363220Y615950D02*
D03*
X363502Y142522D02*
D03*
X328930Y125730D02*
D03*
X313200Y130810D02*
D03*
X480060Y377190D02*
D03*
X426720Y574040D02*
D03*
X312420Y579120D02*
D03*
X308610Y425450D02*
D03*
X273050Y492760D02*
D03*
X149629Y337659D02*
D03*
X326390Y422910D02*
D03*
X335569Y409240D02*
D03*
X280670Y363220D02*
D03*
X336550Y422910D02*
D03*
X344170Y372110D02*
D03*
X325120Y339090D02*
D03*
X196270Y97790D02*
D03*
X280670Y67310D02*
D03*
X256540Y64770D02*
D03*
X81280Y275590D02*
D03*
X49530Y255270D02*
D03*
X228600Y69850D02*
D03*
X76200Y262890D02*
D03*
X419910Y468170D02*
D03*
X426720Y473710D02*
D03*
X433070Y480060D02*
D03*
M02*
