G04*
G04 #@! TF.GenerationSoftware,Altium Limited,Altium Designer,24.1.2 (44)*
G04*
G04 Layer_Color=8388736*
%FSLAX44Y44*%
%MOMM*%
G71*
G04*
G04 #@! TF.SameCoordinates,AF74AE57-9A92-41B1-AA8E-73494967368F*
G04*
G04*
G04 #@! TF.FilePolarity,Negative*
G04*
G01*
G75*
%ADD36R,1.7032X0.5032*%
%ADD37R,0.5032X1.7032*%
%ADD38R,0.4832X1.7632*%
%ADD39R,1.7632X0.4832*%
G04:AMPARAMS|DCode=40|XSize=1.254mm|YSize=1.584mm|CornerRadius=0.2333mm|HoleSize=0mm|Usage=FLASHONLY|Rotation=0.000|XOffset=0mm|YOffset=0mm|HoleType=Round|Shape=RoundedRectangle|*
%AMROUNDEDRECTD40*
21,1,1.2540,1.1175,0,0,0.0*
21,1,0.7875,1.5840,0,0,0.0*
1,1,0.4665,0.3938,-0.5587*
1,1,0.4665,-0.3938,-0.5587*
1,1,0.4665,-0.3938,0.5587*
1,1,0.4665,0.3938,0.5587*
%
%ADD40ROUNDEDRECTD40*%
%ADD41R,1.2032X1.3032*%
%ADD42R,1.3032X1.2032*%
%ADD43R,0.7532X1.3482*%
%ADD44R,1.3482X0.7532*%
%ADD45R,1.9332X1.1732*%
%ADD46R,1.4032X1.6032*%
%ADD47R,1.5032X2.1032*%
%ADD48R,0.8636X1.1430*%
%ADD49R,3.8040X2.2040*%
%ADD50R,1.1232X1.5832*%
%ADD51R,1.8032X1.6032*%
G04:AMPARAMS|DCode=52|XSize=1.254mm|YSize=1.584mm|CornerRadius=0.2333mm|HoleSize=0mm|Usage=FLASHONLY|Rotation=270.000|XOffset=0mm|YOffset=0mm|HoleType=Round|Shape=RoundedRectangle|*
%AMROUNDEDRECTD52*
21,1,1.2540,1.1175,0,0,270.0*
21,1,0.7875,1.5840,0,0,270.0*
1,1,0.4665,-0.5587,-0.3938*
1,1,0.4665,-0.5587,0.3938*
1,1,0.4665,0.5587,0.3938*
1,1,0.4665,0.5587,-0.3938*
%
%ADD52ROUNDEDRECTD52*%
%ADD53R,1.1732X1.9332*%
%ADD54R,1.1430X0.8636*%
%ADD55R,0.9640X1.8740*%
%ADD56R,1.6032X1.8032*%
%ADD57R,2.2040X3.8040*%
%ADD58R,5.7032X2.2032*%
%ADD59C,1.7232*%
%ADD60C,1.7332*%
%ADD61R,1.7332X1.7332*%
%ADD62C,0.8032*%
G36*
X180711Y25737D02*
X179822Y25878D01*
X178952Y26111D01*
X178112Y26433D01*
X177310Y26842D01*
X176555Y27332D01*
X175856Y27899D01*
X175219Y28535D01*
X174653Y29235D01*
X174162Y29990D01*
X173754Y30792D01*
X173431Y31632D01*
X173198Y32502D01*
X173057Y33391D01*
X173010Y34290D01*
X173019Y34668D01*
X173046Y35061D01*
X173091Y35452D01*
X173154Y35841D01*
X173235Y36227D01*
X173334Y36608D01*
X173450Y36984D01*
X173583Y37355D01*
X173733Y37719D01*
X173899Y38076D01*
X174082Y38425D01*
X174281Y38765D01*
X174495Y39096D01*
X174724Y39416D01*
X174967Y39726D01*
X175225Y40024D01*
X175495Y40310D01*
X175779Y40583D01*
X176075Y40843D01*
X176383Y41089D01*
X176701Y41320D01*
X177030Y41537D01*
X177369Y41738D01*
X177716Y41924D01*
X178071Y42093D01*
X178434Y42246D01*
X178804Y42382D01*
X179179Y42501D01*
X179560Y42603D01*
X179960Y42690D01*
Y50590D01*
X183260D01*
Y42690D01*
X183660Y42603D01*
X184041Y42501D01*
X184416Y42382D01*
X184786Y42246D01*
X185149Y42093D01*
X185504Y41924D01*
X185851Y41738D01*
X186190Y41537D01*
X186519Y41320D01*
X186837Y41089D01*
X187145Y40843D01*
X187441Y40583D01*
X187724Y40310D01*
X187995Y40024D01*
X188253Y39726D01*
X188496Y39416D01*
X188725Y39096D01*
X188939Y38765D01*
X189138Y38425D01*
X189321Y38076D01*
X189487Y37719D01*
X189637Y37355D01*
X189770Y36984D01*
X189886Y36608D01*
X189985Y36227D01*
X190066Y35841D01*
X190129Y35452D01*
X190174Y35061D01*
X190201Y34668D01*
X190210Y34290D01*
X190163Y33391D01*
X190022Y32502D01*
X189789Y31632D01*
X189466Y30792D01*
X189058Y29990D01*
X188568Y29235D01*
X188001Y28535D01*
X187365Y27899D01*
X186665Y27332D01*
X185910Y26842D01*
X185108Y26433D01*
X184268Y26111D01*
X183398Y25878D01*
X182509Y25737D01*
X181610Y25690D01*
X180711Y25737D01*
D02*
G37*
G36*
X206111D02*
X205222Y25878D01*
X204352Y26111D01*
X203512Y26433D01*
X202710Y26842D01*
X201955Y27332D01*
X201255Y27899D01*
X200619Y28535D01*
X200053Y29235D01*
X199562Y29990D01*
X199153Y30792D01*
X198831Y31632D01*
X198598Y32502D01*
X198457Y33391D01*
X198410Y34290D01*
X198419Y34668D01*
X198446Y35061D01*
X198491Y35452D01*
X198554Y35841D01*
X198635Y36227D01*
X198734Y36608D01*
X198850Y36984D01*
X198983Y37355D01*
X199133Y37719D01*
X199299Y38076D01*
X199482Y38425D01*
X199681Y38765D01*
X199895Y39096D01*
X200124Y39416D01*
X200367Y39726D01*
X200625Y40024D01*
X200896Y40310D01*
X201179Y40583D01*
X201475Y40843D01*
X201783Y41089D01*
X202101Y41320D01*
X202430Y41537D01*
X202769Y41738D01*
X203116Y41924D01*
X203472Y42093D01*
X203834Y42246D01*
X204204Y42382D01*
X204580Y42501D01*
X204960Y42603D01*
X205360Y42690D01*
Y50590D01*
X208660D01*
Y42690D01*
X209060Y42603D01*
X209440Y42501D01*
X209816Y42382D01*
X210186Y42246D01*
X210548Y42093D01*
X210904Y41924D01*
X211251Y41738D01*
X211590Y41537D01*
X211919Y41320D01*
X212237Y41089D01*
X212545Y40843D01*
X212841Y40583D01*
X213125Y40310D01*
X213395Y40024D01*
X213653Y39726D01*
X213896Y39416D01*
X214125Y39096D01*
X214339Y38765D01*
X214538Y38425D01*
X214721Y38076D01*
X214887Y37719D01*
X215037Y37355D01*
X215170Y36984D01*
X215286Y36608D01*
X215385Y36227D01*
X215466Y35841D01*
X215529Y35452D01*
X215574Y35061D01*
X215601Y34668D01*
X215610Y34290D01*
X215563Y33391D01*
X215422Y32502D01*
X215189Y31632D01*
X214867Y30792D01*
X214458Y29990D01*
X213967Y29235D01*
X213401Y28535D01*
X212764Y27899D01*
X212065Y27332D01*
X211310Y26842D01*
X210508Y26433D01*
X209668Y26111D01*
X208798Y25878D01*
X207909Y25737D01*
X207010Y25690D01*
X206111Y25737D01*
D02*
G37*
G36*
X231511D02*
X230622Y25878D01*
X229752Y26111D01*
X228912Y26433D01*
X228110Y26842D01*
X227355Y27332D01*
X226656Y27899D01*
X226019Y28535D01*
X225452Y29235D01*
X224962Y29990D01*
X224554Y30792D01*
X224231Y31632D01*
X223998Y32502D01*
X223857Y33391D01*
X223810Y34290D01*
X223819Y34668D01*
X223846Y35061D01*
X223891Y35452D01*
X223954Y35841D01*
X224035Y36227D01*
X224134Y36608D01*
X224250Y36984D01*
X224383Y37355D01*
X224533Y37719D01*
X224699Y38076D01*
X224882Y38425D01*
X225081Y38765D01*
X225295Y39096D01*
X225524Y39416D01*
X225767Y39726D01*
X226025Y40024D01*
X226296Y40310D01*
X226579Y40583D01*
X226875Y40843D01*
X227183Y41089D01*
X227501Y41320D01*
X227830Y41537D01*
X228169Y41738D01*
X228516Y41924D01*
X228871Y42093D01*
X229234Y42246D01*
X229604Y42382D01*
X229979Y42501D01*
X230360Y42603D01*
X230760Y42690D01*
Y50590D01*
X234060D01*
Y42690D01*
X234460Y42603D01*
X234841Y42501D01*
X235216Y42382D01*
X235586Y42246D01*
X235949Y42093D01*
X236304Y41924D01*
X236651Y41738D01*
X236990Y41537D01*
X237319Y41320D01*
X237637Y41089D01*
X237945Y40843D01*
X238241Y40583D01*
X238524Y40310D01*
X238795Y40024D01*
X239053Y39726D01*
X239296Y39416D01*
X239525Y39096D01*
X239739Y38765D01*
X239938Y38425D01*
X240121Y38076D01*
X240287Y37719D01*
X240437Y37355D01*
X240570Y36984D01*
X240686Y36608D01*
X240785Y36227D01*
X240866Y35841D01*
X240929Y35452D01*
X240974Y35061D01*
X241001Y34668D01*
X241010Y34290D01*
X240963Y33391D01*
X240822Y32502D01*
X240589Y31632D01*
X240266Y30792D01*
X239858Y29990D01*
X239368Y29235D01*
X238801Y28535D01*
X238165Y27899D01*
X237465Y27332D01*
X236710Y26842D01*
X235908Y26433D01*
X235068Y26111D01*
X234198Y25878D01*
X233309Y25737D01*
X232410Y25690D01*
X231511Y25737D01*
D02*
G37*
G36*
X256911D02*
X256022Y25878D01*
X255152Y26111D01*
X254312Y26433D01*
X253510Y26842D01*
X252755Y27332D01*
X252055Y27899D01*
X251419Y28535D01*
X250853Y29235D01*
X250362Y29990D01*
X249953Y30792D01*
X249631Y31632D01*
X249398Y32502D01*
X249257Y33391D01*
X249210Y34290D01*
X249219Y34668D01*
X249246Y35061D01*
X249291Y35452D01*
X249354Y35841D01*
X249435Y36227D01*
X249534Y36608D01*
X249650Y36984D01*
X249783Y37355D01*
X249933Y37719D01*
X250099Y38076D01*
X250282Y38425D01*
X250481Y38765D01*
X250695Y39096D01*
X250924Y39416D01*
X251167Y39726D01*
X251425Y40024D01*
X251695Y40310D01*
X251979Y40583D01*
X252275Y40843D01*
X252583Y41089D01*
X252901Y41320D01*
X253230Y41537D01*
X253569Y41738D01*
X253916Y41924D01*
X254272Y42093D01*
X254634Y42246D01*
X255004Y42382D01*
X255380Y42501D01*
X255760Y42603D01*
X256160Y42690D01*
Y50590D01*
X259460D01*
Y42690D01*
X259860Y42603D01*
X260240Y42501D01*
X260616Y42382D01*
X260986Y42246D01*
X261348Y42093D01*
X261704Y41924D01*
X262051Y41738D01*
X262390Y41537D01*
X262719Y41320D01*
X263037Y41089D01*
X263345Y40843D01*
X263641Y40583D01*
X263925Y40310D01*
X264195Y40024D01*
X264453Y39726D01*
X264696Y39416D01*
X264925Y39096D01*
X265139Y38765D01*
X265338Y38425D01*
X265521Y38076D01*
X265687Y37719D01*
X265837Y37355D01*
X265970Y36984D01*
X266086Y36608D01*
X266185Y36227D01*
X266266Y35841D01*
X266329Y35452D01*
X266374Y35061D01*
X266401Y34668D01*
X266410Y34290D01*
X266363Y33391D01*
X266222Y32502D01*
X265989Y31632D01*
X265667Y30792D01*
X265258Y29990D01*
X264767Y29235D01*
X264201Y28535D01*
X263564Y27899D01*
X262865Y27332D01*
X262110Y26842D01*
X261308Y26433D01*
X260468Y26111D01*
X259598Y25878D01*
X258709Y25737D01*
X257810Y25690D01*
X256911Y25737D01*
D02*
G37*
G36*
X282311D02*
X281422Y25878D01*
X280552Y26111D01*
X279712Y26433D01*
X278910Y26842D01*
X278155Y27332D01*
X277456Y27899D01*
X276819Y28535D01*
X276252Y29235D01*
X275762Y29990D01*
X275354Y30792D01*
X275031Y31632D01*
X274798Y32502D01*
X274657Y33391D01*
X274610Y34290D01*
X274619Y34668D01*
X274646Y35061D01*
X274691Y35452D01*
X274754Y35841D01*
X274835Y36227D01*
X274934Y36608D01*
X275050Y36984D01*
X275183Y37355D01*
X275333Y37719D01*
X275499Y38076D01*
X275682Y38425D01*
X275881Y38765D01*
X276095Y39096D01*
X276324Y39416D01*
X276567Y39726D01*
X276825Y40024D01*
X277096Y40310D01*
X277379Y40583D01*
X277675Y40843D01*
X277983Y41089D01*
X278301Y41320D01*
X278630Y41537D01*
X278969Y41738D01*
X279316Y41924D01*
X279671Y42093D01*
X280034Y42246D01*
X280404Y42382D01*
X280779Y42501D01*
X281160Y42603D01*
X281560Y42690D01*
Y50590D01*
X284860D01*
Y42690D01*
X285260Y42603D01*
X285641Y42501D01*
X286016Y42382D01*
X286386Y42246D01*
X286749Y42093D01*
X287104Y41924D01*
X287451Y41738D01*
X287790Y41537D01*
X288119Y41320D01*
X288437Y41089D01*
X288745Y40843D01*
X289041Y40583D01*
X289324Y40310D01*
X289595Y40024D01*
X289853Y39726D01*
X290096Y39416D01*
X290325Y39096D01*
X290539Y38765D01*
X290738Y38425D01*
X290921Y38076D01*
X291087Y37719D01*
X291237Y37355D01*
X291370Y36984D01*
X291486Y36608D01*
X291585Y36227D01*
X291666Y35841D01*
X291729Y35452D01*
X291774Y35061D01*
X291801Y34668D01*
X291810Y34290D01*
X291763Y33391D01*
X291622Y32502D01*
X291389Y31632D01*
X291066Y30792D01*
X290658Y29990D01*
X290168Y29235D01*
X289601Y28535D01*
X288965Y27899D01*
X288265Y27332D01*
X287510Y26842D01*
X286708Y26433D01*
X285868Y26111D01*
X284998Y25878D01*
X284109Y25737D01*
X283210Y25690D01*
X282311Y25737D01*
D02*
G37*
G36*
X307711D02*
X306822Y25878D01*
X305952Y26111D01*
X305112Y26433D01*
X304310Y26842D01*
X303555Y27332D01*
X302855Y27899D01*
X302219Y28535D01*
X301653Y29235D01*
X301162Y29990D01*
X300753Y30792D01*
X300431Y31632D01*
X300198Y32502D01*
X300057Y33391D01*
X300010Y34290D01*
X300019Y34668D01*
X300046Y35061D01*
X300091Y35452D01*
X300154Y35841D01*
X300235Y36227D01*
X300334Y36608D01*
X300450Y36984D01*
X300583Y37355D01*
X300733Y37719D01*
X300899Y38076D01*
X301082Y38425D01*
X301281Y38765D01*
X301495Y39096D01*
X301724Y39416D01*
X301967Y39726D01*
X302225Y40024D01*
X302495Y40310D01*
X302779Y40583D01*
X303075Y40843D01*
X303383Y41089D01*
X303701Y41320D01*
X304030Y41537D01*
X304369Y41738D01*
X304716Y41924D01*
X305072Y42093D01*
X305434Y42246D01*
X305804Y42382D01*
X306180Y42501D01*
X306560Y42603D01*
X306960Y42690D01*
Y50590D01*
X310260D01*
Y42690D01*
X310660Y42603D01*
X311040Y42501D01*
X311416Y42382D01*
X311786Y42246D01*
X312148Y42093D01*
X312504Y41924D01*
X312851Y41738D01*
X313190Y41537D01*
X313519Y41320D01*
X313837Y41089D01*
X314145Y40843D01*
X314441Y40583D01*
X314725Y40310D01*
X314995Y40024D01*
X315253Y39726D01*
X315496Y39416D01*
X315725Y39096D01*
X315939Y38765D01*
X316138Y38425D01*
X316321Y38076D01*
X316487Y37719D01*
X316637Y37355D01*
X316770Y36984D01*
X316886Y36608D01*
X316985Y36227D01*
X317066Y35841D01*
X317129Y35452D01*
X317174Y35061D01*
X317201Y34668D01*
X317210Y34290D01*
X317163Y33391D01*
X317022Y32502D01*
X316789Y31632D01*
X316467Y30792D01*
X316058Y29990D01*
X315567Y29235D01*
X315001Y28535D01*
X314364Y27899D01*
X313665Y27332D01*
X312910Y26842D01*
X312108Y26433D01*
X311268Y26111D01*
X310398Y25878D01*
X309509Y25737D01*
X308610Y25690D01*
X307711Y25737D01*
D02*
G37*
G36*
X468293Y376291D02*
X468152Y375402D01*
X467919Y374532D01*
X467597Y373692D01*
X467188Y372890D01*
X466698Y372135D01*
X466131Y371436D01*
X465494Y370799D01*
X464795Y370233D01*
X464040Y369742D01*
X463238Y369333D01*
X462398Y369011D01*
X461528Y368778D01*
X460639Y368637D01*
X459740Y368590D01*
X459362Y368599D01*
X458969Y368626D01*
X458578Y368671D01*
X458189Y368734D01*
X457803Y368815D01*
X457422Y368914D01*
X457046Y369030D01*
X456675Y369163D01*
X456311Y369313D01*
X455954Y369479D01*
X455605Y369662D01*
X455265Y369861D01*
X454934Y370075D01*
X454614Y370304D01*
X454304Y370547D01*
X454006Y370805D01*
X453720Y371076D01*
X453447Y371359D01*
X453187Y371655D01*
X452941Y371963D01*
X452710Y372281D01*
X452493Y372610D01*
X452292Y372949D01*
X452106Y373296D01*
X451937Y373652D01*
X451784Y374014D01*
X451647Y374384D01*
X451529Y374759D01*
X451427Y375140D01*
X451340Y375540D01*
X443440D01*
Y378840D01*
X451340D01*
X451427Y379240D01*
X451529Y379621D01*
X451647Y379996D01*
X451784Y380366D01*
X451937Y380728D01*
X452106Y381084D01*
X452292Y381431D01*
X452493Y381770D01*
X452710Y382099D01*
X452941Y382417D01*
X453187Y382725D01*
X453447Y383021D01*
X453720Y383304D01*
X454006Y383575D01*
X454304Y383833D01*
X454614Y384076D01*
X454934Y384305D01*
X455265Y384519D01*
X455605Y384718D01*
X455954Y384901D01*
X456311Y385067D01*
X456675Y385217D01*
X457046Y385350D01*
X457422Y385466D01*
X457803Y385565D01*
X458189Y385646D01*
X458578Y385709D01*
X458969Y385754D01*
X459362Y385781D01*
X459740Y385790D01*
X460639Y385743D01*
X461528Y385602D01*
X462398Y385369D01*
X463238Y385047D01*
X464040Y384638D01*
X464795Y384147D01*
X465494Y383581D01*
X466131Y382944D01*
X466698Y382245D01*
X467188Y381490D01*
X467597Y380688D01*
X467919Y379848D01*
X468152Y378978D01*
X468293Y378089D01*
X468340Y377190D01*
X468293Y376291D01*
D02*
G37*
G36*
Y401691D02*
X468152Y400802D01*
X467919Y399932D01*
X467597Y399092D01*
X467188Y398290D01*
X466698Y397535D01*
X466131Y396836D01*
X465494Y396199D01*
X464795Y395633D01*
X464040Y395142D01*
X463238Y394734D01*
X462398Y394411D01*
X461528Y394178D01*
X460639Y394037D01*
X459740Y393990D01*
X459362Y393999D01*
X458969Y394026D01*
X458578Y394071D01*
X458189Y394134D01*
X457803Y394215D01*
X457422Y394314D01*
X457046Y394430D01*
X456675Y394563D01*
X456311Y394713D01*
X455954Y394879D01*
X455605Y395062D01*
X455265Y395261D01*
X454934Y395475D01*
X454614Y395704D01*
X454304Y395947D01*
X454006Y396205D01*
X453720Y396475D01*
X453447Y396759D01*
X453187Y397055D01*
X452941Y397363D01*
X452710Y397681D01*
X452493Y398010D01*
X452292Y398349D01*
X452106Y398696D01*
X451937Y399052D01*
X451784Y399414D01*
X451647Y399784D01*
X451529Y400159D01*
X451427Y400540D01*
X451340Y400940D01*
X443440D01*
Y404240D01*
X451340D01*
X451427Y404640D01*
X451529Y405020D01*
X451647Y405396D01*
X451784Y405766D01*
X451937Y406129D01*
X452106Y406484D01*
X452292Y406831D01*
X452493Y407170D01*
X452710Y407499D01*
X452941Y407817D01*
X453187Y408125D01*
X453447Y408421D01*
X453720Y408704D01*
X454006Y408975D01*
X454304Y409233D01*
X454614Y409476D01*
X454934Y409705D01*
X455265Y409919D01*
X455605Y410118D01*
X455954Y410301D01*
X456311Y410467D01*
X456675Y410617D01*
X457046Y410750D01*
X457422Y410866D01*
X457803Y410965D01*
X458189Y411046D01*
X458578Y411109D01*
X458969Y411154D01*
X459362Y411181D01*
X459740Y411190D01*
X460639Y411143D01*
X461528Y411002D01*
X462398Y410769D01*
X463238Y410447D01*
X464040Y410038D01*
X464795Y409548D01*
X465494Y408981D01*
X466131Y408344D01*
X466698Y407645D01*
X467188Y406890D01*
X467597Y406088D01*
X467919Y405248D01*
X468152Y404378D01*
X468293Y403489D01*
X468340Y402590D01*
X468293Y401691D01*
D02*
G37*
G36*
Y427091D02*
X468152Y426202D01*
X467919Y425332D01*
X467597Y424492D01*
X467188Y423690D01*
X466698Y422935D01*
X466131Y422235D01*
X465494Y421599D01*
X464795Y421032D01*
X464040Y420542D01*
X463238Y420134D01*
X462398Y419811D01*
X461528Y419578D01*
X460639Y419437D01*
X459740Y419390D01*
X459362Y419399D01*
X458969Y419426D01*
X458578Y419471D01*
X458189Y419534D01*
X457803Y419615D01*
X457422Y419714D01*
X457046Y419830D01*
X456675Y419963D01*
X456311Y420113D01*
X455954Y420279D01*
X455605Y420462D01*
X455265Y420661D01*
X454934Y420875D01*
X454614Y421104D01*
X454304Y421347D01*
X454006Y421605D01*
X453720Y421875D01*
X453447Y422159D01*
X453187Y422455D01*
X452941Y422763D01*
X452710Y423081D01*
X452493Y423410D01*
X452292Y423749D01*
X452106Y424096D01*
X451937Y424451D01*
X451784Y424814D01*
X451647Y425184D01*
X451529Y425560D01*
X451427Y425940D01*
X451340Y426340D01*
X443440D01*
Y429640D01*
X451340D01*
X451427Y430040D01*
X451529Y430420D01*
X451647Y430796D01*
X451784Y431166D01*
X451937Y431529D01*
X452106Y431884D01*
X452292Y432231D01*
X452493Y432570D01*
X452710Y432899D01*
X452941Y433217D01*
X453187Y433525D01*
X453447Y433821D01*
X453720Y434104D01*
X454006Y434375D01*
X454304Y434633D01*
X454614Y434876D01*
X454934Y435105D01*
X455265Y435319D01*
X455605Y435518D01*
X455954Y435701D01*
X456311Y435867D01*
X456675Y436017D01*
X457046Y436150D01*
X457422Y436266D01*
X457803Y436365D01*
X458189Y436446D01*
X458578Y436509D01*
X458969Y436554D01*
X459362Y436581D01*
X459740Y436590D01*
X460639Y436543D01*
X461528Y436402D01*
X462398Y436169D01*
X463238Y435846D01*
X464040Y435438D01*
X464795Y434948D01*
X465494Y434381D01*
X466131Y433745D01*
X466698Y433045D01*
X467188Y432290D01*
X467597Y431488D01*
X467919Y430648D01*
X468152Y429778D01*
X468293Y428889D01*
X468340Y427990D01*
X468293Y427091D01*
D02*
G37*
G36*
Y452491D02*
X468152Y451602D01*
X467919Y450732D01*
X467597Y449892D01*
X467188Y449090D01*
X466698Y448335D01*
X466131Y447635D01*
X465494Y446999D01*
X464795Y446432D01*
X464040Y445942D01*
X463238Y445533D01*
X462398Y445211D01*
X461528Y444978D01*
X460639Y444837D01*
X459740Y444790D01*
X459362Y444799D01*
X458969Y444826D01*
X458578Y444871D01*
X458189Y444934D01*
X457803Y445015D01*
X457422Y445114D01*
X457046Y445230D01*
X456675Y445363D01*
X456311Y445513D01*
X455954Y445679D01*
X455605Y445862D01*
X455265Y446061D01*
X454934Y446275D01*
X454614Y446504D01*
X454304Y446747D01*
X454006Y447005D01*
X453720Y447276D01*
X453447Y447559D01*
X453187Y447855D01*
X452941Y448163D01*
X452710Y448481D01*
X452493Y448810D01*
X452292Y449149D01*
X452106Y449496D01*
X451937Y449851D01*
X451784Y450214D01*
X451647Y450584D01*
X451529Y450960D01*
X451427Y451340D01*
X451340Y451740D01*
X443440D01*
Y455040D01*
X451340D01*
X451427Y455440D01*
X451529Y455821D01*
X451647Y456196D01*
X451784Y456566D01*
X451937Y456928D01*
X452106Y457284D01*
X452292Y457631D01*
X452493Y457970D01*
X452710Y458299D01*
X452941Y458617D01*
X453187Y458925D01*
X453447Y459221D01*
X453720Y459505D01*
X454006Y459775D01*
X454304Y460033D01*
X454614Y460276D01*
X454934Y460505D01*
X455265Y460719D01*
X455605Y460918D01*
X455954Y461101D01*
X456311Y461267D01*
X456675Y461417D01*
X457046Y461550D01*
X457422Y461666D01*
X457803Y461765D01*
X458189Y461846D01*
X458578Y461909D01*
X458969Y461954D01*
X459362Y461981D01*
X459740Y461990D01*
X460639Y461943D01*
X461528Y461802D01*
X462398Y461569D01*
X463238Y461246D01*
X464040Y460838D01*
X464795Y460348D01*
X465494Y459781D01*
X466131Y459145D01*
X466698Y458445D01*
X467188Y457690D01*
X467597Y456888D01*
X467919Y456048D01*
X468152Y455178D01*
X468293Y454289D01*
X468340Y453390D01*
X468293Y452491D01*
D02*
G37*
G36*
Y477891D02*
X468152Y477002D01*
X467919Y476132D01*
X467597Y475292D01*
X467188Y474490D01*
X466698Y473735D01*
X466131Y473036D01*
X465494Y472399D01*
X464795Y471833D01*
X464040Y471342D01*
X463238Y470933D01*
X462398Y470611D01*
X461528Y470378D01*
X460639Y470237D01*
X459740Y470190D01*
X459362Y470199D01*
X458969Y470226D01*
X458578Y470271D01*
X458189Y470334D01*
X457803Y470415D01*
X457422Y470514D01*
X457046Y470630D01*
X456675Y470763D01*
X456311Y470913D01*
X455954Y471079D01*
X455605Y471262D01*
X455265Y471461D01*
X454934Y471675D01*
X454614Y471904D01*
X454304Y472147D01*
X454006Y472405D01*
X453720Y472676D01*
X453447Y472959D01*
X453187Y473255D01*
X452941Y473563D01*
X452710Y473881D01*
X452493Y474210D01*
X452292Y474549D01*
X452106Y474896D01*
X451937Y475252D01*
X451784Y475614D01*
X451647Y475984D01*
X451529Y476359D01*
X451427Y476740D01*
X451340Y477140D01*
X443440D01*
Y480440D01*
X451340D01*
X451427Y480840D01*
X451529Y481221D01*
X451647Y481596D01*
X451784Y481966D01*
X451937Y482328D01*
X452106Y482684D01*
X452292Y483031D01*
X452493Y483370D01*
X452710Y483699D01*
X452941Y484017D01*
X453187Y484325D01*
X453447Y484621D01*
X453720Y484905D01*
X454006Y485175D01*
X454304Y485433D01*
X454614Y485676D01*
X454934Y485905D01*
X455265Y486119D01*
X455605Y486318D01*
X455954Y486501D01*
X456311Y486667D01*
X456675Y486817D01*
X457046Y486950D01*
X457422Y487066D01*
X457803Y487165D01*
X458189Y487246D01*
X458578Y487309D01*
X458969Y487354D01*
X459362Y487381D01*
X459740Y487390D01*
X460639Y487343D01*
X461528Y487202D01*
X462398Y486969D01*
X463238Y486646D01*
X464040Y486238D01*
X464795Y485747D01*
X465494Y485181D01*
X466131Y484544D01*
X466698Y483845D01*
X467188Y483090D01*
X467597Y482288D01*
X467919Y481448D01*
X468152Y480578D01*
X468293Y479689D01*
X468340Y478790D01*
X468293Y477891D01*
D02*
G37*
G36*
Y503291D02*
X468152Y502402D01*
X467919Y501532D01*
X467597Y500692D01*
X467188Y499890D01*
X466698Y499135D01*
X466131Y498436D01*
X465494Y497799D01*
X464795Y497233D01*
X464040Y496742D01*
X463238Y496334D01*
X462398Y496011D01*
X461528Y495778D01*
X460639Y495637D01*
X459740Y495590D01*
X459362Y495599D01*
X458969Y495626D01*
X458578Y495671D01*
X458189Y495734D01*
X457803Y495815D01*
X457422Y495914D01*
X457046Y496030D01*
X456675Y496163D01*
X456311Y496313D01*
X455954Y496479D01*
X455605Y496662D01*
X455265Y496861D01*
X454934Y497075D01*
X454614Y497304D01*
X454304Y497547D01*
X454006Y497805D01*
X453720Y498075D01*
X453447Y498359D01*
X453187Y498655D01*
X452941Y498963D01*
X452710Y499281D01*
X452493Y499610D01*
X452292Y499949D01*
X452106Y500296D01*
X451937Y500652D01*
X451784Y501014D01*
X451647Y501384D01*
X451529Y501759D01*
X451427Y502140D01*
X451340Y502540D01*
X443440D01*
Y505840D01*
X451340D01*
X451427Y506240D01*
X451529Y506620D01*
X451647Y506996D01*
X451784Y507366D01*
X451937Y507729D01*
X452106Y508084D01*
X452292Y508431D01*
X452493Y508770D01*
X452710Y509099D01*
X452941Y509417D01*
X453187Y509725D01*
X453447Y510021D01*
X453720Y510304D01*
X454006Y510575D01*
X454304Y510833D01*
X454614Y511076D01*
X454934Y511305D01*
X455265Y511519D01*
X455605Y511718D01*
X455954Y511901D01*
X456311Y512067D01*
X456675Y512217D01*
X457046Y512350D01*
X457422Y512466D01*
X457803Y512565D01*
X458189Y512646D01*
X458578Y512709D01*
X458969Y512754D01*
X459362Y512781D01*
X459740Y512790D01*
X460639Y512743D01*
X461528Y512602D01*
X462398Y512369D01*
X463238Y512047D01*
X464040Y511638D01*
X464795Y511147D01*
X465494Y510581D01*
X466131Y509944D01*
X466698Y509245D01*
X467188Y508490D01*
X467597Y507688D01*
X467919Y506848D01*
X468152Y505978D01*
X468293Y505089D01*
X468340Y504190D01*
X468293Y503291D01*
D02*
G37*
D36*
X292250Y540420D02*
D03*
Y535420D02*
D03*
Y530420D02*
D03*
Y525420D02*
D03*
Y520420D02*
D03*
Y515420D02*
D03*
Y510420D02*
D03*
Y505420D02*
D03*
Y500420D02*
D03*
Y495420D02*
D03*
Y490420D02*
D03*
Y480420D02*
D03*
Y475420D02*
D03*
Y470420D02*
D03*
Y465420D02*
D03*
X406250D02*
D03*
Y470420D02*
D03*
Y475420D02*
D03*
Y480420D02*
D03*
Y485420D02*
D03*
Y490420D02*
D03*
Y495420D02*
D03*
Y500420D02*
D03*
Y505420D02*
D03*
Y510420D02*
D03*
Y515420D02*
D03*
Y520420D02*
D03*
Y525420D02*
D03*
Y530420D02*
D03*
Y540420D02*
D03*
X292250Y485420D02*
D03*
X406250Y535420D02*
D03*
D37*
X311750Y445920D02*
D03*
X321750D02*
D03*
X326750D02*
D03*
X331750D02*
D03*
X336750D02*
D03*
X341750D02*
D03*
X346750D02*
D03*
X351750D02*
D03*
X356750D02*
D03*
X361750D02*
D03*
X366750D02*
D03*
X371750D02*
D03*
X376750D02*
D03*
X386750D02*
D03*
Y559920D02*
D03*
X381750D02*
D03*
X376750D02*
D03*
X371750D02*
D03*
X366750D02*
D03*
X361750D02*
D03*
X356750D02*
D03*
X351750D02*
D03*
X346750D02*
D03*
X341750D02*
D03*
X336750D02*
D03*
X331750D02*
D03*
X326750D02*
D03*
X321750D02*
D03*
X311750D02*
D03*
X316750Y445920D02*
D03*
X381750D02*
D03*
X316750Y559920D02*
D03*
D38*
X284810Y238850D02*
D03*
X289810D02*
D03*
X294810D02*
D03*
X299810D02*
D03*
X304810D02*
D03*
X309810D02*
D03*
X314810D02*
D03*
X319810D02*
D03*
X324810D02*
D03*
X329810D02*
D03*
X334810D02*
D03*
X339810D02*
D03*
Y155250D02*
D03*
X334810D02*
D03*
X329810D02*
D03*
X324810D02*
D03*
X319810D02*
D03*
X314810D02*
D03*
X309810D02*
D03*
X304810D02*
D03*
X299810D02*
D03*
X294810D02*
D03*
X289810D02*
D03*
X284810D02*
D03*
D39*
X354110Y224550D02*
D03*
Y219550D02*
D03*
Y214550D02*
D03*
Y209550D02*
D03*
Y204550D02*
D03*
Y199550D02*
D03*
Y194550D02*
D03*
Y189550D02*
D03*
Y184550D02*
D03*
Y179550D02*
D03*
Y174550D02*
D03*
Y169550D02*
D03*
X270510D02*
D03*
Y174550D02*
D03*
Y179550D02*
D03*
Y184550D02*
D03*
Y189550D02*
D03*
Y194550D02*
D03*
Y199550D02*
D03*
Y204550D02*
D03*
Y209550D02*
D03*
Y214550D02*
D03*
Y219550D02*
D03*
Y224550D02*
D03*
D40*
X375920Y143510D02*
D03*
X393680D02*
D03*
X428000Y572770D02*
D03*
X445760D02*
D03*
X369580Y387350D02*
D03*
X387340D02*
D03*
D41*
X304800Y134620D02*
D03*
Y117620D02*
D03*
X288290Y135110D02*
D03*
Y118110D02*
D03*
X270510Y140970D02*
D03*
Y123970D02*
D03*
X147320Y392920D02*
D03*
Y375920D02*
D03*
X64770Y300990D02*
D03*
Y317990D02*
D03*
X149860Y107170D02*
D03*
Y90170D02*
D03*
X153670Y124850D02*
D03*
Y141850D02*
D03*
X238760Y604130D02*
D03*
Y587130D02*
D03*
X401320Y424670D02*
D03*
Y407670D02*
D03*
X270510Y480060D02*
D03*
Y463060D02*
D03*
X419100Y424670D02*
D03*
Y407670D02*
D03*
D42*
X329320Y127000D02*
D03*
X346320D02*
D03*
X222250Y215900D02*
D03*
X205250D02*
D03*
X243840Y189230D02*
D03*
X226840D02*
D03*
X375430Y161290D02*
D03*
X392430D02*
D03*
X333620Y391160D02*
D03*
X316620D02*
D03*
X278130Y392430D02*
D03*
X295130D02*
D03*
X344560Y110490D02*
D03*
X361560D02*
D03*
X110980Y132080D02*
D03*
X93980D02*
D03*
X53730Y127000D02*
D03*
X70730D02*
D03*
X427500Y552450D02*
D03*
X444500D02*
D03*
X312420Y579120D02*
D03*
X329420D02*
D03*
X308610Y425450D02*
D03*
X291610D02*
D03*
X409820Y580390D02*
D03*
X392820D02*
D03*
D43*
X332420Y374195D02*
D03*
X324420D02*
D03*
X316420D02*
D03*
X308420D02*
D03*
X300420D02*
D03*
X292420D02*
D03*
Y352245D02*
D03*
X300420D02*
D03*
X308420D02*
D03*
X316420D02*
D03*
X324420D02*
D03*
X332420D02*
D03*
D44*
X291445Y363220D02*
D03*
X333395D02*
D03*
D45*
X426720Y273490D02*
D03*
Y303090D02*
D03*
X398780Y277300D02*
D03*
Y306900D02*
D03*
X372110Y277300D02*
D03*
Y306900D02*
D03*
X345440Y276030D02*
D03*
Y305630D02*
D03*
X320040Y276030D02*
D03*
Y305630D02*
D03*
X369570Y648140D02*
D03*
Y677740D02*
D03*
X387350Y206570D02*
D03*
Y176970D02*
D03*
X151130Y264600D02*
D03*
Y294200D02*
D03*
X127000D02*
D03*
Y264600D02*
D03*
X102870Y294200D02*
D03*
Y264600D02*
D03*
X45720Y301380D02*
D03*
Y271780D02*
D03*
X78740Y109610D02*
D03*
Y80010D02*
D03*
X175260Y143070D02*
D03*
Y113470D02*
D03*
X243840Y172280D02*
D03*
Y142680D02*
D03*
X241300Y276030D02*
D03*
Y305630D02*
D03*
X267970Y276030D02*
D03*
Y305630D02*
D03*
X294640Y276030D02*
D03*
Y305630D02*
D03*
X34290Y126170D02*
D03*
Y155770D02*
D03*
X54610Y79620D02*
D03*
Y109220D02*
D03*
X248920Y453830D02*
D03*
Y483430D02*
D03*
D46*
X422607Y225060D02*
D03*
Y203060D02*
D03*
X439607D02*
D03*
Y225060D02*
D03*
D47*
X87630Y576830D02*
D03*
X142630D02*
D03*
Y544830D02*
D03*
X87630D02*
D03*
D48*
X240538Y571500D02*
D03*
X254762D02*
D03*
X231902Y453390D02*
D03*
X217678D02*
D03*
D49*
X198120Y584200D02*
D03*
Y652200D02*
D03*
D50*
X363830Y627380D02*
D03*
X382930D02*
D03*
D51*
X339180Y637900D02*
D03*
Y682900D02*
D03*
X255180D02*
D03*
Y637900D02*
D03*
X127090Y421280D02*
D03*
Y376280D02*
D03*
X43090D02*
D03*
Y421280D02*
D03*
D52*
X323850Y92710D02*
D03*
Y110470D02*
D03*
X381000Y425440D02*
D03*
Y407680D02*
D03*
D53*
X377630Y120650D02*
D03*
X407230D02*
D03*
X409380Y179070D02*
D03*
X438980D02*
D03*
X126560Y110490D02*
D03*
X96960D02*
D03*
X149030Y354330D02*
D03*
X178630D02*
D03*
X222690Y504190D02*
D03*
X252290D02*
D03*
X223960Y552450D02*
D03*
X253560D02*
D03*
X223960Y528320D02*
D03*
X253560D02*
D03*
D54*
X455930Y190500D02*
D03*
Y204724D02*
D03*
X406400Y210820D02*
D03*
Y196596D02*
D03*
X204470Y518160D02*
D03*
Y532384D02*
D03*
Y504952D02*
D03*
Y490728D02*
D03*
D55*
X49530Y155470D02*
D03*
X62230D02*
D03*
X74930D02*
D03*
X87630D02*
D03*
X100330D02*
D03*
X113030D02*
D03*
X125730D02*
D03*
X138430D02*
D03*
Y240770D02*
D03*
X125730D02*
D03*
X113030D02*
D03*
X100330D02*
D03*
X87630D02*
D03*
X74930D02*
D03*
X62230D02*
D03*
X49530D02*
D03*
D56*
X454300Y685890D02*
D03*
Y601890D02*
D03*
X409300Y685890D02*
D03*
Y601890D02*
D03*
D57*
X85380Y631190D02*
D03*
X153380D02*
D03*
D58*
X48510Y486410D02*
D03*
X143510D02*
D03*
D59*
X308610Y34290D02*
D03*
X283210D02*
D03*
X257810D02*
D03*
X232410D02*
D03*
X207010D02*
D03*
X181610D02*
D03*
X459740Y504190D02*
D03*
Y478790D02*
D03*
Y453390D02*
D03*
Y402590D02*
D03*
Y377190D02*
D03*
Y427990D02*
D03*
D60*
X48260Y598170D02*
D03*
Y623570D02*
D03*
X223520Y388620D02*
D03*
Y363220D02*
D03*
D61*
X48260Y648970D02*
D03*
X223520Y414020D02*
D03*
D62*
X226060Y189230D02*
D03*
X207010Y215900D02*
D03*
X269240Y142240D02*
D03*
X243840Y189230D02*
D03*
X222250Y215900D02*
D03*
X251460Y217170D02*
D03*
X227330Y239450D02*
D03*
X156210Y241300D02*
D03*
X371983Y203557D02*
D03*
X412750Y445770D02*
D03*
X316230Y461010D02*
D03*
X381750Y457714D02*
D03*
X378460Y407670D02*
D03*
X309710Y563880D02*
D03*
X151130Y91440D02*
D03*
X72390Y125730D02*
D03*
X254000Y570230D02*
D03*
X251460Y604520D02*
D03*
X356870Y572080D02*
D03*
X358140Y586160D02*
D03*
X379632Y216960D02*
D03*
X388169Y217192D02*
D03*
X396160Y223600D02*
D03*
X246380Y236220D02*
D03*
X346710Y244650D02*
D03*
X401320Y570230D02*
D03*
X474980Y433070D02*
D03*
X331470Y546100D02*
D03*
X389890Y603250D02*
D03*
X363220Y615950D02*
D03*
X363502Y142522D02*
D03*
X328930Y125730D02*
D03*
X313200Y130810D02*
D03*
X480060Y377190D02*
D03*
X426720Y574040D02*
D03*
X312420Y579120D02*
D03*
X308610Y425450D02*
D03*
X273050Y492760D02*
D03*
X149629Y337659D02*
D03*
X326390Y422910D02*
D03*
X335569Y409240D02*
D03*
X280670Y363220D02*
D03*
X336550Y422910D02*
D03*
X344170Y372110D02*
D03*
X325120Y339090D02*
D03*
X196270Y97790D02*
D03*
X280670Y67310D02*
D03*
X256540Y64770D02*
D03*
X81280Y275590D02*
D03*
X49530Y255270D02*
D03*
X228600Y69850D02*
D03*
X76200Y262890D02*
D03*
X419910Y468170D02*
D03*
X426720Y473710D02*
D03*
X433070Y480060D02*
D03*
M02*
