G04*
G04 #@! TF.GenerationSoftware,Altium Limited,Altium Designer,24.1.2 (44)*
G04*
G04 Layer_Color=65535*
%FSLAX44Y44*%
%MOMM*%
G71*
G04*
G04 #@! TF.SameCoordinates,BD96B160-ADCB-4D74-BF3B-EA8FD58A22E8*
G04*
G04*
G04 #@! TF.FilePolarity,Positive*
G04*
G01*
G75*
%ADD10C,0.2000*%
%ADD11C,0.1270*%
%ADD12C,0.1250*%
%ADD13C,0.2540*%
D10*
X176110Y786130D02*
G03*
X176110Y786130I-1000J0D01*
G01*
X236280Y482600D02*
G03*
X236280Y482600I-1000J0D01*
G01*
X454070Y613090D02*
G03*
X454070Y613090I-1000J0D01*
G01*
X308860Y713740D02*
G03*
X308860Y713740I-1000J0D01*
G01*
X298700Y67310D02*
G03*
X298700Y67310I-1000J0D01*
G01*
X95730Y530860D02*
G03*
X95730Y530860I-1000J0D01*
G01*
X97000Y494030D02*
G03*
X97000Y494030I-1000J0D01*
G01*
X219920Y360710D02*
G03*
X219920Y360710I-1000J0D01*
G01*
X34020Y570980D02*
G03*
X34020Y570980I-1000J0D01*
G01*
X153510Y726440D02*
G03*
X153510Y726440I-1000J0D01*
G01*
X395020Y155200D02*
G03*
X395020Y155200I-1000J0D01*
G01*
X243640Y298450D02*
G03*
X243640Y298450I-1000J0D01*
G01*
X153140Y376240D02*
G03*
X153140Y376240I-1000J0D01*
G01*
X334010Y773680D02*
Y798580D01*
X181610Y773680D02*
Y798580D01*
Y773680D02*
X334010D01*
X181610Y798580D02*
X189660D01*
X198960D02*
X215060D01*
X224360D02*
X240460D01*
X249760D02*
X265860D01*
X275160D02*
X291260D01*
X300560D02*
X316660D01*
X325960D02*
X334010D01*
X278980Y421640D02*
X289980D01*
X226060Y726140D02*
X302260D01*
Y701340D02*
Y726140D01*
X226060Y701340D02*
X302260D01*
X226060D02*
Y726140D01*
X215900Y79710D02*
X292100D01*
Y54910D02*
Y79710D01*
X215900Y54910D02*
X292100D01*
X215900D02*
Y79710D01*
X100330Y518460D02*
X176530D01*
X100330D02*
Y543260D01*
X176530D01*
Y518460D02*
Y543260D01*
X101600Y481630D02*
X177800D01*
X101600D02*
Y506430D01*
X177800D01*
Y481630D02*
Y506430D01*
X366610Y534670D02*
X377610D01*
X341210D02*
X352210D01*
X45420Y576580D02*
Y652780D01*
X20620Y576580D02*
X45420D01*
X20620D02*
Y652780D01*
X45420D01*
X324700Y240030D02*
X335700D01*
X347560Y241300D02*
X358560D01*
D11*
X252905Y453100D02*
X321655D01*
X252905Y512100D02*
X321655D01*
X391570Y523590D02*
X419870D01*
X446270D02*
X474570D01*
X406570Y606590D02*
X419870D01*
X446270D02*
X459570D01*
X474570Y591590D01*
Y523590D02*
Y591590D01*
X391570Y523590D02*
Y591590D01*
X406570Y606590D01*
X201620Y548330D02*
X230985D01*
X201620D02*
Y668330D01*
X230985D01*
X292255Y548330D02*
X321620D01*
Y668330D01*
X292255D02*
X321620D01*
X212090Y722630D02*
X212090Y731520D01*
X201930Y722630D02*
Y731520D01*
X212090D01*
X204470Y704850D02*
X209550D01*
X201930Y707390D02*
X212090D01*
X212090Y716280D01*
X209550Y704850D02*
X212090Y707390D01*
X201930D02*
Y716280D01*
Y707390D02*
X204470Y704850D01*
X287770Y535360D02*
X289970D01*
X287770Y526360D02*
X289970D01*
X252500Y535360D02*
X255500D01*
X252500Y526360D02*
X255500D01*
X263520Y380710D02*
Y424710D01*
X213520Y380710D02*
Y424710D01*
X222830Y285520D02*
Y288520D01*
X231830Y285520D02*
Y288520D01*
X147010Y750140D02*
Y771440D01*
Y681440D02*
Y702740D01*
X129710Y681440D02*
X147010D01*
X3010D02*
X92310D01*
X3010D02*
Y771440D01*
X147010D01*
X198120Y56515D02*
Y65405D01*
X187960Y56515D02*
X198120D01*
X187960Y80645D02*
X198120D01*
X198120Y71755D01*
X187960D02*
X187960Y80645D01*
X187960Y56515D02*
X190500Y53975D01*
X195580Y53975D02*
X198120Y56515D01*
X187960D02*
X187960Y65405D01*
X190500Y53975D02*
X195580Y53975D01*
X350000Y358720D02*
X352200D01*
X350000Y367720D02*
X352200D01*
X328240Y137810D02*
Y140810D01*
X337240Y137810D02*
Y140810D01*
X68580Y618490D02*
X68580Y609600D01*
X78740D02*
X78740Y618490D01*
X68580D02*
X78740D01*
X68580Y594360D02*
Y603250D01*
X76200Y591820D02*
X78740Y594360D01*
X78740Y603250D01*
X68580Y594360D02*
X78740Y594360D01*
X71120Y591820D02*
X76200D01*
X68580Y594360D02*
X71120Y591820D01*
X352650Y438950D02*
X354850D01*
X352650Y429950D02*
X354850D01*
X375230Y423770D02*
Y425970D01*
X384230Y423770D02*
Y425970D01*
X353230Y421170D02*
X355430D01*
X353230Y412170D02*
X355430D01*
X324430Y424060D02*
Y427060D01*
X333430Y424060D02*
Y427060D01*
X304110Y424460D02*
Y426660D01*
X313110Y424460D02*
Y426660D01*
X228020Y501420D02*
Y504420D01*
X219020Y501420D02*
Y504420D01*
X228020Y468110D02*
Y470310D01*
X219020Y468110D02*
Y470310D01*
X189120Y356510D02*
Y362310D01*
X207120Y356510D02*
Y362310D01*
X320790Y349940D02*
X322990D01*
X320790Y340940D02*
X322990D01*
X319520Y358720D02*
X321720D01*
X319520Y367720D02*
X321720D01*
X301680Y351560D02*
Y354560D01*
X292680Y351560D02*
Y354560D01*
X285170Y353230D02*
Y355430D01*
X276170Y353230D02*
Y355430D01*
X252900Y357560D02*
X255100D01*
X252900Y348560D02*
X255100D01*
X267450Y258500D02*
X269650D01*
X267450Y249500D02*
X269650D01*
X234720Y258500D02*
X237720D01*
X234720Y249500D02*
X237720D01*
X195270Y117800D02*
X224635D01*
X195270D02*
Y237800D01*
X224635D01*
X285905Y117800D02*
X315270D01*
Y237800D01*
X285905D02*
X315270D01*
X427220Y244700D02*
X455520D01*
X372520D02*
X400820D01*
X427220Y161700D02*
X440520D01*
X387520D02*
X400820D01*
X372520Y176700D02*
X387520Y161700D01*
X372520Y176700D02*
Y244700D01*
X455520Y176700D02*
Y244700D01*
X440520Y161700D02*
X455520Y176700D01*
X231830Y320210D02*
Y322410D01*
X222830Y320210D02*
Y322410D01*
X260265Y268950D02*
X329015D01*
X260265Y327950D02*
X329015D01*
X186580Y442260D02*
Y448060D01*
X204580Y442260D02*
Y448060D01*
X62640Y409440D02*
Y437740D01*
Y354740D02*
Y383040D01*
X145640Y409440D02*
Y422740D01*
Y369740D02*
Y383040D01*
X130640Y354740D02*
X145640Y369740D01*
X62640Y354740D02*
X130640D01*
X62640Y437740D02*
X130640D01*
X145640Y422740D01*
X358830Y612790D02*
Y615790D01*
X349830Y612790D02*
Y615790D01*
D12*
X219580Y93640D02*
X222730D01*
X226230D02*
X229380D01*
X219580Y89240D02*
X222730D01*
X226230D02*
X229380D01*
Y93640D01*
X219580Y89240D02*
Y93640D01*
X230050Y689950D02*
Y694350D01*
X239850Y689950D02*
Y694350D01*
X236700Y689950D02*
X239850D01*
X230050D02*
X233200D01*
X236700Y694350D02*
X239850D01*
X230050D02*
X233200D01*
X76980Y622005D02*
Y626405D01*
X67180Y622005D02*
Y626405D01*
X70330D01*
X73830D02*
X76980D01*
X67180Y622005D02*
X70330D01*
X73830D02*
X76980D01*
D13*
X290453Y745490D02*
Y750822D01*
Y748156D01*
X298450D01*
X290453Y753487D02*
X298450Y758819D01*
X290453D02*
X298450Y753487D01*
X294451Y761485D02*
Y766816D01*
X317123Y744220D02*
Y749552D01*
Y746886D01*
X325120D01*
X317123Y752217D02*
X325120Y757549D01*
X317123D02*
X325120Y752217D01*
X321121Y760215D02*
Y765546D01*
X318456Y762881D02*
X323787D01*
X275590Y746760D02*
X267593D01*
Y750759D01*
X268925Y752092D01*
X271591D01*
X272924Y750759D01*
Y746760D01*
Y749426D02*
X275590Y752092D01*
X267593Y754757D02*
X275590Y760089D01*
X267593D02*
X275590Y754757D01*
X271591Y762755D02*
Y768086D01*
X268925Y765421D02*
X274257D01*
X250190Y746760D02*
X242193D01*
Y750759D01*
X243526Y752092D01*
X246191D01*
X247524Y750759D01*
Y746760D01*
Y749426D02*
X250190Y752092D01*
X242193Y754757D02*
X250190Y760089D01*
X242193D02*
X250190Y754757D01*
X246191Y762755D02*
Y768086D01*
X254956Y33272D02*
X253623Y31939D01*
Y29273D01*
X254956Y27940D01*
X260287D01*
X261620Y29273D01*
Y31939D01*
X260287Y33272D01*
X257621D01*
Y30606D01*
X261620Y35937D02*
X253623D01*
X261620Y41269D01*
X253623D01*
Y43935D02*
X261620D01*
Y47934D01*
X260287Y49266D01*
X254956D01*
X253623Y47934D01*
Y43935D01*
X225683Y39622D02*
Y34290D01*
X229681D01*
X228348Y36956D01*
Y38289D01*
X229681Y39622D01*
X232347D01*
X233680Y38289D01*
Y35623D01*
X232347Y34290D01*
X225683Y42287D02*
X231014D01*
X233680Y44953D01*
X231014Y47619D01*
X225683D01*
X187645Y753362D02*
X186313Y752029D01*
Y749363D01*
X187645Y748030D01*
X192977D01*
X194310Y749363D01*
Y752029D01*
X192977Y753362D01*
X190311D01*
Y750696D01*
X194310Y756027D02*
X186313D01*
X194310Y761359D01*
X186313D01*
Y764025D02*
X194310D01*
Y768024D01*
X192977Y769356D01*
X187645D01*
X186313Y768024D01*
Y764025D01*
X216856Y745490D02*
X215523Y746823D01*
Y749489D01*
X216856Y750822D01*
X218188D01*
X219521Y749489D01*
Y748156D01*
Y749489D01*
X220854Y750822D01*
X222187D01*
X223520Y749489D01*
Y746823D01*
X222187Y745490D01*
X215523Y753487D02*
X220854D01*
X223520Y756153D01*
X220854Y758819D01*
X215523D01*
X216856Y761485D02*
X215523Y762818D01*
Y765484D01*
X216856Y766816D01*
X218188D01*
X219521Y765484D01*
Y764151D01*
Y765484D01*
X220854Y766816D01*
X222187D01*
X223520Y765484D01*
Y762818D01*
X222187Y761485D01*
X4369Y606105D02*
X2703Y604438D01*
Y601106D01*
X4369Y599440D01*
X11034D01*
X12700Y601106D01*
Y604438D01*
X11034Y606105D01*
X7702D01*
Y602772D01*
X12700Y609437D02*
X2703D01*
X12700Y616101D01*
X2703D01*
Y619434D02*
X12700D01*
Y624432D01*
X11034Y626098D01*
X4369D01*
X2703Y624432D01*
Y619434D01*
X12700Y645474D02*
Y638810D01*
X6036Y645474D01*
X4369D01*
X2703Y643808D01*
Y640476D01*
X4369Y638810D01*
X12700Y653805D02*
X2703D01*
X7702Y648807D01*
Y655471D01*
X2703Y658804D02*
X9368D01*
X12700Y662136D01*
X9368Y665468D01*
X2703D01*
X153752Y787004D02*
Y783672D01*
Y785338D01*
X162082D01*
X163748Y783672D01*
Y782005D01*
X162082Y780339D01*
X155418Y790336D02*
X153752Y792002D01*
Y795334D01*
X155418Y797001D01*
X157084D01*
X158750Y795334D01*
Y793668D01*
Y795334D01*
X160416Y797001D01*
X162082D01*
X163748Y795334D01*
Y792002D01*
X162082Y790336D01*
X334884Y716198D02*
X331552D01*
X333218D01*
Y707868D01*
X331552Y706202D01*
X329885D01*
X328219Y707868D01*
X344881Y706202D02*
X338216D01*
X344881Y712866D01*
Y714532D01*
X343214Y716198D01*
X339882D01*
X338216Y714532D01*
X322580Y71038D02*
X319248D01*
X320914D01*
Y62708D01*
X319248Y61042D01*
X317582D01*
X315916Y62708D01*
X325912Y61042D02*
X329244D01*
X327578D01*
Y71038D01*
X325912Y69372D01*
X74534Y504108D02*
X71202D01*
X72868D01*
Y495778D01*
X71202Y494112D01*
X69535D01*
X67869Y495778D01*
X77866Y504108D02*
X84531D01*
Y502442D01*
X77866Y495778D01*
Y494112D01*
X77074Y534588D02*
X73742D01*
X75408D01*
Y526258D01*
X73742Y524592D01*
X72076D01*
X70409Y526258D01*
X87071Y534588D02*
X83738Y532922D01*
X80406Y529590D01*
Y526258D01*
X82072Y524592D01*
X85405D01*
X87071Y526258D01*
Y527924D01*
X85405Y529590D01*
X80406D01*
X32624Y558718D02*
X29292D01*
X30958D01*
Y550388D01*
X29292Y548722D01*
X27626D01*
X25959Y550388D01*
X40954Y548722D02*
Y558718D01*
X35956Y553720D01*
X42621D01*
X381641Y397428D02*
X388306D01*
X384973D01*
Y387432D01*
X391638D02*
Y397428D01*
X396636D01*
X398302Y395762D01*
Y392430D01*
X396636Y390764D01*
X391638D01*
X401634Y389098D02*
X403301Y387432D01*
X406633D01*
X408299Y389098D01*
Y395762D01*
X406633Y397428D01*
X403301D01*
X401634Y395762D01*
Y394096D01*
X403301Y392430D01*
X408299D01*
X372192Y342271D02*
Y348936D01*
Y345603D01*
X382188D01*
Y352268D02*
X372192D01*
Y357266D01*
X373858Y358932D01*
X377190D01*
X378856Y357266D01*
Y352268D01*
X373858Y362265D02*
X372192Y363931D01*
Y367263D01*
X373858Y368929D01*
X375524D01*
X377190Y367263D01*
X378856Y368929D01*
X380522D01*
X382188Y367263D01*
Y363931D01*
X380522Y362265D01*
X378856D01*
X377190Y363931D01*
X375524Y362265D01*
X373858D01*
X377190Y363931D02*
Y367263D01*
X276231Y339008D02*
X282896D01*
X279563D01*
Y329012D01*
X286228D02*
Y339008D01*
X291226D01*
X292892Y337342D01*
Y334010D01*
X291226Y332344D01*
X286228D01*
X296224Y339008D02*
X302889D01*
Y337342D01*
X296224Y330678D01*
Y329012D01*
X224161Y326308D02*
X230826D01*
X227493D01*
Y316312D01*
X234158D02*
Y326308D01*
X239156D01*
X240822Y324642D01*
Y321310D01*
X239156Y319644D01*
X234158D01*
X250819Y326308D02*
X247487Y324642D01*
X244154Y321310D01*
Y317978D01*
X245821Y316312D01*
X249153D01*
X250819Y317978D01*
Y319644D01*
X249153Y321310D01*
X244154D01*
X391801Y650158D02*
X398465D01*
X395133D01*
Y640162D01*
X401798D02*
Y650158D01*
X406796D01*
X408462Y648492D01*
Y645160D01*
X406796Y643494D01*
X401798D01*
X418459Y650158D02*
X411795D01*
Y645160D01*
X415127Y646826D01*
X416793D01*
X418459Y645160D01*
Y641828D01*
X416793Y640162D01*
X413461D01*
X411795Y641828D01*
X133991Y570148D02*
X140655D01*
X137323D01*
Y560152D01*
X143988D02*
Y570148D01*
X148986D01*
X150652Y568482D01*
Y565150D01*
X148986Y563484D01*
X143988D01*
X158983Y560152D02*
Y570148D01*
X153984Y565150D01*
X160649D01*
X168992Y260991D02*
Y267656D01*
Y264323D01*
X178988D01*
Y270988D02*
X168992D01*
Y275986D01*
X170658Y277652D01*
X173990D01*
X175656Y275986D01*
Y270988D01*
X170658Y280984D02*
X168992Y282651D01*
Y285983D01*
X170658Y287649D01*
X172324D01*
X173990Y285983D01*
Y284317D01*
Y285983D01*
X175656Y287649D01*
X177322D01*
X178988Y285983D01*
Y282651D01*
X177322Y280984D01*
X433711Y126918D02*
X440376D01*
X437043D01*
Y116922D01*
X443708D02*
Y126918D01*
X448706D01*
X450372Y125252D01*
Y121920D01*
X448706Y120254D01*
X443708D01*
X460369Y116922D02*
X453704D01*
X460369Y123586D01*
Y125252D01*
X458703Y126918D01*
X455371D01*
X453704Y125252D01*
X150897Y358058D02*
X157562D01*
X154229D01*
Y348062D01*
X160894D02*
Y358058D01*
X165892D01*
X167558Y356392D01*
Y353060D01*
X165892Y351394D01*
X160894D01*
X170891Y348062D02*
X174223D01*
X172557D01*
Y358058D01*
X170891Y356392D01*
X171292Y395925D02*
X179622D01*
X181288Y397592D01*
Y400924D01*
X179622Y402590D01*
X171292D01*
X181288Y405922D02*
Y409254D01*
Y407588D01*
X171292D01*
X172958Y405922D01*
X185314Y687152D02*
Y697148D01*
X190312D01*
X191979Y695482D01*
Y692150D01*
X190312Y690484D01*
X185314D01*
X188646D02*
X191979Y687152D01*
X195311D02*
X198643D01*
X196977D01*
Y697148D01*
X195311Y695482D01*
X210306Y697148D02*
X206974Y695482D01*
X203641Y692150D01*
Y688818D01*
X205308Y687152D01*
X208640D01*
X210306Y688818D01*
Y690484D01*
X208640Y692150D01*
X203641D01*
X182774Y88982D02*
Y98978D01*
X187773D01*
X189439Y97312D01*
Y93980D01*
X187773Y92314D01*
X182774D01*
X186106D02*
X189439Y88982D01*
X192771D02*
X196103D01*
X194437D01*
Y98978D01*
X192771Y97312D01*
X207766Y98978D02*
X201101D01*
Y93980D01*
X204434Y95646D01*
X206100D01*
X207766Y93980D01*
Y90648D01*
X206100Y88982D01*
X202768D01*
X201101Y90648D01*
X61164Y631907D02*
Y641904D01*
X66163D01*
X67829Y640237D01*
Y636905D01*
X66163Y635239D01*
X61164D01*
X64496D02*
X67829Y631907D01*
X71161D02*
X74493D01*
X72827D01*
Y641904D01*
X71161Y640237D01*
X84490Y631907D02*
Y641904D01*
X79492Y636905D01*
X86156D01*
X180422Y706126D02*
X190418D01*
Y712791D01*
X180422Y716123D02*
X190418D01*
Y721121D01*
X188752Y722787D01*
X182088D01*
X180422Y721121D01*
Y716123D01*
X182088Y726120D02*
X180422Y727786D01*
Y731118D01*
X182088Y732784D01*
X183754D01*
X185420Y731118D01*
Y729452D01*
Y731118D01*
X187086Y732784D01*
X188752D01*
X190418Y731118D01*
Y727786D01*
X188752Y726120D01*
X167722Y56521D02*
X177718D01*
Y63186D01*
X167722Y66518D02*
X177718D01*
Y71516D01*
X176052Y73182D01*
X169388D01*
X167722Y71516D01*
Y66518D01*
X177718Y83179D02*
Y76515D01*
X171054Y83179D01*
X169388D01*
X167722Y81513D01*
Y78181D01*
X169388Y76515D01*
X85172Y597302D02*
X95168D01*
Y603967D01*
X85172Y607299D02*
X95168D01*
Y612297D01*
X93502Y613964D01*
X86838D01*
X85172Y612297D01*
Y607299D01*
X95168Y617296D02*
Y620628D01*
Y618962D01*
X85172D01*
X86838Y617296D01*
X368504Y453582D02*
Y463578D01*
X373502D01*
X375168Y461912D01*
Y458580D01*
X373502Y456914D01*
X368504D01*
X371836D02*
X375168Y453582D01*
X378501D02*
X381833D01*
X380167D01*
Y463578D01*
X378501Y461912D01*
X386832D02*
X388498Y463578D01*
X391830D01*
X393496Y461912D01*
Y460246D01*
X391830Y458580D01*
X390164D01*
X391830D01*
X393496Y456914D01*
Y455248D01*
X391830Y453582D01*
X388498D01*
X386832Y455248D01*
X349454Y320122D02*
Y330118D01*
X354452D01*
X356119Y328452D01*
Y325120D01*
X354452Y323454D01*
X349454D01*
X352786D02*
X356119Y320122D01*
X359451D02*
X362783D01*
X361117D01*
Y330118D01*
X359451Y328452D01*
X374446Y320122D02*
X367781D01*
X374446Y326786D01*
Y328452D01*
X372780Y330118D01*
X369448D01*
X367781Y328452D01*
X283128Y373980D02*
X273132D01*
Y378979D01*
X274798Y380645D01*
X278130D01*
X279796Y378979D01*
Y373980D01*
Y377312D02*
X283128Y380645D01*
Y383977D02*
Y387309D01*
Y385643D01*
X273132D01*
X274798Y383977D01*
X283128Y392308D02*
Y395640D01*
Y393974D01*
X273132D01*
X274798Y392308D01*
X294844Y397702D02*
Y407698D01*
X299842D01*
X301509Y406032D01*
Y402700D01*
X299842Y401034D01*
X294844D01*
X298176D02*
X301509Y397702D01*
X304841D02*
X308173D01*
X306507D01*
Y407698D01*
X304841Y406032D01*
X313172D02*
X314838Y407698D01*
X318170D01*
X319836Y406032D01*
Y399368D01*
X318170Y397702D01*
X314838D01*
X313172Y399368D01*
Y406032D01*
X402508Y417229D02*
X392512D01*
Y422228D01*
X394178Y423894D01*
X397510D01*
X399176Y422228D01*
Y417229D01*
Y420562D02*
X402508Y423894D01*
X400842Y427226D02*
X402508Y428892D01*
Y432225D01*
X400842Y433891D01*
X394178D01*
X392512Y432225D01*
Y428892D01*
X394178Y427226D01*
X395844D01*
X397510Y428892D01*
Y433891D01*
X366948Y391829D02*
X356952D01*
Y396828D01*
X358618Y398494D01*
X361950D01*
X363616Y396828D01*
Y391829D01*
Y395162D02*
X366948Y398494D01*
X358618Y401826D02*
X356952Y403492D01*
Y406824D01*
X358618Y408491D01*
X360284D01*
X361950Y406824D01*
X363616Y408491D01*
X365282D01*
X366948Y406824D01*
Y403492D01*
X365282Y401826D01*
X363616D01*
X361950Y403492D01*
X360284Y401826D01*
X358618D01*
X361950Y403492D02*
Y406824D01*
X332658Y373939D02*
X322662D01*
Y378938D01*
X324328Y380604D01*
X327660D01*
X329326Y378938D01*
Y373939D01*
Y377272D02*
X332658Y380604D01*
X322662Y383936D02*
Y390601D01*
X324328D01*
X330992Y383936D01*
X332658D01*
X344729Y374732D02*
Y384728D01*
X349728D01*
X351394Y383062D01*
Y379730D01*
X349728Y378064D01*
X344729D01*
X348062D02*
X351394Y374732D01*
X361391Y384728D02*
X358058Y383062D01*
X354726Y379730D01*
Y376398D01*
X356392Y374732D01*
X359725D01*
X361391Y376398D01*
Y378064D01*
X359725Y379730D01*
X354726D01*
X310329Y525862D02*
Y535858D01*
X315328D01*
X316994Y534192D01*
Y530860D01*
X315328Y529194D01*
X310329D01*
X313662D02*
X316994Y525862D01*
X326991Y535858D02*
X320326D01*
Y530860D01*
X323658Y532526D01*
X325325D01*
X326991Y530860D01*
Y527528D01*
X325325Y525862D01*
X321992D01*
X320326Y527528D01*
X286199Y250272D02*
Y260268D01*
X291198D01*
X292864Y258602D01*
Y255270D01*
X291198Y253604D01*
X286199D01*
X289532D02*
X292864Y250272D01*
X301194D02*
Y260268D01*
X296196Y255270D01*
X302861D01*
X218419Y346792D02*
Y356788D01*
X223418D01*
X225084Y355122D01*
Y351790D01*
X223418Y350124D01*
X218419D01*
X221752D02*
X225084Y346792D01*
X228416Y355122D02*
X230082Y356788D01*
X233414D01*
X235081Y355122D01*
Y353456D01*
X233414Y351790D01*
X231748D01*
X233414D01*
X235081Y350124D01*
Y348458D01*
X233414Y346792D01*
X230082D01*
X228416Y348458D01*
X209468Y467919D02*
X199472D01*
Y472918D01*
X201138Y474584D01*
X204470D01*
X206136Y472918D01*
Y467919D01*
Y471252D02*
X209468Y474584D01*
Y484581D02*
Y477916D01*
X202804Y484581D01*
X201138D01*
X199472Y482915D01*
Y479582D01*
X201138Y477916D01*
X213278Y317185D02*
X203282D01*
Y322184D01*
X204948Y323850D01*
X208280D01*
X209946Y322184D01*
Y317185D01*
Y320518D02*
X213278Y323850D01*
Y327182D02*
Y330514D01*
Y328848D01*
X203282D01*
X204948Y327182D01*
X172009Y629838D02*
Y619842D01*
X178674D01*
X188671D02*
X182006D01*
X188671Y626506D01*
Y628172D01*
X187005Y629838D01*
X183672D01*
X182006Y628172D01*
X141941Y194310D02*
Y184312D01*
X147655D01*
X148750Y192406D02*
X149702Y192882D01*
X151130Y194310D01*
Y184312D01*
X9459Y791809D02*
X6126D01*
X7792D01*
Y783478D01*
X6126Y781812D01*
X4460D01*
X2794Y783478D01*
X19455Y791809D02*
X12791D01*
Y786810D01*
X16123Y788476D01*
X17789D01*
X19455Y786810D01*
Y783478D01*
X17789Y781812D01*
X14457D01*
X12791Y783478D01*
X344512Y483159D02*
X354508D01*
Y488158D01*
X352842Y489824D01*
X346178D01*
X344512Y488158D01*
Y483159D01*
X354508Y499821D02*
Y493156D01*
X347844Y499821D01*
X346178D01*
X344512Y498154D01*
Y494822D01*
X346178Y493156D01*
X354412Y291786D02*
X364408D01*
Y296784D01*
X362742Y298450D01*
X356078D01*
X354412Y296784D01*
Y291786D01*
X364408Y301782D02*
Y305114D01*
Y303448D01*
X354412D01*
X356078Y301782D01*
X334529Y406032D02*
X332862Y407698D01*
X329530D01*
X327864Y406032D01*
Y399368D01*
X329530Y397702D01*
X332862D01*
X334529Y399368D01*
X337861Y397702D02*
X341193D01*
X339527D01*
Y407698D01*
X337861Y406032D01*
X346191D02*
X347858Y407698D01*
X351190D01*
X352856Y406032D01*
Y404366D01*
X351190Y402700D01*
X352856Y401034D01*
Y399368D01*
X351190Y397702D01*
X347858D01*
X346191Y399368D01*
Y401034D01*
X347858Y402700D01*
X346191Y404366D01*
Y406032D01*
X347858Y402700D02*
X351190D01*
X295118Y378979D02*
X293452Y377312D01*
Y373980D01*
X295118Y372314D01*
X301782D01*
X303448Y373980D01*
Y377312D01*
X301782Y378979D01*
X303448Y382311D02*
Y385643D01*
Y383977D01*
X293452D01*
X295118Y382311D01*
X293452Y390642D02*
Y397306D01*
X295118D01*
X301782Y390642D01*
X303448D01*
X282458Y449102D02*
X280792Y450768D01*
X277460D01*
X275794Y449102D01*
Y442438D01*
X277460Y440772D01*
X280792D01*
X282458Y442438D01*
X285791Y440772D02*
X289123D01*
X287457D01*
Y450768D01*
X285791Y449102D01*
X300786Y450768D02*
X297454Y449102D01*
X294121Y445770D01*
Y442438D01*
X295788Y440772D01*
X299120D01*
X300786Y442438D01*
Y444104D01*
X299120Y445770D01*
X294121D01*
X355406Y647141D02*
X353740Y648807D01*
X350408D01*
X348742Y647141D01*
Y640476D01*
X350408Y638810D01*
X353740D01*
X355406Y640476D01*
X358739Y638810D02*
X362071D01*
X360405D01*
Y648807D01*
X358739Y647141D01*
X373734Y648807D02*
X367069D01*
Y643808D01*
X370402Y645474D01*
X372068D01*
X373734Y643808D01*
Y640476D01*
X372068Y638810D01*
X368736D01*
X367069Y640476D01*
X370048Y563129D02*
X368382Y561462D01*
Y558130D01*
X370048Y556464D01*
X376712D01*
X378378Y558130D01*
Y561462D01*
X376712Y563129D01*
X378378Y566461D02*
Y569793D01*
Y568127D01*
X368382D01*
X370048Y566461D01*
X378378Y579790D02*
X368382D01*
X373380Y574791D01*
Y581456D01*
X345918Y560588D02*
X344252Y558922D01*
Y555590D01*
X345918Y553924D01*
X352582D01*
X354248Y555590D01*
Y558922D01*
X352582Y560588D01*
X354248Y563921D02*
Y567253D01*
Y565587D01*
X344252D01*
X345918Y563921D01*
Y572252D02*
X344252Y573918D01*
Y577250D01*
X345918Y578916D01*
X347584D01*
X349250Y577250D01*
Y575584D01*
Y577250D01*
X350916Y578916D01*
X352582D01*
X354248Y577250D01*
Y573918D01*
X352582Y572252D01*
X462799Y634522D02*
X461132Y636188D01*
X457800D01*
X456134Y634522D01*
Y627858D01*
X457800Y626192D01*
X461132D01*
X462799Y627858D01*
X466131Y626192D02*
X469463D01*
X467797D01*
Y636188D01*
X466131Y634522D01*
X481126Y626192D02*
X474462D01*
X481126Y632856D01*
Y634522D01*
X479460Y636188D01*
X476128D01*
X474462Y634522D01*
X214275Y535462D02*
X212609Y537128D01*
X209276D01*
X207610Y535462D01*
Y528798D01*
X209276Y527132D01*
X212609D01*
X214275Y528798D01*
X217607Y527132D02*
X220939D01*
X219273D01*
Y537128D01*
X217607Y535462D01*
X225938Y527132D02*
X229270D01*
X227604D01*
Y537128D01*
X225938Y535462D01*
X328138Y199909D02*
X326472Y198242D01*
Y194910D01*
X328138Y193244D01*
X334802D01*
X336468Y194910D01*
Y198242D01*
X334802Y199909D01*
X336468Y203241D02*
Y206573D01*
Y204907D01*
X326472D01*
X328138Y203241D01*
Y211572D02*
X326472Y213238D01*
Y216570D01*
X328138Y218236D01*
X334802D01*
X336468Y216570D01*
Y213238D01*
X334802Y211572D01*
X328138D01*
X350998Y206614D02*
X349332Y204948D01*
Y201616D01*
X350998Y199949D01*
X357662D01*
X359328Y201616D01*
Y204948D01*
X357662Y206614D01*
Y209946D02*
X359328Y211612D01*
Y214944D01*
X357662Y216611D01*
X350998D01*
X349332Y214944D01*
Y211612D01*
X350998Y209946D01*
X352664D01*
X354330Y211612D01*
Y216611D01*
X341152Y111376D02*
X342818Y113042D01*
Y116375D01*
X341152Y118041D01*
X334488D01*
X332822Y116375D01*
Y113042D01*
X334488Y111376D01*
X341152Y108044D02*
X342818Y106378D01*
Y103046D01*
X341152Y101379D01*
X339486D01*
X337820Y103046D01*
X336154Y101379D01*
X334488D01*
X332822Y103046D01*
Y106378D01*
X334488Y108044D01*
X336154D01*
X337820Y106378D01*
X339486Y108044D01*
X341152D01*
X337820Y106378D02*
Y103046D01*
X418704Y282732D02*
X417038Y284398D01*
X413705D01*
X412039Y282732D01*
Y276068D01*
X413705Y274402D01*
X417038D01*
X418704Y276068D01*
X422036Y284398D02*
X428701D01*
Y282732D01*
X422036Y276068D01*
Y274402D01*
X206224Y257332D02*
X204558Y258998D01*
X201225D01*
X199559Y257332D01*
Y250668D01*
X201225Y249002D01*
X204558D01*
X206224Y250668D01*
X216221Y258998D02*
X212888Y257332D01*
X209556Y254000D01*
Y250668D01*
X211222Y249002D01*
X214555D01*
X216221Y250668D01*
Y252334D01*
X214555Y254000D01*
X209556D01*
X206532Y502046D02*
X208198Y503712D01*
Y507044D01*
X206532Y508711D01*
X199868D01*
X198202Y507044D01*
Y503712D01*
X199868Y502046D01*
X208198Y492049D02*
Y498714D01*
X203200D01*
X204866Y495382D01*
Y493715D01*
X203200Y492049D01*
X199868D01*
X198202Y493715D01*
Y497048D01*
X199868Y498714D01*
X204948Y290434D02*
X203282Y288768D01*
Y285436D01*
X204948Y283769D01*
X211612D01*
X213278Y285436D01*
Y288768D01*
X211612Y290434D01*
X213278Y298764D02*
X203282D01*
X208280Y293766D01*
Y300431D01*
X55178Y456387D02*
X53512Y458053D01*
X50180D01*
X48514Y456387D01*
Y449722D01*
X50180Y448056D01*
X53512D01*
X55178Y449722D01*
X58511Y456387D02*
X60177Y458053D01*
X63509D01*
X65175Y456387D01*
Y454720D01*
X63509Y453054D01*
X61843D01*
X63509D01*
X65175Y451388D01*
Y449722D01*
X63509Y448056D01*
X60177D01*
X58511Y449722D01*
X193914Y394492D02*
X192248Y396158D01*
X188916D01*
X187249Y394492D01*
Y387828D01*
X188916Y386162D01*
X192248D01*
X193914Y387828D01*
X203911Y386162D02*
X197246D01*
X203911Y392826D01*
Y394492D01*
X202244Y396158D01*
X198912D01*
X197246Y394492D01*
X196850Y416082D02*
X195184Y417748D01*
X191852D01*
X190186Y416082D01*
Y409418D01*
X191852Y407752D01*
X195184D01*
X196850Y409418D01*
X200182Y407752D02*
X203514D01*
X201848D01*
Y417748D01*
X200182Y416082D01*
M02*
