G04*
G04 #@! TF.GenerationSoftware,Altium Limited,Altium Designer,24.1.2 (44)*
G04*
G04 Layer_Physical_Order=1*
G04 Layer_Color=255*
%FSLAX44Y44*%
%MOMM*%
G71*
G04*
G04 #@! TF.SameCoordinates,BD96B160-ADCB-4D74-BF3B-EA8FD58A22E8*
G04*
G04*
G04 #@! TF.FilePolarity,Positive*
G04*
G01*
G75*
%ADD13C,0.2540*%
%ADD14R,2.2500X3.1200*%
%ADD15R,0.2700X0.3000*%
%ADD16R,2.0000X4.0000*%
%ADD17R,1.4500X1.1500*%
%ADD18R,5.5000X4.0000*%
%ADD19R,0.8128X0.7620*%
%ADD20R,0.7900X0.9300*%
%ADD21R,1.1000X1.0000*%
%ADD23R,1.0000X1.1000*%
%ADD24R,0.9300X0.7900*%
%ADD25R,1.8200X1.4400*%
%ADD26R,4.0000X2.0000*%
%ADD50C,0.7000*%
%ADD51R,0.3000X1.6000*%
%ADD52R,5.0000X3.4000*%
%ADD53C,0.5000*%
%ADD54C,0.3000*%
%ADD55C,1.5200*%
%ADD56C,1.5300*%
%ADD57R,1.5300X1.5300*%
%ADD58C,0.4400*%
%ADD59R,1.5300X1.5300*%
%ADD60O,1.4000X4.1000*%
%ADD61O,1.4000X3.1000*%
%ADD62O,3.1000X1.4000*%
%ADD63C,0.6000*%
G36*
X508020Y-1905D02*
X-389D01*
X-1284Y-1004D01*
X3830Y809625D01*
X508020D01*
Y-1905D01*
D02*
G37*
%LPC*%
G36*
X321960Y804020D02*
X320660D01*
X319669Y803823D01*
X318829Y803261D01*
X318267Y802421D01*
X318070Y801430D01*
Y795813D01*
X318040Y795804D01*
X317983Y795772D01*
X317919Y795762D01*
X317566Y795629D01*
X317553Y795621D01*
X317396Y795579D01*
X317257Y795499D01*
X317102Y795431D01*
X317048Y795394D01*
X316985Y795378D01*
X316647Y795211D01*
X316596Y795171D01*
X316534Y795152D01*
X316205Y794968D01*
X316155Y794926D01*
X316094Y794903D01*
X315774Y794704D01*
X315727Y794660D01*
X315667Y794634D01*
X315358Y794419D01*
X315321Y794381D01*
X315264Y794348D01*
X315254Y794343D01*
X315250Y794340D01*
X315084Y794244D01*
X314893Y794054D01*
X314856Y794033D01*
X314569Y793789D01*
X314529Y793737D01*
X314474Y793703D01*
X314199Y793445D01*
X314162Y793392D01*
X314108Y793355D01*
X313847Y793083D01*
X313812Y793029D01*
X313760Y792989D01*
X313513Y792705D01*
X313480Y792648D01*
X313431Y792606D01*
X313375Y792535D01*
X313196Y792356D01*
X313065Y792129D01*
X312903Y791901D01*
X312876Y791841D01*
X312831Y791794D01*
X312628Y791477D01*
X312604Y791416D01*
X312562Y791367D01*
X312375Y791040D01*
X312354Y790979D01*
X312314Y790928D01*
X312143Y790591D01*
X312126Y790529D01*
X312088Y790476D01*
X312012Y790305D01*
X311861Y790044D01*
X311782Y789748D01*
X311748Y789662D01*
X311737Y789598D01*
X311705Y789542D01*
X311586Y789184D01*
X311578Y789120D01*
X311548Y789062D01*
X311447Y788699D01*
X311442Y788634D01*
X311416Y788575D01*
X311333Y788207D01*
X311331Y788142D01*
X311308Y788082D01*
X311256Y787784D01*
X311170Y787465D01*
Y787102D01*
X311165Y787082D01*
X311137Y786706D01*
X311145Y786641D01*
X311130Y786577D01*
X311121Y786193D01*
X311138Y786094D01*
X311124Y785994D01*
X311165Y785200D01*
X311170Y785182D01*
Y784795D01*
X311281Y784382D01*
X311318Y784145D01*
X311366Y784016D01*
X311375Y783880D01*
X311581Y783111D01*
X311641Y782988D01*
X311664Y782853D01*
X311751Y782629D01*
X311861Y782216D01*
X312055Y781881D01*
X312060Y781863D01*
X312421Y781154D01*
X312505Y781047D01*
X312556Y780919D01*
X312990Y780252D01*
X313002Y780239D01*
X313196Y779904D01*
X313498Y779602D01*
X313650Y779415D01*
X313755Y779327D01*
X313831Y779213D01*
X314393Y778651D01*
X314507Y778575D01*
X314595Y778469D01*
X314782Y778318D01*
X315084Y778016D01*
X315419Y777822D01*
X315432Y777810D01*
X316099Y777376D01*
X316227Y777326D01*
X316334Y777241D01*
X317043Y776880D01*
X317061Y776874D01*
X317396Y776681D01*
X317809Y776571D01*
X318033Y776484D01*
X318168Y776461D01*
X318291Y776401D01*
X319060Y776195D01*
X319196Y776186D01*
X319325Y776138D01*
X319563Y776100D01*
X319975Y775990D01*
X320362D01*
X320380Y775985D01*
X321174Y775944D01*
X321310Y775963D01*
X321446Y775944D01*
X322240Y775985D01*
X322258Y775990D01*
X322645D01*
X323058Y776101D01*
X323295Y776138D01*
X323424Y776186D01*
X323560Y776195D01*
X324329Y776401D01*
X324452Y776461D01*
X324587Y776484D01*
X324811Y776571D01*
X325224Y776681D01*
X325559Y776874D01*
X325577Y776880D01*
X326286Y777241D01*
X326393Y777326D01*
X326521Y777376D01*
X327188Y777810D01*
X327201Y777822D01*
X327536Y778016D01*
X327838Y778318D01*
X328025Y778469D01*
X328113Y778575D01*
X328227Y778651D01*
X328789Y779213D01*
X328865Y779327D01*
X328970Y779415D01*
X329122Y779602D01*
X329424Y779904D01*
X329618Y780239D01*
X329631Y780252D01*
X330064Y780919D01*
X330115Y781047D01*
X330199Y781154D01*
X330560Y781863D01*
X330565Y781881D01*
X330759Y782216D01*
X330869Y782629D01*
X330956Y782853D01*
X330979Y782988D01*
X331040Y783111D01*
X331245Y783880D01*
X331254Y784016D01*
X331302Y784145D01*
X331339Y784383D01*
X331450Y784795D01*
Y785182D01*
X331455Y785200D01*
X331496Y785994D01*
X331482Y786094D01*
X331499Y786193D01*
X331490Y786577D01*
X331475Y786641D01*
X331483Y786706D01*
X331455Y787082D01*
X331450Y787102D01*
Y787465D01*
X331364Y787784D01*
X331312Y788082D01*
X331289Y788142D01*
X331287Y788207D01*
X331204Y788575D01*
X331178Y788634D01*
X331173Y788699D01*
X331072Y789062D01*
X331042Y789120D01*
X331034Y789184D01*
X330915Y789542D01*
X330883Y789598D01*
X330872Y789662D01*
X330838Y789748D01*
X330759Y790044D01*
X330608Y790305D01*
X330532Y790476D01*
X330494Y790529D01*
X330477Y790592D01*
X330306Y790928D01*
X330266Y790979D01*
X330245Y791040D01*
X330058Y791367D01*
X330016Y791416D01*
X329992Y791477D01*
X329789Y791794D01*
X329744Y791841D01*
X329717Y791901D01*
X329555Y792129D01*
X329424Y792356D01*
X329245Y792535D01*
X329189Y792606D01*
X329140Y792648D01*
X329107Y792705D01*
X328860Y792989D01*
X328808Y793029D01*
X328773Y793083D01*
X328512Y793355D01*
X328458Y793392D01*
X328421Y793445D01*
X328146Y793703D01*
X328091Y793737D01*
X328051Y793789D01*
X327764Y794033D01*
X327727Y794054D01*
X327536Y794244D01*
X327370Y794340D01*
X327365Y794343D01*
X327356Y794348D01*
X327299Y794381D01*
X327262Y794419D01*
X326953Y794634D01*
X326893Y794660D01*
X326846Y794704D01*
X326526Y794903D01*
X326465Y794926D01*
X326415Y794968D01*
X326086Y795152D01*
X326024Y795171D01*
X325973Y795211D01*
X325635Y795378D01*
X325572Y795394D01*
X325518Y795431D01*
X325363Y795499D01*
X325224Y795579D01*
X325067Y795621D01*
X325054Y795629D01*
X324701Y795762D01*
X324637Y795772D01*
X324580Y795804D01*
X324550Y795813D01*
Y801430D01*
X324353Y802421D01*
X323791Y803261D01*
X322951Y803823D01*
X321960Y804020D01*
D02*
G37*
G36*
X296560D02*
X295260D01*
X294269Y803823D01*
X293429Y803261D01*
X292867Y802421D01*
X292670Y801430D01*
Y795813D01*
X292640Y795804D01*
X292583Y795772D01*
X292519Y795762D01*
X292166Y795629D01*
X292153Y795621D01*
X291996Y795579D01*
X291857Y795499D01*
X291702Y795431D01*
X291648Y795394D01*
X291585Y795378D01*
X291247Y795211D01*
X291196Y795171D01*
X291134Y795152D01*
X290805Y794968D01*
X290755Y794926D01*
X290694Y794903D01*
X290375Y794704D01*
X290327Y794660D01*
X290268Y794634D01*
X289958Y794419D01*
X289921Y794381D01*
X289864Y794348D01*
X289855Y794343D01*
X289850Y794340D01*
X289684Y794244D01*
X289494Y794054D01*
X289456Y794033D01*
X289169Y793789D01*
X289129Y793737D01*
X289074Y793703D01*
X288799Y793445D01*
X288762Y793392D01*
X288708Y793355D01*
X288447Y793083D01*
X288412Y793029D01*
X288360Y792989D01*
X288113Y792705D01*
X288080Y792648D01*
X288031Y792606D01*
X287975Y792535D01*
X287796Y792356D01*
X287665Y792129D01*
X287502Y791901D01*
X287476Y791841D01*
X287431Y791794D01*
X287228Y791477D01*
X287204Y791416D01*
X287162Y791367D01*
X286975Y791040D01*
X286954Y790979D01*
X286914Y790928D01*
X286743Y790591D01*
X286726Y790529D01*
X286688Y790476D01*
X286612Y790305D01*
X286461Y790044D01*
X286382Y789748D01*
X286348Y789662D01*
X286337Y789598D01*
X286305Y789542D01*
X286186Y789184D01*
X286178Y789120D01*
X286148Y789062D01*
X286047Y788699D01*
X286042Y788634D01*
X286016Y788575D01*
X285933Y788207D01*
X285931Y788142D01*
X285908Y788082D01*
X285856Y787784D01*
X285770Y787465D01*
Y787102D01*
X285765Y787082D01*
X285737Y786706D01*
X285745Y786641D01*
X285730Y786577D01*
X285721Y786193D01*
X285738Y786094D01*
X285724Y785994D01*
X285765Y785200D01*
X285770Y785182D01*
Y784795D01*
X285881Y784382D01*
X285918Y784145D01*
X285966Y784016D01*
X285975Y783880D01*
X286180Y783111D01*
X286241Y782988D01*
X286264Y782853D01*
X286350Y782629D01*
X286461Y782216D01*
X286654Y781881D01*
X286660Y781863D01*
X287021Y781154D01*
X287106Y781047D01*
X287156Y780919D01*
X287589Y780252D01*
X287603Y780239D01*
X287796Y779904D01*
X288098Y779602D01*
X288249Y779415D01*
X288355Y779327D01*
X288431Y779213D01*
X288993Y778651D01*
X289107Y778575D01*
X289195Y778469D01*
X289382Y778318D01*
X289684Y778016D01*
X290019Y777822D01*
X290032Y777810D01*
X290700Y777376D01*
X290827Y777326D01*
X290934Y777241D01*
X291643Y776880D01*
X291661Y776874D01*
X291996Y776681D01*
X292409Y776571D01*
X292633Y776484D01*
X292768Y776461D01*
X292891Y776401D01*
X293660Y776195D01*
X293796Y776186D01*
X293925Y776138D01*
X294163Y776100D01*
X294575Y775990D01*
X294962D01*
X294980Y775985D01*
X295774Y775944D01*
X295910Y775963D01*
X296046Y775944D01*
X296840Y775985D01*
X296858Y775990D01*
X297245D01*
X297658Y776101D01*
X297895Y776138D01*
X298024Y776186D01*
X298160Y776195D01*
X298929Y776401D01*
X299052Y776461D01*
X299187Y776484D01*
X299411Y776571D01*
X299824Y776681D01*
X300159Y776874D01*
X300177Y776880D01*
X300886Y777241D01*
X300993Y777326D01*
X301120Y777376D01*
X301788Y777810D01*
X301801Y777822D01*
X302136Y778016D01*
X302438Y778318D01*
X302625Y778469D01*
X302713Y778575D01*
X302827Y778651D01*
X303389Y779213D01*
X303465Y779327D01*
X303570Y779415D01*
X303722Y779602D01*
X304024Y779904D01*
X304217Y780239D01*
X304230Y780252D01*
X304664Y780919D01*
X304715Y781047D01*
X304799Y781154D01*
X305161Y781863D01*
X305166Y781881D01*
X305359Y782216D01*
X305469Y782629D01*
X305556Y782853D01*
X305579Y782988D01*
X305639Y783111D01*
X305845Y783880D01*
X305854Y784016D01*
X305902Y784145D01*
X305940Y784383D01*
X306050Y784795D01*
Y785182D01*
X306055Y785200D01*
X306096Y785994D01*
X306082Y786094D01*
X306099Y786193D01*
X306090Y786577D01*
X306075Y786641D01*
X306083Y786706D01*
X306055Y787082D01*
X306050Y787102D01*
Y787465D01*
X305964Y787784D01*
X305912Y788082D01*
X305889Y788142D01*
X305887Y788207D01*
X305804Y788575D01*
X305778Y788634D01*
X305773Y788699D01*
X305672Y789062D01*
X305642Y789120D01*
X305634Y789184D01*
X305515Y789542D01*
X305483Y789598D01*
X305472Y789662D01*
X305438Y789748D01*
X305359Y790044D01*
X305208Y790305D01*
X305132Y790476D01*
X305094Y790529D01*
X305077Y790592D01*
X304906Y790928D01*
X304866Y790979D01*
X304845Y791040D01*
X304658Y791367D01*
X304616Y791416D01*
X304592Y791477D01*
X304389Y791794D01*
X304344Y791841D01*
X304317Y791901D01*
X304155Y792129D01*
X304024Y792356D01*
X303845Y792535D01*
X303789Y792606D01*
X303740Y792648D01*
X303707Y792705D01*
X303460Y792989D01*
X303408Y793029D01*
X303373Y793083D01*
X303112Y793355D01*
X303058Y793392D01*
X303021Y793445D01*
X302746Y793703D01*
X302691Y793737D01*
X302651Y793789D01*
X302364Y794033D01*
X302327Y794054D01*
X302136Y794244D01*
X301970Y794340D01*
X301966Y794343D01*
X301956Y794348D01*
X301899Y794381D01*
X301862Y794419D01*
X301553Y794634D01*
X301493Y794660D01*
X301446Y794704D01*
X301126Y794903D01*
X301065Y794926D01*
X301015Y794968D01*
X300686Y795152D01*
X300624Y795171D01*
X300573Y795211D01*
X300235Y795378D01*
X300172Y795394D01*
X300118Y795431D01*
X299963Y795499D01*
X299824Y795579D01*
X299667Y795621D01*
X299654Y795629D01*
X299301Y795762D01*
X299237Y795772D01*
X299180Y795804D01*
X299150Y795813D01*
Y801430D01*
X298953Y802421D01*
X298391Y803261D01*
X297551Y803823D01*
X296560Y804020D01*
D02*
G37*
G36*
X271160D02*
X269860D01*
X268869Y803823D01*
X268029Y803261D01*
X267467Y802421D01*
X267270Y801430D01*
Y795813D01*
X267240Y795804D01*
X267183Y795772D01*
X267119Y795762D01*
X266766Y795629D01*
X266753Y795621D01*
X266596Y795579D01*
X266457Y795499D01*
X266302Y795431D01*
X266248Y795394D01*
X266185Y795378D01*
X265847Y795211D01*
X265796Y795171D01*
X265734Y795152D01*
X265405Y794968D01*
X265355Y794926D01*
X265294Y794903D01*
X264974Y794704D01*
X264927Y794660D01*
X264867Y794634D01*
X264558Y794419D01*
X264521Y794381D01*
X264464Y794348D01*
X264454Y794343D01*
X264450Y794340D01*
X264284Y794244D01*
X264093Y794054D01*
X264056Y794033D01*
X263769Y793789D01*
X263729Y793737D01*
X263674Y793703D01*
X263399Y793445D01*
X263362Y793392D01*
X263308Y793355D01*
X263047Y793083D01*
X263012Y793029D01*
X262960Y792989D01*
X262713Y792705D01*
X262680Y792648D01*
X262631Y792606D01*
X262575Y792535D01*
X262396Y792356D01*
X262265Y792129D01*
X262103Y791901D01*
X262076Y791841D01*
X262031Y791794D01*
X261828Y791477D01*
X261804Y791416D01*
X261762Y791367D01*
X261575Y791040D01*
X261554Y790979D01*
X261514Y790928D01*
X261343Y790591D01*
X261326Y790529D01*
X261288Y790476D01*
X261212Y790305D01*
X261061Y790044D01*
X260982Y789748D01*
X260948Y789662D01*
X260937Y789598D01*
X260905Y789542D01*
X260786Y789184D01*
X260778Y789120D01*
X260748Y789062D01*
X260647Y788699D01*
X260642Y788634D01*
X260616Y788575D01*
X260533Y788207D01*
X260531Y788142D01*
X260508Y788082D01*
X260456Y787784D01*
X260370Y787465D01*
Y787102D01*
X260365Y787082D01*
X260337Y786706D01*
X260345Y786641D01*
X260330Y786577D01*
X260321Y786193D01*
X260338Y786094D01*
X260324Y785994D01*
X260365Y785200D01*
X260370Y785182D01*
Y784795D01*
X260481Y784382D01*
X260518Y784145D01*
X260566Y784016D01*
X260575Y783880D01*
X260781Y783111D01*
X260841Y782988D01*
X260864Y782853D01*
X260951Y782629D01*
X261061Y782216D01*
X261255Y781881D01*
X261260Y781863D01*
X261621Y781154D01*
X261705Y781047D01*
X261756Y780919D01*
X262190Y780252D01*
X262202Y780239D01*
X262396Y779904D01*
X262698Y779602D01*
X262850Y779415D01*
X262955Y779327D01*
X263031Y779213D01*
X263593Y778651D01*
X263707Y778575D01*
X263795Y778469D01*
X263982Y778318D01*
X264284Y778016D01*
X264619Y777822D01*
X264632Y777810D01*
X265299Y777376D01*
X265427Y777326D01*
X265534Y777241D01*
X266243Y776880D01*
X266261Y776874D01*
X266596Y776681D01*
X267009Y776571D01*
X267233Y776484D01*
X267368Y776461D01*
X267491Y776401D01*
X268260Y776195D01*
X268396Y776186D01*
X268525Y776138D01*
X268763Y776100D01*
X269175Y775990D01*
X269562D01*
X269580Y775985D01*
X270374Y775944D01*
X270510Y775963D01*
X270646Y775944D01*
X271440Y775985D01*
X271458Y775990D01*
X271845D01*
X272257Y776101D01*
X272495Y776138D01*
X272624Y776186D01*
X272760Y776195D01*
X273529Y776401D01*
X273652Y776461D01*
X273787Y776484D01*
X274011Y776571D01*
X274424Y776681D01*
X274759Y776874D01*
X274777Y776880D01*
X275486Y777241D01*
X275593Y777326D01*
X275721Y777376D01*
X276388Y777810D01*
X276401Y777822D01*
X276736Y778016D01*
X277038Y778318D01*
X277225Y778469D01*
X277313Y778575D01*
X277427Y778651D01*
X277989Y779213D01*
X278065Y779327D01*
X278171Y779415D01*
X278322Y779602D01*
X278624Y779904D01*
X278818Y780239D01*
X278831Y780252D01*
X279264Y780919D01*
X279314Y781047D01*
X279399Y781154D01*
X279760Y781863D01*
X279765Y781881D01*
X279959Y782216D01*
X280070Y782629D01*
X280156Y782853D01*
X280179Y782988D01*
X280240Y783111D01*
X280445Y783880D01*
X280454Y784016D01*
X280502Y784145D01*
X280539Y784383D01*
X280650Y784795D01*
Y785182D01*
X280655Y785200D01*
X280696Y785994D01*
X280682Y786094D01*
X280699Y786193D01*
X280690Y786577D01*
X280675Y786641D01*
X280683Y786706D01*
X280655Y787082D01*
X280650Y787102D01*
Y787465D01*
X280564Y787784D01*
X280512Y788082D01*
X280489Y788142D01*
X280487Y788207D01*
X280404Y788575D01*
X280378Y788634D01*
X280373Y788699D01*
X280271Y789062D01*
X280242Y789120D01*
X280234Y789184D01*
X280115Y789542D01*
X280083Y789598D01*
X280072Y789662D01*
X280038Y789748D01*
X279959Y790044D01*
X279808Y790305D01*
X279732Y790476D01*
X279694Y790529D01*
X279677Y790592D01*
X279506Y790928D01*
X279466Y790979D01*
X279445Y791040D01*
X279258Y791367D01*
X279216Y791416D01*
X279192Y791477D01*
X278989Y791794D01*
X278944Y791841D01*
X278918Y791901D01*
X278755Y792129D01*
X278624Y792356D01*
X278445Y792535D01*
X278389Y792606D01*
X278340Y792648D01*
X278307Y792705D01*
X278060Y792989D01*
X278008Y793029D01*
X277973Y793083D01*
X277712Y793355D01*
X277658Y793392D01*
X277621Y793445D01*
X277346Y793703D01*
X277291Y793737D01*
X277251Y793789D01*
X276964Y794033D01*
X276926Y794054D01*
X276736Y794244D01*
X276570Y794340D01*
X276565Y794343D01*
X276556Y794348D01*
X276499Y794381D01*
X276462Y794419D01*
X276152Y794634D01*
X276093Y794660D01*
X276045Y794704D01*
X275726Y794903D01*
X275665Y794926D01*
X275615Y794968D01*
X275286Y795152D01*
X275224Y795171D01*
X275173Y795211D01*
X274835Y795378D01*
X274772Y795394D01*
X274718Y795431D01*
X274563Y795499D01*
X274424Y795579D01*
X274267Y795621D01*
X274254Y795629D01*
X273901Y795762D01*
X273837Y795772D01*
X273780Y795804D01*
X273750Y795813D01*
Y801430D01*
X273553Y802421D01*
X272991Y803261D01*
X272151Y803823D01*
X271160Y804020D01*
D02*
G37*
G36*
X245760D02*
X244460D01*
X243469Y803823D01*
X242629Y803261D01*
X242067Y802421D01*
X241870Y801430D01*
Y795813D01*
X241840Y795804D01*
X241783Y795772D01*
X241719Y795762D01*
X241366Y795629D01*
X241353Y795621D01*
X241196Y795579D01*
X241057Y795499D01*
X240902Y795431D01*
X240848Y795394D01*
X240785Y795378D01*
X240447Y795211D01*
X240396Y795171D01*
X240334Y795152D01*
X240005Y794968D01*
X239955Y794926D01*
X239894Y794903D01*
X239575Y794704D01*
X239527Y794660D01*
X239468Y794634D01*
X239158Y794419D01*
X239121Y794381D01*
X239064Y794348D01*
X239055Y794343D01*
X239050Y794340D01*
X238884Y794244D01*
X238694Y794054D01*
X238656Y794033D01*
X238369Y793789D01*
X238329Y793737D01*
X238274Y793703D01*
X237999Y793445D01*
X237962Y793392D01*
X237908Y793355D01*
X237647Y793083D01*
X237612Y793029D01*
X237560Y792989D01*
X237313Y792705D01*
X237280Y792648D01*
X237231Y792606D01*
X237175Y792535D01*
X236996Y792356D01*
X236865Y792129D01*
X236702Y791901D01*
X236676Y791841D01*
X236631Y791794D01*
X236428Y791477D01*
X236404Y791416D01*
X236362Y791367D01*
X236175Y791040D01*
X236154Y790979D01*
X236114Y790928D01*
X235943Y790591D01*
X235926Y790529D01*
X235888Y790476D01*
X235812Y790305D01*
X235661Y790044D01*
X235582Y789748D01*
X235548Y789662D01*
X235537Y789598D01*
X235505Y789542D01*
X235386Y789184D01*
X235378Y789120D01*
X235348Y789062D01*
X235247Y788699D01*
X235242Y788634D01*
X235216Y788575D01*
X235133Y788207D01*
X235131Y788142D01*
X235108Y788082D01*
X235056Y787784D01*
X234970Y787465D01*
Y787102D01*
X234965Y787082D01*
X234937Y786706D01*
X234945Y786641D01*
X234930Y786577D01*
X234921Y786193D01*
X234938Y786094D01*
X234924Y785994D01*
X234965Y785200D01*
X234970Y785182D01*
Y784795D01*
X235081Y784382D01*
X235118Y784145D01*
X235166Y784016D01*
X235175Y783880D01*
X235380Y783111D01*
X235441Y782988D01*
X235464Y782853D01*
X235550Y782629D01*
X235661Y782216D01*
X235854Y781881D01*
X235860Y781863D01*
X236221Y781154D01*
X236306Y781047D01*
X236356Y780919D01*
X236789Y780252D01*
X236803Y780239D01*
X236996Y779904D01*
X237298Y779602D01*
X237449Y779415D01*
X237555Y779327D01*
X237631Y779213D01*
X238193Y778651D01*
X238307Y778575D01*
X238395Y778469D01*
X238582Y778318D01*
X238884Y778016D01*
X239219Y777822D01*
X239232Y777810D01*
X239900Y777376D01*
X240027Y777326D01*
X240134Y777241D01*
X240843Y776880D01*
X240861Y776874D01*
X241196Y776681D01*
X241609Y776571D01*
X241833Y776484D01*
X241968Y776461D01*
X242091Y776401D01*
X242860Y776195D01*
X242996Y776186D01*
X243125Y776138D01*
X243363Y776100D01*
X243775Y775990D01*
X244162D01*
X244180Y775985D01*
X244974Y775944D01*
X245110Y775963D01*
X245246Y775944D01*
X246040Y775985D01*
X246058Y775990D01*
X246445D01*
X246857Y776101D01*
X247095Y776138D01*
X247224Y776186D01*
X247360Y776195D01*
X248129Y776401D01*
X248252Y776461D01*
X248387Y776484D01*
X248611Y776571D01*
X249024Y776681D01*
X249359Y776874D01*
X249377Y776880D01*
X250086Y777241D01*
X250193Y777326D01*
X250320Y777376D01*
X250988Y777810D01*
X251001Y777822D01*
X251336Y778016D01*
X251638Y778318D01*
X251825Y778469D01*
X251913Y778575D01*
X252027Y778651D01*
X252589Y779213D01*
X252665Y779327D01*
X252771Y779415D01*
X252922Y779602D01*
X253224Y779904D01*
X253417Y780239D01*
X253431Y780252D01*
X253864Y780919D01*
X253915Y781047D01*
X253999Y781154D01*
X254361Y781863D01*
X254366Y781881D01*
X254559Y782216D01*
X254669Y782629D01*
X254756Y782853D01*
X254779Y782988D01*
X254839Y783111D01*
X255045Y783880D01*
X255054Y784016D01*
X255102Y784145D01*
X255140Y784383D01*
X255250Y784795D01*
Y785182D01*
X255255Y785200D01*
X255296Y785994D01*
X255282Y786094D01*
X255299Y786193D01*
X255290Y786577D01*
X255275Y786641D01*
X255283Y786706D01*
X255255Y787082D01*
X255250Y787102D01*
Y787465D01*
X255164Y787784D01*
X255112Y788082D01*
X255089Y788142D01*
X255087Y788207D01*
X255004Y788575D01*
X254978Y788634D01*
X254973Y788699D01*
X254872Y789062D01*
X254842Y789120D01*
X254834Y789184D01*
X254715Y789542D01*
X254683Y789598D01*
X254672Y789662D01*
X254638Y789748D01*
X254559Y790044D01*
X254408Y790305D01*
X254332Y790476D01*
X254294Y790529D01*
X254277Y790592D01*
X254106Y790928D01*
X254066Y790979D01*
X254045Y791040D01*
X253858Y791367D01*
X253816Y791416D01*
X253792Y791477D01*
X253589Y791794D01*
X253544Y791841D01*
X253517Y791901D01*
X253355Y792129D01*
X253224Y792356D01*
X253045Y792535D01*
X252989Y792606D01*
X252940Y792648D01*
X252907Y792705D01*
X252660Y792989D01*
X252608Y793029D01*
X252573Y793083D01*
X252312Y793355D01*
X252258Y793392D01*
X252221Y793445D01*
X251946Y793703D01*
X251891Y793737D01*
X251851Y793789D01*
X251564Y794033D01*
X251527Y794054D01*
X251336Y794244D01*
X251170Y794340D01*
X251166Y794343D01*
X251156Y794348D01*
X251099Y794381D01*
X251062Y794419D01*
X250753Y794634D01*
X250693Y794660D01*
X250646Y794704D01*
X250326Y794903D01*
X250265Y794926D01*
X250215Y794968D01*
X249886Y795152D01*
X249824Y795171D01*
X249773Y795211D01*
X249435Y795378D01*
X249372Y795394D01*
X249318Y795431D01*
X249163Y795499D01*
X249024Y795579D01*
X248867Y795621D01*
X248854Y795629D01*
X248501Y795762D01*
X248437Y795772D01*
X248380Y795804D01*
X248350Y795813D01*
Y801430D01*
X248153Y802421D01*
X247591Y803261D01*
X246751Y803823D01*
X245760Y804020D01*
D02*
G37*
G36*
X194960D02*
X193660D01*
X192669Y803823D01*
X191829Y803261D01*
X191267Y802421D01*
X191070Y801430D01*
Y795813D01*
X191040Y795804D01*
X190983Y795772D01*
X190919Y795762D01*
X190566Y795629D01*
X190553Y795621D01*
X190396Y795579D01*
X190257Y795499D01*
X190102Y795431D01*
X190048Y795394D01*
X189985Y795378D01*
X189647Y795211D01*
X189596Y795171D01*
X189534Y795152D01*
X189205Y794968D01*
X189155Y794926D01*
X189094Y794903D01*
X188775Y794704D01*
X188727Y794660D01*
X188668Y794634D01*
X188358Y794419D01*
X188321Y794381D01*
X188264Y794348D01*
X188255Y794343D01*
X188250Y794340D01*
X188084Y794244D01*
X187894Y794054D01*
X187856Y794033D01*
X187569Y793789D01*
X187529Y793737D01*
X187474Y793703D01*
X187199Y793445D01*
X187162Y793392D01*
X187108Y793355D01*
X186847Y793083D01*
X186812Y793029D01*
X186760Y792989D01*
X186513Y792705D01*
X186480Y792648D01*
X186431Y792606D01*
X186375Y792535D01*
X186196Y792356D01*
X186065Y792129D01*
X185903Y791901D01*
X185876Y791841D01*
X185831Y791794D01*
X185628Y791477D01*
X185604Y791416D01*
X185562Y791367D01*
X185375Y791040D01*
X185354Y790979D01*
X185314Y790928D01*
X185143Y790591D01*
X185126Y790529D01*
X185088Y790476D01*
X185012Y790305D01*
X184861Y790044D01*
X184782Y789748D01*
X184748Y789662D01*
X184737Y789598D01*
X184705Y789542D01*
X184586Y789184D01*
X184578Y789120D01*
X184548Y789062D01*
X184447Y788699D01*
X184442Y788634D01*
X184416Y788575D01*
X184333Y788207D01*
X184331Y788142D01*
X184308Y788082D01*
X184256Y787784D01*
X184170Y787465D01*
Y787102D01*
X184165Y787082D01*
X184137Y786706D01*
X184145Y786641D01*
X184130Y786577D01*
X184121Y786193D01*
X184138Y786094D01*
X184124Y785994D01*
X184165Y785200D01*
X184170Y785182D01*
Y784795D01*
X184281Y784382D01*
X184318Y784145D01*
X184366Y784016D01*
X184375Y783880D01*
X184580Y783111D01*
X184641Y782988D01*
X184664Y782853D01*
X184750Y782629D01*
X184861Y782216D01*
X185054Y781881D01*
X185060Y781863D01*
X185421Y781154D01*
X185506Y781047D01*
X185556Y780919D01*
X185989Y780252D01*
X186003Y780239D01*
X186196Y779904D01*
X186498Y779602D01*
X186649Y779415D01*
X186755Y779327D01*
X186831Y779213D01*
X187393Y778651D01*
X187507Y778575D01*
X187595Y778469D01*
X187782Y778318D01*
X188084Y778016D01*
X188419Y777822D01*
X188432Y777810D01*
X189100Y777376D01*
X189227Y777326D01*
X189334Y777241D01*
X190043Y776880D01*
X190061Y776874D01*
X190396Y776681D01*
X190809Y776571D01*
X191033Y776484D01*
X191168Y776461D01*
X191291Y776401D01*
X192060Y776195D01*
X192196Y776186D01*
X192325Y776138D01*
X192563Y776100D01*
X192975Y775990D01*
X193362D01*
X193380Y775985D01*
X194174Y775944D01*
X194310Y775963D01*
X194446Y775944D01*
X195240Y775985D01*
X195258Y775990D01*
X195645D01*
X196057Y776101D01*
X196295Y776138D01*
X196424Y776186D01*
X196560Y776195D01*
X197329Y776401D01*
X197452Y776461D01*
X197587Y776484D01*
X197811Y776571D01*
X198224Y776681D01*
X198559Y776874D01*
X198577Y776880D01*
X199286Y777241D01*
X199393Y777326D01*
X199520Y777376D01*
X200188Y777810D01*
X200201Y777822D01*
X200536Y778016D01*
X200838Y778318D01*
X201025Y778469D01*
X201113Y778575D01*
X201227Y778651D01*
X201789Y779213D01*
X201865Y779327D01*
X201971Y779415D01*
X202122Y779602D01*
X202424Y779904D01*
X202617Y780239D01*
X202631Y780252D01*
X203064Y780919D01*
X203114Y781047D01*
X203199Y781154D01*
X203561Y781863D01*
X203566Y781881D01*
X203759Y782216D01*
X203869Y782629D01*
X203956Y782853D01*
X203979Y782988D01*
X204039Y783111D01*
X204245Y783880D01*
X204254Y784016D01*
X204302Y784145D01*
X204340Y784383D01*
X204450Y784795D01*
Y785182D01*
X204455Y785200D01*
X204496Y785994D01*
X204482Y786094D01*
X204499Y786193D01*
X204490Y786577D01*
X204475Y786641D01*
X204483Y786706D01*
X204455Y787082D01*
X204450Y787102D01*
Y787465D01*
X204364Y787784D01*
X204312Y788082D01*
X204289Y788142D01*
X204287Y788207D01*
X204204Y788575D01*
X204178Y788634D01*
X204173Y788699D01*
X204072Y789062D01*
X204042Y789120D01*
X204034Y789184D01*
X203915Y789542D01*
X203883Y789598D01*
X203872Y789662D01*
X203838Y789748D01*
X203759Y790044D01*
X203608Y790305D01*
X203532Y790476D01*
X203494Y790529D01*
X203477Y790592D01*
X203306Y790928D01*
X203266Y790979D01*
X203245Y791040D01*
X203058Y791367D01*
X203016Y791416D01*
X202992Y791477D01*
X202789Y791794D01*
X202744Y791841D01*
X202717Y791901D01*
X202555Y792129D01*
X202424Y792356D01*
X202245Y792535D01*
X202189Y792606D01*
X202140Y792648D01*
X202107Y792705D01*
X201860Y792989D01*
X201808Y793029D01*
X201773Y793083D01*
X201512Y793355D01*
X201458Y793392D01*
X201421Y793445D01*
X201146Y793703D01*
X201091Y793737D01*
X201051Y793789D01*
X200764Y794033D01*
X200727Y794054D01*
X200536Y794244D01*
X200370Y794340D01*
X200366Y794343D01*
X200356Y794348D01*
X200299Y794381D01*
X200262Y794419D01*
X199953Y794634D01*
X199893Y794660D01*
X199846Y794704D01*
X199526Y794903D01*
X199465Y794926D01*
X199415Y794968D01*
X199086Y795152D01*
X199024Y795171D01*
X198973Y795211D01*
X198635Y795378D01*
X198572Y795394D01*
X198518Y795431D01*
X198363Y795499D01*
X198224Y795579D01*
X198067Y795621D01*
X198054Y795629D01*
X197701Y795762D01*
X197637Y795772D01*
X197580Y795804D01*
X197550Y795813D01*
Y801430D01*
X197353Y802421D01*
X196791Y803261D01*
X195951Y803823D01*
X194960Y804020D01*
D02*
G37*
G36*
X447270Y748270D02*
Y744070D01*
X451470D01*
X450697Y745938D01*
X449138Y747497D01*
X447270Y748270D01*
D02*
G37*
G36*
X444730D02*
X442862Y747497D01*
X441303Y745938D01*
X440530Y744070D01*
X444730D01*
Y748270D01*
D02*
G37*
G36*
X397270D02*
Y744070D01*
X401470D01*
X400697Y745938D01*
X399138Y747497D01*
X397270Y748270D01*
D02*
G37*
G36*
X394730D02*
X392862Y747497D01*
X391303Y745938D01*
X390530Y744070D01*
X394730D01*
Y748270D01*
D02*
G37*
G36*
X347270D02*
Y744070D01*
X351470D01*
X350697Y745938D01*
X349138Y747497D01*
X347270Y748270D01*
D02*
G37*
G36*
X344730D02*
X342862Y747497D01*
X341303Y745938D01*
X340530Y744070D01*
X344730D01*
Y748270D01*
D02*
G37*
G36*
X297270D02*
Y744070D01*
X301470D01*
X300697Y745938D01*
X299138Y747497D01*
X297270Y748270D01*
D02*
G37*
G36*
X294730D02*
X292862Y747497D01*
X291303Y745938D01*
X290530Y744070D01*
X294730D01*
Y748270D01*
D02*
G37*
G36*
X97270D02*
Y744070D01*
X101470D01*
X100697Y745938D01*
X99138Y747497D01*
X97270Y748270D01*
D02*
G37*
G36*
X94730D02*
X92862Y747497D01*
X91303Y745938D01*
X90530Y744070D01*
X94730D01*
Y748270D01*
D02*
G37*
G36*
X47270D02*
Y744070D01*
X51470D01*
X50697Y745938D01*
X49138Y747497D01*
X47270Y748270D01*
D02*
G37*
G36*
X44730D02*
X42862Y747497D01*
X41303Y745938D01*
X40530Y744070D01*
X44730D01*
Y748270D01*
D02*
G37*
G36*
X451470Y741530D02*
X447270D01*
Y737330D01*
X449138Y738103D01*
X450697Y739662D01*
X451470Y741530D01*
D02*
G37*
G36*
X444730D02*
X440530D01*
X441303Y739662D01*
X442862Y738103D01*
X444730Y737330D01*
Y741530D01*
D02*
G37*
G36*
X401470D02*
X397270D01*
Y737330D01*
X399138Y738103D01*
X400697Y739662D01*
X401470Y741530D01*
D02*
G37*
G36*
X394730D02*
X390530D01*
X391303Y739662D01*
X392862Y738103D01*
X394730Y737330D01*
Y741530D01*
D02*
G37*
G36*
X351470D02*
X347270D01*
Y737330D01*
X349138Y738103D01*
X350697Y739662D01*
X351470Y741530D01*
D02*
G37*
G36*
X344730D02*
X340530D01*
X341303Y739662D01*
X342862Y738103D01*
X344730Y737330D01*
Y741530D01*
D02*
G37*
G36*
X301470D02*
X297270D01*
Y737330D01*
X299138Y738103D01*
X300697Y739662D01*
X301470Y741530D01*
D02*
G37*
G36*
X294730D02*
X290530D01*
X291303Y739662D01*
X292862Y738103D01*
X294730Y737330D01*
Y741530D01*
D02*
G37*
G36*
X101470D02*
X97270D01*
Y737330D01*
X99138Y738103D01*
X100697Y739662D01*
X101470Y741530D01*
D02*
G37*
G36*
X94730D02*
X90530D01*
X91303Y739662D01*
X92862Y738103D01*
X94730Y737330D01*
Y741530D01*
D02*
G37*
G36*
X51470D02*
X47270D01*
Y737330D01*
X49138Y738103D01*
X50697Y739662D01*
X51470Y741530D01*
D02*
G37*
G36*
X44730D02*
X40530D01*
X41303Y739662D01*
X42862Y738103D01*
X44730Y737330D01*
Y741530D01*
D02*
G37*
G36*
X81280Y744395D02*
Y727710D01*
X89632D01*
Y734940D01*
X89304Y737430D01*
X88343Y739751D01*
X86814Y741744D01*
X84821Y743273D01*
X82500Y744234D01*
X81280Y744395D01*
D02*
G37*
G36*
X78740D02*
X77520Y744234D01*
X75199Y743273D01*
X73206Y741744D01*
X71677Y739751D01*
X70716Y737430D01*
X70388Y734940D01*
Y727710D01*
X78740D01*
Y744395D01*
D02*
G37*
G36*
X265502Y723930D02*
X265430D01*
Y715010D01*
X274350D01*
Y715082D01*
X273656Y717673D01*
X272314Y719997D01*
X270417Y721894D01*
X268093Y723236D01*
X265502Y723930D01*
D02*
G37*
G36*
X262890D02*
X262818D01*
X260227Y723236D01*
X257903Y721894D01*
X256006Y719997D01*
X254664Y717673D01*
X253970Y715082D01*
Y715010D01*
X262890D01*
Y723930D01*
D02*
G37*
G36*
X89632Y725170D02*
X81280D01*
Y708485D01*
X82500Y708645D01*
X84821Y709607D01*
X86814Y711136D01*
X88343Y713129D01*
X89304Y715450D01*
X89632Y717940D01*
Y725170D01*
D02*
G37*
G36*
X78740D02*
X70388D01*
Y717940D01*
X70716Y715450D01*
X71677Y713129D01*
X73206Y711136D01*
X75199Y709607D01*
X77520Y708645D01*
X78740Y708485D01*
Y725170D01*
D02*
G37*
G36*
X205740Y711200D02*
X200406D01*
Y706120D01*
X205740D01*
Y711200D01*
D02*
G37*
G36*
X299750Y723930D02*
X279370D01*
Y703550D01*
X299750D01*
Y723930D01*
D02*
G37*
G36*
X274350Y712470D02*
X265430D01*
Y703550D01*
X265502D01*
X268093Y704244D01*
X270417Y705586D01*
X272314Y707483D01*
X273656Y709807D01*
X274350Y712398D01*
Y712470D01*
D02*
G37*
G36*
X262890D02*
X253970D01*
Y712398D01*
X254664Y709807D01*
X256006Y707483D01*
X257903Y705586D01*
X260227Y704244D01*
X262818Y703550D01*
X262890D01*
Y712470D01*
D02*
G37*
G36*
X139010Y749562D02*
X136520Y749234D01*
X134199Y748273D01*
X132206Y746744D01*
X130677Y744751D01*
X129716Y742430D01*
X129388Y739940D01*
Y720579D01*
X121483D01*
X119516Y720188D01*
X117849Y719074D01*
X59207Y660431D01*
X58092Y658764D01*
X57701Y656797D01*
Y629979D01*
X50388D01*
X44188Y636180D01*
X44730Y637005D01*
Y642800D01*
Y648270D01*
X42862Y647497D01*
X41641Y646275D01*
X41174Y646337D01*
X39277Y648234D01*
X36953Y649576D01*
X34362Y650270D01*
X31678D01*
X29087Y649576D01*
X26763Y648234D01*
X24866Y646337D01*
X23524Y644013D01*
X22830Y641422D01*
Y638738D01*
X23524Y636147D01*
X24866Y633823D01*
X26763Y631926D01*
X29087Y630584D01*
X31678Y629890D01*
X34362D01*
X35609Y630224D01*
X44626Y621206D01*
X46294Y620092D01*
X48260Y619701D01*
X57701D01*
Y457860D01*
X58092Y455893D01*
X59207Y454226D01*
X97740Y415692D01*
Y364490D01*
X97937Y363499D01*
X98499Y362659D01*
X99339Y362097D01*
X100330Y361900D01*
X205740D01*
X206731Y362097D01*
X207571Y362659D01*
X207819Y363030D01*
X209760D01*
Y367631D01*
X214980D01*
Y364170D01*
X221401D01*
Y336000D01*
X220140D01*
Y323020D01*
X234520D01*
X234641Y321800D01*
Y320820D01*
X234520Y319600D01*
X220140D01*
Y306620D01*
X223445D01*
Y303560D01*
X219790D01*
Y287480D01*
X219790Y287480D01*
Y286560D01*
X219790D01*
X219790Y286210D01*
Y283464D01*
X189597D01*
X187891Y284170D01*
X185489D01*
X183269Y283251D01*
X181569Y281551D01*
X180650Y279331D01*
Y276929D01*
X181569Y274709D01*
X183269Y273009D01*
X185489Y272090D01*
X187891D01*
X190111Y273009D01*
X190288Y273186D01*
X219790D01*
Y270480D01*
X222386D01*
Y261540D01*
X219680D01*
Y246460D01*
X225131D01*
Y237800D01*
X225230Y237304D01*
Y198938D01*
X225230Y198201D01*
X224516Y197740D01*
X224055Y197531D01*
X222270Y198270D01*
Y194070D01*
X226470D01*
X225697Y195938D01*
X225084Y196550D01*
X225671Y197759D01*
X225688Y197760D01*
X226317Y197760D01*
X266329D01*
X266855Y196490D01*
X266303Y195938D01*
X265530Y194070D01*
X276470D01*
X275697Y195938D01*
X275145Y196490D01*
X275671Y197760D01*
X285310D01*
Y242840D01*
X235409D01*
Y246109D01*
X235760Y246460D01*
X236680D01*
X237030Y246460D01*
X252735D01*
X252760Y246460D01*
Y246460D01*
X253860Y246810D01*
X253860Y246810D01*
X266840D01*
Y261190D01*
X253860D01*
X253860Y261190D01*
X252760Y261540D01*
Y261540D01*
X252735Y261540D01*
X237030D01*
X236680Y261540D01*
X235760D01*
X235410Y261540D01*
X232664D01*
Y270480D01*
X234870D01*
Y273186D01*
X244315D01*
X246282Y273577D01*
X247949Y274691D01*
X253567Y280310D01*
X273880D01*
Y316590D01*
X246300D01*
Y287577D01*
X242187Y283464D01*
X239258D01*
X238772Y284637D01*
X241673Y287537D01*
X242566Y288874D01*
X242879Y290450D01*
Y331092D01*
X243909Y331780D01*
X246311D01*
X248531Y332700D01*
X250231Y334399D01*
X251150Y336619D01*
Y339021D01*
X250231Y341241D01*
X249574Y341898D01*
Y345870D01*
X252290D01*
Y360250D01*
X248905D01*
Y364170D01*
X250250D01*
Y374710D01*
X252790D01*
Y364170D01*
X257622D01*
X258020Y364091D01*
X263224D01*
X265891Y361423D01*
X265405Y360250D01*
X263470D01*
Y354330D01*
X268690D01*
Y357543D01*
X269960Y358540D01*
X270610Y358411D01*
X273480D01*
Y356040D01*
X287860D01*
Y358411D01*
X289640D01*
Y353870D01*
X289640Y353520D01*
Y352600D01*
X289640Y352250D01*
Y336520D01*
X304720D01*
Y340441D01*
X307200D01*
Y338250D01*
X320180D01*
Y352630D01*
X307200D01*
Y348679D01*
X304720D01*
Y352250D01*
X304720Y352600D01*
Y353520D01*
X304720Y353870D01*
Y355885D01*
X305930Y356030D01*
Y356030D01*
X318910D01*
Y370410D01*
X305930D01*
Y369745D01*
X304720Y369600D01*
Y369600D01*
X289640D01*
Y366649D01*
X287860D01*
Y369020D01*
X273480D01*
Y366906D01*
X272210Y366755D01*
X267843Y371123D01*
X266506Y372016D01*
X264930Y372329D01*
X262139D01*
Y374710D01*
X262060Y375108D01*
Y383170D01*
X266060D01*
Y388109D01*
X267330Y388635D01*
X267862Y388103D01*
X269730Y387330D01*
Y392800D01*
X271000D01*
Y394070D01*
X276470D01*
X275902Y395441D01*
X276534Y396620D01*
X276646Y396711D01*
X293818D01*
X295784Y397102D01*
X297451Y398216D01*
X308125Y408890D01*
X350520D01*
X351511Y409087D01*
X352099Y409480D01*
X352620D01*
Y410051D01*
X352913Y410489D01*
X353110Y411480D01*
Y421640D01*
X352913Y422631D01*
X352620Y423069D01*
Y423860D01*
X351769D01*
X351511Y424033D01*
X350520Y424230D01*
X337340D01*
X336470Y425100D01*
Y426020D01*
X336470Y426370D01*
Y429116D01*
X339060D01*
Y427260D01*
X352040D01*
Y441640D01*
X339060D01*
Y439394D01*
X336470D01*
Y442100D01*
X321390D01*
Y426370D01*
X321390Y426020D01*
Y425100D01*
X320336Y424230D01*
X303530D01*
X302539Y424033D01*
X302266Y423850D01*
X301420D01*
Y423054D01*
X301137Y422631D01*
X300940Y421640D01*
Y416240D01*
X295443Y410743D01*
X294270Y411229D01*
Y411370D01*
X284480D01*
Y412640D01*
X283210D01*
Y420930D01*
X276631D01*
X276560Y421080D01*
X277364Y422350D01*
X294270D01*
Y436840D01*
X294730Y437148D01*
Y441530D01*
X290530D01*
X291080Y440200D01*
X290376Y438930D01*
X274690D01*
Y438930D01*
X273420Y438387D01*
X272882Y438610D01*
X270678D01*
X268642Y437767D01*
X267083Y436208D01*
X266240Y434172D01*
Y431968D01*
X266554Y431211D01*
X265748Y430229D01*
X265148Y430349D01*
X263159D01*
Y430710D01*
X262768Y432677D01*
X262060Y433735D01*
Y441250D01*
X260144D01*
X259438Y442306D01*
X259534Y442539D01*
Y444743D01*
X258691Y446779D01*
X257133Y448337D01*
X255096Y449181D01*
X252892D01*
X252691Y449315D01*
Y449851D01*
X251847Y451888D01*
X250289Y453446D01*
X248253Y454289D01*
X246049D01*
X244013Y453446D01*
X242454Y451888D01*
X242313Y451545D01*
X241067Y451298D01*
X240628Y451737D01*
X238592Y452580D01*
X236679D01*
Y501880D01*
X236366Y503456D01*
X235473Y504793D01*
X231371Y508894D01*
X231472Y510304D01*
X232194Y510786D01*
X239188Y517781D01*
X240361Y517295D01*
Y500740D01*
X238940D01*
Y464460D01*
X266520D01*
Y487786D01*
X267693Y488272D01*
X267862Y488103D01*
X269730Y487330D01*
Y492800D01*
Y498270D01*
X267862Y497497D01*
X267693Y497328D01*
X266520Y497814D01*
Y500740D01*
X250639D01*
Y523320D01*
X253190D01*
X253540Y523320D01*
X254460D01*
X254810Y523320D01*
X270540D01*
Y525721D01*
X274180D01*
Y523670D01*
X287160D01*
Y538050D01*
X274180D01*
Y535999D01*
X270540D01*
Y538400D01*
X254810D01*
X254460Y538400D01*
X253540D01*
X253190Y538400D01*
X250639D01*
Y543290D01*
X290460D01*
Y541698D01*
X291303Y539662D01*
X291645Y539320D01*
X291119Y538050D01*
X290580D01*
Y532130D01*
X297070D01*
X303560D01*
Y538050D01*
X300881D01*
X300355Y539320D01*
X300697Y539662D01*
X301470Y541530D01*
X296000D01*
Y542800D01*
X294730D01*
Y548270D01*
X292862Y547497D01*
X292833Y547468D01*
X291660Y547954D01*
Y588370D01*
X276064D01*
X275578Y589543D01*
X275697Y589662D01*
X276470Y591530D01*
X265530D01*
X266303Y589662D01*
X266422Y589543D01*
X265936Y588370D01*
X231580D01*
Y571559D01*
X174827D01*
X172651Y572460D01*
X170249D01*
X168029Y571540D01*
X166329Y569841D01*
X165410Y567621D01*
Y565219D01*
X166329Y562999D01*
X168029Y561300D01*
X170249Y560380D01*
X172651D01*
X174827Y561281D01*
X231580D01*
Y543290D01*
X240361D01*
Y538400D01*
X237460D01*
Y530587D01*
X226432Y519559D01*
X226020D01*
X225524Y519460D01*
X215980D01*
Y503730D01*
X215980Y503380D01*
X215980D01*
Y502460D01*
X215980D01*
Y486380D01*
X218381D01*
Y483900D01*
X216330D01*
Y470920D01*
X228441D01*
Y467500D01*
X216330D01*
Y454520D01*
X220791D01*
Y442680D01*
X219641Y441539D01*
X219228Y441553D01*
X218558Y442573D01*
X218900Y443398D01*
Y445602D01*
X218057Y447638D01*
X216498Y449197D01*
X214462Y450040D01*
X212258D01*
X211289Y449639D01*
X207220D01*
Y457250D01*
X195580D01*
X183940D01*
Y449639D01*
X174848D01*
X170239Y454249D01*
Y485230D01*
X171357Y485876D01*
X173254Y487773D01*
X174596Y490097D01*
X175290Y492688D01*
Y495372D01*
X174596Y497963D01*
X173254Y500287D01*
X171357Y502184D01*
X169604Y503196D01*
Y522427D01*
X170087Y522706D01*
X171984Y524603D01*
X173326Y526927D01*
X174020Y529518D01*
Y532202D01*
X173326Y534793D01*
X171984Y537117D01*
X170087Y539014D01*
X167763Y540356D01*
X165172Y541050D01*
X162488D01*
X159897Y540356D01*
X157573Y539014D01*
X155676Y537117D01*
X154334Y534793D01*
X153640Y532202D01*
Y529518D01*
X154334Y526927D01*
X155676Y524603D01*
X157573Y522706D01*
X159326Y521694D01*
Y502463D01*
X158843Y502184D01*
X156946Y500287D01*
X155604Y497963D01*
X154910Y495372D01*
Y492688D01*
X155604Y490097D01*
X156946Y487773D01*
X158843Y485876D01*
X159961Y485230D01*
Y452120D01*
X160352Y450154D01*
X161466Y448486D01*
X167943Y442010D01*
X167417Y440740D01*
X102180D01*
X101652Y441530D01*
X97270D01*
Y437148D01*
X97740Y436833D01*
Y431886D01*
X96567Y431400D01*
X67979Y459988D01*
Y486912D01*
X69035Y487618D01*
X69730Y487330D01*
Y492800D01*
Y498270D01*
X69035Y497982D01*
X67979Y498688D01*
Y593090D01*
X72390D01*
Y599440D01*
Y605790D01*
X67979D01*
Y607060D01*
X80264D01*
Y619760D01*
X79049D01*
Y624205D01*
X78820Y625357D01*
Y628245D01*
X75328D01*
X74930Y628324D01*
X74532Y628245D01*
X71096D01*
X70944Y628474D01*
X69276Y629588D01*
X67979Y629846D01*
Y654669D01*
X91740Y678430D01*
X93081Y677974D01*
X93216Y676949D01*
X94177Y674629D01*
X95706Y672636D01*
X97699Y671107D01*
X100020Y670145D01*
X102510Y669818D01*
X109740D01*
Y679440D01*
Y689062D01*
X104169D01*
X103642Y690332D01*
X123611Y710301D01*
X129777D01*
X130677Y708129D01*
X132206Y706136D01*
X134199Y704607D01*
X136520Y703646D01*
X139010Y703318D01*
X141501Y703646D01*
X143821Y704607D01*
X145814Y706136D01*
X147343Y708129D01*
X148305Y710450D01*
X148632Y712940D01*
Y739940D01*
X148305Y742430D01*
X147343Y744751D01*
X145814Y746744D01*
X143821Y748273D01*
X141501Y749234D01*
X139010Y749562D01*
D02*
G37*
G36*
X472270Y698270D02*
Y694070D01*
X476470D01*
X475697Y695938D01*
X474138Y697497D01*
X472270Y698270D01*
D02*
G37*
G36*
X469730D02*
X467862Y697497D01*
X466303Y695938D01*
X465530Y694070D01*
X469730D01*
Y698270D01*
D02*
G37*
G36*
X422270D02*
Y694070D01*
X426470D01*
X425697Y695938D01*
X424138Y697497D01*
X422270Y698270D01*
D02*
G37*
G36*
X419730D02*
X417862Y697497D01*
X416303Y695938D01*
X415530Y694070D01*
X419730D01*
Y698270D01*
D02*
G37*
G36*
X372270D02*
Y694070D01*
X376470D01*
X375697Y695938D01*
X374138Y697497D01*
X372270Y698270D01*
D02*
G37*
G36*
X369730D02*
X367862Y697497D01*
X366303Y695938D01*
X365530Y694070D01*
X369730D01*
Y698270D01*
D02*
G37*
G36*
X322270D02*
Y694070D01*
X326470D01*
X325697Y695938D01*
X324138Y697497D01*
X322270Y698270D01*
D02*
G37*
G36*
X319730D02*
X317862Y697497D01*
X316303Y695938D01*
X315530Y694070D01*
X319730D01*
Y698270D01*
D02*
G37*
G36*
X272270D02*
Y694070D01*
X276470D01*
X275697Y695938D01*
X274138Y697497D01*
X272270Y698270D01*
D02*
G37*
G36*
X269730D02*
X267862Y697497D01*
X266303Y695938D01*
X265530Y694070D01*
X269730D01*
Y698270D01*
D02*
G37*
G36*
X222270D02*
Y694070D01*
X226470D01*
X225697Y695938D01*
X224138Y697497D01*
X222270Y698270D01*
D02*
G37*
G36*
X219730D02*
X217862Y697497D01*
X216303Y695938D01*
X215530Y694070D01*
X219730D01*
Y698270D01*
D02*
G37*
G36*
X172270D02*
Y694070D01*
X176470D01*
X175697Y695938D01*
X174138Y697497D01*
X172270Y698270D01*
D02*
G37*
G36*
X169730D02*
X167862Y697497D01*
X166303Y695938D01*
X165530Y694070D01*
X169730D01*
Y698270D01*
D02*
G37*
G36*
X122270D02*
Y694070D01*
X126470D01*
X125697Y695938D01*
X124138Y697497D01*
X122270Y698270D01*
D02*
G37*
G36*
X119730D02*
X117862Y697497D01*
X116303Y695938D01*
X115530Y694070D01*
X119730D01*
Y698270D01*
D02*
G37*
G36*
X72270D02*
Y694070D01*
X76470D01*
X75697Y695938D01*
X74138Y697497D01*
X72270Y698270D01*
D02*
G37*
G36*
X69730D02*
X67862Y697497D01*
X66303Y695938D01*
X65530Y694070D01*
X69730D01*
Y698270D01*
D02*
G37*
G36*
X476470Y691530D02*
X472270D01*
Y687330D01*
X474138Y688103D01*
X475697Y689662D01*
X476470Y691530D01*
D02*
G37*
G36*
X469730D02*
X465530D01*
X466303Y689662D01*
X467862Y688103D01*
X469730Y687330D01*
Y691530D01*
D02*
G37*
G36*
X426470D02*
X422270D01*
Y687330D01*
X424138Y688103D01*
X425697Y689662D01*
X426470Y691530D01*
D02*
G37*
G36*
X419730D02*
X415530D01*
X416303Y689662D01*
X417862Y688103D01*
X419730Y687330D01*
Y691530D01*
D02*
G37*
G36*
X376470D02*
X372270D01*
Y687330D01*
X374138Y688103D01*
X375697Y689662D01*
X376470Y691530D01*
D02*
G37*
G36*
X369730D02*
X365530D01*
X366303Y689662D01*
X367862Y688103D01*
X369730Y687330D01*
Y691530D01*
D02*
G37*
G36*
X326470D02*
X322270D01*
Y687330D01*
X324138Y688103D01*
X325697Y689662D01*
X326470Y691530D01*
D02*
G37*
G36*
X319730D02*
X315530D01*
X316303Y689662D01*
X317862Y688103D01*
X319730Y687330D01*
Y691530D01*
D02*
G37*
G36*
X276470D02*
X272270D01*
Y687330D01*
X274138Y688103D01*
X275697Y689662D01*
X276470Y691530D01*
D02*
G37*
G36*
X269730D02*
X265530D01*
X266303Y689662D01*
X267862Y688103D01*
X269730Y687330D01*
Y691530D01*
D02*
G37*
G36*
X226470D02*
X222270D01*
Y687330D01*
X224138Y688103D01*
X225697Y689662D01*
X226470Y691530D01*
D02*
G37*
G36*
X219730D02*
X215530D01*
X216303Y689662D01*
X217862Y688103D01*
X219730Y687330D01*
Y691530D01*
D02*
G37*
G36*
X176470D02*
X172270D01*
Y687330D01*
X174138Y688103D01*
X175697Y689662D01*
X176470Y691530D01*
D02*
G37*
G36*
X169730D02*
X165530D01*
X166303Y689662D01*
X167862Y688103D01*
X169730Y687330D01*
Y691530D01*
D02*
G37*
G36*
X76470D02*
X72270D01*
Y687330D01*
X74138Y688103D01*
X75697Y689662D01*
X76470Y691530D01*
D02*
G37*
G36*
X69730D02*
X65530D01*
X66303Y689662D01*
X67862Y688103D01*
X69730Y687330D01*
Y691530D01*
D02*
G37*
G36*
X126470D02*
X115530D01*
X116026Y690332D01*
X115244Y689062D01*
X112280D01*
Y680710D01*
X128965D01*
X128804Y681930D01*
X127843Y684251D01*
X126314Y686244D01*
X125047Y687216D01*
X124876Y688825D01*
X124894Y688859D01*
X125697Y689662D01*
X126470Y691530D01*
D02*
G37*
G36*
X128965Y678170D02*
X112280D01*
Y669818D01*
X119510D01*
X122000Y670145D01*
X124321Y671107D01*
X126314Y672636D01*
X127843Y674629D01*
X128804Y676949D01*
X128965Y678170D01*
D02*
G37*
G36*
X447270Y648270D02*
Y644070D01*
X451470D01*
X450697Y645938D01*
X449138Y647497D01*
X447270Y648270D01*
D02*
G37*
G36*
X444730D02*
X442862Y647497D01*
X441303Y645938D01*
X440530Y644070D01*
X444730D01*
Y648270D01*
D02*
G37*
G36*
X397270D02*
Y644070D01*
X401470D01*
X400697Y645938D01*
X399138Y647497D01*
X397270Y648270D01*
D02*
G37*
G36*
X394730D02*
X392862Y647497D01*
X391303Y645938D01*
X390530Y644070D01*
X394730D01*
Y648270D01*
D02*
G37*
G36*
X347270D02*
Y644070D01*
X351470D01*
X350697Y645938D01*
X349138Y647497D01*
X347270Y648270D01*
D02*
G37*
G36*
X344730D02*
X342862Y647497D01*
X341303Y645938D01*
X340530Y644070D01*
X344730D01*
Y648270D01*
D02*
G37*
G36*
X297270D02*
Y644070D01*
X301470D01*
X300697Y645938D01*
X299138Y647497D01*
X297270Y648270D01*
D02*
G37*
G36*
X197270D02*
Y644070D01*
X201470D01*
X200697Y645938D01*
X199138Y647497D01*
X197270Y648270D01*
D02*
G37*
G36*
X194730D02*
X192862Y647497D01*
X191303Y645938D01*
X190530Y644070D01*
X194730D01*
Y648270D01*
D02*
G37*
G36*
X147270D02*
Y644070D01*
X151470D01*
X150697Y645938D01*
X149138Y647497D01*
X147270Y648270D01*
D02*
G37*
G36*
X144730D02*
X142862Y647497D01*
X141303Y645938D01*
X140530Y644070D01*
X144730D01*
Y648270D01*
D02*
G37*
G36*
X97270D02*
Y644070D01*
X101470D01*
X100697Y645938D01*
X99138Y647497D01*
X97270Y648270D01*
D02*
G37*
G36*
X94730D02*
X92862Y647497D01*
X91303Y645938D01*
X90530Y644070D01*
X94730D01*
Y648270D01*
D02*
G37*
G36*
X47270D02*
Y644070D01*
X51470D01*
X50697Y645938D01*
X49138Y647497D01*
X47270Y648270D01*
D02*
G37*
G36*
X451470Y641530D02*
X447270D01*
Y637330D01*
X449138Y638103D01*
X450697Y639662D01*
X451470Y641530D01*
D02*
G37*
G36*
X444730D02*
X440530D01*
X441303Y639662D01*
X442862Y638103D01*
X444730Y637330D01*
Y641530D01*
D02*
G37*
G36*
X401470D02*
X397270D01*
Y637330D01*
X399138Y638103D01*
X400697Y639662D01*
X401470Y641530D01*
D02*
G37*
G36*
X394730D02*
X390530D01*
X391303Y639662D01*
X392862Y638103D01*
X394730Y637330D01*
Y641530D01*
D02*
G37*
G36*
X351470D02*
X347270D01*
Y637330D01*
X349138Y638103D01*
X350697Y639662D01*
X351470Y641530D01*
D02*
G37*
G36*
X344730D02*
X340530D01*
X341303Y639662D01*
X342862Y638103D01*
X344730Y637330D01*
Y641530D01*
D02*
G37*
G36*
X301470D02*
X297270D01*
Y637330D01*
X299138Y638103D01*
X300697Y639662D01*
X301470Y641530D01*
D02*
G37*
G36*
X201470D02*
X197270D01*
Y637330D01*
X199138Y638103D01*
X200697Y639662D01*
X201470Y641530D01*
D02*
G37*
G36*
X194730D02*
X190530D01*
X191303Y639662D01*
X192862Y638103D01*
X194730Y637330D01*
Y641530D01*
D02*
G37*
G36*
X151470D02*
X147270D01*
Y637330D01*
X149138Y638103D01*
X150697Y639662D01*
X151470Y641530D01*
D02*
G37*
G36*
X144730D02*
X140530D01*
X141303Y639662D01*
X142862Y638103D01*
X144730Y637330D01*
Y641530D01*
D02*
G37*
G36*
X101470D02*
X97270D01*
Y637330D01*
X99138Y638103D01*
X100697Y639662D01*
X101470Y641530D01*
D02*
G37*
G36*
X94730D02*
X90530D01*
X91303Y639662D01*
X92862Y638103D01*
X94730Y637330D01*
Y641530D01*
D02*
G37*
G36*
X51470D02*
X47270D01*
Y637330D01*
X49138Y638103D01*
X50697Y639662D01*
X51470Y641530D01*
D02*
G37*
G36*
X361870Y630830D02*
X355600D01*
Y624060D01*
X361870D01*
Y630830D01*
D02*
G37*
G36*
X353060D02*
X346790D01*
Y624060D01*
X353060D01*
Y630830D01*
D02*
G37*
G36*
X34362Y624870D02*
X34290D01*
Y615950D01*
X43210D01*
Y616022D01*
X42516Y618613D01*
X41174Y620937D01*
X39277Y622834D01*
X36953Y624176D01*
X34362Y624870D01*
D02*
G37*
G36*
X31750D02*
X31678D01*
X29087Y624176D01*
X26763Y622834D01*
X24866Y620937D01*
X23524Y618613D01*
X22830Y616022D01*
Y615950D01*
X31750D01*
Y624870D01*
D02*
G37*
G36*
X43210Y613410D02*
X34290D01*
Y604490D01*
X34362D01*
X36953Y605184D01*
X39277Y606526D01*
X41174Y608423D01*
X42516Y610747D01*
X43210Y613338D01*
Y613410D01*
D02*
G37*
G36*
X31750D02*
X22830D01*
Y613338D01*
X23524Y610747D01*
X24866Y608423D01*
X26763Y606526D01*
X29087Y605184D01*
X31678Y604490D01*
X31750D01*
Y613410D01*
D02*
G37*
G36*
X80264Y605790D02*
X74930D01*
Y600710D01*
X80264D01*
Y605790D01*
D02*
G37*
G36*
X472270Y598270D02*
Y594070D01*
X476470D01*
X475697Y595938D01*
X474138Y597497D01*
X472270Y598270D01*
D02*
G37*
G36*
X469730D02*
X467862Y597497D01*
X466303Y595938D01*
X465530Y594070D01*
X469730D01*
Y598270D01*
D02*
G37*
G36*
X272270D02*
Y594070D01*
X276470D01*
X275697Y595938D01*
X274138Y597497D01*
X272270Y598270D01*
D02*
G37*
G36*
X269730D02*
X267862Y597497D01*
X266303Y595938D01*
X265530Y594070D01*
X269730D01*
Y598270D01*
D02*
G37*
G36*
X222270D02*
Y594070D01*
X226470D01*
X225697Y595938D01*
X224138Y597497D01*
X222270Y598270D01*
D02*
G37*
G36*
X219730D02*
X217862Y597497D01*
X216303Y595938D01*
X215530Y594070D01*
X219730D01*
Y598270D01*
D02*
G37*
G36*
X172270D02*
Y594070D01*
X176470D01*
X175697Y595938D01*
X174138Y597497D01*
X172270Y598270D01*
D02*
G37*
G36*
X169730D02*
X167862Y597497D01*
X166303Y595938D01*
X165530Y594070D01*
X169730D01*
Y598270D01*
D02*
G37*
G36*
X122270D02*
Y594070D01*
X126470D01*
X125697Y595938D01*
X124138Y597497D01*
X122270Y598270D01*
D02*
G37*
G36*
X119730D02*
X117862Y597497D01*
X116303Y595938D01*
X115530Y594070D01*
X119730D01*
Y598270D01*
D02*
G37*
G36*
X80264Y598170D02*
X74930D01*
Y593090D01*
X80264D01*
Y598170D01*
D02*
G37*
G36*
X476470Y591530D02*
X472270D01*
Y587330D01*
X474138Y588103D01*
X475697Y589662D01*
X476470Y591530D01*
D02*
G37*
G36*
X469730D02*
X465530D01*
X466303Y589662D01*
X467862Y588103D01*
X469730Y587330D01*
Y591530D01*
D02*
G37*
G36*
X226470D02*
X222270D01*
Y587330D01*
X224138Y588103D01*
X225697Y589662D01*
X226470Y591530D01*
D02*
G37*
G36*
X219730D02*
X215530D01*
X216303Y589662D01*
X217862Y588103D01*
X219730Y587330D01*
Y591530D01*
D02*
G37*
G36*
X176470D02*
X172270D01*
Y587330D01*
X174138Y588103D01*
X175697Y589662D01*
X176470Y591530D01*
D02*
G37*
G36*
X169730D02*
X165530D01*
X166303Y589662D01*
X167862Y588103D01*
X169730Y587330D01*
Y591530D01*
D02*
G37*
G36*
X126470D02*
X122270D01*
Y587330D01*
X124138Y588103D01*
X125697Y589662D01*
X126470Y591530D01*
D02*
G37*
G36*
X119730D02*
X115530D01*
X116303Y589662D01*
X117862Y588103D01*
X119730Y587330D01*
Y591530D01*
D02*
G37*
G36*
X43210Y599470D02*
X22830D01*
Y579090D01*
X43210D01*
Y599470D01*
D02*
G37*
G36*
X220360Y804020D02*
X219060D01*
X218069Y803823D01*
X217229Y803261D01*
X216667Y802421D01*
X216470Y801430D01*
Y795813D01*
X216440Y795804D01*
X216383Y795772D01*
X216319Y795762D01*
X215966Y795629D01*
X215953Y795621D01*
X215796Y795579D01*
X215657Y795499D01*
X215502Y795431D01*
X215448Y795394D01*
X215385Y795378D01*
X215047Y795211D01*
X214996Y795171D01*
X214934Y795152D01*
X214605Y794968D01*
X214555Y794926D01*
X214494Y794903D01*
X214174Y794704D01*
X214127Y794660D01*
X214067Y794634D01*
X213758Y794419D01*
X213721Y794381D01*
X213664Y794348D01*
X213654Y794343D01*
X213650Y794340D01*
X213484Y794244D01*
X213293Y794054D01*
X213256Y794033D01*
X212969Y793789D01*
X212929Y793737D01*
X212874Y793703D01*
X212599Y793445D01*
X212562Y793392D01*
X212508Y793355D01*
X212247Y793083D01*
X212212Y793029D01*
X212160Y792989D01*
X211913Y792705D01*
X211880Y792648D01*
X211831Y792606D01*
X211775Y792535D01*
X211596Y792356D01*
X211465Y792129D01*
X211303Y791901D01*
X211276Y791841D01*
X211231Y791794D01*
X211028Y791477D01*
X211004Y791416D01*
X210962Y791367D01*
X210775Y791040D01*
X210754Y790979D01*
X210714Y790928D01*
X210543Y790591D01*
X210526Y790529D01*
X210488Y790476D01*
X210412Y790305D01*
X210261Y790044D01*
X210182Y789748D01*
X210148Y789662D01*
X210137Y789598D01*
X210105Y789542D01*
X209986Y789184D01*
X209978Y789120D01*
X209948Y789062D01*
X209847Y788699D01*
X209842Y788634D01*
X209816Y788575D01*
X209733Y788207D01*
X209731Y788142D01*
X209708Y788082D01*
X209656Y787784D01*
X209570Y787465D01*
Y787102D01*
X209565Y787082D01*
X209537Y786706D01*
X209545Y786641D01*
X209530Y786577D01*
X209521Y786193D01*
X209538Y786094D01*
X209524Y785994D01*
X209565Y785200D01*
X209570Y785182D01*
Y784795D01*
X209681Y784382D01*
X209718Y784145D01*
X209766Y784016D01*
X209775Y783880D01*
X209981Y783111D01*
X210041Y782988D01*
X210064Y782853D01*
X210151Y782629D01*
X210261Y782216D01*
X210455Y781881D01*
X210460Y781863D01*
X210821Y781154D01*
X210905Y781047D01*
X210956Y780919D01*
X211390Y780252D01*
X211402Y780239D01*
X211596Y779904D01*
X211898Y779602D01*
X212050Y779415D01*
X212155Y779327D01*
X212231Y779213D01*
X212793Y778651D01*
X212907Y778575D01*
X212995Y778469D01*
X213182Y778318D01*
X213484Y778016D01*
X213819Y777822D01*
X213832Y777810D01*
X214499Y777376D01*
X214571Y777348D01*
Y733545D01*
X213614Y732790D01*
X200406D01*
Y720090D01*
X206551D01*
X206651Y719940D01*
X206052Y718820D01*
X200406D01*
Y713740D01*
X207010D01*
Y712470D01*
X208280D01*
Y706120D01*
X213614D01*
Y712605D01*
X214787Y713091D01*
X227981Y699898D01*
Y692150D01*
X228210Y690998D01*
Y688110D01*
X231702D01*
X232100Y688031D01*
X232351Y688081D01*
X233621Y687743D01*
Y673370D01*
X231580D01*
Y628290D01*
X284393D01*
X315726Y596956D01*
X317393Y595842D01*
X319360Y595451D01*
X349191D01*
Y551960D01*
X336920D01*
Y535380D01*
X356500D01*
Y538531D01*
X362320D01*
Y535380D01*
X374864D01*
X375360Y535281D01*
X375766D01*
X375800Y535230D01*
X375121Y533960D01*
X373380D01*
Y525670D01*
Y517380D01*
X379261D01*
Y439560D01*
X372540D01*
Y426580D01*
X386920D01*
Y432293D01*
X388034Y433406D01*
X389148Y435074D01*
X389539Y437040D01*
Y440604D01*
X390809Y440856D01*
X391303Y439662D01*
X392862Y438103D01*
X394730Y437330D01*
Y442800D01*
Y448270D01*
X392862Y447497D01*
X391303Y445938D01*
X390809Y444744D01*
X389539Y444996D01*
Y535080D01*
X389148Y537047D01*
X388034Y538714D01*
X382694Y544054D01*
X381900Y544584D01*
Y551960D01*
X362320D01*
Y548809D01*
X360274D01*
X359469Y549790D01*
Y595451D01*
X420530D01*
Y578050D01*
X445610D01*
Y623130D01*
X436939D01*
Y643053D01*
X437840Y645229D01*
Y647631D01*
X436921Y649851D01*
X435221Y651551D01*
X433001Y652470D01*
X430599D01*
X428379Y651551D01*
X426679Y649851D01*
X425760Y647631D01*
Y645229D01*
X426661Y643053D01*
Y623130D01*
X420530D01*
Y605729D01*
X361870D01*
Y613480D01*
X361870Y613830D01*
Y614750D01*
X361870Y615100D01*
Y621520D01*
X354330D01*
X346790D01*
Y615100D01*
X346790Y614750D01*
Y613830D01*
X346790Y613480D01*
Y605729D01*
X321488D01*
X291660Y635557D01*
Y637646D01*
X292833Y638132D01*
X292862Y638103D01*
X294730Y637330D01*
Y642800D01*
Y648270D01*
X292862Y647497D01*
X292833Y647468D01*
X291660Y647954D01*
Y673370D01*
X243899D01*
Y704940D01*
X245017Y705586D01*
X246914Y707483D01*
X248256Y709807D01*
X248950Y712398D01*
Y715082D01*
X248256Y717673D01*
X246914Y719997D01*
X245017Y721894D01*
X242693Y723236D01*
X240102Y723930D01*
X237418D01*
X236171Y723596D01*
X224849Y734919D01*
Y777348D01*
X224921Y777376D01*
X225588Y777810D01*
X225601Y777822D01*
X225936Y778016D01*
X226238Y778318D01*
X226425Y778469D01*
X226513Y778575D01*
X226627Y778651D01*
X227189Y779213D01*
X227265Y779327D01*
X227370Y779415D01*
X227522Y779602D01*
X227824Y779904D01*
X228018Y780239D01*
X228030Y780252D01*
X228464Y780919D01*
X228514Y781047D01*
X228599Y781154D01*
X228960Y781863D01*
X228965Y781881D01*
X229159Y782216D01*
X229270Y782629D01*
X229356Y782853D01*
X229379Y782988D01*
X229440Y783111D01*
X229645Y783880D01*
X229654Y784016D01*
X229702Y784145D01*
X229739Y784383D01*
X229850Y784795D01*
Y785182D01*
X229855Y785200D01*
X229896Y785994D01*
X229882Y786094D01*
X229899Y786193D01*
X229890Y786577D01*
X229875Y786641D01*
X229883Y786706D01*
X229855Y787082D01*
X229850Y787102D01*
Y787465D01*
X229764Y787784D01*
X229712Y788082D01*
X229689Y788142D01*
X229687Y788207D01*
X229604Y788575D01*
X229578Y788634D01*
X229573Y788699D01*
X229471Y789062D01*
X229442Y789120D01*
X229434Y789184D01*
X229315Y789542D01*
X229283Y789598D01*
X229272Y789662D01*
X229238Y789748D01*
X229159Y790044D01*
X229008Y790305D01*
X228932Y790476D01*
X228894Y790529D01*
X228877Y790592D01*
X228706Y790928D01*
X228666Y790979D01*
X228645Y791040D01*
X228458Y791367D01*
X228416Y791416D01*
X228392Y791477D01*
X228189Y791794D01*
X228144Y791841D01*
X228118Y791901D01*
X227955Y792129D01*
X227824Y792356D01*
X227645Y792535D01*
X227589Y792606D01*
X227540Y792648D01*
X227507Y792705D01*
X227260Y792989D01*
X227208Y793029D01*
X227173Y793083D01*
X226912Y793355D01*
X226858Y793392D01*
X226821Y793445D01*
X226546Y793703D01*
X226491Y793737D01*
X226451Y793789D01*
X226164Y794033D01*
X226126Y794054D01*
X225936Y794244D01*
X225770Y794340D01*
X225765Y794343D01*
X225756Y794348D01*
X225699Y794381D01*
X225662Y794419D01*
X225352Y794634D01*
X225293Y794660D01*
X225245Y794704D01*
X224926Y794903D01*
X224865Y794926D01*
X224815Y794968D01*
X224486Y795152D01*
X224424Y795171D01*
X224373Y795211D01*
X224035Y795378D01*
X223972Y795394D01*
X223918Y795431D01*
X223763Y795499D01*
X223624Y795579D01*
X223467Y795621D01*
X223454Y795629D01*
X223101Y795762D01*
X223037Y795772D01*
X222980Y795804D01*
X222950Y795813D01*
Y801430D01*
X222753Y802421D01*
X222191Y803261D01*
X221351Y803823D01*
X220360Y804020D01*
D02*
G37*
G36*
X397270Y548270D02*
Y544070D01*
X401470D01*
X400697Y545938D01*
X399138Y547497D01*
X397270Y548270D01*
D02*
G37*
G36*
X394730D02*
X392862Y547497D01*
X391303Y545938D01*
X390530Y544070D01*
X394730D01*
Y548270D01*
D02*
G37*
G36*
X297270D02*
Y544070D01*
X301470D01*
X300697Y545938D01*
X299138Y547497D01*
X297270Y548270D01*
D02*
G37*
G36*
X197270D02*
Y544070D01*
X201470D01*
X200697Y545938D01*
X199138Y547497D01*
X197270Y548270D01*
D02*
G37*
G36*
X194730D02*
X192862Y547497D01*
X191303Y545938D01*
X190530Y544070D01*
X194730D01*
Y548270D01*
D02*
G37*
G36*
X97270D02*
Y544070D01*
X101470D01*
X100697Y545938D01*
X99138Y547497D01*
X97270Y548270D01*
D02*
G37*
G36*
X94730D02*
X92862Y547497D01*
X91303Y545938D01*
X90530Y544070D01*
X94730D01*
Y548270D01*
D02*
G37*
G36*
X47270D02*
Y544070D01*
X51470D01*
X50697Y545938D01*
X49138Y547497D01*
X47270Y548270D01*
D02*
G37*
G36*
X44730D02*
X42862Y547497D01*
X41303Y545938D01*
X40530Y544070D01*
X44730D01*
Y548270D01*
D02*
G37*
G36*
X401470Y541530D02*
X397270D01*
Y537330D01*
X399138Y538103D01*
X400697Y539662D01*
X401470Y541530D01*
D02*
G37*
G36*
X394730D02*
X390530D01*
X391303Y539662D01*
X392862Y538103D01*
X394730Y537330D01*
Y541530D01*
D02*
G37*
G36*
X201470D02*
X197270D01*
Y537330D01*
X199138Y538103D01*
X200697Y539662D01*
X201470Y541530D01*
D02*
G37*
G36*
X194730D02*
X190530D01*
X191303Y539662D01*
X192862Y538103D01*
X194730Y537330D01*
Y541530D01*
D02*
G37*
G36*
X101470D02*
X97270D01*
Y537330D01*
X99138Y538103D01*
X100697Y539662D01*
X101470Y541530D01*
D02*
G37*
G36*
X94730D02*
X90530D01*
X91303Y539662D01*
X92862Y538103D01*
X94730Y537330D01*
Y541530D01*
D02*
G37*
G36*
X51470D02*
X47270D01*
Y537330D01*
X49138Y538103D01*
X50697Y539662D01*
X51470Y541530D01*
D02*
G37*
G36*
X44730D02*
X40530D01*
X41303Y539662D01*
X42862Y538103D01*
X44730Y537330D01*
Y541530D01*
D02*
G37*
G36*
X123220Y541050D02*
X114300D01*
Y532130D01*
X123220D01*
Y541050D01*
D02*
G37*
G36*
X111760D02*
X102840D01*
Y532130D01*
X111760D01*
Y541050D01*
D02*
G37*
G36*
X445610Y552130D02*
X434340D01*
Y530860D01*
X445610D01*
Y552130D01*
D02*
G37*
G36*
X431800D02*
X420530D01*
Y530860D01*
X431800D01*
Y552130D01*
D02*
G37*
G36*
X356500Y533960D02*
X347980D01*
Y526940D01*
X356500D01*
Y533960D01*
D02*
G37*
G36*
X370840D02*
X362320D01*
Y526940D01*
X370840D01*
Y533960D01*
D02*
G37*
G36*
X345440D02*
X336920D01*
Y526940D01*
X345440D01*
Y533960D01*
D02*
G37*
G36*
X303560Y529590D02*
X298340D01*
Y523670D01*
X303560D01*
Y529590D01*
D02*
G37*
G36*
X295800D02*
X290580D01*
Y523670D01*
X295800D01*
Y529590D01*
D02*
G37*
G36*
X139532Y559260D02*
X137328D01*
X135292Y558417D01*
X133733Y556858D01*
X132890Y554822D01*
Y552618D01*
X133291Y551649D01*
Y539660D01*
X132173Y539014D01*
X130276Y537117D01*
X128934Y534793D01*
X128240Y532202D01*
Y529518D01*
X128934Y526927D01*
X130276Y524603D01*
X132173Y522706D01*
X134497Y521364D01*
X137088Y520670D01*
X139772D01*
X142363Y521364D01*
X144687Y522706D01*
X146584Y524603D01*
X147926Y526927D01*
X148620Y529518D01*
Y532202D01*
X147926Y534793D01*
X146584Y537117D01*
X144687Y539014D01*
X143569Y539660D01*
Y551649D01*
X143970Y552618D01*
Y554822D01*
X143127Y556858D01*
X141568Y558417D01*
X139532Y559260D01*
D02*
G37*
G36*
X123220Y529590D02*
X114300D01*
Y520670D01*
X123220D01*
Y529590D01*
D02*
G37*
G36*
X111760D02*
X102840D01*
Y520670D01*
X111760D01*
Y529590D01*
D02*
G37*
G36*
X370840Y524400D02*
X362320D01*
Y517380D01*
X370840D01*
Y524400D01*
D02*
G37*
G36*
X356500D02*
X347980D01*
Y517380D01*
X356500D01*
Y524400D01*
D02*
G37*
G36*
X345440D02*
X336920D01*
Y517380D01*
X345440D01*
Y524400D01*
D02*
G37*
G36*
X445610Y528320D02*
X434340D01*
Y507050D01*
X445610D01*
Y528320D01*
D02*
G37*
G36*
X431800D02*
X420530D01*
Y507050D01*
X431800D01*
Y528320D01*
D02*
G37*
G36*
X124490Y504220D02*
X115570D01*
Y495300D01*
X124490D01*
Y504220D01*
D02*
G37*
G36*
X113030D02*
X104110D01*
Y495300D01*
X113030D01*
Y504220D01*
D02*
G37*
G36*
X472270Y498270D02*
Y494070D01*
X476470D01*
X475697Y495938D01*
X474138Y497497D01*
X472270Y498270D01*
D02*
G37*
G36*
X469730D02*
X467862Y497497D01*
X466303Y495938D01*
X465530Y494070D01*
X469730D01*
Y498270D01*
D02*
G37*
G36*
X422270D02*
Y494070D01*
X426470D01*
X425697Y495938D01*
X424138Y497497D01*
X422270Y498270D01*
D02*
G37*
G36*
X419730D02*
X417862Y497497D01*
X416303Y495938D01*
X415530Y494070D01*
X419730D01*
Y498270D01*
D02*
G37*
G36*
X372270D02*
Y494070D01*
X376470D01*
X375697Y495938D01*
X374138Y497497D01*
X372270Y498270D01*
D02*
G37*
G36*
X369730D02*
X367862Y497497D01*
X366303Y495938D01*
X365530Y494070D01*
X369730D01*
Y498270D01*
D02*
G37*
G36*
X272270D02*
Y494070D01*
X276470D01*
X275697Y495938D01*
X274138Y497497D01*
X272270Y498270D01*
D02*
G37*
G36*
X72270D02*
Y494070D01*
X76470D01*
X75697Y495938D01*
X74138Y497497D01*
X72270Y498270D01*
D02*
G37*
G36*
X476470Y491530D02*
X472270D01*
Y487330D01*
X474138Y488103D01*
X475697Y489662D01*
X476470Y491530D01*
D02*
G37*
G36*
X469730D02*
X465530D01*
X466303Y489662D01*
X467862Y488103D01*
X469730Y487330D01*
Y491530D01*
D02*
G37*
G36*
X426470D02*
X422270D01*
Y487330D01*
X424138Y488103D01*
X425697Y489662D01*
X426470Y491530D01*
D02*
G37*
G36*
X419730D02*
X415530D01*
X416303Y489662D01*
X417862Y488103D01*
X419730Y487330D01*
Y491530D01*
D02*
G37*
G36*
X376470D02*
X372270D01*
Y487330D01*
X374138Y488103D01*
X375697Y489662D01*
X376470Y491530D01*
D02*
G37*
G36*
X369730D02*
X365530D01*
X366303Y489662D01*
X367862Y488103D01*
X369730Y487330D01*
Y491530D01*
D02*
G37*
G36*
X276470D02*
X272270D01*
Y487330D01*
X274138Y488103D01*
X275697Y489662D01*
X276470Y491530D01*
D02*
G37*
G36*
X76470D02*
X72270D01*
Y487330D01*
X74138Y488103D01*
X75697Y489662D01*
X76470Y491530D01*
D02*
G37*
G36*
X335620Y500740D02*
X323100D01*
Y483870D01*
X335620D01*
Y500740D01*
D02*
G37*
G36*
X320560D02*
X308040D01*
Y483870D01*
X320560D01*
Y500740D01*
D02*
G37*
G36*
X124490Y492760D02*
X115570D01*
Y483840D01*
X124490D01*
Y492760D01*
D02*
G37*
G36*
X113030D02*
X104110D01*
Y483840D01*
X113030D01*
Y492760D01*
D02*
G37*
G36*
X335620Y481330D02*
X323100D01*
Y464460D01*
X335620D01*
Y481330D01*
D02*
G37*
G36*
X320560D02*
X308040D01*
Y464460D01*
X320560D01*
Y481330D01*
D02*
G37*
G36*
X141042Y504220D02*
X138358D01*
X135767Y503526D01*
X133443Y502184D01*
X131546Y500287D01*
X130204Y497963D01*
X129510Y495372D01*
Y492688D01*
X130204Y490097D01*
X131546Y487773D01*
X133443Y485876D01*
X134561Y485230D01*
Y473981D01*
X134952Y472014D01*
X136066Y470347D01*
X139491Y466923D01*
X140083Y465492D01*
X141642Y463933D01*
X143678Y463090D01*
X145882D01*
X147918Y463933D01*
X149477Y465492D01*
X150320Y467528D01*
Y469732D01*
X149477Y471768D01*
X147918Y473327D01*
X147411Y473536D01*
X144839Y476109D01*
Y485230D01*
X145957Y485876D01*
X147854Y487773D01*
X149196Y490097D01*
X149890Y492688D01*
Y495372D01*
X149196Y497963D01*
X147854Y500287D01*
X145957Y502184D01*
X143633Y503526D01*
X141042Y504220D01*
D02*
G37*
G36*
X207220Y468260D02*
X196850D01*
Y459790D01*
X207220D01*
Y468260D01*
D02*
G37*
G36*
X194310D02*
X183940D01*
Y459790D01*
X194310D01*
Y468260D01*
D02*
G37*
G36*
X447270Y448270D02*
Y444070D01*
X451470D01*
X450697Y445938D01*
X449138Y447497D01*
X447270Y448270D01*
D02*
G37*
G36*
X444730D02*
X442862Y447497D01*
X441303Y445938D01*
X440530Y444070D01*
X444730D01*
Y448270D01*
D02*
G37*
G36*
X397270D02*
Y444070D01*
X401470D01*
X400697Y445938D01*
X399138Y447497D01*
X397270Y448270D01*
D02*
G37*
G36*
X297270D02*
Y444070D01*
X301470D01*
X300697Y445938D01*
X299138Y447497D01*
X297270Y448270D01*
D02*
G37*
G36*
X294730D02*
X292862Y447497D01*
X291303Y445938D01*
X290530Y444070D01*
X294730D01*
Y448270D01*
D02*
G37*
G36*
X97270D02*
Y444070D01*
X101470D01*
X100697Y445938D01*
X99138Y447497D01*
X97270Y448270D01*
D02*
G37*
G36*
X94730D02*
X92862Y447497D01*
X91303Y445938D01*
X90530Y444070D01*
X94730D01*
Y448270D01*
D02*
G37*
G36*
X47270D02*
Y444070D01*
X51470D01*
X50697Y445938D01*
X49138Y447497D01*
X47270Y448270D01*
D02*
G37*
G36*
X44730D02*
X42862Y447497D01*
X41303Y445938D01*
X40530Y444070D01*
X44730D01*
Y448270D01*
D02*
G37*
G36*
X451470Y441530D02*
X447270D01*
Y437330D01*
X449138Y438103D01*
X450697Y439662D01*
X451470Y441530D01*
D02*
G37*
G36*
X444730D02*
X440530D01*
X441303Y439662D01*
X442862Y438103D01*
X444730Y437330D01*
Y441530D01*
D02*
G37*
G36*
X401470D02*
X397270D01*
Y437330D01*
X399138Y438103D01*
X400697Y439662D01*
X401470Y441530D01*
D02*
G37*
G36*
X94730D02*
X90530D01*
X91303Y439662D01*
X92862Y438103D01*
X94730Y437330D01*
Y441530D01*
D02*
G37*
G36*
X51470D02*
X47270D01*
Y437330D01*
X49138Y438103D01*
X50697Y439662D01*
X51470Y441530D01*
D02*
G37*
G36*
X44730D02*
X40530D01*
X41303Y439662D01*
X42862Y438103D01*
X44730Y437330D01*
Y441530D01*
D02*
G37*
G36*
X368440Y441640D02*
X363220D01*
Y435720D01*
X368440D01*
Y441640D01*
D02*
G37*
G36*
X360680D02*
X355460D01*
Y435720D01*
X360680D01*
Y441640D01*
D02*
G37*
G36*
X315800Y440250D02*
X309880D01*
Y435030D01*
X315800D01*
Y440250D01*
D02*
G37*
G36*
X301470Y441530D02*
X297270D01*
Y437330D01*
X299138Y438103D01*
X300150Y439115D01*
X301420Y438589D01*
Y435030D01*
X307340D01*
Y440250D01*
X302315D01*
X301466Y441520D01*
X301470Y441530D01*
D02*
G37*
G36*
X315800Y432490D02*
X309880D01*
Y427270D01*
X315800D01*
Y432490D01*
D02*
G37*
G36*
X307340D02*
X301420D01*
Y427270D01*
X307340D01*
Y432490D01*
D02*
G37*
G36*
X368440Y433180D02*
X363220D01*
Y427260D01*
X368440D01*
Y433180D01*
D02*
G37*
G36*
X360680D02*
X355460D01*
Y427260D01*
X360680D01*
Y433180D01*
D02*
G37*
G36*
X294270Y420930D02*
X285750D01*
Y413910D01*
X294270D01*
Y420930D01*
D02*
G37*
G36*
X91180Y408780D02*
X69910D01*
Y397510D01*
X91180D01*
Y408780D01*
D02*
G37*
G36*
X67370D02*
X46100D01*
Y397510D01*
X67370D01*
Y408780D01*
D02*
G37*
G36*
X472270Y398270D02*
Y394070D01*
X476470D01*
X475697Y395938D01*
X474138Y397497D01*
X472270Y398270D01*
D02*
G37*
G36*
X469730D02*
X467862Y397497D01*
X466303Y395938D01*
X465530Y394070D01*
X469730D01*
Y398270D01*
D02*
G37*
G36*
X422270D02*
Y394070D01*
X426470D01*
X425697Y395938D01*
X424138Y397497D01*
X422270Y398270D01*
D02*
G37*
G36*
X419730D02*
X417862Y397497D01*
X416303Y395938D01*
X415530Y394070D01*
X419730D01*
Y398270D01*
D02*
G37*
G36*
X322270D02*
Y394070D01*
X326470D01*
X325697Y395938D01*
X324138Y397497D01*
X322270Y398270D01*
D02*
G37*
G36*
X319730D02*
X317862Y397497D01*
X316303Y395938D01*
X315530Y394070D01*
X319730D01*
Y398270D01*
D02*
G37*
G36*
X369020Y423860D02*
X356040D01*
Y409480D01*
X369020D01*
Y411531D01*
X372540D01*
Y410180D01*
X374591D01*
Y407258D01*
X367054Y399722D01*
X364879Y398820D01*
X363180Y397121D01*
X362260Y394901D01*
Y392499D01*
X363180Y390279D01*
X364879Y388579D01*
X367099Y387660D01*
X369501D01*
X371721Y388579D01*
X373420Y390279D01*
X374322Y392454D01*
X383364Y401496D01*
X384478Y403163D01*
X384869Y405130D01*
Y410180D01*
X386920D01*
Y423160D01*
X372540D01*
Y421809D01*
X369020D01*
Y423860D01*
D02*
G37*
G36*
X476470Y391530D02*
X472270D01*
Y387330D01*
X474138Y388103D01*
X475697Y389662D01*
X476470Y391530D01*
D02*
G37*
G36*
X469730D02*
X465530D01*
X466303Y389662D01*
X467862Y388103D01*
X469730Y387330D01*
Y391530D01*
D02*
G37*
G36*
X426470D02*
X422270D01*
Y387330D01*
X424138Y388103D01*
X425697Y389662D01*
X426470Y391530D01*
D02*
G37*
G36*
X419730D02*
X415530D01*
X416303Y389662D01*
X417862Y388103D01*
X419730Y387330D01*
Y391530D01*
D02*
G37*
G36*
X326470D02*
X322270D01*
Y387330D01*
X324138Y388103D01*
X325697Y389662D01*
X326470Y391530D01*
D02*
G37*
G36*
X319730D02*
X315530D01*
X316303Y389662D01*
X317862Y388103D01*
X319730Y387330D01*
Y391530D01*
D02*
G37*
G36*
X276470D02*
X272270D01*
Y387330D01*
X274138Y388103D01*
X275697Y389662D01*
X276470Y391530D01*
D02*
G37*
G36*
X91180Y394970D02*
X69910D01*
Y383700D01*
X91180D01*
Y394970D01*
D02*
G37*
G36*
X67370D02*
X46100D01*
Y383700D01*
X67370D01*
Y394970D01*
D02*
G37*
G36*
X260930Y360250D02*
X255710D01*
Y354330D01*
X260930D01*
Y360250D01*
D02*
G37*
G36*
X287860Y352620D02*
X281940D01*
Y347400D01*
X287860D01*
Y352620D01*
D02*
G37*
G36*
X279400D02*
X273480D01*
Y347400D01*
X279400D01*
Y352620D01*
D02*
G37*
G36*
X209760Y355790D02*
X199390D01*
Y347320D01*
X209760D01*
Y355790D01*
D02*
G37*
G36*
X196850D02*
X186480D01*
Y347320D01*
X196850D01*
Y355790D01*
D02*
G37*
G36*
X336580Y352630D02*
X331360D01*
Y346710D01*
X336580D01*
Y352630D01*
D02*
G37*
G36*
X328820D02*
X323600D01*
Y346710D01*
X328820D01*
Y352630D01*
D02*
G37*
G36*
X268690Y351790D02*
X263470D01*
Y345870D01*
X268690D01*
Y351790D01*
D02*
G37*
G36*
X260930D02*
X255710D01*
Y345870D01*
X260930D01*
Y351790D01*
D02*
G37*
G36*
X447270Y348270D02*
Y344070D01*
X451470D01*
X450697Y345938D01*
X449138Y347497D01*
X447270Y348270D01*
D02*
G37*
G36*
X444730D02*
X442862Y347497D01*
X441303Y345938D01*
X440530Y344070D01*
X444730D01*
Y348270D01*
D02*
G37*
G36*
X397270D02*
Y344070D01*
X401470D01*
X400697Y345938D01*
X399138Y347497D01*
X397270Y348270D01*
D02*
G37*
G36*
X394730D02*
X392862Y347497D01*
X391303Y345938D01*
X390530Y344070D01*
X394730D01*
Y348270D01*
D02*
G37*
G36*
X147270D02*
Y344070D01*
X151470D01*
X150697Y345938D01*
X149138Y347497D01*
X147270Y348270D01*
D02*
G37*
G36*
X144730D02*
X142862Y347497D01*
X141303Y345938D01*
X140530Y344070D01*
X144730D01*
Y348270D01*
D02*
G37*
G36*
X97270D02*
Y344070D01*
X101470D01*
X100697Y345938D01*
X99138Y347497D01*
X97270Y348270D01*
D02*
G37*
G36*
X94730D02*
X92862Y347497D01*
X91303Y345938D01*
X90530Y344070D01*
X94730D01*
Y348270D01*
D02*
G37*
G36*
X47270D02*
Y344070D01*
X51470D01*
X50697Y345938D01*
X49138Y347497D01*
X47270Y348270D01*
D02*
G37*
G36*
X44730D02*
X42862Y347497D01*
X41303Y345938D01*
X40530Y344070D01*
X44730D01*
Y348270D01*
D02*
G37*
G36*
X287860Y344860D02*
X281940D01*
Y339640D01*
X287860D01*
Y344860D01*
D02*
G37*
G36*
X279400D02*
X273480D01*
Y339640D01*
X279400D01*
Y344860D01*
D02*
G37*
G36*
X266700Y343832D02*
Y339090D01*
X271442D01*
X270550Y341241D01*
X268851Y342940D01*
X266700Y343832D01*
D02*
G37*
G36*
X264160D02*
X262009Y342940D01*
X260310Y341241D01*
X259418Y339090D01*
X264160D01*
Y343832D01*
D02*
G37*
G36*
X336580Y344170D02*
X331360D01*
Y338250D01*
X336580D01*
Y344170D01*
D02*
G37*
G36*
X328820D02*
X323600D01*
Y338250D01*
X328820D01*
Y344170D01*
D02*
G37*
G36*
X451470Y341530D02*
X447270D01*
Y337330D01*
X449138Y338103D01*
X450697Y339662D01*
X451470Y341530D01*
D02*
G37*
G36*
X444730D02*
X440530D01*
X441303Y339662D01*
X442862Y338103D01*
X444730Y337330D01*
Y341530D01*
D02*
G37*
G36*
X401470D02*
X397270D01*
Y337330D01*
X399138Y338103D01*
X400697Y339662D01*
X401470Y341530D01*
D02*
G37*
G36*
X394730D02*
X390530D01*
X391303Y339662D01*
X392862Y338103D01*
X394730Y337330D01*
Y341530D01*
D02*
G37*
G36*
X151470D02*
X147270D01*
Y337330D01*
X149138Y338103D01*
X150697Y339662D01*
X151470Y341530D01*
D02*
G37*
G36*
X144730D02*
X140530D01*
X141303Y339662D01*
X142862Y338103D01*
X144730Y337330D01*
Y341530D01*
D02*
G37*
G36*
X101470D02*
X97270D01*
Y337330D01*
X99138Y338103D01*
X100697Y339662D01*
X101470Y341530D01*
D02*
G37*
G36*
X94730D02*
X90530D01*
X91303Y339662D01*
X92862Y338103D01*
X94730Y337330D01*
Y341530D01*
D02*
G37*
G36*
X51470D02*
X47270D01*
Y337330D01*
X49138Y338103D01*
X50697Y339662D01*
X51470Y341530D01*
D02*
G37*
G36*
X44730D02*
X40530D01*
X41303Y339662D01*
X42862Y338103D01*
X44730Y337330D01*
Y341530D01*
D02*
G37*
G36*
X209760Y344780D02*
X199390D01*
Y336310D01*
X209760D01*
Y344780D01*
D02*
G37*
G36*
X196850D02*
X186480D01*
Y336310D01*
X196850D01*
Y344780D01*
D02*
G37*
G36*
X271442Y336550D02*
X266700D01*
Y331808D01*
X268851Y332700D01*
X270550Y334399D01*
X271442Y336550D01*
D02*
G37*
G36*
X264160D02*
X259418D01*
X260310Y334399D01*
X262009Y332700D01*
X264160Y331808D01*
Y336550D01*
D02*
G37*
G36*
X342980Y316590D02*
X330460D01*
Y299720D01*
X342980D01*
Y316590D01*
D02*
G37*
G36*
X327920D02*
X315400D01*
Y299720D01*
X327920D01*
Y316590D01*
D02*
G37*
G36*
X472270Y298270D02*
Y294070D01*
X476470D01*
X475697Y295938D01*
X474138Y297497D01*
X472270Y298270D01*
D02*
G37*
G36*
X469730D02*
X467862Y297497D01*
X466303Y295938D01*
X465530Y294070D01*
X469730D01*
Y298270D01*
D02*
G37*
G36*
X422270D02*
Y294070D01*
X426470D01*
X425697Y295938D01*
X424138Y297497D01*
X422270Y298270D01*
D02*
G37*
G36*
X419730D02*
X417862Y297497D01*
X416303Y295938D01*
X415530Y294070D01*
X419730D01*
Y298270D01*
D02*
G37*
G36*
X172270D02*
Y294070D01*
X176470D01*
X175697Y295938D01*
X174138Y297497D01*
X172270Y298270D01*
D02*
G37*
G36*
X169730D02*
X167862Y297497D01*
X166303Y295938D01*
X165530Y294070D01*
X169730D01*
Y298270D01*
D02*
G37*
G36*
X122270D02*
Y294070D01*
X126470D01*
X125697Y295938D01*
X124138Y297497D01*
X122270Y298270D01*
D02*
G37*
G36*
X119730D02*
X117862Y297497D01*
X116303Y295938D01*
X115530Y294070D01*
X119730D01*
Y298270D01*
D02*
G37*
G36*
X72270D02*
Y294070D01*
X76470D01*
X75697Y295938D01*
X74138Y297497D01*
X72270Y298270D01*
D02*
G37*
G36*
X69730D02*
X67862Y297497D01*
X66303Y295938D01*
X65530Y294070D01*
X69730D01*
Y298270D01*
D02*
G37*
G36*
X476470Y291530D02*
X472270D01*
Y287330D01*
X474138Y288103D01*
X475697Y289662D01*
X476470Y291530D01*
D02*
G37*
G36*
X469730D02*
X465530D01*
X466303Y289662D01*
X467862Y288103D01*
X469730Y287330D01*
Y291530D01*
D02*
G37*
G36*
X426470D02*
X422270D01*
Y287330D01*
X424138Y288103D01*
X425697Y289662D01*
X426470Y291530D01*
D02*
G37*
G36*
X419730D02*
X415530D01*
X416303Y289662D01*
X417862Y288103D01*
X419730Y287330D01*
Y291530D01*
D02*
G37*
G36*
X176470D02*
X172270D01*
Y287330D01*
X174138Y288103D01*
X175697Y289662D01*
X176470Y291530D01*
D02*
G37*
G36*
X169730D02*
X165530D01*
X166303Y289662D01*
X167862Y288103D01*
X169730Y287330D01*
Y291530D01*
D02*
G37*
G36*
X126470D02*
X122270D01*
Y287330D01*
X124138Y288103D01*
X125697Y289662D01*
X126470Y291530D01*
D02*
G37*
G36*
X119730D02*
X115530D01*
X116303Y289662D01*
X117862Y288103D01*
X119730Y287330D01*
Y291530D01*
D02*
G37*
G36*
X76470D02*
X72270D01*
Y287330D01*
X74138Y288103D01*
X75697Y289662D01*
X76470Y291530D01*
D02*
G37*
G36*
X69730D02*
X65530D01*
X66303Y289662D01*
X67862Y288103D01*
X69730Y287330D01*
Y291530D01*
D02*
G37*
G36*
X342980Y297180D02*
X330460D01*
Y280310D01*
X342980D01*
Y297180D01*
D02*
G37*
G36*
X327920D02*
X315400D01*
Y280310D01*
X327920D01*
Y297180D01*
D02*
G37*
G36*
X283240Y261190D02*
X278020D01*
Y255270D01*
X283240D01*
Y261190D01*
D02*
G37*
G36*
X275480D02*
X270260D01*
Y255270D01*
X275480D01*
Y261190D01*
D02*
G37*
G36*
X351790Y258590D02*
X343270D01*
Y251570D01*
X351790D01*
Y258590D01*
D02*
G37*
G36*
X339990Y257320D02*
X331470D01*
Y250300D01*
X339990D01*
Y257320D01*
D02*
G37*
G36*
X328930D02*
X320410D01*
Y250300D01*
X328930D01*
Y257320D01*
D02*
G37*
G36*
X283240Y252730D02*
X278020D01*
Y246810D01*
X283240D01*
Y252730D01*
D02*
G37*
G36*
X275480D02*
X270260D01*
Y246810D01*
X275480D01*
Y252730D01*
D02*
G37*
G36*
X412750Y261240D02*
X401480D01*
Y246951D01*
X400210Y246425D01*
X399138Y247497D01*
X397270Y248270D01*
Y242800D01*
Y237330D01*
X399138Y238103D01*
X400210Y239175D01*
X401480Y238649D01*
Y216160D01*
X412750D01*
Y238700D01*
Y261240D01*
D02*
G37*
G36*
X447270Y248270D02*
Y244070D01*
X451470D01*
X450697Y245938D01*
X449138Y247497D01*
X447270Y248270D01*
D02*
G37*
G36*
X444730D02*
X442862Y247497D01*
X441303Y245938D01*
X440530Y244070D01*
X444730D01*
Y248270D01*
D02*
G37*
G36*
X394730D02*
X392862Y247497D01*
X391303Y245938D01*
X390530Y244070D01*
X394730D01*
Y248270D01*
D02*
G37*
G36*
X297270D02*
Y244070D01*
X301470D01*
X300697Y245938D01*
X299138Y247497D01*
X297270Y248270D01*
D02*
G37*
G36*
X294730D02*
X292862Y247497D01*
X291303Y245938D01*
X290530Y244070D01*
X294730D01*
Y248270D01*
D02*
G37*
G36*
X197270D02*
Y244070D01*
X201470D01*
X200697Y245938D01*
X199138Y247497D01*
X197270Y248270D01*
D02*
G37*
G36*
X194730D02*
X192862Y247497D01*
X191303Y245938D01*
X190530Y244070D01*
X194730D01*
Y248270D01*
D02*
G37*
G36*
X147270D02*
Y244070D01*
X151470D01*
X150697Y245938D01*
X149138Y247497D01*
X147270Y248270D01*
D02*
G37*
G36*
X144730D02*
X142862Y247497D01*
X141303Y245938D01*
X140530Y244070D01*
X144730D01*
Y248270D01*
D02*
G37*
G36*
X97270D02*
Y244070D01*
X101470D01*
X100697Y245938D01*
X99138Y247497D01*
X97270Y248270D01*
D02*
G37*
G36*
X94730D02*
X92862Y247497D01*
X91303Y245938D01*
X90530Y244070D01*
X94730D01*
Y248270D01*
D02*
G37*
G36*
X47270D02*
Y244070D01*
X51470D01*
X50697Y245938D01*
X49138Y247497D01*
X47270Y248270D01*
D02*
G37*
G36*
X44730D02*
X42862Y247497D01*
X41303Y245938D01*
X40530Y244070D01*
X44730D01*
Y248270D01*
D02*
G37*
G36*
X351790Y249030D02*
X343270D01*
Y242010D01*
X351790D01*
Y249030D01*
D02*
G37*
G36*
X339990Y247760D02*
X331470D01*
Y240740D01*
X339990D01*
Y247760D01*
D02*
G37*
G36*
X328930D02*
X320410D01*
Y240740D01*
X328930D01*
Y247760D01*
D02*
G37*
G36*
X426560Y261240D02*
X415290D01*
Y239970D01*
X426560D01*
Y261240D01*
D02*
G37*
G36*
X451470Y241530D02*
X447270D01*
Y237330D01*
X449138Y238103D01*
X450697Y239662D01*
X451470Y241530D01*
D02*
G37*
G36*
X444730D02*
X440530D01*
X441303Y239662D01*
X442862Y238103D01*
X444730Y237330D01*
Y241530D01*
D02*
G37*
G36*
X394730D02*
X390530D01*
X391303Y239662D01*
X392862Y238103D01*
X394730Y237330D01*
Y241530D01*
D02*
G37*
G36*
X301470D02*
X297270D01*
Y237330D01*
X299138Y238103D01*
X300697Y239662D01*
X301470Y241530D01*
D02*
G37*
G36*
X294730D02*
X290530D01*
X291303Y239662D01*
X292862Y238103D01*
X294730Y237330D01*
Y241530D01*
D02*
G37*
G36*
X201470D02*
X197270D01*
Y237330D01*
X199138Y238103D01*
X200697Y239662D01*
X201470Y241530D01*
D02*
G37*
G36*
X194730D02*
X190530D01*
X191303Y239662D01*
X192862Y238103D01*
X194730Y237330D01*
Y241530D01*
D02*
G37*
G36*
X151470D02*
X147270D01*
Y237330D01*
X149138Y238103D01*
X150697Y239662D01*
X151470Y241530D01*
D02*
G37*
G36*
X144730D02*
X140530D01*
X141303Y239662D01*
X142862Y238103D01*
X144730Y237330D01*
Y241530D01*
D02*
G37*
G36*
X101470D02*
X97270D01*
Y237330D01*
X99138Y238103D01*
X100697Y239662D01*
X101470Y241530D01*
D02*
G37*
G36*
X94730D02*
X90530D01*
X91303Y239662D01*
X92862Y238103D01*
X94730Y237330D01*
Y241530D01*
D02*
G37*
G36*
X51470D02*
X47270D01*
Y237330D01*
X49138Y238103D01*
X50697Y239662D01*
X51470Y241530D01*
D02*
G37*
G36*
X44730D02*
X40530D01*
X41303Y239662D01*
X42862Y238103D01*
X44730Y237330D01*
Y241530D01*
D02*
G37*
G36*
X335310Y370410D02*
Y370410D01*
X335177Y370410D01*
X322330D01*
Y356030D01*
X335310D01*
Y356030D01*
X336410D01*
Y356030D01*
X338781D01*
Y353060D01*
X339094Y351484D01*
X339987Y350147D01*
X348497Y341637D01*
X349834Y340744D01*
X351410Y340431D01*
X354607D01*
X355989Y339049D01*
X358209Y338130D01*
X360611D01*
X361755Y338604D01*
X362811Y337898D01*
Y258590D01*
X354330D01*
Y250300D01*
Y242010D01*
X354675D01*
X355300Y240740D01*
X355185Y240590D01*
X343270D01*
Y236804D01*
X339990D01*
Y239320D01*
X320410D01*
Y222740D01*
X325061D01*
Y198233D01*
X323791Y197640D01*
X322270Y198270D01*
Y192800D01*
Y187330D01*
X323791Y187960D01*
X325061Y187367D01*
Y153729D01*
X285310D01*
Y157840D01*
X225230D01*
Y118296D01*
X225131Y117800D01*
Y96690D01*
X223861Y96011D01*
X223597Y96188D01*
X221630Y96579D01*
X209169D01*
X207202Y96188D01*
X205535Y95074D01*
X192377Y81915D01*
X186436D01*
Y69215D01*
X199644D01*
Y74648D01*
X211297Y86301D01*
X221630D01*
X223461Y86665D01*
X223722Y86608D01*
X224731Y85923D01*
Y76823D01*
X224667Y76806D01*
X222343Y75464D01*
X220446Y73567D01*
X219104Y71243D01*
X218410Y68652D01*
Y65968D01*
X219104Y63377D01*
X220446Y61053D01*
X222343Y59156D01*
X224667Y57814D01*
X227258Y57120D01*
X229942D01*
X232533Y57814D01*
X234857Y59156D01*
X236754Y61053D01*
X238096Y63377D01*
X238790Y65968D01*
Y68652D01*
X238096Y71243D01*
X236754Y73567D01*
X235009Y75312D01*
Y91130D01*
X235018Y91144D01*
X235409Y93110D01*
Y112760D01*
X285310D01*
Y143451D01*
X325200D01*
Y140120D01*
X325200Y139770D01*
Y138850D01*
X325200Y138500D01*
Y132080D01*
X332740D01*
X340280D01*
Y138500D01*
X340280Y138850D01*
Y139770D01*
X340280Y140120D01*
Y144172D01*
X341454Y144956D01*
X341558Y145061D01*
X406520D01*
X407016Y145160D01*
X408881D01*
Y125001D01*
X409272Y123035D01*
X410386Y121368D01*
X410520Y121234D01*
Y120719D01*
X411440Y118499D01*
X413139Y116799D01*
X415359Y115880D01*
X417761D01*
X419981Y116799D01*
X421680Y118499D01*
X422600Y120719D01*
Y123121D01*
X421680Y125341D01*
X419981Y127041D01*
X419159Y127381D01*
Y145160D01*
X426560D01*
Y190240D01*
X401480D01*
Y155339D01*
X340280D01*
Y155850D01*
X335339D01*
Y222740D01*
X339990D01*
Y226526D01*
X343270D01*
Y224010D01*
X362850D01*
Y232695D01*
X371584Y241429D01*
X372698Y243096D01*
X373089Y245062D01*
Y353870D01*
X372698Y355836D01*
X371584Y357504D01*
X365790Y363297D01*
Y370410D01*
X352810D01*
Y356030D01*
X358523D01*
X362811Y351741D01*
Y350442D01*
X361755Y349736D01*
X360611Y350210D01*
X358209D01*
X355989Y349291D01*
X355367Y348669D01*
X353116D01*
X347025Y354760D01*
X347034Y356030D01*
X349390D01*
Y370410D01*
X336543D01*
X336410Y370410D01*
Y370410D01*
X335310D01*
D02*
G37*
G36*
X426560Y237430D02*
X415290D01*
Y216160D01*
X426560D01*
Y237430D01*
D02*
G37*
G36*
X472270Y198270D02*
Y194070D01*
X476470D01*
X475697Y195938D01*
X474138Y197497D01*
X472270Y198270D01*
D02*
G37*
G36*
X469730D02*
X467862Y197497D01*
X466303Y195938D01*
X465530Y194070D01*
X469730D01*
Y198270D01*
D02*
G37*
G36*
X372270D02*
Y194070D01*
X376470D01*
X375697Y195938D01*
X374138Y197497D01*
X372270Y198270D01*
D02*
G37*
G36*
X369730D02*
X367862Y197497D01*
X366303Y195938D01*
X365530Y194070D01*
X369730D01*
Y198270D01*
D02*
G37*
G36*
X319730D02*
X317862Y197497D01*
X316303Y195938D01*
X315530Y194070D01*
X319730D01*
Y198270D01*
D02*
G37*
G36*
X219730D02*
X217862Y197497D01*
X216303Y195938D01*
X215530Y194070D01*
X219730D01*
Y198270D01*
D02*
G37*
G36*
X172270D02*
Y194070D01*
X176470D01*
X175697Y195938D01*
X174138Y197497D01*
X172270Y198270D01*
D02*
G37*
G36*
X169730D02*
X167862Y197497D01*
X166303Y195938D01*
X165530Y194070D01*
X169730D01*
Y198270D01*
D02*
G37*
G36*
X122270D02*
Y194070D01*
X126470D01*
X125697Y195938D01*
X124138Y197497D01*
X122270Y198270D01*
D02*
G37*
G36*
X119730D02*
X117862Y197497D01*
X116303Y195938D01*
X115530Y194070D01*
X119730D01*
Y198270D01*
D02*
G37*
G36*
X72270D02*
Y194070D01*
X76470D01*
X75697Y195938D01*
X74138Y197497D01*
X72270Y198270D01*
D02*
G37*
G36*
X69730D02*
X67862Y197497D01*
X66303Y195938D01*
X65530Y194070D01*
X69730D01*
Y198270D01*
D02*
G37*
G36*
X476470Y191530D02*
X472270D01*
Y187330D01*
X474138Y188103D01*
X475697Y189662D01*
X476470Y191530D01*
D02*
G37*
G36*
X469730D02*
X465530D01*
X466303Y189662D01*
X467862Y188103D01*
X469730Y187330D01*
Y191530D01*
D02*
G37*
G36*
X376470D02*
X372270D01*
Y187330D01*
X374138Y188103D01*
X375697Y189662D01*
X376470Y191530D01*
D02*
G37*
G36*
X369730D02*
X365530D01*
X366303Y189662D01*
X367862Y188103D01*
X369730Y187330D01*
Y191530D01*
D02*
G37*
G36*
X319730D02*
X315530D01*
X316303Y189662D01*
X317862Y188103D01*
X319730Y187330D01*
Y191530D01*
D02*
G37*
G36*
X276470D02*
X272270D01*
Y187330D01*
X274138Y188103D01*
X275697Y189662D01*
X276470Y191530D01*
D02*
G37*
G36*
X269730D02*
X265530D01*
X266303Y189662D01*
X267862Y188103D01*
X269730Y187330D01*
Y191530D01*
D02*
G37*
G36*
X226470D02*
X222270D01*
Y187330D01*
X224138Y188103D01*
X225697Y189662D01*
X226470Y191530D01*
D02*
G37*
G36*
X219730D02*
X215530D01*
X216303Y189662D01*
X217862Y188103D01*
X219730Y187330D01*
Y191530D01*
D02*
G37*
G36*
X176470D02*
X172270D01*
Y187330D01*
X174138Y188103D01*
X175697Y189662D01*
X176470Y191530D01*
D02*
G37*
G36*
X169730D02*
X165530D01*
X166303Y189662D01*
X167862Y188103D01*
X169730Y187330D01*
Y191530D01*
D02*
G37*
G36*
X126470D02*
X122270D01*
Y187330D01*
X124138Y188103D01*
X125697Y189662D01*
X126470Y191530D01*
D02*
G37*
G36*
X119730D02*
X115530D01*
X116303Y189662D01*
X117862Y188103D01*
X119730Y187330D01*
Y191530D01*
D02*
G37*
G36*
X76470D02*
X72270D01*
Y187330D01*
X74138Y188103D01*
X75697Y189662D01*
X76470Y191530D01*
D02*
G37*
G36*
X69730D02*
X65530D01*
X66303Y189662D01*
X67862Y188103D01*
X69730Y187330D01*
Y191530D01*
D02*
G37*
G36*
X447270Y148270D02*
Y144070D01*
X451470D01*
X450697Y145938D01*
X449138Y147497D01*
X447270Y148270D01*
D02*
G37*
G36*
X444730D02*
X442862Y147497D01*
X441303Y145938D01*
X440530Y144070D01*
X444730D01*
Y148270D01*
D02*
G37*
G36*
X197270D02*
Y144070D01*
X201470D01*
X200697Y145938D01*
X199138Y147497D01*
X197270Y148270D01*
D02*
G37*
G36*
X194730D02*
X192862Y147497D01*
X191303Y145938D01*
X190530Y144070D01*
X194730D01*
Y148270D01*
D02*
G37*
G36*
X147270D02*
Y144070D01*
X151470D01*
X150697Y145938D01*
X149138Y147497D01*
X147270Y148270D01*
D02*
G37*
G36*
X144730D02*
X142862Y147497D01*
X141303Y145938D01*
X140530Y144070D01*
X144730D01*
Y148270D01*
D02*
G37*
G36*
X97270D02*
Y144070D01*
X101470D01*
X100697Y145938D01*
X99138Y147497D01*
X97270Y148270D01*
D02*
G37*
G36*
X94730D02*
X92862Y147497D01*
X91303Y145938D01*
X90530Y144070D01*
X94730D01*
Y148270D01*
D02*
G37*
G36*
X47270D02*
Y144070D01*
X51470D01*
X50697Y145938D01*
X49138Y147497D01*
X47270Y148270D01*
D02*
G37*
G36*
X44730D02*
X42862Y147497D01*
X41303Y145938D01*
X40530Y144070D01*
X44730D01*
Y148270D01*
D02*
G37*
G36*
X451470Y141530D02*
X447270D01*
Y137330D01*
X449138Y138103D01*
X450697Y139662D01*
X451470Y141530D01*
D02*
G37*
G36*
X444730D02*
X440530D01*
X441303Y139662D01*
X442862Y138103D01*
X444730Y137330D01*
Y141530D01*
D02*
G37*
G36*
X201470D02*
X197270D01*
Y137330D01*
X199138Y138103D01*
X200697Y139662D01*
X201470Y141530D01*
D02*
G37*
G36*
X194730D02*
X190530D01*
X191303Y139662D01*
X192862Y138103D01*
X194730Y137330D01*
Y141530D01*
D02*
G37*
G36*
X151470D02*
X147270D01*
Y137330D01*
X149138Y138103D01*
X150697Y139662D01*
X151470Y141530D01*
D02*
G37*
G36*
X144730D02*
X140530D01*
X141303Y139662D01*
X142862Y138103D01*
X144730Y137330D01*
Y141530D01*
D02*
G37*
G36*
X101470D02*
X97270D01*
Y137330D01*
X99138Y138103D01*
X100697Y139662D01*
X101470Y141530D01*
D02*
G37*
G36*
X94730D02*
X90530D01*
X91303Y139662D01*
X92862Y138103D01*
X94730Y137330D01*
Y141530D01*
D02*
G37*
G36*
X51470D02*
X47270D01*
Y137330D01*
X49138Y138103D01*
X50697Y139662D01*
X51470Y141530D01*
D02*
G37*
G36*
X44730D02*
X40530D01*
X41303Y139662D01*
X42862Y138103D01*
X44730Y137330D01*
Y141530D01*
D02*
G37*
G36*
X340280Y129540D02*
X334010D01*
Y122770D01*
X340280D01*
Y129540D01*
D02*
G37*
G36*
X331470D02*
X325200D01*
Y122770D01*
X331470D01*
Y129540D01*
D02*
G37*
G36*
X472270Y98270D02*
Y94070D01*
X476470D01*
X475697Y95938D01*
X474138Y97497D01*
X472270Y98270D01*
D02*
G37*
G36*
X469730D02*
X467862Y97497D01*
X466303Y95938D01*
X465530Y94070D01*
X469730D01*
Y98270D01*
D02*
G37*
G36*
X422270D02*
Y94070D01*
X426470D01*
X425697Y95938D01*
X424138Y97497D01*
X422270Y98270D01*
D02*
G37*
G36*
X419730D02*
X417862Y97497D01*
X416303Y95938D01*
X415530Y94070D01*
X419730D01*
Y98270D01*
D02*
G37*
G36*
X372270D02*
Y94070D01*
X376470D01*
X375697Y95938D01*
X374138Y97497D01*
X372270Y98270D01*
D02*
G37*
G36*
X369730D02*
X367862Y97497D01*
X366303Y95938D01*
X365530Y94070D01*
X369730D01*
Y98270D01*
D02*
G37*
G36*
X322270D02*
Y94070D01*
X326470D01*
X325697Y95938D01*
X324138Y97497D01*
X322270Y98270D01*
D02*
G37*
G36*
X319730D02*
X317862Y97497D01*
X316303Y95938D01*
X315530Y94070D01*
X319730D01*
Y98270D01*
D02*
G37*
G36*
X272270D02*
Y94070D01*
X276470D01*
X275697Y95938D01*
X274138Y97497D01*
X272270Y98270D01*
D02*
G37*
G36*
X269730D02*
X267862Y97497D01*
X266303Y95938D01*
X265530Y94070D01*
X269730D01*
Y98270D01*
D02*
G37*
G36*
X172270D02*
Y94070D01*
X176470D01*
X175697Y95938D01*
X174138Y97497D01*
X172270Y98270D01*
D02*
G37*
G36*
X169730D02*
X167862Y97497D01*
X166303Y95938D01*
X165530Y94070D01*
X169730D01*
Y98270D01*
D02*
G37*
G36*
X122270D02*
Y94070D01*
X126470D01*
X125697Y95938D01*
X124138Y97497D01*
X122270Y98270D01*
D02*
G37*
G36*
X119730D02*
X117862Y97497D01*
X116303Y95938D01*
X115530Y94070D01*
X119730D01*
Y98270D01*
D02*
G37*
G36*
X72270D02*
Y94070D01*
X76470D01*
X75697Y95938D01*
X74138Y97497D01*
X72270Y98270D01*
D02*
G37*
G36*
X69730D02*
X67862Y97497D01*
X66303Y95938D01*
X65530Y94070D01*
X69730D01*
Y98270D01*
D02*
G37*
G36*
X476470Y91530D02*
X472270D01*
Y87330D01*
X474138Y88103D01*
X475697Y89662D01*
X476470Y91530D01*
D02*
G37*
G36*
X469730D02*
X465530D01*
X466303Y89662D01*
X467862Y88103D01*
X469730Y87330D01*
Y91530D01*
D02*
G37*
G36*
X426470D02*
X422270D01*
Y87330D01*
X424138Y88103D01*
X425697Y89662D01*
X426470Y91530D01*
D02*
G37*
G36*
X419730D02*
X415530D01*
X416303Y89662D01*
X417862Y88103D01*
X419730Y87330D01*
Y91530D01*
D02*
G37*
G36*
X376470D02*
X372270D01*
Y87330D01*
X374138Y88103D01*
X375697Y89662D01*
X376470Y91530D01*
D02*
G37*
G36*
X369730D02*
X365530D01*
X366303Y89662D01*
X367862Y88103D01*
X369730Y87330D01*
Y91530D01*
D02*
G37*
G36*
X326470D02*
X322270D01*
Y87330D01*
X324138Y88103D01*
X325697Y89662D01*
X326470Y91530D01*
D02*
G37*
G36*
X319730D02*
X315530D01*
X316303Y89662D01*
X317862Y88103D01*
X319730Y87330D01*
Y91530D01*
D02*
G37*
G36*
X276470D02*
X272270D01*
Y87330D01*
X274138Y88103D01*
X275697Y89662D01*
X276470Y91530D01*
D02*
G37*
G36*
X269730D02*
X265530D01*
X266303Y89662D01*
X267862Y88103D01*
X269730Y87330D01*
Y91530D01*
D02*
G37*
G36*
X176470D02*
X172270D01*
Y87330D01*
X174138Y88103D01*
X175697Y89662D01*
X176470Y91530D01*
D02*
G37*
G36*
X169730D02*
X165530D01*
X166303Y89662D01*
X167862Y88103D01*
X169730Y87330D01*
Y91530D01*
D02*
G37*
G36*
X126470D02*
X122270D01*
Y87330D01*
X124138Y88103D01*
X125697Y89662D01*
X126470Y91530D01*
D02*
G37*
G36*
X119730D02*
X115530D01*
X116303Y89662D01*
X117862Y88103D01*
X119730Y87330D01*
Y91530D01*
D02*
G37*
G36*
X76470D02*
X72270D01*
Y87330D01*
X74138Y88103D01*
X75697Y89662D01*
X76470Y91530D01*
D02*
G37*
G36*
X69730D02*
X65530D01*
X66303Y89662D01*
X67862Y88103D01*
X69730Y87330D01*
Y91530D01*
D02*
G37*
G36*
X255342Y77500D02*
X255270D01*
Y68580D01*
X264190D01*
Y68652D01*
X263496Y71243D01*
X262154Y73567D01*
X260257Y75464D01*
X257933Y76806D01*
X255342Y77500D01*
D02*
G37*
G36*
X252730D02*
X252658D01*
X250067Y76806D01*
X247743Y75464D01*
X245846Y73567D01*
X244504Y71243D01*
X243810Y68652D01*
Y68580D01*
X252730D01*
Y77500D01*
D02*
G37*
G36*
X199644Y67945D02*
X194310D01*
Y62865D01*
X199644D01*
Y67945D01*
D02*
G37*
G36*
X191770D02*
X186436D01*
Y62865D01*
X191770D01*
Y67945D01*
D02*
G37*
G36*
X289590Y77500D02*
X269210D01*
Y57120D01*
X289590D01*
Y77500D01*
D02*
G37*
G36*
X264190Y66040D02*
X255270D01*
Y57120D01*
X255342D01*
X257933Y57814D01*
X260257Y59156D01*
X262154Y61053D01*
X263496Y63377D01*
X264190Y65968D01*
Y66040D01*
D02*
G37*
G36*
X252730D02*
X243810D01*
Y65968D01*
X244504Y63377D01*
X245846Y61053D01*
X247743Y59156D01*
X250067Y57814D01*
X252658Y57120D01*
X252730D01*
Y66040D01*
D02*
G37*
G36*
X199644Y60325D02*
X194310D01*
Y55245D01*
X199644D01*
Y60325D01*
D02*
G37*
G36*
X191770D02*
X186436D01*
Y55245D01*
X191770D01*
Y60325D01*
D02*
G37*
G36*
X447270Y48270D02*
Y44070D01*
X451470D01*
X450697Y45938D01*
X449138Y47497D01*
X447270Y48270D01*
D02*
G37*
G36*
X444730D02*
X442862Y47497D01*
X441303Y45938D01*
X440530Y44070D01*
X444730D01*
Y48270D01*
D02*
G37*
G36*
X397270D02*
Y44070D01*
X401470D01*
X400697Y45938D01*
X399138Y47497D01*
X397270Y48270D01*
D02*
G37*
G36*
X394730D02*
X392862Y47497D01*
X391303Y45938D01*
X390530Y44070D01*
X394730D01*
Y48270D01*
D02*
G37*
G36*
X347270D02*
Y44070D01*
X351470D01*
X350697Y45938D01*
X349138Y47497D01*
X347270Y48270D01*
D02*
G37*
G36*
X344730D02*
X342862Y47497D01*
X341303Y45938D01*
X340530Y44070D01*
X344730D01*
Y48270D01*
D02*
G37*
G36*
X297270D02*
Y44070D01*
X301470D01*
X300697Y45938D01*
X299138Y47497D01*
X297270Y48270D01*
D02*
G37*
G36*
X294730D02*
X292862Y47497D01*
X291303Y45938D01*
X290530Y44070D01*
X294730D01*
Y48270D01*
D02*
G37*
G36*
X247270D02*
Y44070D01*
X251470D01*
X250697Y45938D01*
X249138Y47497D01*
X247270Y48270D01*
D02*
G37*
G36*
X244730D02*
X242862Y47497D01*
X241303Y45938D01*
X240530Y44070D01*
X244730D01*
Y48270D01*
D02*
G37*
G36*
X197270D02*
Y44070D01*
X201470D01*
X200697Y45938D01*
X199138Y47497D01*
X197270Y48270D01*
D02*
G37*
G36*
X194730D02*
X192862Y47497D01*
X191303Y45938D01*
X190530Y44070D01*
X194730D01*
Y48270D01*
D02*
G37*
G36*
X147270D02*
Y44070D01*
X151470D01*
X150697Y45938D01*
X149138Y47497D01*
X147270Y48270D01*
D02*
G37*
G36*
X144730D02*
X142862Y47497D01*
X141303Y45938D01*
X140530Y44070D01*
X144730D01*
Y48270D01*
D02*
G37*
G36*
X97270D02*
Y44070D01*
X101470D01*
X100697Y45938D01*
X99138Y47497D01*
X97270Y48270D01*
D02*
G37*
G36*
X94730D02*
X92862Y47497D01*
X91303Y45938D01*
X90530Y44070D01*
X94730D01*
Y48270D01*
D02*
G37*
G36*
X47270D02*
Y44070D01*
X51470D01*
X50697Y45938D01*
X49138Y47497D01*
X47270Y48270D01*
D02*
G37*
G36*
X44730D02*
X42862Y47497D01*
X41303Y45938D01*
X40530Y44070D01*
X44730D01*
Y48270D01*
D02*
G37*
G36*
X451470Y41530D02*
X447270D01*
Y37330D01*
X449138Y38103D01*
X450697Y39662D01*
X451470Y41530D01*
D02*
G37*
G36*
X444730D02*
X440530D01*
X441303Y39662D01*
X442862Y38103D01*
X444730Y37330D01*
Y41530D01*
D02*
G37*
G36*
X401470D02*
X397270D01*
Y37330D01*
X399138Y38103D01*
X400697Y39662D01*
X401470Y41530D01*
D02*
G37*
G36*
X394730D02*
X390530D01*
X391303Y39662D01*
X392862Y38103D01*
X394730Y37330D01*
Y41530D01*
D02*
G37*
G36*
X351470D02*
X347270D01*
Y37330D01*
X349138Y38103D01*
X350697Y39662D01*
X351470Y41530D01*
D02*
G37*
G36*
X344730D02*
X340530D01*
X341303Y39662D01*
X342862Y38103D01*
X344730Y37330D01*
Y41530D01*
D02*
G37*
G36*
X301470D02*
X297270D01*
Y37330D01*
X299138Y38103D01*
X300697Y39662D01*
X301470Y41530D01*
D02*
G37*
G36*
X294730D02*
X290530D01*
X291303Y39662D01*
X292862Y38103D01*
X294730Y37330D01*
Y41530D01*
D02*
G37*
G36*
X251470D02*
X247270D01*
Y37330D01*
X249138Y38103D01*
X250697Y39662D01*
X251470Y41530D01*
D02*
G37*
G36*
X244730D02*
X240530D01*
X241303Y39662D01*
X242862Y38103D01*
X244730Y37330D01*
Y41530D01*
D02*
G37*
G36*
X201470D02*
X197270D01*
Y37330D01*
X199138Y38103D01*
X200697Y39662D01*
X201470Y41530D01*
D02*
G37*
G36*
X194730D02*
X190530D01*
X191303Y39662D01*
X192862Y38103D01*
X194730Y37330D01*
Y41530D01*
D02*
G37*
G36*
X151470D02*
X147270D01*
Y37330D01*
X149138Y38103D01*
X150697Y39662D01*
X151470Y41530D01*
D02*
G37*
G36*
X144730D02*
X140530D01*
X141303Y39662D01*
X142862Y38103D01*
X144730Y37330D01*
Y41530D01*
D02*
G37*
G36*
X101470D02*
X97270D01*
Y37330D01*
X99138Y38103D01*
X100697Y39662D01*
X101470Y41530D01*
D02*
G37*
G36*
X94730D02*
X90530D01*
X91303Y39662D01*
X92862Y38103D01*
X94730Y37330D01*
Y41530D01*
D02*
G37*
G36*
X51470D02*
X47270D01*
Y37330D01*
X49138Y38103D01*
X50697Y39662D01*
X51470Y41530D01*
D02*
G37*
G36*
X44730D02*
X40530D01*
X41303Y39662D01*
X42862Y38103D01*
X44730Y37330D01*
Y41530D01*
D02*
G37*
%LPD*%
G36*
X321960Y793730D02*
X322327Y793689D01*
X322699Y793628D01*
X323067Y793549D01*
X323432Y793452D01*
X323791Y793337D01*
X324143Y793205D01*
X324489Y793055D01*
X324827Y792888D01*
X325157Y792705D01*
X325476Y792506D01*
X325786Y792291D01*
X326085Y792061D01*
X326372Y791817D01*
X326646Y791559D01*
X326908Y791287D01*
X327155Y791003D01*
X327388Y790707D01*
X327607Y790400D01*
X327810Y790082D01*
X327997Y789755D01*
X328167Y789419D01*
X328321Y789075D01*
X328458Y788724D01*
X328577Y788366D01*
X328678Y788003D01*
X328761Y787636D01*
X328826Y787264D01*
X328873Y786890D01*
X328901Y786515D01*
X328910Y786130D01*
X328868Y785336D01*
X328744Y784550D01*
X328538Y783782D01*
X328253Y783039D01*
X327892Y782330D01*
X327458Y781663D01*
X326958Y781045D01*
X326395Y780482D01*
X325777Y779982D01*
X325110Y779548D01*
X324401Y779187D01*
X323658Y778902D01*
X322890Y778696D01*
X322104Y778572D01*
X321310Y778530D01*
X320516Y778572D01*
X319730Y778696D01*
X318962Y778902D01*
X318219Y779187D01*
X317510Y779548D01*
X316843Y779982D01*
X316225Y780482D01*
X315662Y781045D01*
X315161Y781663D01*
X314728Y782330D01*
X314367Y783039D01*
X314082Y783782D01*
X313876Y784550D01*
X313752Y785336D01*
X313710Y786130D01*
X313719Y786515D01*
X313747Y786890D01*
X313794Y787264D01*
X313859Y787636D01*
X313942Y788003D01*
X314043Y788366D01*
X314162Y788724D01*
X314299Y789075D01*
X314452Y789419D01*
X314623Y789755D01*
X314810Y790082D01*
X315013Y790400D01*
X315231Y790707D01*
X315465Y791003D01*
X315712Y791287D01*
X315974Y791559D01*
X316248Y791817D01*
X316535Y792061D01*
X316834Y792291D01*
X317144Y792506D01*
X317463Y792705D01*
X317793Y792888D01*
X318131Y793055D01*
X318477Y793205D01*
X318829Y793337D01*
X319188Y793452D01*
X319553Y793549D01*
X319921Y793628D01*
X320293Y793689D01*
X320660Y793730D01*
Y801430D01*
X321960D01*
Y793730D01*
D02*
G37*
G36*
X296560D02*
X296927Y793689D01*
X297299Y793628D01*
X297667Y793549D01*
X298032Y793452D01*
X298391Y793337D01*
X298743Y793205D01*
X299089Y793055D01*
X299427Y792888D01*
X299757Y792705D01*
X300076Y792506D01*
X300386Y792291D01*
X300685Y792061D01*
X300972Y791817D01*
X301246Y791559D01*
X301508Y791287D01*
X301755Y791003D01*
X301989Y790707D01*
X302207Y790400D01*
X302410Y790082D01*
X302597Y789755D01*
X302768Y789419D01*
X302921Y789075D01*
X303058Y788724D01*
X303177Y788366D01*
X303278Y788003D01*
X303361Y787636D01*
X303426Y787264D01*
X303473Y786890D01*
X303501Y786515D01*
X303510Y786130D01*
X303468Y785336D01*
X303344Y784550D01*
X303138Y783782D01*
X302853Y783039D01*
X302492Y782330D01*
X302059Y781663D01*
X301558Y781045D01*
X300995Y780482D01*
X300377Y779982D01*
X299710Y779548D01*
X299001Y779187D01*
X298258Y778902D01*
X297490Y778696D01*
X296704Y778572D01*
X295910Y778530D01*
X295116Y778572D01*
X294330Y778696D01*
X293561Y778902D01*
X292819Y779187D01*
X292110Y779548D01*
X291443Y779982D01*
X290825Y780482D01*
X290262Y781045D01*
X289762Y781663D01*
X289328Y782330D01*
X288967Y783039D01*
X288682Y783782D01*
X288476Y784550D01*
X288352Y785336D01*
X288310Y786130D01*
X288319Y786515D01*
X288347Y786890D01*
X288394Y787264D01*
X288459Y787636D01*
X288542Y788003D01*
X288643Y788366D01*
X288762Y788724D01*
X288899Y789075D01*
X289053Y789419D01*
X289223Y789755D01*
X289410Y790082D01*
X289613Y790400D01*
X289832Y790707D01*
X290065Y791003D01*
X290312Y791287D01*
X290574Y791559D01*
X290848Y791817D01*
X291135Y792061D01*
X291434Y792291D01*
X291744Y792506D01*
X292064Y792705D01*
X292393Y792888D01*
X292731Y793055D01*
X293077Y793205D01*
X293430Y793337D01*
X293789Y793452D01*
X294153Y793549D01*
X294521Y793628D01*
X294893Y793689D01*
X295260Y793730D01*
Y801430D01*
X296560D01*
Y793730D01*
D02*
G37*
G36*
X271160D02*
X271527Y793689D01*
X271899Y793628D01*
X272267Y793549D01*
X272631Y793452D01*
X272990Y793337D01*
X273343Y793205D01*
X273689Y793055D01*
X274027Y792888D01*
X274356Y792705D01*
X274676Y792506D01*
X274986Y792291D01*
X275285Y792061D01*
X275572Y791817D01*
X275846Y791559D01*
X276108Y791287D01*
X276355Y791003D01*
X276588Y790707D01*
X276807Y790400D01*
X277010Y790082D01*
X277197Y789755D01*
X277367Y789419D01*
X277521Y789075D01*
X277658Y788724D01*
X277777Y788366D01*
X277878Y788003D01*
X277961Y787636D01*
X278026Y787264D01*
X278073Y786890D01*
X278101Y786515D01*
X278110Y786130D01*
X278068Y785336D01*
X277944Y784550D01*
X277738Y783782D01*
X277453Y783039D01*
X277092Y782330D01*
X276658Y781663D01*
X276158Y781045D01*
X275595Y780482D01*
X274977Y779982D01*
X274310Y779548D01*
X273601Y779187D01*
X272859Y778902D01*
X272090Y778696D01*
X271304Y778572D01*
X270510Y778530D01*
X269716Y778572D01*
X268930Y778696D01*
X268162Y778902D01*
X267419Y779187D01*
X266710Y779548D01*
X266043Y779982D01*
X265425Y780482D01*
X264862Y781045D01*
X264361Y781663D01*
X263928Y782330D01*
X263567Y783039D01*
X263282Y783782D01*
X263076Y784550D01*
X262952Y785336D01*
X262910Y786130D01*
X262919Y786515D01*
X262947Y786890D01*
X262994Y787264D01*
X263059Y787636D01*
X263142Y788003D01*
X263243Y788366D01*
X263362Y788724D01*
X263499Y789075D01*
X263652Y789419D01*
X263823Y789755D01*
X264010Y790082D01*
X264213Y790400D01*
X264431Y790707D01*
X264665Y791003D01*
X264912Y791287D01*
X265174Y791559D01*
X265448Y791817D01*
X265735Y792061D01*
X266034Y792291D01*
X266344Y792506D01*
X266663Y792705D01*
X266993Y792888D01*
X267331Y793055D01*
X267677Y793205D01*
X268029Y793337D01*
X268389Y793452D01*
X268753Y793549D01*
X269121Y793628D01*
X269493Y793689D01*
X269860Y793730D01*
Y801430D01*
X271160D01*
Y793730D01*
D02*
G37*
G36*
X245760D02*
X246127Y793689D01*
X246499Y793628D01*
X246867Y793549D01*
X247232Y793452D01*
X247591Y793337D01*
X247943Y793205D01*
X248289Y793055D01*
X248627Y792888D01*
X248957Y792705D01*
X249276Y792506D01*
X249586Y792291D01*
X249885Y792061D01*
X250172Y791817D01*
X250446Y791559D01*
X250708Y791287D01*
X250955Y791003D01*
X251189Y790707D01*
X251407Y790400D01*
X251610Y790082D01*
X251797Y789755D01*
X251968Y789419D01*
X252121Y789075D01*
X252258Y788724D01*
X252377Y788366D01*
X252478Y788003D01*
X252561Y787636D01*
X252626Y787264D01*
X252673Y786890D01*
X252701Y786515D01*
X252710Y786130D01*
X252668Y785336D01*
X252544Y784550D01*
X252338Y783782D01*
X252053Y783039D01*
X251692Y782330D01*
X251259Y781663D01*
X250758Y781045D01*
X250195Y780482D01*
X249577Y779982D01*
X248910Y779548D01*
X248201Y779187D01*
X247458Y778902D01*
X246690Y778696D01*
X245904Y778572D01*
X245110Y778530D01*
X244316Y778572D01*
X243530Y778696D01*
X242761Y778902D01*
X242019Y779187D01*
X241310Y779548D01*
X240643Y779982D01*
X240025Y780482D01*
X239462Y781045D01*
X238962Y781663D01*
X238528Y782330D01*
X238167Y783039D01*
X237882Y783782D01*
X237676Y784550D01*
X237552Y785336D01*
X237510Y786130D01*
X237519Y786515D01*
X237547Y786890D01*
X237594Y787264D01*
X237659Y787636D01*
X237742Y788003D01*
X237843Y788366D01*
X237962Y788724D01*
X238099Y789075D01*
X238253Y789419D01*
X238423Y789755D01*
X238610Y790082D01*
X238813Y790400D01*
X239032Y790707D01*
X239265Y791003D01*
X239512Y791287D01*
X239774Y791559D01*
X240048Y791817D01*
X240335Y792061D01*
X240634Y792291D01*
X240944Y792506D01*
X241264Y792705D01*
X241593Y792888D01*
X241931Y793055D01*
X242277Y793205D01*
X242630Y793337D01*
X242988Y793452D01*
X243353Y793549D01*
X243721Y793628D01*
X244093Y793689D01*
X244460Y793730D01*
Y801430D01*
X245760D01*
Y793730D01*
D02*
G37*
G36*
X194960D02*
X195327Y793689D01*
X195699Y793628D01*
X196067Y793549D01*
X196432Y793452D01*
X196791Y793337D01*
X197143Y793205D01*
X197489Y793055D01*
X197827Y792888D01*
X198157Y792705D01*
X198476Y792506D01*
X198786Y792291D01*
X199085Y792061D01*
X199372Y791817D01*
X199646Y791559D01*
X199908Y791287D01*
X200155Y791003D01*
X200389Y790707D01*
X200607Y790400D01*
X200810Y790082D01*
X200997Y789755D01*
X201168Y789419D01*
X201321Y789075D01*
X201458Y788724D01*
X201577Y788366D01*
X201678Y788003D01*
X201761Y787636D01*
X201826Y787264D01*
X201873Y786890D01*
X201901Y786515D01*
X201910Y786130D01*
X201868Y785336D01*
X201744Y784550D01*
X201538Y783782D01*
X201253Y783039D01*
X200892Y782330D01*
X200459Y781663D01*
X199958Y781045D01*
X199395Y780482D01*
X198777Y779982D01*
X198110Y779548D01*
X197401Y779187D01*
X196658Y778902D01*
X195890Y778696D01*
X195104Y778572D01*
X194310Y778530D01*
X193516Y778572D01*
X192730Y778696D01*
X191961Y778902D01*
X191219Y779187D01*
X190510Y779548D01*
X189843Y779982D01*
X189225Y780482D01*
X188662Y781045D01*
X188162Y781663D01*
X187728Y782330D01*
X187367Y783039D01*
X187082Y783782D01*
X186876Y784550D01*
X186752Y785336D01*
X186710Y786130D01*
X186719Y786515D01*
X186747Y786890D01*
X186794Y787264D01*
X186859Y787636D01*
X186942Y788003D01*
X187043Y788366D01*
X187162Y788724D01*
X187299Y789075D01*
X187453Y789419D01*
X187623Y789755D01*
X187810Y790082D01*
X188013Y790400D01*
X188232Y790707D01*
X188465Y791003D01*
X188712Y791287D01*
X188974Y791559D01*
X189248Y791817D01*
X189535Y792061D01*
X189834Y792291D01*
X190144Y792506D01*
X190464Y792705D01*
X190793Y792888D01*
X191131Y793055D01*
X191477Y793205D01*
X191829Y793337D01*
X192188Y793452D01*
X192553Y793549D01*
X192921Y793628D01*
X193293Y793689D01*
X193660Y793730D01*
Y801430D01*
X194960D01*
Y793730D01*
D02*
G37*
G36*
X350520Y411480D02*
X303530D01*
Y421640D01*
X350520D01*
Y411480D01*
D02*
G37*
G36*
X214980Y422250D02*
X210980D01*
Y403980D01*
X238520D01*
Y401440D01*
X210980D01*
Y383170D01*
X214980D01*
Y377909D01*
X209760D01*
Y382510D01*
X208330D01*
Y426661D01*
X214980D01*
Y422250D01*
D02*
G37*
G36*
X205740Y364490D02*
X100330D01*
Y438150D01*
X205740D01*
Y364490D01*
D02*
G37*
G36*
X220360Y793730D02*
X220727Y793689D01*
X221099Y793628D01*
X221467Y793549D01*
X221831Y793452D01*
X222190Y793337D01*
X222543Y793205D01*
X222889Y793055D01*
X223227Y792888D01*
X223556Y792705D01*
X223876Y792506D01*
X224186Y792291D01*
X224485Y792061D01*
X224772Y791817D01*
X225046Y791559D01*
X225308Y791287D01*
X225555Y791003D01*
X225788Y790707D01*
X226007Y790400D01*
X226210Y790082D01*
X226397Y789755D01*
X226567Y789419D01*
X226721Y789075D01*
X226858Y788724D01*
X226977Y788366D01*
X227078Y788003D01*
X227161Y787636D01*
X227226Y787264D01*
X227273Y786890D01*
X227301Y786515D01*
X227310Y786130D01*
X227268Y785336D01*
X227144Y784550D01*
X226938Y783782D01*
X226653Y783039D01*
X226292Y782330D01*
X225858Y781663D01*
X225358Y781045D01*
X224795Y780482D01*
X224177Y779982D01*
X223510Y779548D01*
X222801Y779187D01*
X222059Y778902D01*
X221290Y778696D01*
X220504Y778572D01*
X219710Y778530D01*
X218916Y778572D01*
X218130Y778696D01*
X217362Y778902D01*
X216619Y779187D01*
X215910Y779548D01*
X215243Y779982D01*
X214625Y780482D01*
X214062Y781045D01*
X213561Y781663D01*
X213128Y782330D01*
X212767Y783039D01*
X212482Y783782D01*
X212276Y784550D01*
X212152Y785336D01*
X212110Y786130D01*
X212119Y786515D01*
X212147Y786890D01*
X212194Y787264D01*
X212259Y787636D01*
X212342Y788003D01*
X212443Y788366D01*
X212562Y788724D01*
X212699Y789075D01*
X212852Y789419D01*
X213023Y789755D01*
X213210Y790082D01*
X213413Y790400D01*
X213631Y790707D01*
X213865Y791003D01*
X214112Y791287D01*
X214374Y791559D01*
X214648Y791817D01*
X214935Y792061D01*
X215234Y792291D01*
X215544Y792506D01*
X215863Y792705D01*
X216193Y792888D01*
X216531Y793055D01*
X216877Y793205D01*
X217229Y793337D01*
X217589Y793452D01*
X217953Y793549D01*
X218321Y793628D01*
X218693Y793689D01*
X219060Y793730D01*
Y801430D01*
X220360D01*
Y793730D01*
D02*
G37*
D13*
X245020Y353840D02*
Y374710D01*
Y353840D02*
X245800Y353060D01*
X227330Y295520D02*
Y313110D01*
X218790Y372770D02*
X219020Y373000D01*
Y374710D01*
D14*
X252730Y482600D02*
D03*
X321830D02*
D03*
X329190Y298450D02*
D03*
X260090D02*
D03*
D15*
X221630Y91440D02*
D03*
X227330D02*
D03*
X237800Y692150D02*
D03*
X232100D02*
D03*
X74930Y624205D02*
D03*
X69230D02*
D03*
D16*
X433070Y600590D02*
D03*
Y529590D02*
D03*
X414020Y238700D02*
D03*
Y167700D02*
D03*
D17*
X284480Y430640D02*
D03*
Y412640D02*
D03*
X372110Y543670D02*
D03*
Y525670D02*
D03*
X346710Y543670D02*
D03*
Y525670D02*
D03*
X330200Y231030D02*
D03*
Y249030D02*
D03*
X353060Y232300D02*
D03*
Y250300D02*
D03*
D18*
X261620Y565830D02*
D03*
Y650830D02*
D03*
X255270Y135300D02*
D03*
Y220300D02*
D03*
D19*
X207010Y726440D02*
D03*
Y712470D02*
D03*
X193040Y75565D02*
D03*
Y61595D02*
D03*
X73660Y613410D02*
D03*
Y599440D02*
D03*
D20*
X280670Y530860D02*
D03*
X297070D02*
D03*
X359300Y363220D02*
D03*
X342900D02*
D03*
X345550Y434450D02*
D03*
X361950D02*
D03*
X346130Y416670D02*
D03*
X362530D02*
D03*
X313690Y345440D02*
D03*
X330090D02*
D03*
X328820Y363220D02*
D03*
X312420D02*
D03*
X245800Y353060D02*
D03*
X262200D02*
D03*
X260350Y254000D02*
D03*
X276750D02*
D03*
D21*
X245500Y530860D02*
D03*
X262500D02*
D03*
X227720Y254000D02*
D03*
X244720D02*
D03*
D23*
X227330Y278520D02*
D03*
Y295520D02*
D03*
X332740Y130810D02*
D03*
Y147810D02*
D03*
X328930Y417060D02*
D03*
Y434060D02*
D03*
X223520Y511420D02*
D03*
Y494420D02*
D03*
X297180Y361560D02*
D03*
Y344560D02*
D03*
X354330Y622790D02*
D03*
Y605790D02*
D03*
D24*
X379730Y416670D02*
D03*
Y433070D02*
D03*
X308610Y417360D02*
D03*
Y433760D02*
D03*
X223520Y477410D02*
D03*
Y461010D02*
D03*
X280670Y362530D02*
D03*
Y346130D02*
D03*
X227330Y329510D02*
D03*
Y313110D02*
D03*
D25*
X198120Y346050D02*
D03*
Y372770D02*
D03*
X195580Y431800D02*
D03*
Y458520D02*
D03*
D26*
X68640Y396240D02*
D03*
X139640D02*
D03*
D50*
X167640Y372110D02*
D03*
X416560Y121920D02*
D03*
X368300Y393700D02*
D03*
X171450Y566420D02*
D03*
X431800Y646430D02*
D03*
X265430Y337820D02*
D03*
X245110D02*
D03*
X359410Y344170D02*
D03*
X186690Y278130D02*
D03*
D51*
X225520Y430710D02*
D03*
X232020D02*
D03*
X238520D02*
D03*
X245020D02*
D03*
X251520D02*
D03*
X258020D02*
D03*
Y374710D02*
D03*
X245020D02*
D03*
X232020D02*
D03*
X225520D02*
D03*
X219020D02*
D03*
Y430710D02*
D03*
X238520Y374710D02*
D03*
X251520D02*
D03*
D52*
X238520Y402710D02*
D03*
D53*
X238760Y668330D02*
Y713740D01*
X219710Y732790D02*
X238760Y713740D01*
X219710Y732790D02*
Y786130D01*
X356310Y235550D02*
X358438D01*
X367950Y245062D01*
X353060Y232300D02*
X356310Y235550D01*
X367950Y245062D02*
Y353870D01*
X359300Y362520D02*
X367950Y353870D01*
X359300Y362520D02*
Y363220D01*
X62840Y457860D02*
Y624840D01*
Y457860D02*
X116960Y403740D01*
X132140D02*
X139640Y396240D01*
X116960Y403740D02*
X132140D01*
X195580Y403555D02*
Y431800D01*
Y375310D02*
Y403555D01*
X139640Y396240D02*
X146955Y403555D01*
X195580D01*
Y375310D02*
X198120Y372770D01*
X247151Y448479D02*
Y448749D01*
X172720Y444500D02*
X213360D01*
X165100Y452120D02*
X172720Y444500D01*
X165100Y452120D02*
Y494030D01*
X271780Y433070D02*
X271971Y432879D01*
X282241D02*
X284480Y430640D01*
X271971Y432879D02*
X282241D01*
X265148Y425210D02*
X270145Y420213D01*
X258020Y426210D02*
Y430710D01*
X259020Y425210D02*
X265148D01*
X258020Y426210D02*
X259020Y425210D01*
X138430Y530860D02*
Y553720D01*
X164465Y494665D02*
Y530225D01*
Y494665D02*
X165100Y494030D01*
X163830Y530860D02*
X164465Y530225D01*
X139700Y473981D02*
Y494030D01*
Y473981D02*
X144780Y468901D01*
Y468630D02*
Y468901D01*
X138430Y530860D02*
X139610Y532040D01*
X307910Y417360D02*
X308610D01*
X306460Y415910D02*
X307910Y417360D01*
X293818Y401850D02*
X306460Y414492D01*
Y415910D01*
X275142Y401850D02*
X293818D01*
X270145Y406847D02*
Y420213D01*
Y406847D02*
X275142Y401850D01*
X171450Y566420D02*
X261030D01*
X261620Y565830D01*
X372110Y543670D02*
X375360Y540420D01*
X379060D01*
X384400Y535080D01*
Y437040D02*
Y535080D01*
X380430Y433070D02*
X384400Y437040D01*
X379730Y433070D02*
X380430D01*
X345355Y434255D02*
X345550Y434450D01*
X328930Y434060D02*
X329125Y434255D01*
X345355D01*
X379730Y405130D02*
Y416670D01*
X368300Y393700D02*
X379730Y405130D01*
X362530Y416670D02*
X379730D01*
X328930Y417060D02*
X329125Y416865D01*
X345935D01*
X346130Y416670D01*
X328780Y417210D02*
X328930Y417060D01*
X308610Y417360D02*
X308760Y417210D01*
X328780D01*
X354330Y600590D02*
Y605790D01*
Y549790D02*
Y600590D01*
X433070D01*
X319360D02*
X354330D01*
X261620Y650830D02*
X269120D01*
X319360Y600590D01*
X431800Y601860D02*
X433070Y600590D01*
X431800Y601860D02*
Y646430D01*
X348210Y543670D02*
X372110D01*
X346710D02*
X348210D01*
X354330Y549790D01*
X245500Y549710D02*
X261620Y565830D01*
X245500Y530860D02*
Y549710D01*
X262500Y530860D02*
X280670D01*
X245500Y489830D02*
Y530860D01*
Y489830D02*
X252730Y482600D01*
X228560Y514420D02*
X245000Y530860D01*
X226020Y514420D02*
X228560D01*
X223520Y511920D02*
X226020Y514420D01*
X223520Y511420D02*
Y511920D01*
X245000Y530860D02*
X245500D01*
X223520Y477410D02*
Y494420D01*
X256260Y650830D02*
X261620D01*
X238760Y668330D02*
X256260Y650830D01*
X62840Y624840D02*
X67310D01*
X48260D02*
X62840D01*
Y656797D01*
X121483Y715440D02*
X134853D01*
X139010Y719597D02*
Y726440D01*
X134853Y715440D02*
X139010Y719597D01*
X62840Y656797D02*
X121483Y715440D01*
X33020Y640080D02*
X48260Y624840D01*
X332740Y148590D02*
X337820D01*
X268560D02*
X332460D01*
X332740Y148310D01*
X330200Y150850D02*
X332460Y148590D01*
X332740Y147810D02*
Y148310D01*
X330200Y150850D02*
Y231030D01*
X352425Y231665D02*
X353060Y232300D01*
X330200Y231030D02*
X330835Y231665D01*
X352425D01*
X414020Y157700D02*
Y167700D01*
Y125001D02*
Y157700D01*
Y125001D02*
X416560Y122461D01*
Y121920D02*
Y122461D01*
X337820Y148590D02*
X339430Y150200D01*
X406520D02*
X414020Y157700D01*
X339430Y150200D02*
X406520D01*
X255270Y135300D02*
X268560Y148590D01*
X193294Y75565D02*
X209169Y91440D01*
X221630D01*
X193040Y75565D02*
X193294D01*
X229870Y68580D02*
Y92710D01*
X228600Y67310D02*
X229870Y68580D01*
Y92710D02*
X230270Y93110D01*
Y117800D02*
X247770Y135300D01*
X230270Y93110D02*
Y117800D01*
X247770Y135300D02*
X255270D01*
X244720Y254000D02*
X260350D01*
X230270Y237800D02*
X247770Y220300D01*
X255270D01*
X227720Y254000D02*
X227770D01*
X230270Y251500D01*
Y237800D02*
Y251500D01*
X227525Y278325D02*
X244315D01*
X186885D02*
X227330D01*
Y278520D02*
X227525Y278325D01*
Y254195D02*
Y278325D01*
Y254195D02*
X227720Y254000D01*
X260090Y294100D02*
Y298450D01*
X244315Y278325D02*
X260090Y294100D01*
X186690Y278130D02*
X186885Y278325D01*
X218020Y431800D02*
X219020Y430800D01*
Y430710D02*
Y430800D01*
X195580Y431800D02*
X218020D01*
X198120Y372770D02*
X218790D01*
D54*
X207264Y726440D02*
X232100Y701604D01*
Y692150D02*
Y701604D01*
X263525Y714375D02*
X264160Y713740D01*
X238520Y402710D02*
X251520Y389710D01*
Y374710D02*
Y389710D01*
X238520Y374710D02*
Y402710D01*
X232020Y339480D02*
X238760Y332740D01*
Y290450D02*
Y332740D01*
X232020Y339480D02*
Y374710D01*
X245020Y441749D02*
X246577Y443306D01*
Y448175D02*
X247151Y448749D01*
X246577Y443306D02*
Y448175D01*
X245020Y430710D02*
Y441749D01*
X253994Y442829D02*
Y443641D01*
X251460Y440295D02*
X253994Y442829D01*
X223520Y461010D02*
X224910Y459620D01*
X230450Y444124D02*
X232560Y442014D01*
X230450Y444124D02*
Y449956D01*
X232560Y452066D01*
Y501880D01*
X224910Y441829D02*
X226060Y440679D01*
Y430530D02*
Y440679D01*
X224910Y441829D02*
Y459620D01*
X232560Y437750D02*
Y442014D01*
X238100Y439420D02*
X238520Y439000D01*
Y430710D02*
Y439000D01*
X238100Y439420D02*
Y444309D01*
X232020Y437210D02*
X232560Y437750D01*
X232020Y430710D02*
Y437210D01*
X251460Y424650D02*
Y440295D01*
X223520Y510920D02*
Y511420D01*
Y510920D02*
X232560Y501880D01*
X250560Y423750D02*
X251460Y424650D01*
X250560Y423750D02*
X250560D01*
X74930Y614680D02*
Y624205D01*
X73660Y613410D02*
X74930Y614680D01*
X207010Y726440D02*
X207264D01*
X245455Y338165D02*
Y352715D01*
X245110Y337820D02*
X245455Y338165D01*
Y352715D02*
X245800Y353060D01*
X359030Y344550D02*
X359410Y344170D01*
X351410Y344550D02*
X359030D01*
X342900Y353060D02*
X351410Y344550D01*
X342900Y353060D02*
Y363220D01*
X328820D02*
X342900D01*
X298840D02*
X312420D01*
X297180Y361560D02*
X298840Y363220D01*
X280670Y362530D02*
X296210D01*
X297180Y361560D01*
Y344560D02*
X312810D01*
X313690Y345440D01*
X225520Y331320D02*
X227330Y329510D01*
X225520Y331320D02*
Y374710D01*
X258020Y368210D02*
X264930D01*
X270610Y362530D01*
X258020Y368210D02*
Y374710D01*
X270610Y362530D02*
X280670D01*
X227330Y279020D02*
X238760Y290450D01*
D55*
X194310Y786130D02*
D03*
X219710D02*
D03*
X245110D02*
D03*
X270510D02*
D03*
X295910D02*
D03*
X321310D02*
D03*
D56*
X238760Y713740D02*
D03*
X264160D02*
D03*
X228600Y67310D02*
D03*
X254000D02*
D03*
X163830Y530860D02*
D03*
X138430D02*
D03*
X165100Y494030D02*
D03*
X139700D02*
D03*
X33020Y640080D02*
D03*
Y614680D02*
D03*
D57*
X289560Y713740D02*
D03*
X279400Y67310D02*
D03*
X113030Y530860D02*
D03*
X114300Y494030D02*
D03*
D58*
X253520Y410210D02*
D03*
Y395210D02*
D03*
X238520Y410210D02*
D03*
Y395210D02*
D03*
X223520Y410210D02*
D03*
Y395210D02*
D03*
D59*
X33020Y589280D02*
D03*
D60*
X139010Y726440D02*
D03*
D61*
X80010D02*
D03*
D62*
X111010Y679440D02*
D03*
D63*
X221000Y692800D02*
D03*
X446000Y742800D02*
D03*
X471000Y692800D02*
D03*
X446000Y642800D02*
D03*
X471000Y592800D02*
D03*
Y492800D02*
D03*
X446000Y442800D02*
D03*
X471000Y392800D02*
D03*
X446000Y342800D02*
D03*
X471000Y292800D02*
D03*
X446000Y242800D02*
D03*
X471000Y192800D02*
D03*
X446000Y142800D02*
D03*
X471000Y92800D02*
D03*
X446000Y42800D02*
D03*
X396000Y742800D02*
D03*
X421000Y692800D02*
D03*
X396000Y642800D02*
D03*
Y542800D02*
D03*
X421000Y492800D02*
D03*
X396000Y442800D02*
D03*
X421000Y392800D02*
D03*
X396000Y342800D02*
D03*
X421000Y292800D02*
D03*
X396000Y242800D02*
D03*
X421000Y92800D02*
D03*
X396000Y42800D02*
D03*
X346000Y742800D02*
D03*
X371000Y692800D02*
D03*
X346000Y642800D02*
D03*
X371000Y492800D02*
D03*
Y192800D02*
D03*
Y92800D02*
D03*
X346000Y42800D02*
D03*
X296000Y742800D02*
D03*
X321000Y692800D02*
D03*
X296000Y642800D02*
D03*
Y542800D02*
D03*
Y442800D02*
D03*
X321000Y392800D02*
D03*
X296000Y242800D02*
D03*
X321000Y192800D02*
D03*
Y92800D02*
D03*
X296000Y42800D02*
D03*
X271000Y692800D02*
D03*
Y592800D02*
D03*
Y492800D02*
D03*
Y392800D02*
D03*
Y192800D02*
D03*
Y92800D02*
D03*
X246000Y42800D02*
D03*
X196000Y642800D02*
D03*
X221000Y592800D02*
D03*
X196000Y542800D02*
D03*
Y242800D02*
D03*
X221000Y192800D02*
D03*
X196000Y142800D02*
D03*
Y42800D02*
D03*
X171000Y692800D02*
D03*
X146000Y642800D02*
D03*
X171000Y592800D02*
D03*
X146000Y342800D02*
D03*
X171000Y292800D02*
D03*
X146000Y242800D02*
D03*
X171000Y192800D02*
D03*
X146000Y142800D02*
D03*
X171000Y92800D02*
D03*
X146000Y42800D02*
D03*
X96000Y742800D02*
D03*
X121000Y692800D02*
D03*
X96000Y642800D02*
D03*
X121000Y592800D02*
D03*
X96000Y542800D02*
D03*
Y442800D02*
D03*
Y342800D02*
D03*
X121000Y292800D02*
D03*
X96000Y242800D02*
D03*
X121000Y192800D02*
D03*
X96000Y142800D02*
D03*
X121000Y92800D02*
D03*
X96000Y42800D02*
D03*
X46000Y742800D02*
D03*
X71000Y692800D02*
D03*
X46000Y642800D02*
D03*
Y542800D02*
D03*
X71000Y492800D02*
D03*
X46000Y442800D02*
D03*
Y342800D02*
D03*
X71000Y292800D02*
D03*
X46000Y242800D02*
D03*
X71000Y192800D02*
D03*
X46000Y142800D02*
D03*
X71000Y92800D02*
D03*
X46000Y42800D02*
D03*
X253994Y443641D02*
D03*
X247151Y448749D02*
D03*
X237490Y447040D02*
D03*
X213360Y444500D02*
D03*
X271780Y433070D02*
D03*
X138430Y553720D02*
D03*
X144780Y468630D02*
D03*
M02*
