M48
;Layer_Color=9474304
;FILE_FORMAT=4:4
METRIC,TZ
;TYPE=PLATED
T01F00S00C0.3000
T02F00S00C0.3300
T04F00S00C1.0200
%
T01
X146000Y42800
X196000
X246000
X296000
X346000
X396000
X446000
X471000Y92800
X421000
X371000
X321000
X271000
Y192800
X321000
X371000
X396000Y242800
X446000
X471000Y292800
X421000
X471000Y192800
X446000Y142800
X296000Y242800
X196000
X146000
X171000Y292800
Y192800
X221000
X196000Y142800
X146000
X171000Y92800
X121000
X71000
X96000Y142800
X46000
X71000Y192800
X121000
X96000Y242800
X46000
X71000Y292800
X121000
X96000Y42800
X46000
Y342800
X96000
Y442800
X46000
X71000Y492800
X96000Y542800
X46000
Y642800
X96000
X121000Y692800
X71000
X121000Y592800
X138430Y553720
X196000Y542800
X221000Y592800
X271000
X296000Y642800
X346000
X396000
X446000
X471000Y692800
X421000
X371000
X321000
X271000
X221000
X171000
X196000Y642800
X146000
X171000Y592800
X144780Y468630
X213360Y444500
X237490Y447040
X247151Y448749
X253994Y443641
X271780Y433070
X296000Y442800
X321000Y392800
X271000
Y492800
X296000Y542800
X396000
X421000Y492800
X471000
X446000Y442800
X396000
X421000Y392800
X471000
X446000Y342800
X396000
X371000Y492800
X471000Y592800
X146000Y342800
X296000Y742800
X346000
X396000
X446000
X96000
X46000
T02
X223520Y395210
X238520
X253520
Y410210
X238520
X223520
T04
X228600Y67310
X254000
X279400
X139700Y494030
X114300
X113030Y530860
X138430
X33020Y589280
Y614680
Y640080
X163830Y530860
X165100Y494030
X238760Y713740
X264160
X289560
X295910Y786130
X270510
X245110
X219710
X194310
X321310
M30
